<?xml version="1.0" encoding="UTF-8" standalone="no"?>
<!-- Created with Inkscape (http://www.inkscape.org/) -->
<svg xmlns:dc="http://purl.org/dc/elements/1.1/" xmlns:cc="http://creativecommons.org/ns#" xmlns:rdf="http://www.w3.org/1999/02/22-rdf-syntax-ns#" xmlns:svg="http://www.w3.org/2000/svg" xmlns="http://www.w3.org/2000/svg" xmlns:sodipodi="http://sodipodi.sourceforge.net/DTD/sodipodi-0.dtd" xmlns:inkscape="http://www.inkscape.org/namespaces/inkscape" width="300" height="200" viewBox="0 0 79.374998 52.916668" version="1.1" id="svg8" inkscape:version="0.92.2 5c3e80d, 2017-08-06" sodipodi:docname="aosi.svg">
  <defs id="defs2">
    <clipPath clipPathUnits="userSpaceOnUse" id="clipPath18">
      <path d="M 0,595.28 H 841.89 V 0 H 0 Z" id="path16" inkscape:connector-curvature="0"/>
    </clipPath>
  </defs>
  <sodipodi:namedview id="base" pagecolor="#ffffff" bordercolor="#666666" borderopacity="1.0" inkscape:pageopacity="0.0" inkscape:pageshadow="2" inkscape:zoom="1.4" inkscape:cx="-30.555431" inkscape:cy="142.60153" inkscape:document-units="px" inkscape:current-layer="layer1" showgrid="false" units="px" inkscape:window-width="1600" inkscape:window-height="832" inkscape:window-x="0" inkscape:window-y="32" inkscape:window-maximized="1"/>
  <metadata id="metadata5">
    <rdf:RDF>
      <cc:Work rdf:about="">
        <dc:format>image/svg+xml</dc:format>
        <dc:type rdf:resource="http://purl.org/dc/dcmitype/StillImage"/>
        <dc:title/>
      </cc:Work>
    </rdf:RDF>
  </metadata>
  <g inkscape:label="Layer 1" inkscape:groupmode="layer" id="layer1" transform="translate(0,-244.08332)">
    <rect style="fill:#ffffff;fill-opacity:0.99680511;stroke:none;stroke-width:0.07016739;stroke-linecap:butt;stroke-linejoin:round;stroke-miterlimit:4;stroke-dasharray:none;stroke-opacity:1" id="rect4504" width="79.375" height="52.916668" x="-2.8421709e-14" y="244.08331"/>
    <g transform="matrix(0.12119701,0,0,-0.12119701,-11.396579,306.50461)" id="g12">
      <g id="g14" clip-path="url(#clipPath18)">
        <g id="g20" transform="translate(112.7852,156.626)">
          <path d="m 0,0 -8.785,-18.596 h 2.073 l 2.896,6.118 H 4.195 L 7.12,-18.596 H 9.127 L 0.455,0 Z m 3.391,-10.683 h -6.357 l 3.186,6.732 z m 19.702,6.195 c -1.089,0 -1.99,-0.345 -2.703,-1.036 -0.714,-0.691 -1.07,-1.559 -1.07,-2.604 0,-0.802 0.224,-1.514 0.671,-2.137 0.448,-0.624 1.292,-1.256 2.534,-1.895 1.157,-0.59 1.9,-1.079 2.229,-1.467 0.33,-0.396 0.494,-0.848 0.494,-1.352 0,-0.617 -0.249,-1.151 -0.747,-1.606 -0.499,-0.455 -1.103,-0.683 -1.812,-0.683 -1.014,0 -1.972,0.51 -2.876,1.53 L 18.7,-17.002 c 0.473,-0.607 1.07,-1.083 1.792,-1.429 0.721,-0.345 1.479,-0.518 2.272,-0.518 1.19,0 2.182,0.391 2.975,1.176 0.794,0.784 1.191,1.74 1.191,2.869 0,0.8 -0.233,1.521 -0.697,2.162 -0.473,0.632 -1.368,1.289 -2.686,1.971 -1.081,0.557 -1.79,1.042 -2.128,1.455 -0.338,0.404 -0.507,0.83 -0.507,1.276 0,0.506 0.205,0.948 0.615,1.328 0.41,0.379 0.902,0.568 1.477,0.568 0.904,0 1.829,-0.46 2.775,-1.377 l 1.138,1.174 c -1.283,1.24 -2.558,1.859 -3.824,1.859 m 16.473,-2.314 c -1.267,-1.398 -1.9,-3.051 -1.9,-4.954 0,-1.922 0.669,-3.601 2.007,-5.037 1.338,-1.437 3.062,-2.156 5.173,-2.156 2.102,0 3.822,0.719 5.16,2.156 1.338,1.436 2.007,3.115 2.007,5.037 0,1.912 -0.633,3.568 -1.899,4.968 -1.393,1.534 -3.149,2.3 -5.268,2.3 -2.127,0 -3.888,-0.771 -5.28,-2.314 m 9.06,-1.049 c 1.062,-1.087 1.592,-2.401 1.592,-3.943 0,-0.994 -0.241,-1.921 -0.723,-2.781 -0.482,-0.86 -1.133,-1.524 -1.953,-1.991 -0.821,-0.468 -1.721,-0.702 -2.702,-0.702 -0.981,0 -1.882,0.234 -2.702,0.702 -0.821,0.467 -1.472,1.131 -1.954,1.991 -0.482,0.86 -0.723,1.787 -0.723,2.781 0,1.542 0.529,2.856 1.586,3.943 1.057,1.087 2.321,1.631 3.793,1.631 1.463,0 2.725,-0.544 3.786,-1.631 m 18.036,3.363 c -1.089,0 -1.99,-0.345 -2.703,-1.036 -0.713,-0.691 -1.07,-1.559 -1.07,-2.604 0,-0.802 0.224,-1.514 0.671,-2.137 0.448,-0.624 1.293,-1.256 2.534,-1.895 1.157,-0.59 1.9,-1.079 2.23,-1.467 0.329,-0.396 0.494,-0.848 0.494,-1.352 0,-0.617 -0.25,-1.151 -0.748,-1.606 -0.498,-0.455 -1.102,-0.683 -1.812,-0.683 -1.013,0 -1.972,0.51 -2.876,1.53 l -1.112,-1.264 c 0.472,-0.607 1.069,-1.083 1.791,-1.429 0.722,-0.345 1.479,-0.518 2.273,-0.518 1.19,0 2.181,0.391 2.975,1.176 0.793,0.784 1.19,1.74 1.19,2.869 0,0.8 -0.232,1.521 -0.697,2.162 -0.473,0.632 -1.368,1.289 -2.685,1.971 -1.081,0.557 -1.791,1.042 -2.129,1.455 -0.337,0.404 -0.506,0.83 -0.506,1.276 0,0.506 0.205,0.948 0.614,1.328 0.41,0.379 0.902,0.568 1.477,0.568 0.904,0 1.829,-0.46 2.776,-1.377 l 1.137,1.174 c -1.283,1.24 -2.558,1.859 -3.824,1.859 m 14.837,4.88 c -0.285,-0.288 -0.428,-0.632 -0.428,-1.038 0,-0.395 0.143,-0.736 0.428,-1.023 0.285,-0.286 0.625,-0.43 1.019,-0.43 0.403,0 0.747,0.144 1.033,0.43 0.285,0.287 0.428,0.628 0.428,1.023 0,0.406 -0.143,0.75 -0.428,1.038 -0.286,0.286 -0.63,0.429 -1.033,0.429 -0.394,0 -0.734,-0.143 -1.019,-0.429 m 0.141,-18.988 h 1.77 v 13.754 h -1.77 z m 25.691,13.755 V -7.37 c -0.691,0.961 -1.494,1.682 -2.408,2.162 -0.915,0.479 -1.937,0.72 -3.066,0.72 -1.955,0 -3.628,-0.703 -5.018,-2.112 -1.391,-1.406 -2.086,-3.1 -2.086,-5.081 0,-2.022 0.689,-3.739 2.067,-5.15 1.378,-1.412 3.04,-2.118 4.987,-2.118 1.095,0 2.104,0.227 3.027,0.682 0.923,0.455 1.755,1.134 2.497,2.036 v -2.365 h 1.744 v 13.755 z m -1.459,-2.957 c 1.048,-1.069 1.572,-2.399 1.572,-3.99 0,-1.043 -0.233,-1.983 -0.7,-2.816 -0.468,-0.834 -1.135,-1.494 -2.002,-1.982 -0.867,-0.488 -1.784,-0.732 -2.752,-0.732 -0.96,0 -1.858,0.246 -2.696,0.739 -0.837,0.492 -1.505,1.18 -2.001,2.063 -0.497,0.885 -0.745,1.811 -0.745,2.779 0,0.975 0.246,1.902 0.739,2.778 0.492,0.875 1.155,1.555 1.988,2.039 0.834,0.483 1.743,0.726 2.728,0.726 1.531,0 2.821,-0.535 3.869,-1.604 m 18.56,3.31 c -1.089,0 -1.99,-0.345 -2.703,-1.036 -0.714,-0.691 -1.07,-1.559 -1.07,-2.604 0,-0.802 0.223,-1.514 0.671,-2.137 0.448,-0.624 1.292,-1.256 2.534,-1.895 1.157,-0.59 1.9,-1.079 2.229,-1.467 0.329,-0.396 0.494,-0.848 0.494,-1.352 0,-0.617 -0.249,-1.151 -0.747,-1.606 -0.499,-0.455 -1.103,-0.683 -1.812,-0.683 -1.014,0 -1.973,0.51 -2.876,1.53 l -1.113,-1.264 c 0.473,-0.607 1.07,-1.083 1.792,-1.429 0.721,-0.345 1.479,-0.518 2.272,-0.518 1.19,0 2.182,0.391 2.975,1.176 0.794,0.784 1.19,1.74 1.19,2.869 0,0.8 -0.232,1.521 -0.696,2.162 -0.473,0.632 -1.368,1.289 -2.686,1.971 -1.081,0.557 -1.79,1.042 -2.128,1.455 -0.338,0.404 -0.507,0.83 -0.507,1.276 0,0.506 0.205,0.948 0.615,1.328 0.41,0.379 0.902,0.568 1.477,0.568 0.903,0 1.829,-0.46 2.775,-1.377 l 1.138,1.174 c -1.283,1.24 -2.558,1.859 -3.824,1.859 m 14.837,4.88 c -0.286,-0.288 -0.428,-0.632 -0.428,-1.038 0,-0.395 0.142,-0.736 0.428,-1.023 0.285,-0.286 0.625,-0.43 1.019,-0.43 0.403,0 0.747,0.144 1.032,0.43 0.285,0.287 0.428,0.628 0.428,1.023 0,0.406 -0.143,0.75 -0.428,1.038 -0.285,0.286 -0.629,0.429 -1.032,0.429 -0.394,0 -0.734,-0.143 -1.019,-0.429 m 0.141,-18.988 h 1.77 v 13.754 h -1.77 z m 33.484,17.768 c -1.492,-0.864 -2.67,-2.059 -3.535,-3.584 -0.864,-1.525 -1.296,-3.182 -1.296,-4.968 0,-2.68 0.948,-4.964 2.846,-6.851 1.897,-1.888 4.224,-2.831 6.982,-2.831 2.724,0 5.032,0.948 6.925,2.843 1.893,1.897 2.84,4.205 2.84,6.928 0,2.747 -0.949,5.06 -2.846,6.939 -1.897,1.879 -4.254,2.82 -7.071,2.82 -1.737,0 -3.352,-0.432 -4.845,-1.296 m 8.903,-1.587 c 1.249,-0.717 2.218,-1.672 2.906,-2.866 0.688,-1.194 1.032,-2.529 1.032,-4.004 0,-1.485 -0.344,-2.834 -1.032,-4.048 -0.688,-1.215 -1.646,-2.172 -2.874,-2.872 -1.229,-0.7 -2.564,-1.05 -4.008,-1.05 -2.161,0 -4.007,0.761 -5.539,2.283 -1.532,1.523 -2.298,3.389 -2.298,5.599 0,1.493 0.346,2.846 1.038,4.061 0.692,1.213 1.655,2.18 2.887,2.897 1.232,0.717 2.537,1.075 3.912,1.075 1.402,0 2.727,-0.358 3.976,-1.075 m 17.607,-21.211 h 1.77 v 7.395 c 0.74,-0.902 1.57,-1.581 2.487,-2.036 0.918,-0.455 1.924,-0.682 3.018,-0.682 1.945,0 3.606,0.706 4.982,2.118 1.377,1.411 2.065,3.128 2.065,5.15 0,1.981 -0.695,3.675 -2.084,5.081 -1.389,1.409 -3.06,2.112 -5.013,2.112 -1.12,0 -2.134,-0.241 -3.043,-0.72 -0.91,-0.48 -1.714,-1.201 -2.412,-2.162 v 2.529 h -1.77 z m 9.803,16.706 c 0.832,-0.484 1.494,-1.164 1.986,-2.039 0.492,-0.876 0.738,-1.803 0.738,-2.778 0,-0.968 -0.248,-1.894 -0.744,-2.779 -0.496,-0.883 -1.162,-1.571 -1.999,-2.063 -0.837,-0.493 -1.73,-0.739 -2.68,-0.739 -0.967,0 -1.885,0.244 -2.756,0.732 -0.87,0.488 -1.538,1.148 -2.005,1.982 -0.467,0.833 -0.7,1.773 -0.7,2.816 0,1.591 0.523,2.921 1.57,3.99 1.047,1.069 2.335,1.604 3.866,1.604 0.983,0 1.892,-0.243 2.724,-0.726 m 26.188,-9.063 c -0.464,-0.404 -1.027,-0.726 -1.69,-0.97 -0.662,-0.243 -1.343,-0.365 -2.044,-0.365 -1.451,0 -2.67,0.51 -3.657,1.532 -0.987,1.021 -1.498,2.331 -1.532,3.929 h 12.376 c -0.017,1.878 -0.523,3.446 -1.518,4.702 -1.401,1.778 -3.273,2.667 -5.618,2.667 -2.277,0 -4.095,-0.868 -5.453,-2.604 -1.071,-1.365 -1.607,-2.921 -1.607,-4.664 0,-1.854 0.633,-3.516 1.898,-4.987 1.265,-1.47 3.02,-2.206 5.263,-2.206 1.012,0 1.919,0.154 2.721,0.462 0.801,0.306 1.522,0.756 2.163,1.345 0.641,0.59 1.207,1.366 1.696,2.327 l -1.492,0.784 c -0.54,-0.9 -1.042,-1.549 -1.506,-1.952 m -8.746,5.655 c 0.363,1.265 0.899,2.213 1.608,2.845 0.97,0.867 2.13,1.301 3.48,1.301 0.819,0 1.599,-0.172 2.342,-0.518 0.742,-0.345 1.339,-0.8 1.791,-1.365 0.451,-0.565 0.795,-1.319 1.031,-2.263 z m 23.782,-8.268 h 1.77 v 5.044 c 0,1.813 0.084,3.06 0.253,3.742 0.269,1.045 0.828,1.921 1.675,2.629 0.847,0.708 1.806,1.063 2.876,1.063 0.936,0 1.694,-0.231 2.276,-0.69 0.581,-0.46 0.975,-1.143 1.18,-2.053 0.131,-0.532 0.197,-1.589 0.197,-3.173 v -6.562 h 1.769 v 7.079 c 0,1.871 -0.189,3.249 -0.568,4.135 -0.38,0.885 -0.967,1.588 -1.764,2.111 -0.796,0.522 -1.708,0.783 -2.736,0.783 -1.012,0 -1.947,-0.234 -2.807,-0.701 -0.859,-0.468 -1.643,-1.174 -2.351,-2.118 v 2.466 h -1.77 z m 40.435,0.437 c 0.918,-0.603 1.942,-0.903 3.072,-0.903 1.466,0 2.711,0.497 3.735,1.491 1.024,0.995 1.536,2.166 1.536,3.513 0,0.937 -0.299,1.868 -0.898,2.794 -0.598,0.928 -1.702,1.986 -3.312,3.174 -1.357,1.003 -2.157,1.621 -2.401,1.858 -0.447,0.447 -0.755,0.86 -0.923,1.239 -0.169,0.379 -0.253,0.77 -0.253,1.175 0,0.666 0.238,1.227 0.714,1.681 0.476,0.455 1.089,0.683 1.839,0.683 0.582,0 1.119,-0.148 1.612,-0.442 0.493,-0.295 1.089,-0.907 1.789,-1.833 l 1.517,1.15 c -0.851,1.163 -1.658,1.962 -2.421,2.395 -0.763,0.435 -1.582,0.652 -2.459,0.652 -0.826,0 -1.59,-0.193 -2.294,-0.575 -0.704,-0.384 -1.249,-0.91 -1.637,-1.575 -0.388,-0.666 -0.581,-1.402 -0.581,-2.212 0,-1.019 0.328,-1.967 0.986,-2.844 0.379,-0.523 1.344,-1.369 2.894,-2.54 1.543,-1.163 2.604,-2.159 3.186,-2.985 0.421,-0.597 0.632,-1.209 0.632,-1.833 0,-0.547 -0.144,-1.065 -0.43,-1.553 -0.287,-0.49 -0.704,-0.879 -1.251,-1.17 -0.548,-0.29 -1.134,-0.436 -1.757,-0.436 -1.458,0 -2.743,1.024 -3.856,3.071 l -1.58,-0.947 c 0.775,-1.416 1.622,-2.426 2.541,-3.028 m 21.497,11.357 c -1.265,-1.398 -1.898,-3.051 -1.898,-4.954 0,-1.922 0.668,-3.601 2.006,-5.037 1.338,-1.437 3.062,-2.156 5.174,-2.156 2.101,0 3.822,0.719 5.16,2.156 1.338,1.436 2.006,3.115 2.006,5.037 0,1.912 -0.633,3.568 -1.899,4.968 -1.394,1.534 -3.148,2.3 -5.267,2.3 -2.129,0 -3.889,-0.771 -5.282,-2.314 m 9.061,-1.049 c 1.061,-1.087 1.592,-2.401 1.592,-3.943 0,-0.994 -0.241,-1.921 -0.723,-2.781 -0.482,-0.86 -1.133,-1.524 -1.953,-1.991 -0.82,-0.468 -1.722,-0.702 -2.703,-0.702 -0.981,0 -1.881,0.234 -2.701,0.702 -0.821,0.467 -1.471,1.131 -1.954,1.991 -0.482,0.86 -0.722,1.787 -0.722,2.781 0,1.542 0.527,2.856 1.584,3.943 1.057,1.087 2.322,1.631 3.793,1.631 1.463,0 2.725,-0.544 3.787,-1.631 m 14.719,-3.614 c 0,-1.955 0.22,-3.421 0.662,-4.393 0.443,-0.973 1.113,-1.732 2.01,-2.275 0.898,-0.545 2.016,-0.816 3.357,-0.816 1.34,0 2.455,0.271 3.344,0.816 0.888,0.543 1.554,1.295 1.996,2.256 0.443,0.961 0.664,2.389 0.664,4.285 v 6.751 h -1.808 v -6.423 c 0,-1.718 -0.089,-2.843 -0.266,-3.375 -0.26,-0.775 -0.736,-1.4 -1.424,-1.877 -0.688,-0.475 -1.526,-0.713 -2.513,-0.713 -0.987,0 -1.838,0.244 -2.551,0.733 -0.713,0.488 -1.196,1.154 -1.449,1.997 -0.169,0.59 -0.254,1.669 -0.254,3.235 v 6.423 h -1.768 z m 23.578,-7.131 h 1.808 v 4.653 c 0,2.384 0.11,3.968 0.329,4.753 0.287,1.02 0.703,1.772 1.251,2.255 0.548,0.486 1.118,0.728 1.707,0.728 0.252,0 0.565,-0.08 0.936,-0.24 l 0.922,1.492 c -0.556,0.31 -1.078,0.467 -1.568,0.467 -0.649,0 -1.272,-0.196 -1.87,-0.587 -0.599,-0.392 -1.168,-0.985 -1.707,-1.777 v 2.011 h -1.808 z m 28.586,12.604 c -0.59,0.447 -1.308,0.808 -2.155,1.087 -0.847,0.278 -1.726,0.417 -2.636,0.417 -1.45,0 -2.76,-0.321 -3.93,-0.96 -1.173,-0.641 -2.093,-1.532 -2.763,-2.674 -0.67,-1.143 -1.005,-2.378 -1.005,-3.71 0,-1.981 0.716,-3.662 2.149,-5.044 1.432,-1.382 3.236,-2.073 5.41,-2.073 1.416,0 2.678,0.272 3.786,0.819 1.108,0.546 1.991,1.314 2.648,2.304 l -1.403,0.922 c -1.279,-1.61 -2.929,-2.414 -4.949,-2.414 -1.103,0 -2.098,0.244 -2.986,0.732 -0.887,0.488 -1.586,1.175 -2.096,2.059 -0.51,0.882 -0.764,1.826 -0.764,2.828 0,1.54 0.553,2.848 1.66,3.927 1.108,1.077 2.498,1.616 4.173,1.616 2.096,0 3.75,-0.805 4.962,-2.414 l 1.403,0.872 c -0.413,0.691 -0.914,1.259 -1.504,1.706 m 23.262,-9.991 c -0.465,-0.404 -1.028,-0.726 -1.69,-0.97 -0.662,-0.243 -1.344,-0.365 -2.043,-0.365 -1.451,0 -2.671,0.51 -3.658,1.532 -0.988,1.021 -1.498,2.331 -1.532,3.929 h 12.375 c -0.016,1.878 -0.522,3.446 -1.518,4.702 -1.399,1.778 -3.272,2.667 -5.616,2.667 -2.279,0 -4.096,-0.868 -5.453,-2.604 -1.073,-1.365 -1.608,-2.921 -1.608,-4.664 0,-1.854 0.632,-3.516 1.899,-4.987 1.264,-1.47 3.018,-2.206 5.262,-2.206 1.012,0 1.919,0.154 2.72,0.462 0.803,0.306 1.523,0.756 2.164,1.345 0.642,0.59 1.206,1.366 1.695,2.327 l -1.491,0.784 c -0.54,-0.9 -1.042,-1.549 -1.506,-1.952 m -8.746,5.655 c 0.363,1.265 0.9,2.213 1.607,2.845 0.971,0.867 2.131,1.301 3.481,1.301 0.818,0 1.599,-0.172 2.341,-0.518 0.743,-0.345 1.34,-0.8 1.791,-1.365 0.452,-0.565 0.796,-1.319 1.032,-2.263 z m 39.259,-8.268 h 1.858 V 0 h -1.858 z m 14.112,0 h 1.769 v 5.044 c 0,1.813 0.085,3.06 0.253,3.742 0.27,1.045 0.828,1.921 1.676,2.629 0.846,0.708 1.805,1.063 2.877,1.063 0.934,0 1.693,-0.231 2.274,-0.69 0.582,-0.46 0.976,-1.143 1.181,-2.053 0.13,-0.532 0.196,-1.589 0.196,-3.173 v -6.562 h 1.77 v 7.079 c 0,1.871 -0.19,3.249 -0.569,4.135 -0.379,0.885 -0.967,1.588 -1.763,2.111 -0.796,0.522 -1.709,0.783 -2.737,0.783 -1.011,0 -1.947,-0.234 -2.806,-0.701 -0.86,-0.468 -1.644,-1.174 -2.352,-2.118 v 2.466 h -1.769 z M 492.25,0.468 V -7.37 c -0.69,0.961 -1.494,1.682 -2.408,2.162 -0.914,0.479 -1.936,0.72 -3.066,0.72 -1.955,0 -3.628,-0.703 -5.018,-2.112 -1.39,-1.406 -2.086,-3.1 -2.086,-5.081 0,-2.022 0.689,-3.739 2.067,-5.15 1.378,-1.412 3.04,-2.118 4.988,-2.118 1.094,0 2.104,0.227 3.026,0.682 0.923,0.455 1.755,1.134 2.497,2.036 v -2.365 h 1.744 V 0.468 Z m -1.458,-8.266 c 1.048,-1.069 1.572,-2.399 1.572,-3.99 0,-1.043 -0.234,-1.983 -0.701,-2.816 -0.467,-0.834 -1.134,-1.494 -2.001,-1.982 -0.867,-0.488 -1.785,-0.732 -2.753,-0.732 -0.96,0 -1.858,0.246 -2.696,0.739 -0.837,0.492 -1.504,1.18 -2.001,2.063 -0.496,0.885 -0.745,1.811 -0.745,2.779 0,0.975 0.246,1.902 0.739,2.778 0.492,0.875 1.155,1.555 1.989,2.039 0.833,0.483 1.742,0.726 2.727,0.726 1.532,0 2.822,-0.535 3.87,-1.604 m 16.724,0.996 c -1.267,-1.398 -1.9,-3.051 -1.9,-4.954 0,-1.922 0.669,-3.601 2.007,-5.037 1.338,-1.437 3.063,-2.156 5.173,-2.156 2.102,0 3.822,0.719 5.16,2.156 1.338,1.436 2.007,3.115 2.007,5.037 0,1.912 -0.633,3.568 -1.899,4.968 -1.393,1.534 -3.149,2.3 -5.268,2.3 -2.128,0 -3.888,-0.771 -5.28,-2.314 m 9.06,-1.049 c 1.063,-1.087 1.592,-2.401 1.592,-3.943 0,-0.994 -0.24,-1.921 -0.723,-2.781 -0.482,-0.86 -1.133,-1.524 -1.953,-1.991 -0.821,-0.468 -1.721,-0.702 -2.703,-0.702 -0.98,0 -1.881,0.234 -2.701,0.702 -0.82,0.467 -1.472,1.131 -1.954,1.991 -0.482,0.86 -0.723,1.787 -0.723,2.781 0,1.542 0.528,2.856 1.585,3.943 1.059,1.087 2.322,1.631 3.793,1.631 1.464,0 2.727,-0.544 3.787,-1.631 m 14.945,-10.745 h 1.77 v 5.044 c 0,1.813 0.084,3.06 0.253,3.742 0.27,1.045 0.828,1.921 1.675,2.629 0.847,0.708 1.806,1.063 2.877,1.063 0.935,0 1.694,-0.231 2.275,-0.69 0.581,-0.46 0.976,-1.143 1.18,-2.053 0.132,-0.532 0.197,-1.589 0.197,-3.173 v -6.562 h 1.771 v 7.079 c 0,1.871 -0.191,3.249 -0.57,4.135 -0.379,0.885 -0.967,1.588 -1.763,2.111 -0.796,0.522 -1.708,0.783 -2.737,0.783 -1.012,0 -1.947,-0.234 -2.806,-0.701 -0.86,-0.468 -1.644,-1.174 -2.352,-2.118 v 2.466 h -1.77 z m 34.146,2.613 c -0.464,-0.404 -1.026,-0.726 -1.689,-0.97 -0.663,-0.243 -1.344,-0.365 -2.044,-0.365 -1.452,0 -2.67,0.51 -3.658,1.532 -0.987,1.021 -1.498,2.331 -1.532,3.929 h 12.376 c -0.016,1.878 -0.522,3.446 -1.517,4.702 -1.402,1.778 -3.274,2.667 -5.619,2.667 -2.277,0 -4.094,-0.868 -5.453,-2.604 -1.071,-1.365 -1.607,-2.921 -1.607,-4.664 0,-1.854 0.634,-3.516 1.898,-4.987 1.265,-1.47 3.02,-2.206 5.263,-2.206 1.013,0 1.919,0.154 2.722,0.462 0.8,0.306 1.521,0.756 2.162,1.345 0.641,0.59 1.207,1.366 1.696,2.327 l -1.492,0.784 c -0.54,-0.9 -1.042,-1.549 -1.506,-1.952 m -8.746,5.655 c 0.363,1.265 0.899,2.213 1.608,2.845 0.97,0.867 2.13,1.301 3.48,1.301 0.819,0 1.599,-0.172 2.343,-0.518 0.742,-0.345 1.338,-0.8 1.791,-1.365 0.451,-0.565 0.794,-1.319 1.03,-2.263 z m 26.873,5.84 c -1.089,0 -1.989,-0.345 -2.703,-1.036 -0.714,-0.691 -1.07,-1.559 -1.07,-2.604 0,-0.802 0.224,-1.514 0.671,-2.137 0.449,-0.624 1.292,-1.256 2.535,-1.895 1.156,-0.59 1.899,-1.079 2.228,-1.467 0.33,-0.396 0.494,-0.848 0.494,-1.352 0,-0.617 -0.249,-1.151 -0.747,-1.606 -0.499,-0.455 -1.102,-0.683 -1.811,-0.683 -1.015,0 -1.973,0.51 -2.876,1.53 l -1.114,-1.264 c 0.473,-0.607 1.071,-1.083 1.792,-1.429 0.721,-0.345 1.479,-0.518 2.272,-0.518 1.19,0 2.182,0.391 2.975,1.176 0.794,0.784 1.191,1.74 1.191,2.869 0,0.8 -0.233,1.521 -0.696,2.162 -0.474,0.632 -1.369,1.289 -2.687,1.971 -1.081,0.557 -1.79,1.042 -2.128,1.455 -0.338,0.404 -0.507,0.83 -0.507,1.276 0,0.506 0.205,0.948 0.616,1.328 0.41,0.379 0.901,0.568 1.476,0.568 0.904,0 1.829,-0.46 2.775,-1.377 l 1.138,1.174 c -1.283,1.24 -2.557,1.859 -3.824,1.859 m 14.837,4.88 c -0.285,-0.288 -0.428,-0.632 -0.428,-1.038 0,-0.395 0.143,-0.736 0.428,-1.023 0.285,-0.286 0.625,-0.43 1.019,-0.43 0.403,0 0.747,0.144 1.033,0.43 0.284,0.287 0.427,0.628 0.427,1.023 0,0.406 -0.143,0.75 -0.427,1.038 -0.286,0.286 -0.63,0.429 -1.033,0.429 -0.394,0 -0.734,-0.143 -1.019,-0.429 m 0.141,-18.988 h 1.77 v 13.754 h -1.77 z m 25.69,13.755 V -7.37 c -0.691,0.961 -1.493,1.682 -2.407,2.162 -0.914,0.479 -1.937,0.72 -3.066,0.72 -1.955,0 -3.628,-0.703 -5.018,-2.112 -1.391,-1.406 -2.086,-3.1 -2.086,-5.081 0,-2.022 0.689,-3.739 2.066,-5.15 1.378,-1.412 3.041,-2.118 4.987,-2.118 1.096,0 2.105,0.227 3.028,0.682 0.924,0.455 1.756,1.134 2.496,2.036 v -2.365 h 1.745 v 13.755 z m -1.458,-2.957 c 1.049,-1.069 1.572,-2.399 1.572,-3.99 0,-1.043 -0.234,-1.983 -0.701,-2.816 -0.467,-0.834 -1.134,-1.494 -2.001,-1.982 -0.867,-0.488 -1.784,-0.732 -2.752,-0.732 -0.96,0 -1.858,0.246 -2.696,0.739 -0.838,0.492 -1.505,1.18 -2.002,2.063 -0.496,0.885 -0.743,1.811 -0.743,2.779 0,0.975 0.245,1.902 0.737,2.778 0.493,0.875 1.155,1.555 1.989,2.039 0.833,0.483 1.742,0.726 2.727,0.726 1.532,0 2.822,-0.535 3.87,-1.604" style="fill:#231f20;fill-opacity:1;fill-rule:nonzero;stroke:none" id="path22" inkscape:connector-curvature="0"/>
        </g>
        <g id="g24" transform="translate(266.375,190.7852)">
          <path d="m 0,0 v 128.38 h -95.518 c 0,0 -57.837,1.315 -60.028,-60.026 V -0.154 h 20.155 V 53.455 H -20.155 V 0 Z m -20.593,74.049 h -114.359 c 0,0 1.314,33.301 37.243,33.358 h 77.116 z" style="fill:#005494;fill-opacity:1;fill-rule:nonzero;stroke:none" id="path26" inkscape:connector-curvature="0"/>
        </g>
        <path d="m 717.24,190.193 h 19.717 V 318.887 H 717.24 Z" style="fill:#005494;fill-opacity:1;fill-rule:nonzero;stroke:none" id="path28" inkscape:connector-curvature="0"/>
        <g id="g30" transform="translate(506.9434,327.1211)">
          <path d="m 0,0 c -26.629,50.08 -94.305,66.172 -151.16,35.941 -56.856,-30.23 -81.36,-95.335 -54.731,-145.415 26.628,-50.08 94.305,-66.172 151.16,-35.941 C 2.123,-115.185 26.628,-50.08 0,0 m -74.926,-104.02 c -38.549,-21.369 -84.796,-11.638 -103.294,21.733 -18.498,33.372 -2.243,77.747 36.306,99.115 38.55,21.369 84.796,11.638 103.294,-21.734 18.499,-33.371 2.243,-77.746 -36.306,-99.114" style="fill:#71a140;fill-opacity:1;fill-rule:nonzero;stroke:none" id="path32" inkscape:connector-curvature="0"/>
        </g>
        <g id="g34" transform="translate(337.8081,404.4385)">
          <path d="m 0,0 c -9.842,14.73 -37.768,13.344 -62.374,-3.098 -24.605,-16.441 -36.574,-41.71 -26.731,-56.44 9.842,-14.73 37.768,-13.343 62.373,3.099 C -2.126,-39.999 9.842,-14.729 0,0 m -33.532,-45.795 c -16.437,-10.472 -34.893,-10.904 -41.224,-0.968 -6.33,9.938 1.862,26.482 18.3,36.953 16.437,10.471 34.893,10.906 41.224,0.968 6.33,-9.936 -1.863,-26.48 -18.3,-36.953" style="fill:#f26927;fill-opacity:1;fill-rule:nonzero;stroke:none" id="path36" inkscape:connector-curvature="0"/>
        </g>
        <g id="g38" transform="translate(380.9604,453.5088)">
          <path d="m 0,0 c -3.567,8.011 -18.176,9.288 -32.632,2.852 -14.455,-6.436 -23.282,-18.147 -19.715,-26.158 3.567,-8.012 18.176,-9.289 32.632,-2.853 C -5.26,-19.723 3.567,-8.011 0,0 m -22.746,-19.599 c -8.415,-3.747 -16.892,-3.069 -18.933,1.515 -2.041,4.584 3.127,11.338 11.542,15.084 8.416,3.747 16.892,3.069 18.933,-1.515 2.041,-4.584 -3.127,-11.338 -11.542,-15.084" style="fill:#828383;fill-opacity:1;fill-rule:nonzero;stroke:none" id="path40" inkscape:connector-curvature="0"/>
        </g>
        <g id="g42" transform="translate(535.4043,244.6787)">
          <path d="m 0,0 h 134.076 c 0,0 -0.876,-34.176 -38.119,-34.176 H 0 v -20.156 h 98.147 c 0,0 42.94,0 52.58,38.12 0,0 4.381,14.022 5.695,35.929 H 22.784 c 0,0 2.103,33.797 35.929,33.797 h 97.874 V 74.049 H 58.275 c 0,0 -40.398,0.166 -52.579,-38.12 C 5.696,35.929 0.306,23.222 0,0" style="fill:#005494;fill-opacity:1;fill-rule:nonzero;stroke:none" id="path44" inkscape:connector-curvature="0"/>
        </g>
      </g>
    </g>
  </g>
</svg>