<?xml version="1.0" encoding="UTF-8" standalone="no"?>
<!-- Created with Inkscape (http://www.inkscape.org/) -->
<svg xmlns:dc="http://purl.org/dc/elements/1.1/" xmlns:cc="http://creativecommons.org/ns#" xmlns:rdf="http://www.w3.org/1999/02/22-rdf-syntax-ns#" xmlns:svg="http://www.w3.org/2000/svg" xmlns="http://www.w3.org/2000/svg" xmlns:sodipodi="http://sodipodi.sourceforge.net/DTD/sodipodi-0.dtd" xmlns:inkscape="http://www.inkscape.org/namespaces/inkscape" width="300" height="200" viewBox="0 0 79.374998 52.916668" version="1.1" id="svg8" inkscape:version="0.92.2 5c3e80d, 2017-08-06" sodipodi:docname="BEKRAF.svg">
  <defs id="defs2">
    <clipPath clipPathUnits="userSpaceOnUse" id="clipPath18">
      <path d="M 0,595.28 H 595.276 V 0 H 0 Z" id="path16" inkscape:connector-curvature="0"/>
    </clipPath>
  </defs>
  <sodipodi:namedview id="base" pagecolor="#ffffff" bordercolor="#666666" borderopacity="1.0" inkscape:pageopacity="0.0" inkscape:pageshadow="2" inkscape:zoom="1.4" inkscape:cx="162.87748" inkscape:cy="109.76345" inkscape:document-units="px" inkscape:current-layer="layer1" showgrid="false" units="px" inkscape:window-width="1600" inkscape:window-height="832" inkscape:window-x="0" inkscape:window-y="32" inkscape:window-maximized="1"/>
  <metadata id="metadata5">
    <rdf:RDF>
      <cc:Work rdf:about="">
        <dc:format>image/svg+xml</dc:format>
        <dc:type rdf:resource="http://purl.org/dc/dcmitype/StillImage"/>
        <dc:title/>
      </cc:Work>
    </rdf:RDF>
  </metadata>
  <g inkscape:label="Layer 1" inkscape:groupmode="layer" id="layer1" transform="translate(0,-244.08332)">
    <rect style="fill:#ffffff;fill-opacity:0.99680511;stroke:none;stroke-width:0.07016739;stroke-linecap:butt;stroke-linejoin:round;stroke-miterlimit:4;stroke-dasharray:none;stroke-opacity:1" id="rect4504" width="79.375" height="52.916668" x="-2.8421709e-14" y="244.08331"/>
    <g transform="matrix(0.14934032,0,0,-0.14934032,-4.7618318,314.99122)" id="g12">
      <g id="g14" clip-path="url(#clipPath18)">
        <g id="g20" transform="translate(453.6499,411.9312)">
          <path d="m 0,0 c -3.301,-1.367 -4.867,-5.148 -3.5,-8.453 1.371,-3.297 5.152,-4.863 8.453,-3.496 3.301,1.367 4.867,5.148 3.5,8.453 C 7.086,-0.199 3.301,1.367 0,0" style="fill:#ae986e;fill-opacity:1;fill-rule:nonzero;stroke:none" id="path22" inkscape:connector-curvature="0"/>
        </g>
        <g id="g24" transform="translate(411.4624,447.1226)">
          <path d="m 0,0 c -1.367,-3.301 0.195,-7.082 3.496,-8.453 3.301,-1.363 7.086,0.203 8.453,3.504 C 13.313,-1.648 11.75,2.133 8.449,3.5 5.148,4.867 1.363,3.301 0,0" style="fill:#ae986e;fill-opacity:1;fill-rule:nonzero;stroke:none" id="path26" inkscape:connector-curvature="0"/>
        </g>
        <g id="g28" transform="translate(356.7437,442.1733)">
          <path d="m 0,0 c 1.371,-3.301 5.148,-4.867 8.449,-3.504 3.301,1.371 4.864,5.152 3.504,8.453 C 10.586,8.25 6.801,9.816 3.5,8.449 0.199,7.082 -1.363,3.301 0,0" style="fill:#ae986e;fill-opacity:1;fill-rule:nonzero;stroke:none" id="path30" inkscape:connector-curvature="0"/>
        </g>
        <g id="g32" transform="translate(321.5562,399.9819)">
          <path d="M 0,0 C 3.297,-1.367 7.078,0.199 8.445,3.496 9.813,6.797 8.246,10.578 4.945,11.949 1.645,13.316 -2.141,11.75 -3.5,8.453 -4.875,5.148 -3.305,1.367 0,0" style="fill:#ae986e;fill-opacity:1;fill-rule:nonzero;stroke:none" id="path34" inkscape:connector-curvature="0"/>
        </g>
        <g id="g36" transform="translate(326.5093,345.2632)">
          <path d="M 0,0 C 3.293,1.367 4.859,5.152 3.492,8.449 2.125,11.75 -1.656,13.32 -4.957,11.953 -8.258,10.582 -9.828,6.801 -8.453,3.5 -7.094,0.203 -3.309,-1.367 0,0" style="fill:#ae986e;fill-opacity:1;fill-rule:nonzero;stroke:none" id="path38" inkscape:connector-curvature="0"/>
        </g>
        <g id="g40" transform="translate(368.6968,310.0757)">
          <path d="m 0,0 c 1.359,3.297 -0.203,7.082 -3.504,8.449 -3.301,1.367 -7.078,-0.199 -8.449,-3.504 -1.363,-3.3 0.199,-7.082 3.5,-8.449 C -5.152,-4.871 -1.367,-3.305 0,0" style="fill:#ae986e;fill-opacity:1;fill-rule:nonzero;stroke:none" id="path42" inkscape:connector-curvature="0"/>
        </g>
        <g id="g44" transform="translate(423.4116,315.021)">
          <path d="m 0,0 c -1.367,3.305 -5.152,4.871 -8.453,3.504 -3.293,-1.367 -4.863,-5.152 -3.496,-8.449 1.363,-3.305 5.148,-4.871 8.449,-3.504 C -0.199,-7.082 1.363,-3.301 0,0" style="fill:#ae986e;fill-opacity:1;fill-rule:nonzero;stroke:none" id="path46" inkscape:connector-curvature="0"/>
        </g>
        <g id="g48" transform="translate(458.603,357.2163)">
          <path d="m 0,0 c -3.301,1.367 -7.082,-0.203 -8.453,-3.504 -1.367,-3.297 0.199,-7.082 3.5,-8.449 3.301,-1.367 7.086,0.199 8.457,3.504 C 4.867,-5.148 3.301,-1.371 0,0" style="fill:#ae986e;fill-opacity:1;fill-rule:nonzero;stroke:none" id="path50" inkscape:connector-curvature="0"/>
        </g>
        <g id="g52" transform="translate(342.3999,378.5991)">
          <path d="M 0,0 C 10.43,-4.562 20.016,-11.086 28.305,-19.375 36.613,-27.68 43.141,-37.289 47.707,-47.738 57.043,-26.445 74.18,-9.32 95.48,0 74.18,9.32 57.043,26.445 47.707,47.738 43.141,37.289 36.613,27.68 28.305,19.371 20.016,11.086 10.43,4.562 0,0 M 55.375,-84.731 H 39.977 c 0,20.575 -8.012,39.922 -22.563,54.469 -14.547,14.551 -33.891,22.563 -54.469,22.563 V 7.699 c 20.582,0 39.922,8.012 54.469,22.563 14.551,14.547 22.566,33.894 22.563,54.468 h 15.398 c 0,-42.472 34.559,-77.031 77.031,-77.031 V -7.699 c -42.472,0 -77.031,-34.559 -77.031,-77.032" style="fill:#ae986e;fill-opacity:1;fill-rule:nonzero;stroke:none" id="path54" inkscape:connector-curvature="0"/>
        </g>
        <g id="g56" transform="translate(359.3452,398.4468)">
          <path d="M 0,0 -25.293,25.289 -14.41,36.176 10.883,10.891 Z" style="fill:#ae986e;fill-opacity:1;fill-rule:nonzero;stroke:none" id="path58" inkscape:connector-curvature="0"/>
        </g>
        <path d="m 344.857,434.544 h -10.785 v -10.789 h 10.785 z" style="fill:#ae986e;fill-opacity:1;fill-rule:nonzero;stroke:none" id="path60" inkscape:connector-curvature="0"/>
        <g id="g62" transform="translate(420.814,398.4468)">
          <path d="M 0,0 -10.891,10.891 14.406,36.176 25.293,25.289 Z" style="fill:#ae986e;fill-opacity:1;fill-rule:nonzero;stroke:none" id="path64" inkscape:connector-curvature="0"/>
        </g>
        <g id="g66" transform="translate(435.2983,423.7554)">
          <path d="M 0,0 0.004,10.789 H 10.789 V 0 Z" style="fill:#ae986e;fill-opacity:1;fill-rule:nonzero;stroke:none" id="path68" inkscape:connector-curvature="0"/>
        </g>
        <g id="g70" transform="translate(344.9351,322.5718)">
          <path d="M 0,0 -10.883,10.891 14.41,36.18 25.293,25.289 Z" style="fill:#ae986e;fill-opacity:1;fill-rule:nonzero;stroke:none" id="path72" inkscape:connector-curvature="0"/>
        </g>
        <path d="m 344.857,322.654 h -10.785 v 10.789 h 10.785 z" style="fill:#ae986e;fill-opacity:1;fill-rule:nonzero;stroke:none" id="path74" inkscape:connector-curvature="0"/>
        <g id="g76" transform="translate(435.2202,322.5718)">
          <path d="M 0,0 -25.297,25.289 -14.406,36.18 10.887,10.891 Z" style="fill:#ae986e;fill-opacity:1;fill-rule:nonzero;stroke:none" id="path78" inkscape:connector-curvature="0"/>
        </g>
        <g id="g80" transform="translate(435.2983,333.4429)">
          <path d="M 0,0 0.004,-10.789 H 10.789 V 0 Z" style="fill:#ae986e;fill-opacity:1;fill-rule:nonzero;stroke:none" id="path82" inkscape:connector-curvature="0"/>
        </g>
        <g id="g84" transform="translate(420.8882,247.8525)">
          <path d="M 0,0 H 46.219 V 15.406 H 0 -8.664 -23.105 V 0 h 3.207 c 4.453,0 4.496,-5.395 4.496,-5.395 V -77.23 H 0 v 38.515 h 38.516 v 15.403 H 0 Z" style="fill:#000000;fill-opacity:1;fill-rule:nonzero;stroke:none" id="path86" inkscape:connector-curvature="0"/>
        </g>
        <g id="g88" transform="translate(336.853,209.1377)">
          <path d="m 0,0 11.574,38.512 h 2.035 L 25.18,0 Z M 36.754,-38.516 H 52.836 L 25.07,53.918 H -11.922 V 38.512 h 1.512 c 3.848,0 4.863,-3.446 4.473,-4.735 l -21.719,-72.293 h 16.086 l 6.941,23.11 h 34.441 z" style="fill:#000000;fill-opacity:1;fill-rule:nonzero;stroke:none" id="path90" inkscape:connector-curvature="0"/>
        </g>
        <g id="g92" transform="translate(170.4858,309.4116)">
          <path d="M 0,0 H -26.906 V 25.52 L 0,25.465 c 7.016,0 12.727,-5.715 12.727,-12.731 C 12.727,5.707 7.016,0 0,0 m 6.867,50.043 c 0,-5.996 -4.57,-10.938 -10.41,-11.527 h -23.363 v 22.922 0.187 h 22.187 c 6.391,0 11.586,-5.195 11.586,-11.582 m 9.629,-15.777 c 3.5,4.504 5.59,10.156 5.59,16.289 0,14.668 -11.93,26.601 -26.602,26.601 l -45.5,-0.129 V 61.621 h 3.211 c 4.453,0 4.492,-4.984 4.492,-4.984 v -72.044 h 42.84 c 15.114,0 27.414,12.294 27.414,27.415 0,9.16 -4.523,17.277 -11.445,22.258" style="fill:#000000;fill-opacity:1;fill-rule:nonzero;stroke:none" id="path94" inkscape:connector-curvature="0"/>
        </g>
        <g id="g96" transform="translate(236.0171,366.9897)">
          <path d="m 0,0 c 0,2.121 1.73,3.852 3.852,3.852 h 50.07 V 19.258 H 3.852 -23.109 V 3.852 h 3.214 c 4.454,0 4.493,-4.985 4.493,-4.985 v -71.989 h 69.324 v 15.403 H 0 v 23.055 h 42.367 v 15.406 H 0 Z" style="fill:#000000;fill-opacity:1;fill-rule:nonzero;stroke:none" id="path98" inkscape:connector-curvature="0"/>
        </g>
        <g id="g100" transform="translate(199.3257,186.0674)">
          <path d="m 0,0 c -2.293,0 -3.723,0.668 -3.977,1.031 -6.015,8.383 -24.418,37.442 -24.418,37.442 4.176,6.867 9.274,15.144 12.559,20.058 0.613,0.922 1.996,2.551 4.332,3.051 0.086,0.02 0.184,0.043 0.289,0.059 h 5.836 v 15.398 c -2.465,0.293 -6.742,0.176 -9.379,-0.398 -5.66,-1.219 -10.594,-4.614 -13.89,-9.555 -4.989,-7.469 -13.657,-21.793 -17.75,-28.613 h -2.692 -0.652 -6.004 V 76.984 H -78.855 V 61.586 h 3.21 v -0.004 c 4.454,0 4.493,-4.984 4.493,-4.984 v -72.043 h 15.406 V 23.07 h 18.879 c 4.715,-7.406 15.449,-24.16 20.371,-31.023 3.398,-4.735 9.41,-7.449 16.496,-7.449 0.684,0 1.363,0.027 2.027,0.086 V 0.23 C 1.434,0.09 0.762,0 0,0" style="fill:#000000;fill-opacity:1;fill-rule:nonzero;stroke:none" id="path102" inkscape:connector-curvature="0"/>
        </g>
        <g id="g104" transform="translate(259.1304,216.8369)">
          <path d="M 0,0 H -23.113 V 30.812 H 0 c 8.488,0 15.402,-6.91 15.402,-15.406 C 15.402,6.914 8.488,0 0,0 m 38.516,-30.656 c -0.348,-0.125 -4.575,0.09 -4.993,0.09 -1.847,0 -3.535,0.656 -4.621,1.812 -3.172,3.371 -9.632,10.692 -14.914,16.723 9.977,5.105 16.821,15.484 16.821,27.437 C 30.809,32.395 16.988,46.219 0,46.219 H -46.223 V 30.812 h 4.66 c 3.016,-0.941 3.047,-4.777 3.047,-4.777 v -72.25 h 15.403 v 30.813 h 19.597 c 4.942,-5.684 16.407,-18.813 21.196,-23.907 3.984,-4.238 9.761,-6.668 15.843,-6.668 0.387,0 4.614,0.012 4.993,0.036 z" style="fill:#000000;fill-opacity:1;fill-rule:nonzero;stroke:none" id="path106" inkscape:connector-curvature="0"/>
        </g>
        <g id="g108" transform="translate(130.0249,133.9268)">
          <path d="m 0,0 h 1.582 c 1.895,0 3.598,0.402 3.598,2.383 0,2.273 -2,2.59 -3.813,2.59 H 0 Z m 0,6.699 h 1.156 c 2.047,0 3.77,0.192 3.77,2.356 0,1.75 -1.492,2.191 -2.715,2.191 H 0 Z m -2.105,6.274 h 3.98 c 3.051,0 5.16,-0.989 5.16,-3.707 0,-2.02 -1.18,-3.032 -3.031,-3.496 V 5.73 C 6,5.562 7.414,4.258 7.414,2.191 c 0,-3.16 -2.613,-3.918 -5.602,-3.918 h -3.917 z" style="fill:#ae986e;fill-opacity:1;fill-rule:nonzero;stroke:none" id="path110" inkscape:connector-curvature="0"/>
        </g>
        <g id="g112" transform="translate(147.3218,137.3174)">
          <path d="m 0,0 c -0.426,0 -0.848,0.043 -1.266,0.043 -1.074,0 -3.726,-0.168 -3.726,-2.063 0,-1.136 1.094,-1.746 1.996,-1.746 1.961,0 2.996,1.219 2.996,2.821 z m -5.879,4.867 c 0.988,0.59 2.172,1.008 3.539,1.008 3.074,0 4.317,-1.516 4.317,-4.441 v -4.446 c 0,-1.218 0.043,-1.789 0.082,-2.105 H 0.207 v 1.39 H 0.164 c -0.465,-0.652 -1.512,-1.64 -3.324,-1.64 -2.32,0 -3.942,1.008 -3.942,3.347 0,2.696 2.95,3.54 4.993,3.54 0.781,0 1.328,0 2.109,-0.043 0,1.851 -0.676,2.8 -2.656,2.8 -1.114,0 -2.317,-0.422 -3.117,-1.097 z" style="fill:#ae986e;fill-opacity:1;fill-rule:nonzero;stroke:none" id="path114" inkscape:connector-curvature="0"/>
        </g>
        <g id="g116" transform="translate(157.2163,133.5518)">
          <path d="m 0,0 c 2.234,0 3.16,2.211 3.16,4 0,2 -1.035,4.043 -3.183,4.043 -2.149,0 -2.989,-2.023 -2.946,-3.981 C -3.012,2.379 -2.129,0 0,0 M 3.242,0.168 H 3.199 c -0.527,-0.801 -1.746,-1.77 -3.66,-1.77 -3.242,0 -4.617,2.883 -4.617,5.813 0,2.883 1.519,5.43 4.637,5.43 1.875,0 2.949,-0.735 3.558,-1.727 H 3.16 v 6.531 H 5.137 V -1.352 H 3.242 Z" style="fill:#ae986e;fill-opacity:1;fill-rule:nonzero;stroke:none" id="path118" inkscape:connector-curvature="0"/>
        </g>
        <g id="g120" transform="translate(172.3218,137.3174)">
          <path d="m 0,0 c -0.426,0 -0.848,0.043 -1.266,0.043 -1.074,0 -3.726,-0.168 -3.726,-2.063 0,-1.136 1.094,-1.746 1.996,-1.746 1.961,0 2.996,1.219 2.996,2.821 z m -5.879,4.867 c 0.988,0.59 2.172,1.008 3.539,1.008 3.074,0 4.317,-1.516 4.317,-4.441 v -4.446 c 0,-1.218 0.043,-1.789 0.082,-2.105 H 0.207 v 1.39 H 0.164 c -0.465,-0.652 -1.512,-1.64 -3.324,-1.64 -2.32,0 -3.942,1.008 -3.942,3.347 0,2.696 2.95,3.54 4.993,3.54 0.781,0 1.328,0 2.109,-0.043 0,1.851 -0.676,2.8 -2.656,2.8 -1.114,0 -2.317,-0.422 -3.117,-1.097 z" style="fill:#ae986e;fill-opacity:1;fill-rule:nonzero;stroke:none" id="path122" inkscape:connector-curvature="0"/>
        </g>
        <g id="g124" transform="translate(177.8608,142.9424)">
          <path d="M 0,0 H 1.914 V -1.707 H 1.961 C 2.551,-0.484 3.98,0.25 5.477,0.25 8.258,0.25 9.5,-1.477 9.5,-4.359 v -6.383 H 7.52 v 5.562 c 0,2.504 -0.551,3.727 -2.274,3.832 -2.258,0 -3.266,-1.812 -3.266,-4.422 v -4.972 H 0 Z" style="fill:#ae986e;fill-opacity:1;fill-rule:nonzero;stroke:none" id="path126" inkscape:connector-curvature="0"/>
        </g>
        <g id="g128" transform="translate(197.3022,146.8994)">
          <path d="M 0,0 H 8.234 V -1.852 H 2.109 V -6.148 H 7.684 V -8 H 2.109 v -4.844 h 6.125 v -1.855 H 0 Z" style="fill:#ae986e;fill-opacity:1;fill-rule:nonzero;stroke:none" id="path130" inkscape:connector-curvature="0"/>
        </g>
        <g id="g132" transform="translate(208.9272,147.9971)">
          <path d="m 0,0 h 1.977 v -9.414 l 4.316,4.359 H 8.988 L 4,-9.813 9.625,-15.797 H 6.781 l -4.804,5.52 v -5.52 H 0 Z" style="fill:#ae986e;fill-opacity:1;fill-rule:nonzero;stroke:none" id="path134" inkscape:connector-curvature="0"/>
        </g>
        <g id="g136" transform="translate(225.6108,133.5518)">
          <path d="M 0,0 C 2.316,0 3.344,2.102 3.344,4.02 3.344,6.062 2.105,8.043 0,8.043 -2.129,8.043 -3.367,6.062 -3.367,4.02 -3.367,2.102 -2.34,0 0,0 m 0,9.641 c 3.262,0 5.453,-2.36 5.453,-5.621 0,-3.075 -2.234,-5.622 -5.453,-5.622 -3.242,0 -5.477,2.547 -5.477,5.622 0,3.261 2.192,5.621 5.477,5.621" style="fill:#ae986e;fill-opacity:1;fill-rule:nonzero;stroke:none" id="path138" inkscape:connector-curvature="0"/>
        </g>
        <g id="g140" transform="translate(233.9312,142.9424)">
          <path d="m 0,0 h 1.914 v -1.707 h 0.043 c 0.594,1.223 2.023,1.957 3.516,1.957 2.781,0 4.023,-1.727 4.023,-4.609 v -6.383 H 7.52 v 5.562 c 0,2.504 -0.551,3.727 -2.274,3.832 -2.258,0 -3.269,-1.812 -3.269,-4.422 v -4.972 H 0 Z" style="fill:#ae986e;fill-opacity:1;fill-rule:nonzero;stroke:none" id="path142" inkscape:connector-curvature="0"/>
        </g>
        <g id="g144" transform="translate(251.7671,133.5518)">
          <path d="M 0,0 C 2.316,0 3.348,2.102 3.348,4.02 3.348,6.062 2.105,8.043 0,8.043 -2.129,8.043 -3.367,6.062 -3.367,4.02 -3.367,2.102 -2.336,0 0,0 m 0,9.641 c 3.262,0 5.457,-2.36 5.457,-5.621 0,-3.075 -2.238,-5.622 -5.457,-5.622 -3.246,0 -5.477,2.547 -5.477,5.622 0,3.261 2.192,5.621 5.477,5.621" style="fill:#ae986e;fill-opacity:1;fill-rule:nonzero;stroke:none" id="path146" inkscape:connector-curvature="0"/>
        </g>
        <g id="g148" transform="translate(260.0679,142.9424)">
          <path d="m 0,0 h 1.852 v -1.562 h 0.043 c 0.757,1.246 1.832,1.812 3.41,1.812 1.246,0 2.484,-0.629 3.054,-2.086 0.739,1.539 2.36,2.086 3.329,2.086 2.738,0 3.722,-1.766 3.722,-4.105 v -6.887 h -1.976 v 6.402 c 0,1.328 -0.317,2.992 -1.914,2.992 -2.02,0 -2.821,-1.98 -2.821,-3.98 v -5.414 H 6.715 v 6.402 c 0,1.328 -0.313,2.992 -1.914,2.992 -2.02,0 -2.821,-1.98 -2.821,-3.98 v -5.414 H 0 Z" style="fill:#ae986e;fill-opacity:1;fill-rule:nonzero;stroke:none" id="path150" inkscape:connector-curvature="0"/>
        </g>
        <path d="m 279.279,142.942 h 1.977 V 132.2 h -1.977 z m 2.105,2.399 h -2.234 v 2.234 h 2.234 z" style="fill:#ae986e;fill-opacity:1;fill-rule:nonzero;stroke:none" id="path152" inkscape:connector-curvature="0"/>
        <g id="g154" transform="translate(291.4507,146.8994)">
          <path d="M 0,0 H 2.109 V -6.465 L 8.387,0 h 2.793 l -6.903,-6.949 7.45,-7.75 H 8.66 l -6.551,7.203 v -7.203 H 0 Z" style="fill:#ae986e;fill-opacity:1;fill-rule:nonzero;stroke:none" id="path156" inkscape:connector-curvature="0"/>
        </g>
        <g id="g158" transform="translate(305.4155,142.9424)">
          <path d="m 0,0 h 1.852 v -1.664 h 0.039 c 0.531,1.113 1.672,1.914 2.804,1.914 0.586,0 0.891,-0.063 1.309,-0.145 v -1.769 c -0.363,0.148 -0.762,0.187 -1.094,0.187 -1.769,0 -2.93,-1.683 -2.93,-4.378 v -4.887 H 0 Z" style="fill:#ae986e;fill-opacity:1;fill-rule:nonzero;stroke:none" id="path160" inkscape:connector-curvature="0"/>
        </g>
        <g id="g162" transform="translate(320.7671,138.6025)">
          <path d="M 0,0 C 0,1.645 -0.969,2.992 -2.68,2.992 -4.609,2.992 -5.414,1.391 -5.559,0 Z m 1.289,-5.957 c -0.766,-0.273 -1.625,-0.695 -3.391,-0.695 -3.82,0 -5.566,2.316 -5.566,5.812 0,3.176 2.004,5.43 5.039,5.43 3.574,0 4.738,-2.61 4.738,-6.063 h -7.668 c 0,-2.129 1.661,-3.578 3.536,-3.578 1.308,0 2.82,0.672 3.312,1.071 z" style="fill:#ae986e;fill-opacity:1;fill-rule:nonzero;stroke:none" id="path164" inkscape:connector-curvature="0"/>
        </g>
        <g id="g166" transform="translate(332.1226,137.3174)">
          <path d="m 0,0 c -0.418,0 -0.84,0.043 -1.262,0.043 -1.07,0 -3.726,-0.168 -3.726,-2.063 0,-1.136 1.093,-1.746 2,-1.746 1.953,0 2.988,1.219 2.988,2.821 z m -5.879,4.867 c 0.996,0.59 2.18,1.008 3.547,1.008 3.074,0 4.312,-1.516 4.312,-4.441 v -4.446 c 0,-1.218 0.04,-1.789 0.079,-2.105 H 0.215 v 1.39 H 0.168 c -0.461,-0.652 -1.516,-1.64 -3.32,-1.64 -2.328,0 -3.946,1.008 -3.946,3.347 0,2.696 2.946,3.54 4.989,3.54 0.781,0 1.328,0 2.109,-0.043 0,1.851 -0.676,2.8 -2.656,2.8 -1.114,0 -2.317,-0.422 -3.114,-1.097 z" style="fill:#ae986e;fill-opacity:1;fill-rule:nonzero;stroke:none" id="path168" inkscape:connector-curvature="0"/>
        </g>
        <g id="g170" transform="translate(343.3726,141.3408)">
          <path d="m 0,0 h -2.852 v -5.875 c 0,-1.242 0.762,-1.914 1.668,-1.914 0.61,0 1.055,0.187 1.352,0.375 v -1.684 c -0.441,-0.125 -1.055,-0.293 -1.691,-0.293 -2.043,0 -3.301,0.969 -3.301,3.118 V 0 h -2.422 v 1.602 h 2.422 v 2.484 l 1.972,0.629 V 1.602 H 0 Z" style="fill:#ae986e;fill-opacity:1;fill-rule:nonzero;stroke:none" id="path172" inkscape:connector-curvature="0"/>
        </g>
        <path d="m 346.322,142.942 h 1.973 V 132.2 h -1.973 z m 2.101,2.399 h -2.227 v 2.234 h 2.227 z" style="fill:#ae986e;fill-opacity:1;fill-rule:nonzero;stroke:none" id="path174" inkscape:connector-curvature="0"/>
        <g id="g176" transform="translate(353.4233,141.3408)">
          <path d="M 0,0 H -2.531 V 1.602 H 0 V 2.59 c 0,2.613 0.672,4.316 3.594,4.316 0.508,0 0.926,-0.062 1.328,-0.125 L 4.844,5.18 C 4.609,5.266 4.227,5.309 3.895,5.309 2.188,5.309 1.969,4.211 1.969,2.758 V 1.602 H 4.82 V 0 H 1.969 V -9.141 H 0 Z" style="fill:#ae986e;fill-opacity:1;fill-rule:nonzero;stroke:none" id="path178" inkscape:connector-curvature="0"/>
        </g>
        <path d="M 366.791,146.899 H 368.9 V 132.2 h -2.109 z" style="fill:#ae986e;fill-opacity:1;fill-rule:nonzero;stroke:none" id="path180" inkscape:connector-curvature="0"/>
        <g id="g182" transform="translate(372.6694,142.9424)">
          <path d="m 0,0 h 1.914 v -1.707 h 0.051 c 0.586,1.223 2.019,1.957 3.515,1.957 2.774,0 4.024,-1.727 4.024,-4.609 v -6.383 H 7.52 v 5.562 c 0,2.504 -0.547,3.727 -2.274,3.832 -2.258,0 -3.266,-1.812 -3.266,-4.422 v -4.972 H 0 Z" style="fill:#ae986e;fill-opacity:1;fill-rule:nonzero;stroke:none" id="path184" inkscape:connector-curvature="0"/>
        </g>
        <g id="g186" transform="translate(390.1108,133.5518)">
          <path d="m 0,0 c 2.227,0 3.156,2.211 3.156,4 0,2 -1.039,4.043 -3.187,4.043 C -2.18,8.043 -3.016,6.02 -2.969,4.062 -3.016,2.379 -2.129,0 0,0 M 3.242,0.168 H 3.195 c -0.531,-0.801 -1.75,-1.77 -3.664,-1.77 -3.242,0 -4.609,2.883 -4.609,5.813 0,2.883 1.515,5.43 4.629,5.43 1.875,0 2.949,-0.735 3.566,-1.727 h 0.039 v 6.531 H 5.137 V -1.352 H 3.242 Z" style="fill:#ae986e;fill-opacity:1;fill-rule:nonzero;stroke:none" id="path188" inkscape:connector-curvature="0"/>
        </g>
        <g id="g190" transform="translate(403.5874,133.5518)">
          <path d="M 0,0 C 2.313,0 3.352,2.102 3.352,4.02 3.352,6.062 2.109,8.043 0,8.043 -2.129,8.043 -3.367,6.062 -3.367,4.02 -3.367,2.102 -2.336,0 0,0 m 0,9.641 c 3.262,0 5.461,-2.36 5.461,-5.621 0,-3.075 -2.238,-5.622 -5.461,-5.622 -3.242,0 -5.477,2.547 -5.477,5.622 0,3.261 2.196,5.621 5.477,5.621" style="fill:#ae986e;fill-opacity:1;fill-rule:nonzero;stroke:none" id="path192" inkscape:connector-curvature="0"/>
        </g>
        <g id="g194" transform="translate(411.9077,142.9424)">
          <path d="M 0,0 H 1.914 V -1.707 H 1.961 C 2.547,-0.484 3.984,0.25 5.477,0.25 8.25,0.25 9.5,-1.477 9.5,-4.359 v -6.383 H 7.52 v 5.562 c 0,2.504 -0.547,3.727 -2.278,3.832 -2.254,0 -3.258,-1.812 -3.258,-4.422 v -4.972 H 0 Z" style="fill:#ae986e;fill-opacity:1;fill-rule:nonzero;stroke:none" id="path196" inkscape:connector-curvature="0"/>
        </g>
        <g id="g198" transform="translate(431.939,138.6025)">
          <path d="M 0,0 C 0,1.645 -0.969,2.992 -2.68,2.992 -4.609,2.992 -5.414,1.391 -5.559,0 Z m 1.289,-5.957 c -0.766,-0.273 -1.625,-0.695 -3.391,-0.695 -3.82,0 -5.566,2.316 -5.566,5.812 0,3.176 2.004,5.43 5.039,5.43 3.574,0 4.738,-2.61 4.738,-6.063 h -7.668 c 0,-2.129 1.661,-3.578 3.536,-3.578 1.308,0 2.82,0.672 3.312,1.071 z" style="fill:#ae986e;fill-opacity:1;fill-rule:nonzero;stroke:none" id="path200" inkscape:connector-curvature="0"/>
        </g>
        <g id="g202" transform="translate(436.1069,134.3057)">
          <path d="m 0,0 c 0.781,-0.504 1.895,-0.754 2.473,-0.754 0.898,0 2.019,0.375 2.019,1.535 0,1.957 -4.66,1.789 -4.66,4.801 0,2.23 1.664,3.305 3.789,3.305 0.93,0 1.691,-0.188 2.461,-0.418 L 5.918,6.738 C 5.48,7.016 4.297,7.289 3.84,7.289 2.824,7.289 1.941,6.867 1.941,5.98 1.941,3.793 6.59,4.426 6.59,0.992 c 0,-2.293 -1.824,-3.347 -3.75,-3.347 -1.004,0 -2.039,0.105 -2.938,0.589 z" style="fill:#ae986e;fill-opacity:1;fill-rule:nonzero;stroke:none" id="path204" inkscape:connector-curvature="0"/>
        </g>
        <path d="m 445.572,142.942 h 1.969 V 132.2 h -1.969 z m 2.097,2.399 h -2.227 v 2.234 h 2.227 z" style="fill:#ae986e;fill-opacity:1;fill-rule:nonzero;stroke:none" id="path206" inkscape:connector-curvature="0"/>
        <g id="g208" transform="translate(457.7671,137.3174)">
          <path d="m 0,0 c -0.43,0 -0.852,0.043 -1.27,0.043 -1.074,0 -3.722,-0.168 -3.722,-2.063 0,-1.136 1.094,-1.746 1.992,-1.746 1.965,0 3,1.219 3,2.821 z m -5.879,4.867 c 0.988,0.59 2.168,1.008 3.535,1.008 3.078,0 4.317,-1.516 4.317,-4.441 v -4.446 c 0,-1.218 0.05,-1.789 0.09,-2.105 h -1.86 v 1.39 H 0.164 c -0.469,-0.652 -1.512,-1.64 -3.328,-1.64 -2.313,0 -3.938,1.008 -3.938,3.347 0,2.696 2.954,3.54 4.993,3.54 0.781,0 1.328,0 2.109,-0.043 0,1.851 -0.672,2.8 -2.656,2.8 -1.114,0 -2.313,-0.422 -3.117,-1.097 z" style="fill:#ae986e;fill-opacity:1;fill-rule:nonzero;stroke:none" id="path210" inkscape:connector-curvature="0"/>
        </g>
      </g>
    </g>
  </g>
</svg>