<?xml version="1.0" encoding="UTF-8" standalone="no"?>
<!-- Created with Inkscape (http://www.inkscape.org/) -->

<svg
   xmlns:dc="http://purl.org/dc/elements/1.1/"
   xmlns:cc="http://creativecommons.org/ns#"
   xmlns:rdf="http://www.w3.org/1999/02/22-rdf-syntax-ns#"
   xmlns:svg="http://www.w3.org/2000/svg"
   xmlns="http://www.w3.org/2000/svg"
   xmlns:sodipodi="http://sodipodi.sourceforge.net/DTD/sodipodi-0.dtd"
   xmlns:inkscape="http://www.inkscape.org/namespaces/inkscape"
   width="300"
   height="200"
   viewBox="0 0 79.374998 52.916668"
   version="1.1"
   id="svg8"
   inkscape:version="0.92.2 5c3e80d, 2017-08-06"
   sodipodi:docname="fans.svg">
  <defs
     id="defs2" />
  <sodipodi:namedview
     id="base"
     pagecolor="#ffffff"
     bordercolor="#666666"
     borderopacity="1.0"
     inkscape:pageopacity="0.0"
     inkscape:pageshadow="2"
     inkscape:zoom="1.4"
     inkscape:cx="103.26131"
     inkscape:cy="148.67296"
     inkscape:document-units="px"
     inkscape:current-layer="layer1"
     showgrid="false"
     units="px"
     inkscape:window-width="1600"
     inkscape:window-height="835"
     inkscape:window-x="0"
     inkscape:window-y="33"
     inkscape:window-maximized="1" />
  <metadata
     id="metadata5">
    <rdf:RDF>
      <cc:Work
         rdf:about="">
        <dc:format>image/svg+xml</dc:format>
        <dc:type
           rdf:resource="http://purl.org/dc/dcmitype/StillImage" />
        <dc:title />
      </cc:Work>
    </rdf:RDF>
  </metadata>
  <g
     inkscape:label="Layer 1"
     inkscape:groupmode="layer"
     id="layer1"
     transform="translate(0,-244.08332)">
    <rect
       style="fill:#ffffff;fill-opacity:0.99680511;stroke:none;stroke-width:0.07016739;stroke-linecap:butt;stroke-linejoin:round;stroke-miterlimit:4;stroke-dasharray:none;stroke-opacity:1"
       id="rect4504"
       width="79.375"
       height="52.916668"
       x="-2.8421709e-14"
       y="244.08331" />
    <g
       id="g3173"
       transform="matrix(0.20470864,0,0,0.20470864,-0.45864959,257.20264)"
       inkscape:export-filename="/home/kirito/Documents/GitHub/Artworks/Logo/FANS/fans-logo-214px.png"
       inkscape:export-xdpi="49.709911"
       inkscape:export-ydpi="49.709911">
      <g
         id="g3295">
        <g
           id="g3555"
           transform="matrix(1.0626562,0,0,1.2699518,-33.124339,-94.862675)">
          <text
             transform="matrix(1.2214785,5.2763722e-4,-7.8724242e-4,0.81867966,0,0)"
             style="font-weight:bold;font-size:19.45522308px;line-height:0%;font-family:Arial;fill:#000000;fill-rule:evenodd"
             id="text326"
             class="fil7 fnt8"
             y="111.97852"
             x="93.422745">
            <tspan
               style="font-style:normal;font-variant:normal;font-weight:bold;font-stretch:normal;font-family:'Liberation Sans';-inkscape-font-specification:'Liberation Sans Bold';fill:#000000"
               id="tspan3340">www.fans.co.id</tspan>
          </text>
          <g
             transform="matrix(0.78983778,0,0,0.88257794,-142.82983,-128.9495)"
             id="g3252">
            <path
               style="fill:#ffffff;stroke:#000000;stroke-width:1.39999998;stroke-miterlimit:4;stroke-dasharray:none"
               d="m 261.7505,237.9369 v 0.0227 c -6.0859,0.24947 -10.90463,3.36942 -10.90463,7.19386 0,3.82455 4.81854,6.94453 10.90463,7.19388 0.0609,0.002 0.12095,-0.002 0.18213,0 0.19911,0.006 0.39027,0.0227 0.5919,0.0227 0.20541,0 0.41184,-0.0163 0.61466,-0.0227 h 43.1632 c 0.20281,0.006 0.40925,0.0227 0.61467,0.0227 0.15516,0 0.30163,-0.019 0.45531,-0.0227 6.23704,-0.15035 11.22335,-3.30234 11.22335,-7.19388 0,-3.89162 -4.98614,-7.06641 -11.22335,-7.21663 h -0.45531 -44.39253 -0.77403 z"
               id="rect3220"
               inkscape:connector-curvature="0" />
            <g
               id="g3958"
               transform="translate(152.75736,-17.99138)">
              <path
                 sodipodi:nodetypes="cc"
                 inkscape:connector-curvature="0"
                 id="path3938"
                 d="m 127.19083,263.30315 c 1.83295,2.06208 0.45405,3.26316 -0.88388,5.39169"
                 style="fill:none;stroke:#000000;stroke-width:1.60000002;stroke-linecap:butt;stroke-linejoin:miter;stroke-miterlimit:4;stroke-dasharray:none;stroke-opacity:1" />
              <path
                 sodipodi:nodetypes="cccc"
                 inkscape:connector-curvature="0"
                 id="path3940"
                 d="m 107.83378,258.70696 11.04855,-0.0884 v 0.61871 l -8.39689,8.57368"
                 style="fill:none;stroke:#000000;stroke-width:1.70000005;stroke-linecap:butt;stroke-linejoin:miter;stroke-miterlimit:4;stroke-dasharray:none;stroke-opacity:1" />
              <path
                 sodipodi:nodetypes="ccccc"
                 inkscape:connector-curvature="0"
                 id="path3944"
                 d="m 121.44559,261.27022 h 10.78338 l -1e-5,0.70711 -3.88909,2.03293 h -0.0884"
                 style="fill:none;stroke:#000000;stroke-width:1.60000002;stroke-linecap:butt;stroke-linejoin:miter;stroke-miterlimit:4;stroke-dasharray:none;stroke-opacity:1" />
              <path
                 inkscape:connector-curvature="0"
                 id="path3946"
                 d="m 137.00194,258.70696 3.35875,3.97747"
                 style="fill:none;stroke:#000000;stroke-width:1.5;stroke-linecap:butt;stroke-linejoin:miter;stroke-miterlimit:4;stroke-dasharray:none;stroke-opacity:1" />
              <path
                 sodipodi:nodetypes="ccc"
                 inkscape:connector-curvature="0"
                 id="path3952"
                 d="m 146.81304,258.53018 c -0.65094,4.23557 -8.03344,8.10129 -12.37436,8.30852 l -0.53034,-0.61871"
                 style="fill:none;stroke:#000000;stroke-width:1.60000002;stroke-linecap:butt;stroke-linejoin:miter;stroke-miterlimit:4;stroke-dasharray:none;stroke-opacity:1" />
              <path
                 sodipodi:nodetypes="cccc"
                 inkscape:connector-curvature="0"
                 id="path3954"
                 d="m 150.61374,260.6515 h 6.36396 l -7.24784,6.27557 0.0884,-0.0884"
                 style="fill:none;stroke:#000000;stroke-width:1.39999998;stroke-linecap:butt;stroke-linejoin:miter;stroke-miterlimit:4;stroke-dasharray:none;stroke-opacity:1" />
              <path
                 sodipodi:nodetypes="cc"
                 inkscape:connector-curvature="0"
                 id="path3956"
                 d="m 154.41444,263.30315 c 1.44368,1.06066 5.63607,3.9538 4.33103,3.18198"
                 style="fill:none;stroke:#000000;stroke-width:1.5;stroke-linecap:butt;stroke-linejoin:miter;stroke-miterlimit:4;stroke-dasharray:none;stroke-opacity:1" />
            </g>
          </g>
        </g>
      </g>
      <g
         transform="matrix(0.81479134,0,0,0.92927612,-1.6709985,-65.2117)"
         id="g3585">
        <g
           id="g3279">
          <path
             class="fil7"
             d="m 471.14479,108.68771 c 0,2.10381 -0.67139,3.87591 -2.01418,5.31599 -1.34303,1.43982 -2.99533,2.15992 -4.95712,2.15992 -1.94312,0 -3.59525,-0.72516 -4.95721,-2.17538 -1.36196,-1.45013 -2.04293,-3.21697 -2.04293,-5.30053 0,-2.08336 0.67619,-3.84 2.02856,-5.26988 1.35237,-1.42969 2.99995,-2.14479 4.94283,-2.14479 1.94279,0 3.59524,0.71497 4.95704,2.14479 1.36204,1.42988 2.04301,3.18652 2.04301,5.26988 z m -1.37137,0 c 0,-1.67489 -0.54755,-3.09451 -1.64295,-4.25885 -1.09525,-1.16415 -2.42383,-1.74639 -3.98573,-1.74639 -1.56183,0 -2.89048,0.5821 -3.98582,1.74639 -1.09508,1.16434 -1.64278,2.58396 -1.64278,4.25885 0,1.67508 0.55242,3.09965 1.65725,4.27419 1.10466,1.17454 2.43803,1.76178 4.0001,1.76178 1.56174,0 2.88552,-0.58724 3.97135,-1.76178 1.08566,-1.17454 1.62858,-2.59911 1.62858,-4.27419 z m -2.68566,3.4009 h -1.31444 c -0.17153,-0.36775 -0.25713,-0.77603 -0.25713,-1.22559 0,-0.61269 -0.0804,-1.00077 -0.24282,-1.16415 -0.16195,-0.16338 -0.52847,-0.24508 -1.09988,-0.24508 h -1.20009 v 2.63494 h -1.39997 v -6.77119 h 2.9427 c 1.61915,0 2.42861,0.68431 2.42861,2.05289 0,0.5923 -0.24754,1.07221 -0.74286,1.43976 0.38106,0.26572 0.6,0.81711 0.65718,1.65469 l 0.0276,0.36781 0.0569,0.27567 v 0.2143 l 0.14294,0.76607 z m -1.54298,-4.71818 c 0,-0.51092 -0.40956,-0.76608 -1.22868,-0.76608 h -1.34263 v 1.59307 h 1.22853 c 0.89521,0 1.34278,-0.27566 1.34278,-0.82699 z"
             id="path322-7-8"
             inkscape:connector-curvature="0"
             style="fill:#fff500;fill-rule:evenodd" />
          <path
             class="fil8 str0"
             d="m 106.04208,102.07611 h 273.40113 c 51.55341,0 93.73355,14.83478 93.73355,32.96629 v 0 c 0,18.1315 -42.1816,32.9663 -93.73355,32.9663 H 106.04208 c -51.551792,0 -93.733551,-14.8348 -93.733551,-32.9663 v 0 c 0,-18.13151 42.180053,-32.96629 93.733551,-32.96629 z m 10.43726,3.92454 h 254.75787 c 48.70274,0 88.54871,13.06871 88.54871,29.04175 v 0 c 0,15.97297 -39.84785,29.04174 -88.54871,29.04174 H 116.47934 c -48.700619,0 -88.548701,-13.06877 -88.548701,-29.04174 v 0 c 0,-15.97304 39.846214,-29.04175 88.548701,-29.04175 z"
             id="path332-5-4"
             inkscape:connector-curvature="0"
             style="fill:#141516;fill-rule:evenodd;stroke:#1f1a17;stroke-width:0.34164146" />
          <path
             class="fil3 str1"
             d="m 111.20499,104.70249 h 264.41889 c 50.17913,0 91.23429,13.59457 91.23429,30.21015 v 0 c 0,16.61549 -41.0593,30.21027 -91.23429,30.21027 H 111.20499 c -50.175374,0 -91.234352,-13.59478 -91.234352,-30.21027 v 0 c 0,-16.61558 41.055567,-30.21015 91.234352,-30.21015 z"
             id="path334-1-1"
             inkscape:connector-curvature="0"
             style="fill:#fff500;fill-rule:evenodd;stroke:#1f1a17;stroke-width:0.1708363" />
          <path
             inkscape:connector-curvature="0"
             id="path3250"
             style="font-style:italic;font-variant:normal;font-weight:bold;font-stretch:normal;font-size:91.4526825px;line-height:125%;font-family:'Enter Sansman';-inkscape-font-specification:'Enter Sansman Bold Italic';letter-spacing:0px;word-spacing:0px;fill:#000000;fill-opacity:1;stroke:none"
             d="m 246.34814,131.10403 -11.43063,22.08355 h -26.58867 v -3.595 c -5e-5,0.1284 -0.0829,0.25679 -0.24849,0.38518 -0.1657,0.1284 -0.28995,0.21399 -0.37274,0.25678 -0.16571,0.0856 -0.37278,0.19259 -0.62122,0.32099 -0.16572,0.12839 -0.28997,0.21399 -0.37274,0.25678 -0.16571,0.1284 -0.37279,0.25679 -0.62124,0.38518 -0.24854,0.12839 -0.45561,0.21399 -0.62122,0.25679 -0.16572,0.0856 -0.37278,0.19259 -0.62124,0.32097 -0.24853,0.1284 -0.45561,0.21399 -0.62123,0.25679 -0.49702,0.21399 -1.03542,0.40658 -1.6152,0.57777 -0.57985,0.12839 -1.15967,0.23539 -1.73945,0.32098 -0.49701,0.0428 -1.07683,0.107 -1.73944,0.19259 -0.57985,0.0428 -1.15967,0.0642 -1.73945,0.0642 h -27.70687 c -1.49096,0 -2.77484,-0.0642 -3.85163,-0.19259 -0.57982,-0.0428 -1.11821,-0.10699 -1.6152,-0.19259 -0.49699,-0.12839 -0.99396,-0.25679 -1.49095,-0.38518 -0.41416,-0.12839 -0.82832,-0.25678 -1.24246,-0.38517 -0.33132,-0.1712 -0.66265,-0.36378 -0.99398,-0.57777 -0.24848,-0.17119 -0.49697,-0.38518 -0.74546,-0.64197 -0.16567,-0.25678 -0.33133,-0.51357 -0.49699,-0.77035 -0.16567,-0.25678 -0.28991,-0.53497 -0.37274,-0.83456 -0.0828,-0.34237 -0.12424,-0.68475 -0.12424,-1.02714 2e-5,-0.34237 0.0415,-0.68475 0.12424,-1.02713 0,-0.38518 0.0415,-0.74896 0.12423,-1.09134 0.0828,-0.34238 0.20708,-0.70615 0.37274,-1.09134 0.16566,-0.38517 0.28991,-0.74895 0.37274,-1.09134 0.16566,-0.34237 0.33133,-0.68475 0.49699,-1.02714 0.16565,-0.38517 0.33131,-0.72755 0.49697,-1.02714 0.0828,-0.29957 0.20708,-0.62056 0.37275,-0.96295 0.24849,-0.34237 0.45557,-0.66335 0.62123,-0.96294 0.16565,-0.29957 0.37273,-0.62055 0.62122,-0.96295 0.2485,-0.38516 0.45558,-0.74894 0.62124,-1.09134 0.24849,-0.34236 0.49697,-0.66334 0.74548,-0.96294 0.33131,-0.34237 0.66264,-0.68474 0.99396,-1.02714 0.24849,-0.29957 0.57981,-0.62055 0.99397,-0.96295 0.41415,-0.34236 0.78688,-0.64194 1.11822,-0.89874 0.41414,-0.29957 0.86972,-0.57776 1.36671,-0.83456 0.5798,-0.29956 1.11819,-0.55635 1.61519,-0.77035 0.57981,-0.25677 1.20103,-0.49216 1.8637,-0.70617 0.66262,-0.21396 1.32527,-0.38515 1.98794,-0.51357 1.15961,-0.25676 2.40207,-0.44934 3.72737,-0.57776 1.32527,-0.12837 2.69198,-0.19257 4.10013,-0.19259 h 30.81303 c 0.24844,2e-5 0.53834,-0.0214 0.86972,-0.0642 0.4141,-0.0428 0.74542,-0.10697 0.99396,-0.19259 0.33127,-0.0428 0.6626,-0.12837 0.99398,-0.25679 0.33127,-0.17116 0.66258,-0.32095 0.99396,-0.44937 0.16561,-0.0428 0.33127,-0.12837 0.49699,-0.25679 0.24844,-0.12836 0.45552,-0.25676 0.62123,-0.38517 0.1656,-0.12837 0.28984,-0.25677 0.37273,-0.38518 0.16561,-0.12837 0.28986,-0.23536 0.37274,-0.32098 0.16561,-0.25677 0.16561,-0.51355 0,-0.77036 -0.0829,-0.12837 -0.16572,-0.23536 -0.24849,-0.32098 -0.0829,-0.12836 -0.20714,-0.23536 -0.37273,-0.32098 -0.16572,-0.0856 -0.33138,-0.17117 -0.49699,-0.25679 -0.16572,-0.0856 -0.37279,-0.17116 -0.62123,-0.25678 -0.41422,-0.12837 -0.86977,-0.19256 -1.36671,-0.19259 h -41.00121 l 3.35464,-6.61222 h 57.1532 c 0.82823,3e-5 1.61513,0.0214 2.36068,0.0642 0.82823,0.0428 1.5737,0.0856 2.23644,0.12838 0.57973,0.0856 1.15954,0.19263 1.73944,0.32099 0.66256,0.12842 1.24238,0.25681 1.73945,0.38518 0.49689,0.12842 0.99388,0.29961 1.49095,0.51357 0.49689,0.21402 0.91105,0.42801 1.24246,0.64196 0.33124,0.21402 0.62114,0.4708 0.86971,0.77035 0.33125,0.25682 0.57974,0.51361 0.74549,0.77036 0.24841,0.25682 0.41406,0.535 0.49699,0.83455 0.16556,0.25682 0.28981,0.51361 0.37274,0.77036 0.0828,0.29961 0.12409,0.5992 0.12423,0.89875 -8e-5,0.29961 -8e-5,0.5992 0,0.89875 -8e-5,0.38521 -0.0415,0.79178 -0.12423,1.21973 -0.0829,0.428 -0.20718,0.83458 -0.37274,1.21973 -0.16575,0.3852 -0.33141,0.79178 -0.49699,1.21973 -0.0829,0.3852 -0.24858,0.74898 -0.49699,1.09134 m -33.04946,5.84186 h -14.66103 c -0.33137,2e-5 -0.70411,0.0428 -1.11822,0.1284 -0.33136,0.0428 -0.62127,0.0856 -0.86972,0.12839 -0.33137,0.0856 -0.7041,0.1926 -1.11821,0.32098 -0.33137,0.0856 -0.66269,0.19261 -0.99398,0.32098 -0.24852,0.12841 -0.53843,0.2782 -0.86971,0.44938 -0.24854,0.12841 -0.4556,0.2568 -0.62124,0.38517 -0.24852,0.17121 -0.4556,0.3424 -0.62123,0.51358 -0.1657,0.1712 -0.28994,0.32099 -0.37273,0.44937 l -2.48493,4.81473 c -0.0829,0.0856 -0.12423,0.1926 -0.12423,0.32098 -3e-5,0.1284 -3e-5,0.23539 0,0.32098 0.0828,0.1284 0.12423,0.2568 0.12423,0.38517 0.0828,0.12841 0.16563,0.2354 0.24849,0.32099 0.16564,0.0856 0.3313,0.1926 0.49699,0.32098 0.24845,0.1284 0.49695,0.21399 0.74547,0.25678 0.16564,0.0856 0.37271,0.1498 0.62124,0.19259 0.33128,0.0428 0.57977,0.0642 0.74547,0.0642 h 12.05187 c 0.16562,10e-6 0.3727,10e-6 0.62123,0 0.24844,-0.0428 0.49694,-0.10698 0.74547,-0.19259 0.33129,-0.0428 0.6212,-0.12838 0.86973,-0.25678 0.33127,-0.12838 0.62118,-0.23538 0.86972,-0.32098 0.16562,-0.0428 0.33128,-0.12839 0.49699,-0.25679 0.24844,-0.12838 0.4141,-0.23537 0.49699,-0.32098 0.1656,-0.12838 0.33127,-0.25678 0.49698,-0.38518 0.16561,-0.12838 0.24844,-0.23537 0.24848,-0.32097 l 3.97588,-7.63937" />
          <path
             inkscape:connector-curvature="0"
             id="path3252"
             style="font-style:italic;font-variant:normal;font-weight:bold;font-stretch:normal;font-size:91.4526825px;line-height:125%;font-family:'Enter Sansman';-inkscape-font-specification:'Enter Sansman Bold Italic';letter-spacing:0px;word-spacing:0px;fill:#000000;fill-opacity:1;stroke:none"
             d="m 287.84635,128.08681 -13.17009,25.22916 h -30.1918 l 17.39445,-33.76728 h 63.48974 c 1.57372,4e-5 3.02325,0.10703 4.34863,0.32099 1.3252,0.17122 2.52624,0.428 3.60313,0.77035 0.99388,0.29962 1.82218,0.6848 2.48492,1.15554 0.66255,0.42801 1.24237,0.92017 1.73944,1.47651 0.16558,0.21402 0.28983,0.44941 0.37275,0.70616 0.16556,0.25682 0.33122,0.5136 0.49698,0.77035 0.0828,0.29962 0.1241,0.5992 0.12424,0.89875 0.0828,0.29962 0.12409,0.6206 0.12423,0.96295 -0.0829,0.3424 -0.12437,0.68479 -0.12423,1.02714 -1e-4,0.34241 -0.0829,0.68479 -0.2485,1.02715 -0.0829,0.3424 -0.20717,0.72757 -0.37274,1.15553 -0.16574,0.3852 -0.33141,0.77038 -0.49699,1.15553 l -11.55488,22.34033 H 295.79808 L 308.84391,128.151 c 0.0828,-0.17116 0.12424,-0.32096 0.12424,-0.44937 -6e-5,-0.17116 -6e-5,-0.29956 0,-0.38518 -0.0829,-0.12837 -0.16572,-0.23536 -0.2485,-0.32098 -0.0829,-0.12836 -0.16572,-0.23536 -0.24848,-0.32098 -0.16573,-0.0856 -0.37281,-0.17117 -0.62123,-0.25679 -0.16572,-0.0856 -0.33138,-0.14976 -0.49699,-0.19258 -0.24855,-0.0428 -0.53846,-0.0642 -0.86972,-0.0642 -0.24855,-0.0428 -0.49704,-0.0642 -0.74548,-0.0642 h -13.04584 c -0.1657,3e-5 -0.37278,0.0214 -0.62123,0.0642 -0.24854,2e-5 -0.49703,0.0214 -0.74547,0.0642 -0.33137,0.0428 -0.62128,0.10701 -0.86973,0.19258 -0.24854,0.0856 -0.45562,0.14982 -0.62122,0.19259 -0.16571,0.0856 -0.37279,0.17122 -0.62124,0.25679 -0.1657,0.0856 -0.37278,0.19261 -0.62123,0.32098 -0.16569,0.12842 -0.33136,0.27821 -0.49698,0.44937 -0.0829,0.12842 -0.1657,0.27821 -0.24849,0.44938" />
          <path
             inkscape:connector-curvature="0"
             id="path3254"
             style="font-style:italic;font-variant:normal;font-weight:bold;font-stretch:normal;font-size:91.4526825px;line-height:125%;font-family:'Enter Sansman';-inkscape-font-specification:'Enter Sansman Bold Italic';letter-spacing:0px;word-spacing:0px;fill:#000000;fill-opacity:1;stroke:none"
             d="m 423.77158,119.54869 -3.10615,6.22705 h -40.13149 c -0.0829,3e-5 -0.20712,0.0214 -0.37274,0.0642 -0.1657,3e-5 -0.33137,3e-5 -0.49699,0 -0.1657,0.0428 -0.37277,0.0856 -0.62122,0.12839 -0.24853,0.0428 -0.45561,0.0856 -0.62123,0.12839 -0.16571,0.0429 -0.33137,0.10702 -0.49699,0.1926 -0.16569,0.0428 -0.28994,0.0856 -0.37274,0.12838 -0.16569,0.0856 -0.33136,0.17122 -0.49698,0.25679 -0.0829,0.0856 -0.12423,0.14982 -0.12423,0.19259 l -0.99398,1.86169 c -3e-5,0.0856 -3e-5,0.17122 0,0.25679 -3e-5,0.0428 0.0828,0.0856 0.2485,0.12839 0.0828,0.0428 0.16562,0.10702 0.24849,0.19259 0.16562,0.0428 0.28987,0.0856 0.37274,0.12839 0.16562,0.0428 0.33129,0.0856 0.49699,0.1284 0.16562,0.0428 0.28987,0.0642 0.37273,0.0642 0.24845,2e-5 0.45553,0.0214 0.62123,0.0642 0.24846,2e-5 0.41412,2e-5 0.49699,0 h 29.44632 c 0.41408,2e-5 0.86966,0.0214 1.3667,0.0642 0.49692,2e-5 0.95249,0.0214 1.36672,0.0642 0.41407,0.0428 0.82823,0.10701 1.24246,0.19258 0.4969,0.0428 0.91106,0.0856 1.24245,0.12839 0.41408,0.0856 0.78682,0.19262 1.11821,0.32099 0.41409,0.0856 0.78682,0.19261 1.11823,0.32097 0.24841,0.12842 0.53832,0.27821 0.86971,0.44938 0.33125,0.12842 0.62116,0.27821 0.86973,0.44937 0.16558,0.12842 0.33125,0.29961 0.49698,0.51358 0.16559,0.1712 0.33126,0.3424 0.49699,0.51357 0.0828,0.17121 0.16558,0.3852 0.24849,0.64196 0.16558,0.21401 0.24841,0.428 0.2485,0.64197 -9e-5,0.214 -9e-5,0.44939 0,0.70615 0.0828,0.25681 0.0828,0.51359 0,0.77036 -0.0829,0.2568 -0.16575,0.53499 -0.2485,0.83455 -0.0829,0.2996 -0.24858,0.62059 -0.49699,0.96295 l -3.97586,7.89615 c -0.16575,0.29959 -0.37283,0.59917 -0.62124,0.89875 -0.16573,0.29958 -0.37281,0.57777 -0.62123,0.83455 -0.24857,0.25679 -0.53848,0.53497 -0.86972,0.83455 -0.3314,0.25679 -0.62131,0.51358 -0.86973,0.77036 -0.24856,0.21399 -0.57988,0.44938 -0.99396,0.70616 -0.41423,0.21399 -0.78697,0.40658 -1.11821,0.57777 -0.3314,0.21399 -0.74556,0.42797 -1.24247,0.64196 -0.41422,0.17119 -0.78696,0.34238 -1.11821,0.51357 -0.41423,0.17119 -0.86979,0.34238 -1.36671,0.51357 -0.49706,0.1284 -0.95262,0.25679 -1.3667,0.38518 -0.49706,0.12839 -0.99404,0.27818 -1.49095,0.44937 -0.49706,0.1284 -0.99404,0.23539 -1.49096,0.32098 -0.57989,0.12839 -1.20111,0.23539 -1.86369,0.32099 -0.66271,0.0856 -1.28394,0.14979 -1.86369,0.19259 -0.66271,0.0856 -1.32536,0.14978 -1.98794,0.19258 -0.57988,0 -1.11827,0 -1.6152,0 h -57.65019 l 3.10615,-6.09865 h 42.74066 c 0.0828,0 0.24845,0 0.49699,0 0.24844,-0.0428 0.45552,-0.0856 0.62122,-0.12839 0.16562,-0.0428 0.33129,-0.0856 0.49699,-0.12839 0.24845,-0.0428 0.45552,-0.10699 0.62124,-0.19259 0.1656,-0.0428 0.33127,-0.0856 0.49697,-0.1284 0.16562,-0.0856 0.28987,-0.17118 0.37274,-0.25679 0.16562,-0.0428 0.28987,-0.10698 0.37274,-0.19258 0.0828,-0.12839 0.16561,-0.23538 0.2485,-0.32098 l 0.86971,-1.8617 c 0.0828,-0.0428 0.12424,-0.10698 0.12424,-0.19259 -5e-5,-0.0856 -0.0415,-0.17118 -0.12424,-0.25678 -4e-5,-0.0428 -0.0829,-0.10699 -0.24849,-0.19259 -0.0829,-0.0856 -0.16571,-0.14978 -0.2485,-0.19259 -0.0829,-0.0428 -0.24853,-0.0856 -0.49697,-0.12839 -0.1657,-0.0856 -0.28995,-0.12838 -0.37274,-0.1284 -0.0829,-0.0428 -0.24854,-0.0642 -0.49699,-0.0642 -0.1657,-0.0428 -0.33137,-0.0642 -0.49697,-0.0642 h -29.44633 c -0.49701,1e-5 -1.0354,1e-5 -1.6152,0 -0.57984,-0.0428 -1.15964,-0.0856 -1.73945,-0.12839 -0.57982,-0.0428 -1.15964,-0.10699 -1.73944,-0.19259 -0.57982,-0.12838 -1.11823,-0.25677 -1.6152,-0.38518 -0.33133,-0.0428 -0.66265,-0.12838 -0.99397,-0.25678 -0.2485,-0.12839 -0.497,-0.25678 -0.74548,-0.38518 -0.33132,-0.12838 -0.62123,-0.25678 -0.86971,-0.38518 -0.16568,-0.17118 -0.33134,-0.34237 -0.49699,-0.51357 -0.16567,-0.12838 -0.33133,-0.27818 -0.49699,-0.44937 -0.16566,-0.17118 -0.2485,-0.34237 -0.2485,-0.51358 -0.0828,-0.17118 -0.16566,-0.36376 -0.24848,-0.57776 -0.0829,-0.21398 -0.12423,-0.40657 -0.12423,-0.57777 -1e-5,-0.17118 -1e-5,-0.34237 0,-0.51357 -1e-5,-0.21397 0.0415,-0.40656 0.12423,-0.57777 0.0828,-0.17118 0.16565,-0.36376 0.24848,-0.57776 0.0828,-0.21398 0.16567,-0.42797 0.2485,-0.64197 l 4.72135,-8.98748 c 0.16566,-0.29956 0.33131,-0.57775 0.49699,-0.83456 0.24848,-0.29955 0.45555,-0.55634 0.62123,-0.77036 0.33131,-0.25675 0.62122,-0.51354 0.86972,-0.77035 0.33131,-0.25676 0.66263,-0.49214 0.99397,-0.70616 0.3313,-0.17117 0.70404,-0.36375 1.11821,-0.57777 0.41415,-0.25676 0.78687,-0.47074 1.11821,-0.64196 0.33132,-0.17116 0.70406,-0.34235 1.11823,-0.51357 0.49696,-0.21396 0.95253,-0.38515 1.3667,-0.51357 0.49696,-0.17116 0.99395,-0.32095 1.49095,-0.44938 0.49696,-0.17116 0.95254,-0.32095 1.36671,-0.44937 0.49696,-0.12837 0.99395,-0.23535 1.49095,-0.32098 0.57979,-0.12836 1.1182,-0.23536 1.6152,-0.32098 0.57979,-0.0856 1.20103,-0.17116 1.86369,-0.25679 0.66262,-0.0856 1.32526,-0.17115 1.98794,-0.25679 1.32526,-0.12835 2.5263,-0.19255 3.60314,-0.19259 h 53.55006" />
          <g
             style="font-style:normal;font-variant:normal;font-weight:bold;font-stretch:normal;font-size:91.4526825px;line-height:125%;font-family:'Enter Sansman';-inkscape-font-specification:'Enter Sansman Bold';letter-spacing:0px;word-spacing:0px;fill:#ff0000;fill-opacity:1;stroke:none"
             id="g3259"
             transform="scale(1.3911893,0.71880944)">
            <path
               inkscape:connector-curvature="0"
               d="m 172.21485,182.44005 -8.21645,30.72238 h -19.11219 v -5.00132 c -3e-5,0.17863 -0.0596,0.35724 -0.17861,0.53586 -0.11912,0.17862 -0.20843,0.2977 -0.26793,0.35723 -0.11912,0.11909 -0.26796,0.26794 -0.44655,0.44655 -0.11911,0.17862 -0.20842,0.2977 -0.26793,0.35724 -0.11911,0.17862 -0.26796,0.35724 -0.44654,0.53585 -0.17865,0.17862 -0.3275,0.2977 -0.44655,0.35724 -0.11911,0.11908 -0.26796,0.26793 -0.44655,0.44655 -0.17865,0.17862 -0.3275,0.2977 -0.44654,0.35723 -0.35727,0.2977 -0.74428,0.56563 -1.16102,0.80379 -0.41681,0.17862 -0.83359,0.32747 -1.25033,0.44654 -0.35727,0.0595 -0.77404,0.14885 -1.25033,0.26793 -0.41681,0.0595 -0.83358,0.0893 -1.25033,0.0893 h -19.91597 c -1.07171,0 -1.99457,-0.0893 -2.76858,-0.26793 -0.41678,-0.0595 -0.80379,-0.14885 -1.16102,-0.26792 -0.35724,-0.17862 -0.71448,-0.35724 -1.07171,-0.53586 -0.2977,-0.17862 -0.5954,-0.35724 -0.8931,-0.53586 -0.23816,-0.23815 -0.47631,-0.50608 -0.71447,-0.80378 -0.17862,-0.23815 -0.35724,-0.53585 -0.53586,-0.89309 -0.11908,-0.35724 -0.23815,-0.71447 -0.35723,-1.07171 -0.11908,-0.35724 -0.20839,-0.74424 -0.26793,-1.16102 -0.0595,-0.47631 -0.0893,-0.95263 -0.0893,-1.42895 0,-0.47631 0.0298,-0.95263 0.0893,-1.42895 0,-0.53585 0.0298,-1.04193 0.0893,-1.51826 0.0595,-0.4763 0.14885,-0.98239 0.26793,-1.51825 0.11907,-0.53585 0.20838,-1.04193 0.26792,-1.51826 0.11908,-0.4763 0.23816,-0.95262 0.35724,-1.42895 0.11908,-0.53584 0.23816,-1.01216 0.35724,-1.42895 0.0595,-0.41676 0.14884,-0.8633 0.26792,-1.33964 0.17862,-0.4763 0.32747,-0.92284 0.44655,-1.33964 0.11908,-0.41675 0.26793,-0.8633 0.44655,-1.33964 0.17861,-0.53583 0.32746,-1.04192 0.44654,-1.51825 0.17862,-0.4763 0.35724,-0.92284 0.53586,-1.33964 0.23815,-0.47629 0.47631,-0.95261 0.71447,-1.42895 0.17862,-0.41675 0.41678,-0.8633 0.71448,-1.33964 0.29769,-0.47629 0.56562,-0.89306 0.80378,-1.25033 0.29769,-0.41675 0.62516,-0.80375 0.9824,-1.16102 0.41677,-0.41675 0.80378,-0.77398 1.16102,-1.07171 0.41677,-0.35721 0.86332,-0.68467 1.33964,-0.9824 0.47631,-0.29767 0.95262,-0.53583 1.42895,-0.71448 0.83354,-0.3572 1.72663,-0.62513 2.67928,-0.80378 0.95262,-0.17859 1.93502,-0.26789 2.9472,-0.26793 h 22.1487 c 0.17858,4e-5 0.38697,-0.0297 0.62516,-0.0893 0.29766,-0.0595 0.53582,-0.14881 0.71448,-0.26792 0.23812,-0.0595 0.47628,-0.17859 0.71447,-0.35724 0.23812,-0.23813 0.47628,-0.44651 0.71448,-0.62517 0.11904,-0.0595 0.23811,-0.17858 0.35723,-0.35723 0.17858,-0.17859 0.32743,-0.35721 0.44655,-0.53586 0.11904,-0.17858 0.20835,-0.3572 0.26793,-0.53585 0.11904,-0.17859 0.20834,-0.32744 0.26793,-0.44655 0.11903,-0.3572 0.11903,-0.71444 0,-1.07171 -0.0596,-0.17858 -0.11912,-0.32743 -0.17862,-0.44655 -0.0596,-0.17858 -0.14889,-0.32743 -0.26793,-0.44654 -0.11912,-0.11905 -0.2382,-0.23812 -0.35724,-0.35724 -0.11912,-0.11904 -0.26797,-0.23812 -0.44654,-0.35724 -0.29774,-0.17858 -0.62521,-0.26789 -0.98241,-0.26793 h -29.47205 l 2.41135,-9.19885 h 41.08226 c 0.59534,5e-5 1.16096,0.0298 1.69687,0.0893 0.59534,0.0596 1.1312,0.11913 1.60757,0.17862 0.41672,0.11912 0.8335,0.26797 1.25033,0.44654 0.47626,0.17867 0.89303,0.35729 1.25033,0.53586 0.35718,0.17866 0.71441,0.41682 1.07171,0.71447 0.35718,0.29775 0.65487,0.59544 0.89309,0.8931 0.2381,0.29774 0.44649,0.65498 0.62517,1.07171 0.23809,0.35728 0.41671,0.71451 0.53585,1.07171 0.17856,0.35728 0.29764,0.74428 0.35724,1.16102 0.11902,0.35728 0.20833,0.71451 0.26793,1.07171 0.0595,0.41682 0.0892,0.83359 0.0893,1.25033 -6e-5,0.41682 -6e-5,0.83359 0,1.25033 -6e-5,0.53589 -0.0298,1.10152 -0.0893,1.69688 -0.0596,0.59543 -0.14891,1.16105 -0.26793,1.69687 -0.11914,0.53589 -0.23822,1.10152 -0.35724,1.69688 -0.0596,0.53589 -0.17868,1.04197 -0.35723,1.51826 m -23.75627,8.12714 h -10.53849 c -0.23818,2e-5 -0.50611,0.0596 -0.80378,0.17862 -0.23819,0.0596 -0.44658,0.1191 -0.62517,0.17861 -0.23818,0.11911 -0.50611,0.26795 -0.80378,0.44655 -0.23818,0.1191 -0.47634,0.26795 -0.71447,0.44655 -0.17865,0.17864 -0.38704,0.38703 -0.62517,0.62516 -0.17864,0.17864 -0.32749,0.35726 -0.44655,0.53586 -0.17864,0.23818 -0.32749,0.47633 -0.44654,0.71447 -0.1191,0.23818 -0.20841,0.44657 -0.26793,0.62517 l -1.78618,6.69819 c -0.0596,0.11909 -0.0893,0.26794 -0.0893,0.44655 -3e-5,0.17863 -3e-5,0.32748 0,0.44654 0.0595,0.17863 0.0893,0.35725 0.0893,0.53586 0.0595,0.17863 0.11905,0.32748 0.17861,0.44655 0.11906,0.11909 0.23814,0.26793 0.35724,0.44654 0.1786,0.17863 0.35722,0.29771 0.53586,0.35724 0.11905,0.11909 0.2679,0.2084 0.44654,0.26793 0.23814,0.0596 0.41676,0.0893 0.53586,0.0893 h 8.663 c 0.11904,10e-6 0.26789,10e-6 0.44654,0 0.17859,-0.0595 0.35721,-0.14884 0.53586,-0.26793 0.23812,-0.0595 0.44651,-0.17861 0.62516,-0.35724 0.23813,-0.17861 0.44652,-0.32746 0.62517,-0.44654 0.11904,-0.0595 0.23812,-0.17861 0.35724,-0.35724 0.17858,-0.17861 0.29766,-0.32746 0.35723,-0.44655 0.11905,-0.17861 0.23812,-0.35722 0.35724,-0.53585 0.11904,-0.17861 0.17858,-0.32746 0.17862,-0.44655 l 2.85789,-10.6278"
               style="font-style:italic;-inkscape-font-specification:'Enter Sansman Bold Italic';fill:#ff0000"
               id="path3243" />
            <path
               inkscape:connector-curvature="0"
               d="m 202.04414,178.24251 -9.46678,35.09854 h -21.70215 l 12.5033,-46.97667 h 45.63703 c 1.13119,5e-5 2.17313,0.14889 3.12582,0.44654 0.95257,0.23821 1.8159,0.59545 2.58997,1.07172 0.71441,0.41682 1.30981,0.95267 1.78619,1.60756 0.47625,0.59544 0.89302,1.28014 1.25033,2.05412 0.11901,0.29773 0.20832,0.6252 0.26792,0.9824 0.11902,0.35727 0.2381,0.71451 0.35724,1.07171 0.0595,0.41681 0.0892,0.83359 0.0893,1.25033 0.0595,0.41681 0.0892,0.86336 0.0893,1.33964 -0.0596,0.47635 -0.0894,0.95267 -0.0893,1.42895 -7e-5,0.47635 -0.0596,0.95266 -0.17862,1.42894 -0.0596,0.47635 -0.14891,1.01221 -0.26793,1.60757 -0.11914,0.53589 -0.23822,1.07174 -0.35723,1.60757 l -8.30576,31.07962 h -21.61285 l 9.37748,-35.00923 c 0.0595,-0.23812 0.0893,-0.44651 0.0893,-0.62517 -5e-5,-0.23812 -5e-5,-0.41674 0,-0.53585 -0.0596,-0.17858 -0.11913,-0.32743 -0.17862,-0.44655 -0.0596,-0.17858 -0.11913,-0.32743 -0.17862,-0.44654 -0.11912,-0.11905 -0.26797,-0.23812 -0.44655,-0.35724 -0.11912,-0.11904 -0.2382,-0.20835 -0.35723,-0.26793 -0.17867,-0.0595 -0.38705,-0.0893 -0.62517,-0.0893 -0.17866,-0.0595 -0.35728,-0.0893 -0.53585,-0.0893 h -9.37748 c -0.11911,4e-5 -0.26796,0.0298 -0.44654,0.0893 -0.17865,4e-5 -0.35727,0.0298 -0.53586,0.0893 -0.23819,0.0596 -0.44658,0.14889 -0.62516,0.26793 -0.17865,0.11912 -0.3275,0.20842 -0.44655,0.26793 -0.11911,0.11911 -0.26796,0.23819 -0.44655,0.35723 -0.1191,0.11912 -0.26795,0.26797 -0.44654,0.44655 -0.11911,0.17865 -0.23819,0.38704 -0.35724,0.62517 -0.0596,0.17865 -0.11911,0.38704 -0.17862,0.62516"
               style="font-style:italic;-inkscape-font-specification:'Enter Sansman Bold Italic';fill:#ff0000"
               id="path3245" />
            <path
               inkscape:connector-curvature="0"
               d="m 299.74848,166.36438 -2.23273,8.663 h -28.84689 c -0.0596,3e-5 -0.14888,0.0298 -0.26793,0.0893 -0.11911,3e-5 -0.23818,3e-5 -0.35723,0 -0.11911,0.0596 -0.26796,0.11911 -0.44655,0.17861 -0.17865,0.0596 -0.3275,0.11912 -0.44655,0.17862 -0.1191,0.0596 -0.23818,0.14889 -0.35723,0.26793 -0.11911,0.0596 -0.20842,0.11912 -0.26793,0.17862 -0.11911,0.11912 -0.23819,0.23819 -0.35724,0.35724 -0.0596,0.11911 -0.0893,0.20842 -0.0893,0.26792 l -0.71447,2.58997 c -3e-5,0.11912 -3e-5,0.23819 0,0.35724 -3e-5,0.0596 0.0595,0.11911 0.17862,0.17862 0.0595,0.0596 0.11905,0.14888 0.17862,0.26793 0.11905,0.0596 0.20836,0.11911 0.26792,0.17861 0.11905,0.0596 0.23813,0.11912 0.35724,0.17862 0.11905,0.0596 0.20836,0.0893 0.26793,0.0893 0.17859,4e-5 0.32744,0.0298 0.44654,0.0893 0.17859,3e-5 0.29767,3e-5 0.35724,0 h 21.1663 c 0.29764,3e-5 0.62511,0.0298 0.9824,0.0893 0.35718,3e-5 0.68465,0.0298 0.9824,0.0893 0.29765,0.0596 0.59534,0.14888 0.89309,0.26793 0.35719,0.0596 0.65488,0.11911 0.8931,0.17862 0.29764,0.11911 0.56557,0.26796 0.80378,0.44654 0.29764,0.11911 0.56557,0.26796 0.80378,0.44655 0.17856,0.17865 0.38695,0.38704 0.62517,0.62516 0.2381,0.17865 0.44649,0.38704 0.62516,0.62517 0.11902,0.17865 0.2381,0.4168 0.35724,0.71447 0.11902,0.23819 0.2381,0.47635 0.35724,0.71448 0.0595,0.23818 0.11902,0.53588 0.17861,0.89309 0.11903,0.29772 0.17856,0.59542 0.17862,0.89309 -6e-5,0.29773 -6e-5,0.62519 0,0.9824 0.0595,0.35727 0.0595,0.7145 0,1.07171 -0.0596,0.35727 -0.11913,0.74427 -0.17862,1.16103 -0.0596,0.4168 -0.17867,0.86334 -0.35723,1.33963 l -2.8579,10.98504 c -0.11913,0.41679 -0.26798,0.83357 -0.44655,1.25033 -0.11913,0.41679 -0.26798,0.8038 -0.44654,1.16102 -0.17867,0.35725 -0.38706,0.74426 -0.62517,1.16102 -0.23821,0.35725 -0.4466,0.71448 -0.62516,1.07171 -0.17867,0.29771 -0.41683,0.62518 -0.71448,0.98241 -0.29774,0.2977 -0.56567,0.56563 -0.80378,0.80378 -0.23821,0.2977 -0.5359,0.5954 -0.89309,0.89309 -0.29775,0.23816 -0.56568,0.47632 -0.80378,0.71448 -0.29775,0.23816 -0.62522,0.47632 -0.98241,0.71447 -0.35728,0.17862 -0.68475,0.35724 -0.9824,0.53586 -0.35728,0.17862 -0.71452,0.387 -1.07171,0.62516 -0.35728,0.17862 -0.71452,0.32747 -1.07171,0.44655 -0.41682,0.17862 -0.86337,0.32747 -1.33964,0.44654 -0.47636,0.11908 -0.9229,0.20839 -1.33964,0.26793 -0.47636,0.11908 -0.95267,0.20839 -1.42895,0.26793 -0.41681,0 -0.80382,0 -1.16102,0 h -41.43949 l 2.23273,-8.48438 h 30.72238 c 0.0595,1e-5 0.17859,1e-5 0.35724,0 0.17859,-0.0595 0.32744,-0.11907 0.44655,-0.17862 0.11904,-0.0595 0.23812,-0.11907 0.35723,-0.17862 0.17859,-0.0595 0.32744,-0.14884 0.44655,-0.26793 0.11905,-0.0595 0.23812,-0.11907 0.35724,-0.17861 0.11904,-0.11907 0.20835,-0.23815 0.26792,-0.35724 0.11905,-0.0595 0.20836,-0.14884 0.26793,-0.26793 0.0595,-0.17861 0.11905,-0.32746 0.17862,-0.44654 l 0.62517,-2.58997 c 0.0595,-0.0595 0.0893,-0.14884 0.0893,-0.26793 -3e-5,-0.11907 -0.0298,-0.23815 -0.0893,-0.35724 -4e-5,-0.0595 -0.0596,-0.14883 -0.17862,-0.26793 -0.0596,-0.11906 -0.11912,-0.20837 -0.17862,-0.26792 -0.0596,-0.0595 -0.17865,-0.11907 -0.35724,-0.17862 -0.11911,-0.11907 -0.20842,-0.17861 -0.26793,-0.17862 -0.0596,-0.0595 -0.17865,-0.0893 -0.35723,-0.0893 -0.11912,-0.0595 -0.23819,-0.0893 -0.35724,-0.0893 h -21.16629 c -0.35725,2e-5 -0.74426,2e-5 -1.16103,0 -0.41678,-0.0595 -0.83356,-0.11906 -1.25033,-0.17862 -0.41678,-0.0595 -0.83356,-0.14883 -1.25032,-0.26793 -0.41679,-0.1786 -0.80379,-0.35722 -1.16103,-0.53585 -0.23816,-0.0595 -0.47632,-0.1786 -0.71447,-0.35724 -0.17862,-0.1786 -0.35724,-0.35722 -0.53585,-0.53585 -0.23817,-0.17861 -0.44656,-0.35722 -0.62517,-0.53586 -0.11908,-0.23814 -0.23816,-0.4763 -0.35724,-0.71447 -0.11908,-0.1786 -0.23816,-0.38699 -0.35723,-0.62517 -0.11909,-0.23814 -0.17863,-0.4763 -0.17862,-0.71447 -0.0596,-0.23814 -0.11908,-0.50607 -0.17862,-0.80379 -0.0595,-0.29767 -0.0893,-0.5656 -0.0893,-0.80378 0,-0.23814 0,-0.47629 0,-0.71447 0,-0.29768 0.0298,-0.56561 0.0893,-0.80379 0.0595,-0.23813 0.11907,-0.50606 0.17862,-0.80378 0.0595,-0.29767 0.11907,-0.59537 0.17862,-0.89309 l 3.39375,-12.5033 c 0.11907,-0.41674 0.23815,-0.80375 0.35724,-1.16102 0.17861,-0.41674 0.32745,-0.77397 0.44654,-1.07171 0.23815,-0.3572 0.44654,-0.71444 0.62517,-1.07171 0.23815,-0.3572 0.4763,-0.68467 0.71447,-0.9824 0.23815,-0.23812 0.50608,-0.50605 0.80378,-0.80379 0.29769,-0.35719 0.56562,-0.65489 0.80379,-0.89309 0.23814,-0.23811 0.50607,-0.47627 0.80378,-0.71447 0.35723,-0.29766 0.68469,-0.53582 0.9824,-0.71448 0.35723,-0.23811 0.71446,-0.4465 1.07171,-0.62516 0.35723,-0.23812 0.68469,-0.4465 0.98241,-0.62517 0.35722,-0.17857 0.71445,-0.32742 1.07171,-0.44654 0.41676,-0.17858 0.80376,-0.32742 1.16102,-0.44655 0.41676,-0.11903 0.8633,-0.23811 1.33964,-0.35724 0.47629,-0.11903 0.95261,-0.23811 1.42894,-0.35723 0.95262,-0.17858 1.81594,-0.26788 2.58997,-0.26793 h 38.49229"
               style="font-style:italic;-inkscape-font-specification:'Enter Sansman Bold Italic';fill:#ff0000"
               id="path3247" />
          </g>
          <path
             sodipodi:nodetypes="cccccccccccccccc"
             inkscape:connector-curvature="0"
             id="path3295-7-3-6"
             d="M 76.683024,159.18252 88.86759,133.5061 98.94811,112.29699 c 1.07212,-2.58688 3.24968,-4.52215 5.3348,-4.3625 l 14.73632,0.0196 17.96708,0.12445 29.30834,0.20307 c 3.82696,0.51058 5.21884,2.08278 3.36636,6.39034 -0.68981,1.68709 -1.82475,3.96573 -2.63477,5.66908 -1.38671,3.66512 -3.15975,3.02026 -5.6786,3.01618 l -33.03899,-0.0536 c -2.10909,-0.18475 -3.07275,1.45953 -4.09115,3.35795 l -15.36999,31.09306 c -1.14623,2.22124 -1.83207,1.67644 -3.14713,1.66566 -9.672455,-0.0794 -19.3449,-0.15854 -29.017356,-0.23781 z"
             style="fill:#000000;stroke:none" />
          <path
             sodipodi:nodetypes="cccccccccccccccc"
             inkscape:connector-curvature="0"
             id="path3295-7-3"
             d="m 71.528113,159.02408 12.184566,-25.67641 10.08052,-21.20911 c 1.07212,-2.58688 3.249684,-4.52215 5.334803,-4.3625 l 14.736318,0.0196 17.96708,0.12444 29.30834,0.20307 c 3.82696,0.51059 5.21884,2.08278 3.36636,6.39034 -0.68981,1.68709 -1.82475,3.96572 -2.63477,5.66907 -1.38671,3.66513 -3.15975,3.02027 -5.6786,3.0162 l -33.039,-0.0536 c -2.10908,-0.18475 -3.07274,1.45952 -4.09114,3.35794 l -15.36999,31.09306 c -1.14623,2.22123 -1.83207,1.67644 -3.14713,1.66566 -9.672456,-0.0793 -19.344901,-0.15854 -29.017357,-0.23782 z"
             style="fill:#ff0000;stroke:none" />
          <path
             sodipodi:nodetypes="cccccccc"
             inkscape:connector-curvature="0"
             id="path3297-17-3-5"
             d="m 123.2217,139.31839 5.12654,-10.10087 25.2551,0.12101 c 1.38486,-0.17022 2.21164,1.01136 1.08854,2.64 l -1.69072,3.37487 -1.44197,2.64403 c -0.77132,1.53086 -1.83142,1.61745 -3.20401,1.60559 z"
             style="fill:#000000;stroke:none" />
          <path
             sodipodi:nodetypes="cccccccc"
             inkscape:connector-curvature="0"
             id="path3297-17-3"
             d="m 117.69434,139.3719 5.12654,-10.10085 25.2551,0.121 c 1.38486,-0.17021 2.21164,1.01136 1.08853,2.64001 l -1.69071,3.37487 -1.44197,2.64402 c -0.77132,1.53087 -1.83142,1.61747 -3.20401,1.60559 z"
             style="fill:#ff0000;stroke:none" />
        </g>
      </g>
      <g
         id="g3310">
        <path
           id="path3141"
           style="font-style:normal;font-variant:normal;font-weight:500;font-stretch:normal;font-size:27.40997124px;line-height:125%;font-family:Mywriting;-inkscape-font-specification:'Mywriting Medium';letter-spacing:0px;word-spacing:0px;fill:#000000;fill-opacity:1;stroke:none"
           d="m 36.848409,107.30409 c -0.132229,0.9971 -0.370239,2.97316 -0.714015,5.92819 3.67584,-0.562 7.206241,-1.46845 10.591216,-2.71936 1.956906,-0.72515 3.37171,-1.3778 4.244419,-1.95793 1.057774,-0.6889 1.375112,-1.27809 0.952019,-1.76758 -0.50248,-0.56199 -1.996619,-0.83393 -4.482425,-0.81581 -2.062726,1e-5 -4.244435,0.19943 -6.545132,0.59826 -0.105789,0.0181 -0.634693,0.14504 -1.586699,0.38071 -0.872695,0.21756 -1.639599,0.3354 -2.300712,0.35352 h -0.158671 m 9.202853,-6.7984 c -0.264469,-0.23566 -0.885926,-0.40789 -1.864372,-0.51668 -1.110704,-0.108754 -2.47262,-0.09969 -4.085749,0.02718 -0.608247,0.0544 -1.21648,0.11787 -1.824703,0.19036 -0.343796,1.21466 -0.647913,2.51995 -0.912352,3.91588 1.322237,-0.36257 2.075919,-0.58012 2.261046,-0.65265 0.211546,-0.0907 0.647889,-0.25379 1.309027,-0.48949 0.687554,-0.23566 1.335455,-0.47133 1.943705,-0.70703 0.608218,-0.25379 1.163562,-0.50759 1.666034,-0.76142 0.793331,-0.38069 1.295784,-0.70701 1.507364,-0.97897 v -0.0272 m -17.652024,0.21755 c 0.02644,-0.0181 0.185113,-0.13595 0.47601,-0.35352 0.290892,-0.21753 0.595009,-0.426009 0.912352,-0.625442 0.317336,-0.217539 0.608231,-0.389759 0.872684,-0.516678 0.899125,-0.435078 2.181704,-0.824856 3.847745,-1.169325 1.666024,-0.344429 3.371723,-0.589171 5.117103,-0.734227 1.956914,-0.163141 3.689059,-0.163141 5.196438,0 2.009799,0.199443 3.464271,0.697986 4.363422,1.495648 1.08422,0.924592 1.190001,1.930754 0.31734,3.018474 -0.370252,0.47138 -0.952042,0.94273 -1.745369,1.41407 3.834497,0.0182 6.35999,0.74331 7.576486,2.17549 0.423091,0.50762 0.674319,1.01524 0.753683,1.52284 0.07931,0.50762 -0.01331,0.98804 -0.277673,1.44126 -0.238034,0.43511 -0.528928,0.82487 -0.872683,1.16931 -0.343814,0.32634 -0.753711,0.6436 -1.229692,0.95178 -1.137161,0.76143 -2.829638,1.55911 -5.077437,2.39303 -4.072544,1.50472 -8.343404,2.5562 -12.812591,3.15446 l -0.03967,0.4351 c -0.05289,0.38071 -0.290904,0.69796 -0.714015,0.95177 -0.423127,0.23568 -0.899137,0.33538 -1.428029,0.29913 -0.50246,-0.0362 -0.92558,-0.17223 -1.269359,-0.4079 -0.317344,-0.23568 -0.502459,-0.51668 -0.555345,-0.843 -1.718926,0.1269 -3.464294,0.19035 -5.236106,0.19035 -0.555343,0 -1.018131,-0.1269 -1.388361,-0.38071 -0.396672,-0.27193 -0.59501,-0.59826 -0.595011,-0.97897 1e-6,-0.38071 0.198339,-0.69796 0.595011,-0.95177 0.37023,-0.27194 0.833018,-0.40791 1.388361,-0.40791 1.877592,0 3.728739,-0.0815 5.553446,-0.24474 0.02644,-0.19941 0.09255,-0.87018 0.198338,-2.01232 0.132215,-1.14212 0.211554,-1.88541 0.238005,-2.22988 0.05288,-0.36256 0.132215,-1.02428 0.238005,-1.98512 0.132215,-0.97896 0.251221,-1.74038 0.357006,-2.28426 l 0.357007,-1.95794 c 0.158663,-0.77953 0.330556,-1.50469 0.515678,-2.17549 -0.476017,0.12692 -0.833023,0.25383 -1.071021,0.38071 -0.185122,0.0907 -0.357014,0.19038 -0.515678,0.29913 -0.13223,0.0907 -0.317346,0.22664 -0.555345,0.40791 -0.211565,0.16318 -0.449569,0.33541 -0.714014,0.51668 -0.396679,0.25382 -0.872688,0.38073 -1.428029,0.38071 -0.528902,2e-5 -0.991689,-0.13595 -1.388361,-0.40791 -0.370231,-0.27191 -0.555345,-0.58917 -0.555345,-0.95177 0,-0.38069 0.198336,-0.70702 0.595012,-0.97897"
           inkscape:connector-curvature="0" />
        <path
           id="path3143"
           style="font-style:normal;font-variant:normal;font-weight:500;font-stretch:normal;font-size:27.40997124px;line-height:125%;font-family:Mywriting;-inkscape-font-specification:'Mywriting Medium';letter-spacing:0px;word-spacing:0px;fill:#000000;fill-opacity:1;stroke:none"
           d="m 68.400162,107.6848 c -0.476023,-0.0907 -1.15037,-0.11784 -2.02304,-0.0816 -0.502467,0.0182 -1.203259,0.24476 -2.102377,0.67984 -1.004918,0.4895 -1.956937,1.09682 -2.856058,1.82196 -0.50246,0.41699 -0.912357,0.83395 -1.229691,1.25091 2.0627,-0.3807 4.138629,-1.08773 6.227793,-2.1211 0.846226,-0.43508 1.50735,-0.95176 1.983373,-1.55002 m -12.772924,4.13341 c 0.05288,-0.18128 0.13223,-0.35351 0.238003,-0.51668 0.476009,-0.96082 1.309024,-1.93979 2.499052,-2.9369 1.110683,-0.90644 2.327152,-1.67692 3.649407,-2.31145 1.507354,-0.72515 2.882492,-1.11493 4.125417,-1.16932 1.851134,-0.0725 3.305607,0.0816 4.363421,0.46229 1.375121,0.48949 2.023023,1.25091 1.943705,2.28426 -0.02647,0.68891 -0.409914,1.36875 -1.150356,2.03951 -0.714031,0.67079 -1.573492,1.25091 -2.578385,1.74039 -2.723844,1.35969 -5.487343,2.25707 -8.290501,2.69216 0.343779,0.25381 0.753675,0.48043 1.229691,0.67984 1.031347,0.47136 3.094053,0.56201 6.188126,0.27194 2.538702,-0.2538 4.958414,-0.67077 7.259147,-1.25091 0.502433,-0.1269 1.004886,-0.10876 1.507363,0.0544 0.502433,0.14504 0.846216,0.39885 1.031355,0.76142 0.18509,0.34446 0.158646,0.68891 -0.07934,1.03336 -0.211584,0.34445 -0.581813,0.58013 -1.110689,0.70703 -2.512293,0.63452 -5.196457,1.0968 -8.052497,1.38687 -4.072537,0.39884 -7.060816,0.17222 -8.964848,-0.67984 -1.480922,-0.67077 -2.604832,-1.47752 -3.371735,-2.42023 -0.105775,-0.10877 -0.185116,-0.21755 -0.238005,-0.32632 -0.396675,-0.0907 -0.727237,-0.2538 -0.991686,-0.48948 -0.238006,-0.23568 -0.357008,-0.49855 -0.357008,-0.78862 0,-0.58012 0.383452,-0.98803 1.150358,-1.22371"
           inkscape:connector-curvature="0" />
        <path
           id="path3145"
           style="font-style:normal;font-variant:normal;font-weight:500;font-stretch:normal;font-size:27.40997124px;line-height:125%;font-family:Mywriting;-inkscape-font-specification:'Mywriting Medium';letter-spacing:0px;word-spacing:0px;fill:#000000;fill-opacity:1;stroke:none"
           d="m 81.604472,108.5278 c 0.370223,-0.47135 0.766897,-0.87926 1.190024,-1.22371 0.449557,-0.36258 0.938788,-0.64357 1.467696,-0.84301 0.555335,-0.21753 1.176792,-0.3535 1.86437,-0.4079 0.714004,-0.0725 1.441241,0.009 2.181712,0.24474 0.608221,0.1813 1.203232,0.4895 1.785035,0.92458 l 0.47601,0.38071 c 0.132215,0.10879 0.237991,0.19037 0.31734,0.24475 0.396659,0.25381 0.608218,0.57107 0.634679,0.95177 0.02643,0.36259 -0.158685,0.67984 -0.555344,0.95177 -0.370245,0.27194 -0.833031,0.41698 -1.388361,0.4351 -0.528914,0.0182 -0.9917,-0.10877 -1.388362,-0.38071 -0.185127,-0.10877 -0.396686,-0.2538 -0.63468,-0.4351 l -0.436341,-0.35351 c -0.158682,-0.1269 -0.264461,-0.19941 -0.31734,-0.21755 -0.31735,-0.0907 -0.647912,1e-5 -0.991686,0.27194 -0.634689,0.50762 -1.216479,1.35062 -1.745369,2.52899 -0.449573,1.01523 -0.793358,2.10298 -1.031354,3.26323 -0.238013,1.14213 -0.357015,1.97607 -0.357008,2.50181 -7e-6,0.16316 -0.01317,0.281 -0.03967,0.35352 -8e-6,0.0544 -8e-6,0.10877 0,0.16316 -0.05289,0.1269 -0.13223,0.24474 -0.238006,0.35352 -0.185121,0.23567 -0.436348,0.41696 -0.753681,0.54386 -0.687575,0.23568 -1.361921,0.21755 -2.023041,-0.0544 -0.185119,-0.0907 -0.343788,-0.19034 -0.47601,-0.29912 -0.13223,-0.12691 -0.224785,-0.21755 -0.277672,-0.27193 -0.02645,-0.0725 -0.03967,-0.11785 -0.03967,-0.13597 -0.02645,-0.0544 -0.05289,-0.11784 -0.07934,-0.19036 -0.02645,-0.0363 -0.03967,-0.0725 -0.03967,-0.10877 v -0.10878 -0.10877 c -3e-6,-0.0544 -0.01317,-0.1813 -0.03967,-0.38071 -3e-6,-0.19942 -3e-6,-0.35352 0,-0.46229 -0.05289,-1.10587 -0.10579,-1.83103 -0.15867,-2.17549 -0.13223,-0.99709 -0.238008,-1.70413 -0.31734,-2.1211 -0.02645,-0.18128 -0.07934,-0.5076 -0.15867,-0.97897 -0.07934,-0.47135 -0.145449,-0.83392 -0.198338,-1.08774 -0.07934,-0.58011 -0.185116,-1.80383 -0.317339,-3.67112 -0.02645,-0.36258 0.145446,-0.67983 0.515677,-0.95178 0.370227,-0.29005 0.819791,-0.44415 1.348694,-0.46229 0.55534,-0.0182 1.031349,0.0997 1.428029,0.35352 0.423113,0.25382 0.647897,0.57107 0.674347,0.95177 0.07934,1.25092 0.119003,1.92169 0.119003,2.01233"
           inkscape:connector-curvature="0" />
        <path
           id="path3147"
           style="font-style:normal;font-variant:normal;font-weight:500;font-stretch:normal;font-size:27.40997124px;line-height:125%;font-family:Mywriting;-inkscape-font-specification:'Mywriting Medium';letter-spacing:0px;word-spacing:0px;fill:#000000;fill-opacity:1;stroke:none"
           d="m 100.39321,106.76021 c -0.0793,-0.0544 -0.11901,-0.0635 -0.119,-0.0272 -0.449572,0.12691 -1.018139,0.50762 -1.705698,1.14213 -0.925583,0.87021 -1.917269,2.11204 -2.97506,3.72551 0.05288,1.88543 0.07934,3.99746 0.07934,6.33611 -6e-6,0.38071 -0.198344,0.70703 -0.595013,0.97896 -0.370235,0.25381 -0.833021,0.38071 -1.388361,0.38071 -0.555348,0 -1.031357,-0.1269 -1.428029,-0.38071 -0.370232,-0.27193 -0.555347,-0.59825 -0.555344,-0.97896 -3e-6,-3.98839 -0.13223,-7.88613 -0.396675,-11.69323 -0.02645,-0.38071 0.145445,-0.70703 0.515678,-0.97897 0.370226,-0.29006 0.81979,-0.44415 1.348693,-0.4623 0.55534,-0.0181 1.03135,0.0997 1.428029,0.35352 0.423114,0.25382 0.647896,0.56202 0.674347,0.92458 v 0.27194 l 0.119002,-0.0816 c 1.110682,-1.03335 2.221371,-1.71319 3.332068,-2.03952 0.846229,-0.25379 1.705683,-0.30818 2.578383,-0.16316 0.87267,0.16318 1.63957,0.51669 2.30071,1.06055 0.39666,0.34447 0.68755,0.90646 0.87268,1.686 0.0793,0.30821 0.14544,0.69798 0.19834,1.16932 0.79334,-0.79767 1.63957,-1.53189 2.53872,-2.20268 0.58177,-0.41695 1.28256,-0.82485 2.10238,-1.22371 0.6611,-0.30818 1.26933,-0.52572 1.8247,-0.65264 1.24289,-0.25379 2.2478,-0.0725 3.01473,0.54387 0.71399,0.58014 1.16355,1.5863 1.34869,3.01849 0.1322,1.03336 0.14542,2.30239 0.0397,3.80709 -0.21159,2.75562 -0.59504,4.98549 -1.15036,6.68962 -0.13224,0.36258 -0.43636,0.64358 -0.91235,0.84299 -0.44959,0.19943 -0.93882,0.25381 -1.4677,0.16316 -0.52892,-0.0725 -0.93882,-0.26286 -1.22969,-0.57105 -0.29091,-0.32632 -0.38347,-0.67078 -0.27767,-1.03336 0.52888,-1.54096 0.88588,-3.61674 1.07102,-6.22733 0.10576,-1.39592 0.10576,-2.54712 0,-3.45358 -0.0529,-0.29005 -0.1058,-0.56198 -0.15867,-0.8158 -0.52892,0.27194 -0.95204,0.52575 -1.26936,0.76142 -1.08426,0.81582 -2.06272,1.72226 -2.93539,2.71935 -0.8727,1.01524 -1.46771,1.97607 -1.78504,2.88252 -0.0529,0.0907 -0.0926,0.34446 -0.119,0.76142 -0.0265,0.48948 -0.10579,0.87926 -0.238,1.16932 -2e-5,0.1813 -0.0132,0.35352 -0.0397,0.51668 -0.0265,0.45322 -0.0794,0.82488 -0.15867,1.11494 -0.10579,0.43509 -0.29091,0.77048 -0.55535,1.00616 -0.31735,0.2538 -0.71402,0.41696 -1.19002,0.48948 -0.66114,0.0907 -1.24293,-0.0181 -1.74537,-0.32632 -0.34379,-0.21755 -0.56858,-0.48043 -0.67435,-0.78861 -0.0793,-0.23568 -0.10578,-0.50761 -0.0793,-0.81581 0.0264,-0.54387 0.1851,-1.10587 0.47601,-1.686 0.0264,-0.83394 -0.0132,-1.83103 -0.119,-2.9913 -1e-5,-0.0725 -0.0132,-0.26286 -0.0397,-0.57106 -1e-5,-0.32632 -0.0132,-0.68889 -0.0397,-1.08775 -0.0264,-0.41695 -0.0661,-0.80673 -0.119,-1.16931 -0.0529,-0.67077 -0.13223,-1.20558 -0.23801,-1.60442 -0.0264,-0.12689 -0.0793,-0.29005 -0.15867,-0.48949"
           inkscape:connector-curvature="0" />
        <path
           id="path3149"
           style="font-style:normal;font-variant:normal;font-weight:500;font-stretch:normal;font-size:27.40997124px;line-height:125%;font-family:Mywriting;-inkscape-font-specification:'Mywriting Medium';letter-spacing:0px;word-spacing:0px;fill:#000000;fill-opacity:1;stroke:none"
           d="m 119.65053,106.92337 c -0.0793,0.19944 -0.18512,0.41699 -0.31734,0.65265 -0.10579,0.23569 -0.19834,0.43511 -0.27767,0.59826 -0.0529,0.16317 -0.10579,0.32633 -0.15867,0.48948 -0.10579,0.43511 -0.1719,1.11494 -0.19834,2.03951 -0.0264,0.9246 0.0661,1.95795 0.27768,3.10007 0.21155,1.06962 0.52889,1.85823 0.95202,2.36584 0.1851,0.23568 0.34377,0.34445 0.47601,0.32633 1.11068,-0.14504 2.20814,-0.98803 3.29239,-2.52901 0.66112,-0.97896 1.36191,-2.3749 2.10238,-4.18781 -2e-5,-0.39882 0.013,-0.7614 0.0396,-1.08773 0.0528,-1.19651 0.26445,-2.08483 0.63468,-2.66497 0.29089,-0.43509 0.52889,-0.75235 0.71402,-0.95178 0.21155,-0.21754 0.44955,-0.38976 0.71401,-0.51668 0.476,-0.23566 0.99167,-0.30817 1.54703,-0.21755 0.66111,0.0907 1.13712,0.3354 1.42803,0.73423 0.15866,0.21756 0.238,0.47137 0.23801,0.76142 -1e-5,0.10879 -0.013,0.23569 -0.0396,0.38071 l -0.19834,0.81581 c -0.23802,0.83394 -0.60826,1.8673 -1.11069,3.10006 0.0265,0.52575 0.0661,1.08775 0.11896,1.686 0.21153,2.32052 0.52887,4.09716 0.95202,5.32994 0.10579,0.36258 0.013,0.70704 -0.27767,1.03336 -0.26448,0.30819 -0.67437,0.50761 -1.2297,0.59825 -0.52892,0.0725 -1.03137,0.0182 -1.50736,-0.16315 -0.44957,-0.19943 -0.74047,-0.48949 -0.87269,-0.8702 -0.13227,-0.41697 -0.27769,-0.9699 -0.43634,-1.65881 -1.48093,1.77664 -3.25274,2.80093 -5.31543,3.07287 -1.05781,0.14504 -1.98339,0.0544 -2.77673,-0.27194 -0.79335,-0.32631 -1.44126,-0.77954 -1.94371,-1.35967 -0.68757,-0.79768 -1.1768,-1.91261 -1.46769,-3.34481 -0.21156,-1.25089 -0.30412,-2.41115 -0.27768,-3.48078 0.0264,-1.08773 0.11901,-1.93072 0.27768,-2.52899 0.0529,-0.21754 0.13221,-0.45322 0.238,-0.70703 0.10578,-0.2538 0.22478,-0.51667 0.35701,-0.78862 0.13221,-0.27192 0.21156,-0.44415 0.238,-0.51668 0.15867,-0.36256 0.47601,-0.6345 0.95202,-0.8158 0.47601,-0.18128 0.97846,-0.21754 1.50737,-0.10878 0.52889,0.10879 0.92556,0.32634 1.19002,0.65265 0.26444,0.32633 0.31733,0.67078 0.15867,1.03335"
           inkscape:connector-curvature="0" />
        <path
           id="path3151"
           style="font-style:normal;font-variant:normal;font-weight:500;font-stretch:normal;font-size:27.40997124px;line-height:125%;font-family:Mywriting;-inkscape-font-specification:'Mywriting Medium';letter-spacing:0px;word-spacing:0px;fill:#000000;fill-opacity:1;stroke:none"
           d="m 131.17889,109.56114 c -0.37023,-0.0362 -0.71401,-0.14501 -1.03135,-0.32632 -0.2909,-0.18128 -0.48924,-0.39883 -0.59502,-0.65264 -0.15867,-0.36257 -0.10579,-0.70702 0.15867,-1.03335 0.26445,-0.32632 0.66112,-0.54386 1.19003,-0.65265 l 0.39667,-0.0816 c 0.10579,-1.32341 0.27766,-2.84625 0.51568,-4.56852 0.0528,-0.38069 0.29089,-0.68889 0.71402,-0.92458 0.42311,-0.23566 0.91234,-0.33537 1.46768,-0.29913 0.55535,0.0363 1.00492,0.19944 1.3487,0.48948 0.34378,0.29008 0.48922,0.62547 0.43634,1.00616 -0.18511,1.16028 -0.33057,2.24802 -0.43634,3.26323 l 1.5867,-0.46229 c 2.72383,-0.77953 4.91875,-1.31434 6.5848,-1.60442 0.52888,-0.0725 1.03134,-0.009 1.50737,0.19036 0.47598,0.1813 0.76688,0.45324 0.87268,0.8158 0.13228,0.3626 0.0528,0.70705 -0.238,1.03336 -0.26448,0.32633 -0.66115,0.53481 -1.19003,0.62545 -1.48094,0.23569 -3.47752,0.71611 -5.98979,1.44126 l -3.2924,0.95178 c -0.0265,0.47136 -0.0265,0.93365 0,1.38686 0.0265,1.63163 0.18511,2.96411 0.47601,3.99746 0.29088,0.9971 0.66112,1.64068 1.11069,1.93074 0.0793,0.0182 0.18511,0.0363 0.31734,0.0544 0.952,0.10878 1.46768,0.17223 1.54703,0.19036 0.50245,0.0907 0.8859,0.30819 1.15036,0.65264 0.29088,0.32633 0.35699,0.67077 0.19833,1.03336 -0.13227,0.34445 -0.44957,0.61638 -0.95202,0.8158 -0.47602,0.18129 -0.97847,0.21754 -1.50736,0.10877 -0.0793,-0.0182 -0.15867,-0.0272 -0.23801,-0.0272 -0.0793,-0.0182 -0.19833,-0.0272 -0.357,-0.0272 -0.15867,-0.0181 -0.33057,-0.0453 -0.51568,-0.0815 -0.89913,-0.10876 -1.61314,-0.31725 -2.14205,-0.62544 -1.16357,-0.67078 -1.99659,-1.83104 -2.49904,-3.48078 -0.34379,-1.21464 -0.5289,-2.71935 -0.55534,-4.51414 -0.0265,-0.1994 -0.0396,-0.40789 -0.0396,-0.62545"
           inkscape:connector-curvature="0" />
        <path
           id="path3153"
           style="font-style:normal;font-variant:normal;font-weight:500;font-stretch:normal;font-size:27.40997124px;line-height:125%;font-family:Mywriting;-inkscape-font-specification:'Mywriting Medium';letter-spacing:0px;word-spacing:0px;fill:#000000;fill-opacity:1;stroke:none"
           d="m 150.09841,106.92337 c -0.0793,0.19944 -0.18512,0.41699 -0.31734,0.65265 -0.10579,0.23569 -0.19833,0.43511 -0.27767,0.59826 -0.0528,0.16317 -0.10579,0.32633 -0.15867,0.48948 -0.10579,0.43511 -0.1719,1.11494 -0.19834,2.03951 -0.0265,0.9246 0.0661,1.95795 0.27768,3.10007 0.21155,1.06962 0.52889,1.85823 0.95202,2.36584 0.18511,0.23568 0.34378,0.34445 0.47601,0.32633 1.11067,-0.14504 2.20813,-0.98803 3.2924,-2.52901 0.66111,-0.97896 1.36189,-2.3749 2.10236,-4.18781 0,-0.39882 0.013,-0.7614 0.0397,-1.08773 0.0528,-1.19651 0.26444,-2.08483 0.63468,-2.66497 0.29088,-0.43509 0.52889,-0.75235 0.71401,-0.95178 0.21155,-0.21754 0.44956,-0.38976 0.71402,-0.51668 0.47599,-0.23566 0.99167,-0.30817 1.54703,-0.21755 0.66111,0.0907 1.13712,0.3354 1.42803,0.73423 0.15866,0.21756 0.23799,0.47137 0.238,0.76142 -1e-5,0.10879 -0.013,0.23569 -0.0396,0.38071 l -0.19834,0.81581 c -0.23802,0.83394 -0.60825,1.8673 -1.11069,3.10006 0.0265,0.52575 0.0661,1.08775 0.11896,1.686 0.21155,2.32052 0.52889,4.09716 0.95202,5.32994 0.10579,0.36258 0.013,0.70704 -0.27767,1.03336 -0.26446,0.30819 -0.67436,0.50761 -1.22969,0.59825 -0.52892,0.0725 -1.03137,0.0182 -1.50737,-0.16315 -0.44957,-0.19943 -0.74047,-0.48949 -0.87268,-0.8702 -0.13228,-0.41697 -0.27769,-0.9699 -0.43635,-1.65881 -1.48092,1.77664 -3.25273,2.80093 -5.31543,3.07287 -1.05781,0.14504 -1.98337,0.0544 -2.77672,-0.27194 -0.79335,-0.32631 -1.44126,-0.77954 -1.94371,-1.35967 -0.68758,-0.79768 -1.1768,-1.91261 -1.4677,-3.34481 -0.21156,-1.25089 -0.30411,-2.41115 -0.27767,-3.48078 0.0265,-1.08773 0.11896,-1.93072 0.27767,-2.52899 0.0528,-0.21754 0.13227,-0.45322 0.23801,-0.70703 0.10579,-0.2538 0.22477,-0.51667 0.357,-0.78862 0.13228,-0.27192 0.21157,-0.44415 0.23801,-0.51668 0.15867,-0.36256 0.47601,-0.6345 0.95202,-0.8158 0.47601,-0.18128 0.97846,-0.21754 1.50736,-0.10878 0.52889,0.10879 0.92557,0.32634 1.19003,0.65265 0.26445,0.32633 0.31733,0.67078 0.15867,1.03335"
           inkscape:connector-curvature="0" />
        <path
           id="path3155"
           style="font-style:normal;font-variant:normal;font-weight:500;font-stretch:normal;font-size:27.40997124px;line-height:125%;font-family:Mywriting;-inkscape-font-specification:'Mywriting Medium';letter-spacing:0px;word-spacing:0px;fill:#000000;fill-opacity:1;stroke:none"
           d="m 191.92403,105.50931 -0.43634,-0.62545 -0.43634,-0.59826 c -0.0793,-0.10876 -0.19835,-0.25379 -0.35701,-0.4351 -0.15868,-0.18128 -0.31735,-0.3263 -0.47601,-0.4351 -0.13227,-0.12689 -0.29091,-0.25379 -0.47601,-0.38071 -0.71403,-0.41695 -1.56026,-0.7614 -2.53871,-1.03335 -0.97849,-0.29005 -1.95695,-0.46228 -2.93539,-0.51668 -2.08917,-0.0725 -3.60976,0.39885 -4.56177,1.41406 -0.15867,0.16319 -0.22479,0.29915 -0.19833,0.40791 0.0793,0.16318 0.31732,0.37166 0.71401,0.62545 0.58179,0.36259 2.3007,1.11495 5.15678,2.25707 2.90893,1.16026 4.95841,2.16643 6.14845,3.01848 2.16847,1.55911 2.82959,3.25417 1.98337,5.0852 -0.31735,0.6889 -0.83303,1.2781 -1.54703,1.76758 -0.71403,0.47136 -1.53382,0.82488 -2.45938,1.06055 -0.89914,0.23567 -1.8115,0.39884 -2.73705,0.48948 -0.89915,0.0907 -1.82472,0.1269 -2.77672,0.10878 -1.9305,-0.0544 -3.72876,-0.29913 -5.39479,-0.73423 -1.93048,-0.50761 -3.2924,-1.16932 -4.08575,-1.98513 -0.42311,-0.4351 -0.67435,-0.99709 -0.75368,-1.686 0,-0.0182 -0.013,-0.22661 -0.0397,-0.62545 0,-0.16316 -0.013,-0.29007 -0.0396,-0.38071 -0.10579,-0.38071 0,-0.72515 0.31734,-1.03336 0.31734,-0.30819 0.74047,-0.48948 1.26936,-0.54387 0.55535,-0.0725 1.0578,1e-5 1.50737,0.21755 0.44957,0.21755 0.71401,0.50762 0.79335,0.87019 0.0528,0.21756 0.0926,0.4623 0.11896,0.73423 v 0.19035 c 0,0.0725 0,0.13598 0,0.19036 0.0265,0.0544 0.0396,0.10878 0.0396,0.16316 0.0265,0.23568 0.0661,0.38072 0.11896,0.4351 0.29088,0.30819 1.0049,0.60732 2.14204,0.89739 1.26935,0.34445 2.65771,0.53481 4.16509,0.57106 1.56023,0.0363 2.81637,-0.0907 3.7684,-0.38071 0.97846,-0.29006 1.57346,-0.67077 1.78504,-1.14213 0.39666,-0.8158 0.0396,-1.61348 -1.07102,-2.39304 -0.89914,-0.67076 -2.64451,-1.51376 -5.2361,-2.52899 -0.0793,-0.0362 -0.37025,-0.14503 -0.87268,-0.32632 -0.47603,-0.18129 -0.79337,-0.29912 -0.95202,-0.35352 l -0.79335,-0.38071 -0.95203,-0.38071 c -0.21156,-0.0907 -0.47601,-0.20847 -0.79335,-0.35352 -0.31734,-0.16315 -0.59501,-0.30818 -0.83301,-0.43509 -0.23801,-0.12689 -0.4628,-0.2538 -0.67435,-0.38071 -0.97846,-0.6345 -1.5867,-1.29622 -1.82471,-1.98514 -0.34378,-0.85205 -0.11896,-1.69505 0.67435,-2.529 0.92558,-0.99707 2.10238,-1.704108 3.53041,-2.12109 1.42802,-0.416952 2.96182,-0.589181 4.60143,-0.516678 1.45446,0.05437 2.85603,0.281014 4.20474,0.67984 1.40158,0.398856 2.61804,0.915538 3.64941,1.550028 0.31733,0.1813 0.60821,0.38979 0.87269,0.62545 0.29087,0.21757 0.55532,0.46231 0.79335,0.73423 l 0.55534,0.65264 c 0.13228,0.16318 0.3041,0.39886 0.51568,0.70704 l 0.39668,0.57106 c 0.23797,0.32633 0.26443,0.67079 0.0793,1.03336 -0.1587,0.34447 -0.48925,0.60733 -0.99168,0.78861 -0.47604,0.16317 -0.97849,0.19037 -1.50737,0.0815 -0.50248,-0.12689 -0.88593,-0.36256 -1.15036,-0.70703"
           inkscape:connector-curvature="0" />
        <path
           id="path3157"
           style="font-style:normal;font-variant:normal;font-weight:500;font-stretch:normal;font-size:27.40997124px;line-height:125%;font-family:Mywriting;-inkscape-font-specification:'Mywriting Medium';letter-spacing:0px;word-spacing:0px;fill:#000000;fill-opacity:1;stroke:none"
           d="m 208.01105,107.6848 c -0.47601,-0.0907 -1.15035,-0.11784 -2.02302,-0.0816 -0.50248,0.0182 -1.20327,0.24476 -2.10238,0.67984 -1.00492,0.4895 -1.95694,1.09682 -2.85606,1.82196 -0.50247,0.41699 -0.91236,0.83395 -1.2297,1.25091 2.0627,-0.3807 4.13864,-1.08773 6.2278,-2.1211 0.84622,-0.43508 1.50735,-0.95176 1.98336,-1.55002 m -12.77292,4.13341 c 0.053,-0.18128 0.13227,-0.35351 0.23801,-0.51668 0.47601,-0.96082 1.30902,-1.93979 2.49905,-2.9369 1.11069,-0.90644 2.32715,-1.67692 3.64941,-2.31145 1.50735,-0.72515 2.88249,-1.11493 4.12542,-1.16932 1.85113,-0.0725 3.3056,0.0816 4.36341,0.46229 1.37512,0.48949 2.02303,1.25091 1.94371,2.28426 -0.0265,0.68891 -0.40992,1.36875 -1.15036,2.03951 -0.71403,0.67079 -1.57349,1.25091 -2.57839,1.74039 -2.72384,1.35969 -5.48733,2.25707 -8.29049,2.69216 0.34378,0.25381 0.75367,0.48043 1.22969,0.67984 1.03134,0.47136 3.09405,0.56201 6.18812,0.27194 2.53871,-0.2538 4.95842,-0.67077 7.25915,-1.25091 0.50244,-0.1269 1.00489,-0.10876 1.50737,0.0544 0.50243,0.14504 0.84622,0.39885 1.03135,0.76142 0.18509,0.34446 0.15865,0.68891 -0.0793,1.03336 -0.21158,0.34445 -0.58182,0.58013 -1.11069,0.70703 -2.5123,0.63452 -5.19646,1.0968 -8.05251,1.38687 -4.07252,0.39884 -7.06081,0.17222 -8.96484,-0.67984 -1.48092,-0.67077 -2.60483,-1.47752 -3.37174,-2.42023 -0.10579,-0.10877 -0.18511,-0.21755 -0.238,-0.32632 -0.39668,-0.0907 -0.72723,-0.2538 -0.99169,-0.48948 -0.23801,-0.23568 -0.35701,-0.49855 -0.35701,-0.78862 0,-0.58012 0.38346,-0.98803 1.15036,-1.22371"
           inkscape:connector-curvature="0" />
        <path
           id="path3159"
           style="font-style:normal;font-variant:normal;font-weight:500;font-stretch:normal;font-size:27.40997124px;line-height:125%;font-family:Mywriting;-inkscape-font-specification:'Mywriting Medium';letter-spacing:0px;word-spacing:0px;fill:#000000;fill-opacity:1;stroke:none"
           d="m 221.01702,111.16556 c 0.37023,1.8673 0.67435,3.56236 0.91235,5.08521 1.93048,-0.4351 3.57006,-1.03336 4.91877,-1.79478 0.50244,-0.27194 1.04457,-0.60732 1.62637,-1.00616 0.63467,-0.47135 1.01811,-0.78861 1.15036,-0.95178 0.52888,-0.79767 0.50244,-1.74038 -0.0793,-2.82813 -0.55536,-1.08773 -1.4016,-1.80383 -2.53872,-2.14829 -0.68757,-0.19941 -1.63959,-0.11783 -2.85606,0.24475 -0.60824,0.18129 -1.12392,0.39884 -1.54703,0.65264 -0.39668,0.23569 -0.66114,0.45324 -0.79335,0.65265 -0.13227,0.19942 -0.23801,0.39884 -0.31734,0.59825 -0.053,0.1813 -0.13227,0.42605 -0.23801,0.73422 -0.0793,0.30821 -0.15867,0.56201 -0.238,0.76142 m -1.03136,-4.81325 c 0.76691,-0.43509 1.62637,-0.79766 2.57839,-1.08774 2.27426,-0.67077 4.28408,-0.75235 6.02946,-0.24475 1.11068,0.32634 2.0627,0.82489 2.85606,1.49565 0.81978,0.67078 1.44123,1.41408 1.86436,2.22988 0.89911,1.79477 0.85945,3.42639 -0.11896,4.89483 -0.2909,0.45323 -0.92558,1.01523 -1.90402,1.686 -0.68759,0.48949 -1.32227,0.90646 -1.90404,1.25091 -1.87762,1.05148 -4.24444,1.85822 -7.10049,2.42022 0.0793,0.85207 0.15867,1.82197 0.23801,2.90971 0.0265,0.38071 -0.14546,0.70703 -0.51568,0.97897 -0.37024,0.27194 -0.83302,0.41696 -1.38836,0.4351 -0.55535,0.0182 -1.03136,-0.0997 -1.42803,-0.35352 -0.39668,-0.25381 -0.60823,-0.57106 -0.63468,-0.95177 -0.15867,-2.93691 -0.6479,-6.43581 -1.46769,-10.49672 -0.053,-0.12689 -0.0793,-0.2538 -0.0793,-0.38071 l -0.87269,-4.24219 c -0.10579,-0.36257 0,-0.6889 0.31734,-0.97897 0.34378,-0.30818 0.79334,-0.48947 1.3487,-0.54387 0.50245,-0.0544 0.96523,0.0182 1.38835,0.21755 0.42311,0.18131 0.68757,0.43511 0.79335,0.76142"
           inkscape:connector-curvature="0" />
        <path
           id="path3161"
           style="font-style:normal;font-variant:normal;font-weight:500;font-stretch:normal;font-size:27.40997124px;line-height:125%;font-family:Mywriting;-inkscape-font-specification:'Mywriting Medium';letter-spacing:0px;word-spacing:0px;fill:#000000;fill-opacity:1;stroke:none"
           d="m 248.14834,108.22867 -0.31734,-0.16316 c -0.76693,-0.18129 -1.75861,-0.0453 -2.97507,0.4079 -1.21648,0.43511 -2.36683,1.13307 -3.45107,2.0939 -1.05781,0.92459 -1.73214,1.82198 -2.02304,2.69216 -0.23801,0.72517 -0.11896,1.26904 0.35701,1.63162 0.18511,0.16316 0.59501,0.23568 1.22969,0.21754 1.42801,-0.0362 2.7106,-0.62545 3.84775,-1.76758 0.74044,-0.74328 1.62635,-2.03044 2.65772,-3.86149 0.26443,-0.47134 0.48921,-0.88831 0.67435,-1.25089 m -0.83302,7.36945 c -1.74538,1.41407 -3.8081,2.15735 -6.18813,2.22987 -1.8776,0.0544 -3.3453,-0.32632 -4.40308,-1.14213 -1.32226,-1.05148 -1.71893,-2.39303 -1.19003,-4.02465 0.39666,-1.26902 1.30902,-2.52899 2.73706,-3.7799 0.87267,-0.76141 1.85113,-1.43218 2.93538,-2.01232 1.08424,-0.59825 2.34037,-1.05147 3.76842,-1.35968 1.42801,-0.30818 2.77671,-0.32631 4.04608,-0.0544 0.15866,0.0363 0.3041,0.0816 0.43635,0.13597 0.29087,-0.21754 0.63465,-0.35351 1.03135,-0.4079 0.79332,-0.1269 1.44123,0.0363 1.94369,0.48948 0.1851,0.14505 0.31733,0.30821 0.39668,0.48948 l 0.0396,0.40791 v 0.10877 0.10878 c -0.10579,0.562 -0.34379,1.33249 -0.714,2.31145 -0.34381,0.90646 -0.55537,1.5591 -0.63468,1.95793 -0.13227,0.59827 -0.2248,1.32343 -0.27767,2.17549 -0.0265,1.05149 -0.0396,1.62255 -0.0396,1.71319 0.0265,0.0907 0.10579,0.64358 0.238,1.65881 0.0528,0.38071 -0.10579,0.71609 -0.47601,1.00616 -0.34381,0.29007 -0.79338,0.45323 -1.34869,0.48949 -0.52892,0.0362 -1.00493,-0.0635 -1.42803,-0.29913 -0.42315,-0.25381 -0.66115,-0.56201 -0.71402,-0.92458 -0.0265,-0.16316 -0.0661,-0.38071 -0.11896,-0.65265 -0.0265,-0.29006 -0.0396,-0.49855 -0.0396,-0.62545"
           inkscape:connector-curvature="0" />
        <path
           id="path3163"
           style="font-style:normal;font-variant:normal;font-weight:500;font-stretch:normal;font-size:27.40997124px;line-height:125%;font-family:Mywriting;-inkscape-font-specification:'Mywriting Medium';letter-spacing:0px;word-spacing:0px;fill:#000000;fill-opacity:1;stroke:none"
           d="m 252.97041,109.56114 c -0.37024,-0.0362 -0.71402,-0.14501 -1.03136,-0.32632 -0.2909,-0.18128 -0.48923,-0.39883 -0.59501,-0.65264 -0.15867,-0.36257 -0.10579,-0.70702 0.15867,-1.03335 0.26445,-0.32632 0.66112,-0.54386 1.19003,-0.65265 l 0.39667,-0.0816 c 0.10579,-1.32341 0.27767,-2.84625 0.51568,-4.56852 0.0528,-0.38069 0.29088,-0.68889 0.71401,-0.92458 0.42312,-0.23566 0.91234,-0.33537 1.4677,-0.29913 0.55533,0.0363 1.0049,0.19944 1.3487,0.48948 0.34376,0.29008 0.48922,0.62547 0.43634,1.00616 -0.18513,1.16028 -0.33057,2.24802 -0.43634,3.26323 l 1.5867,-0.46229 c 2.72381,-0.77953 4.91874,-1.31434 6.58479,-1.60442 0.52889,-0.0725 1.03134,-0.009 1.50736,0.19036 0.476,0.1813 0.76689,0.45324 0.87269,0.8158 0.13227,0.3626 0.0528,0.70705 -0.23801,1.03336 -0.26447,0.32633 -0.66114,0.53481 -1.19002,0.62545 -1.48094,0.23569 -3.47753,0.71611 -5.98979,1.44126 l -3.29239,0.95178 c -0.0265,0.47136 -0.0265,0.93365 0,1.38686 0.0265,1.63163 0.18511,2.96411 0.47601,3.99746 0.29088,0.9971 0.6611,1.64068 1.11069,1.93074 0.0793,0.0182 0.18509,0.0363 0.31732,0.0544 0.95202,0.10878 1.4677,0.17223 1.54704,0.19036 0.50245,0.0907 0.88589,0.30819 1.15035,0.65264 0.29089,0.32633 0.35701,0.67077 0.19834,1.03336 -0.13227,0.34445 -0.44957,0.61638 -0.95202,0.8158 -0.47601,0.18129 -0.97847,0.21754 -1.50736,0.10877 -0.0793,-0.0182 -0.15867,-0.0272 -0.23801,-0.0272 -0.0793,-0.0182 -0.19834,-0.0272 -0.35699,-0.0272 -0.15869,-0.0181 -0.33059,-0.0453 -0.51568,-0.0815 -0.89914,-0.10876 -1.61316,-0.31725 -2.14205,-0.62544 -1.16358,-0.67078 -1.9966,-1.83104 -2.49905,-3.48078 -0.34379,-1.21464 -0.5289,-2.71935 -0.55534,-4.51414 -0.0265,-0.1994 -0.0397,-0.40789 -0.0397,-0.62545"
           inkscape:connector-curvature="0" />
        <path
           id="path3165"
           style="font-style:normal;font-variant:normal;font-weight:500;font-stretch:normal;font-size:27.40997124px;line-height:125%;font-family:Mywriting;-inkscape-font-specification:'Mywriting Medium';letter-spacing:0px;word-spacing:0px;fill:#000000;fill-opacity:1;stroke:none"
           d="m 271.88993,106.92337 c -0.0793,0.19944 -0.18513,0.41699 -0.31734,0.65265 -0.10579,0.23569 -0.19834,0.43511 -0.27767,0.59826 -0.053,0.16317 -0.10579,0.32633 -0.15867,0.48948 -0.10579,0.43511 -0.1719,1.11494 -0.19834,2.03951 -0.0265,0.9246 0.0661,1.95795 0.27767,3.10007 0.21155,1.06962 0.52889,1.85823 0.95202,2.36584 0.18511,0.23568 0.34378,0.34445 0.47601,0.32633 1.11068,-0.14504 2.20816,-0.98803 3.29241,-2.52901 0.6611,-0.97896 1.3619,-2.3749 2.10237,-4.18781 -10e-6,-0.39882 0.013,-0.7614 0.0397,-1.08773 0.0528,-1.19651 0.26443,-2.08483 0.63468,-2.66497 0.29087,-0.43509 0.52887,-0.75235 0.71401,-0.95178 0.21154,-0.21754 0.44954,-0.38976 0.71402,-0.51668 0.47599,-0.23566 0.99166,-0.30817 1.54702,-0.21755 0.66112,0.0907 1.13713,0.3354 1.42803,0.73423 0.15865,0.21756 0.23799,0.47137 0.238,0.76142 -1e-5,0.10879 -0.013,0.23569 -0.0396,0.38071 l -0.19834,0.81581 c -0.23802,0.83394 -0.60824,1.8673 -1.11069,3.10006 0.0265,0.52575 0.0661,1.08775 0.11896,1.686 0.21155,2.32052 0.52889,4.09716 0.95202,5.32994 0.10579,0.36258 0.013,0.70704 -0.27767,1.03336 -0.26446,0.30819 -0.67437,0.50761 -1.2297,0.59825 -0.5289,0.0725 -1.03135,0.0182 -1.50735,-0.16315 -0.44958,-0.19943 -0.74048,-0.48949 -0.87268,-0.8702 -0.13228,-0.41697 -0.27769,-0.9699 -0.43634,-1.65881 -1.48094,1.77664 -3.25276,2.80093 -5.31545,3.07287 -1.05781,0.14504 -1.98338,0.0544 -2.77673,-0.27194 -0.79335,-0.32631 -1.44125,-0.77954 -1.94371,-1.35967 -0.68756,-0.79768 -1.17679,-1.91261 -1.46768,-3.34481 -0.21156,-1.25089 -0.30413,-2.41115 -0.27767,-3.48078 0.0265,-1.08773 0.11896,-1.93072 0.27767,-2.52899 0.0528,-0.21754 0.13227,-0.45322 0.23799,-0.70703 0.10579,-0.2538 0.22479,-0.51667 0.35701,-0.78862 0.13227,-0.27192 0.21156,-0.44415 0.238,-0.51668 0.15867,-0.36256 0.47601,-0.6345 0.95202,-0.8158 0.47602,-0.18128 0.97847,-0.21754 1.50737,-0.10878 0.52891,0.10879 0.92557,0.32634 1.19003,0.65265 0.26444,0.32633 0.31734,0.67078 0.15867,1.03335"
           inkscape:connector-curvature="0" />
        <path
           id="path3167"
           style="font-style:normal;font-variant:normal;font-weight:500;font-stretch:normal;font-size:27.40997124px;line-height:125%;font-family:Mywriting;-inkscape-font-specification:'Mywriting Medium';letter-spacing:0px;word-spacing:0px;fill:#000000;fill-opacity:1;stroke:none"
           d="m 302.17233,99.064438 c 4.07251,-0.852049 8.56816,-1.278079 13.48694,-1.278099 0.55532,2e-5 1.01812,0.135988 1.38836,0.407904 0.39665,0.25382 0.59499,0.571085 0.59502,0.951776 -3e-5,0.38072 -0.19837,0.707043 -0.59502,0.978961 -0.37024,0.25383 -0.83304,0.38073 -1.38836,0.38071 -5.07745,2e-5 -9.6392,0.4895 -13.68527,1.46845 -0.37024,2.33866 -0.63469,4.33286 -0.79336,5.98259 4.68076,-1.45032 8.7665,-2.3205 12.25725,-2.61058 0.55533,-0.0362 1.04455,0.0635 1.4677,0.29913 0.4231,0.23568 0.6611,0.54388 0.71401,0.92458 0.0793,0.36259 -0.053,0.68892 -0.39667,0.97897 -0.34381,0.29007 -0.78015,0.4623 -1.30903,0.51668 -2.06272,0.16317 -4.07254,0.48949 -6.02945,0.97896 -1.95695,0.47136 -4.24443,1.12401 -6.86248,1.95793 -0.053,2.28427 0.14545,4.27846 0.59502,5.98259 0.10579,0.38071 0,0.72516 -0.31734,1.03336 -0.31734,0.30819 -0.75369,0.49854 -1.30903,0.57106 -0.52891,0.0544 -1.01813,-0.0272 -1.4677,-0.24474 -0.44957,-0.21755 -0.71401,-0.50762 -0.79335,-0.87019 -0.44955,-1.64974 -0.67435,-3.54423 -0.67435,-5.68346 -0.47601,-0.12689 -0.81979,-0.35351 -1.03134,-0.67984 -0.23802,-0.32632 -0.26446,-0.6617 -0.0793,-1.00617 0.18511,-0.36256 0.52889,-0.62544 1.03134,-0.78861 l 0.11896,-0.0544 c 0.10579,-1.74037 0.34378,-3.74362 0.71401,-6.00977 -0.42311,0.14505 -0.84623,0.29915 -1.26936,0.46229 -0.47601,0.19943 -0.97846,0.25382 -1.50735,0.16316 -0.5289,-0.10875 -0.93881,-0.3263 -1.22969,-0.65264 -0.26446,-0.32631 -0.33057,-0.67076 -0.19834,-1.03336 0.15867,-0.36256 0.47601,-0.6345 0.95202,-0.81581 1.21647,-0.48946 2.4726,-0.93362 3.7684,-1.33248 l 0.0793,-0.543865 c 0.0793,-0.38069 0.33056,-0.67982 0.75368,-0.897388 0.42311,-0.235665 0.91235,-0.335371 1.4677,-0.29913 0.71401,0.07252 1.22969,0.326343 1.54703,0.761421"
           inkscape:connector-curvature="0" />
        <path
           id="path3169"
           style="font-style:normal;font-variant:normal;font-weight:500;font-stretch:normal;font-size:27.40997124px;line-height:125%;font-family:Mywriting;-inkscape-font-specification:'Mywriting Medium';letter-spacing:0px;word-spacing:0px;fill:#000000;fill-opacity:1;stroke:none"
           d="m 329.8219,108.22867 -0.31732,-0.16316 c -0.76693,-0.18129 -1.75861,-0.0453 -2.97506,0.4079 -1.21648,0.43511 -2.36684,1.13307 -3.45108,2.0939 -1.05781,0.92459 -1.73216,1.82198 -2.02304,2.69216 -0.23801,0.72517 -0.11896,1.26904 0.35701,1.63162 0.18511,0.16316 0.59499,0.23568 1.22969,0.21754 1.42802,-0.0362 2.7106,-0.62545 3.84775,-1.76758 0.74044,-0.74328 1.62635,-2.03044 2.65772,-3.86149 0.26443,-0.47134 0.48921,-0.88831 0.67433,-1.25089 m -0.833,7.36945 c -1.74538,1.41407 -3.80809,2.15735 -6.18813,2.22987 -1.8776,0.0544 -3.3453,-0.32632 -4.40309,-1.14213 -1.32224,-1.05148 -1.71892,-2.39303 -1.19003,-4.02465 0.39668,-1.26902 1.30903,-2.52899 2.73706,-3.7799 0.87268,-0.76141 1.85114,-1.43218 2.93539,-2.01232 1.08424,-0.59825 2.34037,-1.05147 3.76842,-1.35968 1.42801,-0.30818 2.77669,-0.32631 4.04607,-0.0544 0.15866,0.0363 0.30411,0.0816 0.43634,0.13597 0.29089,-0.21754 0.63467,-0.35351 1.03136,-0.4079 0.79333,-0.1269 1.44123,0.0363 1.94371,0.48948 0.18509,0.14505 0.31732,0.30821 0.39667,0.48948 l 0.0396,0.40791 v 0.10877 0.10878 c -0.10579,0.562 -0.34381,1.33249 -0.71401,2.31145 -0.3438,0.90646 -0.55536,1.5591 -0.63468,1.95793 -0.13227,0.59827 -0.22479,1.32343 -0.27767,2.17549 -0.0265,1.05149 -0.0397,1.62255 -0.0397,1.71319 0.0265,0.0907 0.10579,0.64358 0.23801,1.65881 0.0528,0.38071 -0.10579,0.71609 -0.47601,1.00616 -0.3438,0.29007 -0.79337,0.45323 -1.3487,0.48949 -0.5289,0.0362 -1.00491,-0.0635 -1.42803,-0.29913 -0.42313,-0.25381 -0.66113,-0.56201 -0.714,-0.92458 -0.0265,-0.16316 -0.0661,-0.38071 -0.11896,-0.65265 -0.0265,-0.29006 -0.0396,-0.49855 -0.0396,-0.62545"
           inkscape:connector-curvature="0" />
        <path
           id="path3171"
           style="font-style:normal;font-variant:normal;font-weight:500;font-stretch:normal;font-size:27.40997124px;line-height:125%;font-family:Mywriting;-inkscape-font-specification:'Mywriting Medium';letter-spacing:0px;word-spacing:0px;fill:#000000;fill-opacity:1;stroke:none"
           d="m 340.09505,106.84179 c 0.18511,-0.21753 0.38345,-0.41696 0.59501,-0.59825 1.11069,-1.03335 2.38006,-1.61347 3.80809,-1.74039 1.16357,-0.0907 2.4197,0.0363 3.76841,0.38071 1.37512,0.34446 2.38002,0.90646 3.01473,1.686 1.08422,1.26904 1.53379,3.26323 1.34868,5.98258 -0.0265,0.50762 -0.0926,1.17839 -0.19834,2.01232 -0.0793,0.90646 -0.13227,1.50472 -0.15867,1.79478 -1e-5,0.29006 0.0265,0.80674 0.0793,1.55003 0.0528,0.38071 -0.10579,0.7161 -0.476,1.00616 -0.34381,0.29007 -0.79338,0.45323 -1.34869,0.48948 -0.52892,0.0362 -1.00493,-0.0725 -1.42803,-0.32632 -0.42315,-0.23568 -0.66115,-0.53481 -0.71402,-0.89738 -0.0265,-0.87019 -0.0396,-1.47752 -0.0396,-1.82197 -10e-6,-0.36258 0.0528,-1.03336 0.15867,-2.01233 0.10579,-0.97895 0.15866,-1.62254 0.15867,-1.93074 0.15866,-2.15734 -0.10579,-3.65299 -0.79335,-4.48693 -0.18513,-0.19942 -0.5818,-0.3807 -1.19003,-0.54387 -0.5818,-0.16316 -1.15037,-0.21754 -1.7057,-0.16317 -0.2909,0.0182 -0.66113,0.22663 -1.11069,0.62546 -0.5289,0.50762 -1.04458,1.21465 -1.54703,2.12109 -0.79335,1.48659 -1.3487,3.03662 -1.66604,4.6501 -0.0265,0.12691 -0.0528,0.48043 -0.0793,1.06055 -0.0265,0.61638 -0.13228,1.124 -0.31734,1.52284 -0.0265,0.0907 -0.0661,0.17222 -0.11896,0.24474 l -0.15867,0.21755 c -0.23801,0.2538 -0.56858,0.4351 -0.99169,0.54387 -0.52889,0.14503 -1.04457,0.13597 -1.54702,-0.0272 -0.37023,-0.10877 -0.64791,-0.281 -0.83302,-0.51668 -0.15868,-0.14503 -0.25123,-0.3082 -0.27767,-0.48948 -0.0265,-0.0907 -0.053,-0.19036 -0.0793,-0.29913 0,-0.10878 0.013,-0.37164 0.0397,-0.78862 0.0793,-1.17838 0.10579,-2.02138 0.0793,-2.529 -0.15867,-2.77374 -0.238,-5.13051 -0.238,-7.07032 0,-0.3807 0.18511,-0.69796 0.55534,-0.95178 0.39666,-0.27192 0.87267,-0.40789 1.42802,-0.4079 0.55534,1e-5 1.01813,0.13598 1.38836,0.4079 0.39668,0.25382 0.59502,0.57108 0.59502,0.95178 v 0.35351"
           inkscape:connector-curvature="0" />
        <path
           id="path3173"
           style="font-style:normal;font-variant:normal;font-weight:500;font-stretch:normal;font-size:27.40997124px;line-height:125%;font-family:Mywriting;-inkscape-font-specification:'Mywriting Medium';letter-spacing:0px;word-spacing:0px;fill:#000000;fill-opacity:1;stroke:none"
           d="m 366.57981,110.07782 c -0.0793,-0.0725 -0.18514,-0.18128 -0.31734,-0.32632 -0.42313,-0.5076 -0.74047,-0.87018 -0.95202,-1.08774 -0.21158,-0.23567 -0.47603,-0.48041 -0.79335,-0.73422 -0.31736,-0.27193 -0.6347,-0.45322 -0.95202,-0.54387 -0.31736,-0.10877 -0.67436,-0.16316 -1.07103,-0.16317 -0.23801,1e-5 -0.68757,0.0907 -1.34869,0.27194 -0.66114,0.16317 -1.29582,0.38978 -1.90404,0.67984 -0.58179,0.29007 -0.96525,0.56201 -1.15036,0.81581 -0.0793,0.0725 -0.10579,0.12691 -0.0793,0.16316 0.26444,0.32632 0.66112,0.61639 1.19002,0.87018 0.52889,0.25382 1.30903,0.55295 2.34038,0.89739 0.0265,0.0182 0.18511,0.0725 0.47601,0.16316 l 0.55535,0.16317 c 0.10579,0.0363 0.29088,0.10878 0.55534,0.21754 0.29089,0.0907 0.48923,0.16318 0.59502,0.21755 0.13227,0.0544 0.31732,0.13598 0.55534,0.24474 0.26443,0.0907 0.46277,0.17224 0.59501,0.24475 l 0.55535,0.32632 c 0.23799,0.10878 0.43633,0.21756 0.59501,0.32632 0.15866,0.0907 0.31733,0.20849 0.47601,0.35352 0.1851,0.12691 0.34377,0.25381 0.47601,0.38071 1.08422,1.06962 1.46767,2.09391 1.15036,3.07288 -0.29091,0.87019 -1.12393,1.57722 -2.49905,2.12109 -0.97848,0.36258 -2.1024,0.60732 -3.37174,0.73422 -1.26936,0.12691 -2.45939,0.14504 -3.57008,0.0544 -0.63468,-0.0725 -1.24292,-0.19036 -1.8247,-0.35352 -0.55535,-0.14502 -0.96524,-0.27193 -1.22968,-0.38071 -0.26446,-0.10876 -0.66114,-0.29912 -1.19003,-0.57105 -0.5289,-0.29007 -0.87268,-0.47136 -1.03135,-0.54387 -0.44957,-0.21755 -0.71402,-0.50762 -0.79335,-0.8702 -0.10579,-0.38071 0,-0.72516 0.31734,-1.03336 0.31734,-0.30818 0.74045,-0.48948 1.26936,-0.54387 0.55533,-0.0725 1.05779,0 1.50736,0.21755 0.37022,0.18129 0.714,0.35352 1.03134,0.51668 0.34379,0.19942 0.58179,0.33539 0.71402,0.4079 0.13227,0.0544 0.2909,0.1269 0.47601,0.21755 0.21156,0.0725 0.39668,0.1269 0.55535,0.16316 0.18511,0.0182 0.43634,0.0362 0.75368,0.0544 0.71401,0.0725 1.49414,0.0725 2.34038,0 0.87267,-0.0907 1.57347,-0.24474 2.10238,-0.46229 0.34376,-0.1269 0.5421,-0.24474 0.59501,-0.35352 0.0528,-0.18128 -0.13227,-0.47135 -0.55534,-0.87019 -0.21157,-0.21755 -0.52891,-0.42603 -0.95202,-0.62545 -0.42313,-0.21755 -0.81981,-0.38977 -1.19003,-0.51668 -0.37023,-0.14503 -0.96525,-0.35351 -1.78504,-0.62545 -0.63468,-0.21754 -1.11069,-0.3807 -1.42803,-0.48949 -0.34378,-0.14502 -0.79335,-0.33538 -1.34869,-0.57106 -0.55535,-0.2538 -1.04457,-0.5348 -1.46769,-0.84301 -0.39669,-0.32631 -0.74047,-0.67983 -1.03135,-1.06055 -0.68758,-0.88831 -0.66114,-1.79475 0.0793,-2.71934 0.476,-0.61638 1.25614,-1.18744 2.34037,-1.7132 0.87269,-0.43509 1.83794,-0.7886 2.89573,-1.06055 1.08424,-0.29005 2.02303,-0.42602 2.81639,-0.4079 0.60823,0.0181 1.17679,0.0815 1.70571,0.19035 0.55533,0.10879 1.05778,0.27195 1.50736,0.48949 0.44954,0.21755 0.83301,0.42604 1.15036,0.62545 0.34377,0.1813 0.68755,0.44417 1.03136,0.78861 l 0.79335,0.76142 c 0.15864,0.16317 0.38343,0.41697 0.67434,0.76142 0.29088,0.34446 0.44955,0.54388 0.476,0.59826 0.29089,0.3082 0.35699,0.64359 0.19834,1.00615 -0.13228,0.3626 -0.43636,0.6436 -0.91234,0.84301 -0.44959,0.19943 -0.93882,0.25382 -1.4677,0.16316 -0.52892,-0.10877 -0.93882,-0.32632 -1.22969,-0.65265"
           inkscape:connector-curvature="0" />
      </g>
    </g>
  </g>
</svg>
