<?xml version="1.0" encoding="UTF-8" standalone="no"?>
<!-- Created with Inkscape (http://www.inkscape.org/) -->

<svg
   xmlns:dc="http://purl.org/dc/elements/1.1/"
   xmlns:cc="http://creativecommons.org/ns#"
   xmlns:rdf="http://www.w3.org/1999/02/22-rdf-syntax-ns#"
   xmlns:svg="http://www.w3.org/2000/svg"
   xmlns="http://www.w3.org/2000/svg"
   xmlns:sodipodi="http://sodipodi.sourceforge.net/DTD/sodipodi-0.dtd"
   xmlns:inkscape="http://www.inkscape.org/namespaces/inkscape"
   width="300"
   height="200"
   viewBox="0 0 79.374998 52.916668"
   version="1.1"
   id="svg8"
   inkscape:version="0.92.2 5c3e80d, 2017-08-06"
   sodipodi:docname="glib.svg">
  <defs
     id="defs2" />
  <sodipodi:namedview
     id="base"
     pagecolor="#ffffff"
     bordercolor="#666666"
     borderopacity="1.0"
     inkscape:pageopacity="0.0"
     inkscape:pageshadow="2"
     inkscape:zoom="1.4"
     inkscape:cx="-2.8571429"
     inkscape:cy="148.67296"
     inkscape:document-units="px"
     inkscape:current-layer="layer1"
     showgrid="false"
     units="px"
     inkscape:window-width="1600"
     inkscape:window-height="835"
     inkscape:window-x="0"
     inkscape:window-y="33"
     inkscape:window-maximized="1" />
  <metadata
     id="metadata5">
    <rdf:RDF>
      <cc:Work
         rdf:about="">
        <dc:format>image/svg+xml</dc:format>
        <dc:type
           rdf:resource="http://purl.org/dc/dcmitype/StillImage" />
        <dc:title />
      </cc:Work>
    </rdf:RDF>
  </metadata>
  <g
     inkscape:label="Layer 1"
     inkscape:groupmode="layer"
     id="layer1"
     transform="translate(0,-244.08332)">
    <rect
       style="fill:#ffffff;fill-opacity:0.99680511;stroke:none;stroke-width:0.07016739;stroke-linecap:butt;stroke-linejoin:round;stroke-miterlimit:4;stroke-dasharray:none;stroke-opacity:1"
       id="rect4504"
       width="79.375"
       height="52.916668"
       x="-2.8421709e-14"
       y="244.08331" />
    <g
       transform="matrix(0.18538511,0,0,0.18538511,13.221638,234.44729)"
       style="display:inline"
       id="g1168">
      <g
         transform="translate(-109.65236,-59.384032)"
         id="g6747">
        <path
           style="fill:#8c8c8c"
           d="m 117.8829,189.86093 c 0.47439,1.73773 0.93917,3.61297 1.28797,5.54005 0.0127,0.0702 0.0229,0.14144 0.0353,0.21172 0.0174,0.1115 0.0361,0.22362 0.0529,0.33522 0.25848,1.71551 0.42728,3.44084 0.5293,5.1519 0.002,0.0643 0.016,0.12989 0.0177,0.19407 0.002,0.0173 -0.002,0.0357 0,0.0529 0.008,0.14758 0.0106,0.29378 0.0177,0.44109 0.0153,0.32317 0.0432,0.64881 0.0529,0.97039 0.004,0.12377 -0.003,0.24701 0,0.37051 0.0108,0.46163 0.0188,0.91904 0.0177,1.37619 -10e-4,0.52161 -0.019,1.03842 -0.0353,1.55263 -0.002,0.0582 0.002,0.11837 0,0.17643 -0.016,0.45438 -0.0426,0.91136 -0.0706,1.35855 -0.0285,0.45474 -0.0473,0.91247 -0.0882,1.35854 -0.0125,0.13648 -0.0392,0.27021 -0.0529,0.4058 -0.0184,0.18277 -0.0323,0.36586 -0.0529,0.54695 -0.0247,0.21777 -0.0605,0.43761 -0.0882,0.65281 -0.0227,0.17583 -0.0458,0.35527 -0.0706,0.5293 -0.0427,0.30063 -0.0923,0.60493 -0.14115,0.89982 -0.0136,0.082 -0.0212,0.16549 -0.0353,0.24701 -0.0659,0.38212 -0.13546,0.75783 -0.21172,1.12918 -0.72391,3.4098 -1.67767,9.05643 -5.83998,10.67428 -0.13837,-0.006 -0.27089,-0.005 -0.4058,0 -0.006,2e-4 -0.0119,-2e-4 -0.0177,0 -0.12895,0.005 -0.26257,0.0208 -0.38816,0.0353 -0.006,5.7e-4 -0.0119,-5.6e-4 -0.0177,0 -0.12523,0.0149 -0.24882,0.0289 -0.37051,0.0529 -0.006,0.001 -0.0119,-0.001 -0.0177,0 -0.12146,0.0244 -0.23513,0.0552 -0.35286,0.0882 -0.0121,0.003 -0.0232,0.0142 -0.0353,0.0177 -0.11059,0.032 -0.22812,0.0666 -0.33523,0.10587 -0.0121,0.005 -0.0232,0.0131 -0.0353,0.0177 -0.10629,0.0399 -0.21492,0.0767 -0.31759,0.1235 -0.12893,0.059 -0.24757,0.12478 -0.37051,0.19408 -0.0953,0.0535 -0.19074,0.0995 -0.28229,0.15879 -0.0176,0.0114 -0.0356,0.0237 -0.0529,0.0353 -0.19061,0.12676 -0.37391,0.27348 -0.54694,0.42344 -0.0187,0.0162 -0.0344,0.0364 -0.0529,0.0529 -0.16805,0.14968 -0.32665,0.30731 -0.47637,0.47638 -0.16701,0.18839 -0.31609,0.39091 -0.45873,0.59987 -0.13249,0.19409 -0.26043,0.39116 -0.37051,0.59988 -0.006,0.0119 -0.0115,0.0234 -0.0177,0.0353 -0.0918,0.17664 -0.17214,0.36197 -0.24701,0.54695 -0.0213,0.0529 -0.0507,0.10532 -0.0706,0.15879 -0.006,0.0173 -0.0113,0.0356 -0.0177,0.0529 -0.0554,0.15227 -0.0976,0.30249 -0.14115,0.45873 -0.0197,0.0709 -0.0357,0.14014 -0.0529,0.21172 -0.0129,0.0536 -0.0238,0.10482 -0.0353,0.15879 -0.0148,0.0692 -0.0229,0.14202 -0.0353,0.21172 -0.028,0.15722 -0.0549,0.31737 -0.0706,0.47638 -0.0157,0.15913 -0.0325,0.31636 -0.0353,0.47637 -10e-4,0.0651 -10e-4,0.12898 0,0.19408 2.6e-4,0.0177 -4.3e-4,0.0352 0,0.0529 0.003,0.14802 0.0203,0.29347 0.0353,0.44108 0.0121,0.11807 0.0157,0.23549 0.0353,0.35287 0.0371,0.22342 0.0936,0.45143 0.15879,0.67045 0.0222,0.0746 0.0451,0.1555 0.0706,0.22937 0.0164,0.0474 0.0351,0.0941 0.0529,0.14115 0.002,0.005 -0.002,0.0126 0,0.0177 0.0446,0.11674 0.10555,0.22079 0.15879,0.33522 0.0363,0.0781 0.0654,0.15254 0.10586,0.22937 0.0223,0.0423 0.047,0.0816 0.0706,0.1235 0.0436,0.0778 0.0931,0.15305 0.14115,0.22937 0.0248,0.0395 0.0446,0.0844 0.0706,0.1235 -0.0336,0.15688 -0.0813,0.30613 -0.12351,0.45873 -0.0418,0.0358 -0.0824,0.0683 -0.1235,0.10586 -0.0869,0.0792 -0.16347,0.16048 -0.24701,0.24701 -0.0465,0.0481 -0.0958,0.0909 -0.14115,0.14115 -0.0762,0.0842 -0.1566,0.17482 -0.22936,0.26465 -0.0468,0.0578 -0.0959,0.11644 -0.14115,0.17643 -0.0646,0.0856 -0.11515,0.17492 -0.17644,0.26466 -0.0487,0.0713 -0.0947,0.13804 -0.14114,0.21172 -0.0549,0.0869 -0.10719,0.17469 -0.15879,0.26465 -0.0472,0.0823 -0.0969,0.16233 -0.14115,0.24701 -0.0448,0.0855 -0.0818,0.17699 -0.12351,0.26465 -0.0819,0.17273 -0.16044,0.34944 -0.22936,0.5293 -0.0408,0.1065 -0.0876,0.20907 -0.12351,0.31759 -0.0135,0.0405 -0.0225,0.0827 -0.0353,0.1235 -0.0474,0.15209 -0.0864,0.30384 -0.12351,0.45873 -0.017,0.0705 -0.0381,0.14073 -0.0529,0.21172 -0.0264,0.12749 -0.0517,0.25968 -0.0706,0.38816 -0.009,0.0591 -0.0106,0.11719 -0.0177,0.17643 -0.003,0.0233 0.002,0.0472 0,0.0706 -0.0184,0.17074 -0.0313,0.3409 -0.0353,0.51166 -0.003,0.14711 -0.008,0.29483 0,0.44109 0.01,0.18451 0.0419,0.36522 0.0706,0.54695 0.002,0.0117 -0.002,0.0236 0,0.0353 0.006,0.0351 0.0111,0.0709 0.0177,0.10586 0.0299,0.15971 0.0601,0.32036 0.10587,0.47637 0.0559,0.19269 0.13043,0.37937 0.21172,0.56459 0.007,0.0168 0.01,0.0362 0.0177,0.0529 0.15823,0.34867 0.36078,0.67748 0.61752,0.98803 0.10408,0.15135 0.0923,0.36927 -0.10586,0.49402 -0.31182,0.2046 -0.59712,0.44304 -0.84689,0.70574 -0.12488,0.13135 -0.24366,0.26235 -0.35287,0.4058 -0.2184,0.2869 -0.39193,0.6095 -0.54694,0.9351 -0.0775,0.1628 -0.15023,0.32397 -0.21173,0.49402 -0.43044,1.19036 -0.46441,2.52914 -0.0882,3.75806 0.0538,0.17555 0.10578,0.35942 0.17643,0.5293 0.0707,0.16988 0.15934,0.33143 0.24701,0.49402 0.0877,0.16258 0.17749,0.32269 0.2823,0.47637 0.25315,0.5315 -0.0143,1.60603 -0.86453,2.20543 -2.68512,2.5529 -1.44502,6.7791 1.30561,8.61001 0.56634,0.6219 -0.0305,3.34343 0,5.04602 -0.31927,2.93536 -0.46652,6.15741 -0.45873,9.84505 0.0212,10.00715 1.00977,13.57121 5.8047,20.9075 2.16933,3.31909 4.78489,5.73539 8.4865,7.81605 0.87522,0.49196 1.65092,0.98511 1.72906,1.11154 0.0391,0.0632 -0.022,0.39926 -0.15879,0.88217 -0.0684,0.24146 -0.16392,0.50897 -0.26465,0.8116 -0.10073,0.30263 -0.20989,0.63576 -0.33523,0.97039 -0.19859,0.53024 -0.38723,1.06527 -0.56459,1.58791 -0.006,0.0173 -0.0117,0.0356 -0.0177,0.0529 -0.17045,0.50403 -0.32899,0.9998 -0.47637,1.48205 -0.0106,0.0346 -0.0248,0.0714 -0.0353,0.10586 -0.13956,0.46042 -0.27282,0.9141 -0.38816,1.3409 -0.0122,0.0451 -0.0234,0.0966 -0.0353,0.14115 -0.10816,0.40643 -0.19938,0.80176 -0.2823,1.16447 -0.0883,0.3855 -0.15457,0.73497 -0.21172,1.0586 -0.003,0.0166 -0.0148,0.0365 -0.0177,0.0529 -0.0105,0.0601 -0.026,0.1364 -0.0353,0.19407 -0.0387,0.24886 -0.073,0.49194 -0.0882,0.6881 -0.004,0.0533 -0.0154,0.12731 -0.0177,0.17643 -0.002,0.0569 -2.4e-4,0.12568 0,0.17644 10e-5,0.0471 -0.002,0.0995 0,0.14115 0.003,0.0413 0.0125,0.088 0.0177,0.1235 0.01,0.0715 0.0334,0.12923 0.0529,0.17643 0.0233,0.0559 0.0509,0.0866 0.0882,0.10586 -0.007,0.012 -0.0105,0.0231 -0.0177,0.0353 0.34501,0.14492 8.54708,1.89052 10.44493,1.28797 0.0527,0.0102 0.0975,0.001 0.1235,-0.0177 0.001,-0.006 -0.001,-0.0119 0,-0.0177 0.0685,-0.32069 0.11894,-0.64133 0.1588,-0.97039 5.6e-4,-0.006 -5.7e-4,-0.0119 0,-0.0177 0.0394,-0.32929 0.0727,-0.66982 0.0882,-1.00568 2.7e-4,-0.006 -2.6e-4,-0.0118 0,-0.0177 0.0306,-0.67793 0.0198,-1.37064 -0.0177,-2.06428 -3.2e-4,-0.006 3.2e-4,-0.0119 0,-0.0177 -0.0763,-1.39907 -0.2558,-2.80849 -0.37051,-4.1815 -0.49165,-3.39334 -0.47368,-3.9366 0.0706,-4.11092 2.97017,-0.95132 7.43164,-4.26722 10.14499,-7.53376 2.01181,-2.42195 3.47333,-4.04278 3.31697,-4.19914 0.018,-0.0317 0.0524,-0.0642 0.0529,-0.0882 -1.54006,0.46568 -2.30786,0.62688 -4.5873,1.39384 -13.89048,4.60335 -20.20983,-3.46695 -18.5962,-20.13119 2.31523,-12.40875 7.79182,-26.01367 17.5376,-43.50876 1.45327,-2.60886 2.64651,-4.79593 2.64651,-4.8696 0,-0.0737 -0.83534,-0.75171 -1.85256,-1.51733 -3.89292,-2.93005 -5.37732,-5.83644 -6.31636,-12.29749 -1.10394,-7.0635 -5.42302,-19.93343 -13.8146,-23.14808 z m 16.09083,35.3222 c 1.7324,0 3.12289,1.40814 3.12289,3.14054 0,1.73239 -1.39049,3.14053 -3.12289,3.14053 -1.73239,0 -3.14053,-1.40814 -3.14053,-3.14053 0,-1.7324 1.40814,-3.14054 3.14053,-3.14054 z m -21.45444,1.3409 c 1.63702,0 2.9641,1.32708 2.9641,2.9641 0,1.63703 -1.32708,2.9641 -2.9641,2.9641 -1.63703,0 -2.9641,-1.32707 -2.9641,-2.9641 0,-1.63702 1.32707,-2.9641 2.9641,-2.9641 z m -1.4997,8.48651 c 1.63703,0 2.9641,1.32707 2.9641,2.9641 0,1.63703 -1.32707,2.9641 -2.9641,2.9641 -1.63703,0 -2.9641,-1.32707 -2.9641,-2.9641 0,-1.63703 1.32707,-2.9641 2.9641,-2.9641 z m -1.39383,8.4865 c 1.63703,0 2.9641,1.32708 2.9641,2.9641 0,1.63703 -1.32707,2.9641 -2.9641,2.9641 -1.63703,0 -2.9641,-1.32707 -2.9641,-2.9641 0,-1.63702 1.32707,-2.9641 2.9641,-2.9641 z m -1.30562,9.1746 c 1.63703,0 2.96411,1.32707 2.96411,2.9641 0,1.63703 -1.32708,2.9641 -2.96411,2.9641 -1.63703,0 -2.9641,-1.32707 -2.9641,-2.9641 0,-1.63703 1.32707,-2.9641 2.9641,-2.9641 z"
           id="path6351"
           inkscape:connector-curvature="0" />
        <path
           style="fill:#535353"
           d="m 118.7415,190.91954 c 0.012,0.0146 0.0239,0.0207 0.0353,0.0353 12.21044,16.70113 7.46106,37.16662 2.08193,54.92408 -5.39194,17.70558 -7.02507,25.58758 -7.03974,34.03423 -0.14139,7.76439 3.68598,18.09333 12.06812,18.1904 4.61224,-0.08 9.34902,-1.03627 14.07948,-2.85824 1.11255,-0.42851 2.77111,-1.28688 2.8406,-1.2174 0.15635,0.15636 -1.30517,1.77719 -3.31697,4.19914 -2.71336,3.26655 -7.17483,6.58244 -10.14499,7.53376 -0.54425,0.17432 -0.56222,0.71758 -0.0706,4.11093 0.22993,2.75199 0.70446,5.67713 0.14115,8.29242 -0.20761,0.15123 -1.31386,-0.69357 -2.62887,-1.53498 -1.31502,-0.8414 -2.49825,-1.5179 -2.62888,-1.51734 -0.13063,5.7e-4 -1.31263,0.39204 -2.62887,0.88218 -1.31625,0.49013 -2.49008,0.89981 -2.61124,0.89981 -0.66926,0 0.31487,-4.41592 1.95843,-8.80408 0.50134,-1.33854 0.83681,-2.53773 0.75867,-2.66416 -0.0781,-0.12644 -0.85384,-0.61958 -1.72906,-1.11154 -3.70162,-2.08067 -6.31717,-4.49696 -8.4865,-7.81605 -4.79493,-7.3363 -5.78353,-10.90035 -5.8047,-20.9075 -0.008,-3.68765 0.13946,-6.9097 0.45873,-9.84505 -0.0305,-1.7026 0.56633,-4.42412 0,-5.04603 -2.75063,-1.83091 -3.99073,-6.0571 -1.30562,-8.61 0.85026,-0.5994 1.11768,-1.67396 0.86453,-2.20546 -1.67688,-2.45882 -1.15365,-6.1616 1.3409,-7.79841 0.19821,-0.12475 0.20994,-0.34268 0.10586,-0.49402 -2.14663,-2.59662 -0.68295,-6.77407 1.55263,-8.41593 -2.68477,-3.60708 0.0482,-9.34004 4.56965,-9.13931 4.16232,-1.61786 5.11608,-7.26449 5.83999,-10.67429 1.21089,-5.89663 1.11274,-13.19951 -0.26465,-20.07825 -0.18234,-0.84314 -0.54847,-2.19558 -0.90419,-3.42476 z m -6.19285,35.19869 c -1.87089,0 -3.38755,1.51666 -3.38755,3.38755 0,1.87089 1.51666,3.38754 3.38755,3.38754 1.87089,0 3.38754,-1.51665 3.38754,-3.38754 0,-1.87089 -1.51665,-3.38755 -3.38754,-3.38755 z m -1.53498,8.48651 c -1.87089,0 -3.38755,1.51665 -3.38755,3.38754 0,1.87089 1.51666,3.38754 3.38755,3.38754 1.87089,0 3.38754,-1.51665 3.38754,-3.38754 0,-1.87089 -1.51665,-3.38754 -3.38754,-3.38754 z m -1.37619,8.52179 c -1.87089,0 -3.38755,1.51665 -3.38755,3.38754 0,1.87089 1.51666,3.38754 3.38755,3.38754 1.87089,0 3.38754,-1.51665 3.38754,-3.38754 0,-1.87089 -1.51665,-3.38754 -3.38754,-3.38754 z m -1.32326,9.15695 c -1.87089,0 -3.38755,1.51666 -3.38755,3.38754 0,1.87089 1.51666,3.38755 3.38755,3.38755 1.87089,0 3.38754,-1.51666 3.38754,-3.38755 0,-1.87088 -1.51665,-3.38754 -3.38754,-3.38754 z"
           id="path6353"
           inkscape:connector-curvature="0"
           sodipodi:nodetypes="sccccssssccscssssssscccccccccccsssssssssssssssssssss" />
        <path
           inkscape:connector-curvature="0"
           id="path6355"
           style="font-style:normal;font-variant:normal;font-weight:bold;font-stretch:normal;font-size:144.08859253px;line-height:125%;font-family:kabayan;-inkscape-font-specification:'kabayan Bold';letter-spacing:0px;word-spacing:0px;fill:#dc3535;fill-opacity:1;stroke:none"
           d="m 75.291757,308.26389 c -8.677464,-1.73549 -15.483831,-7.07754 -20.419115,-16.02616 -1.355859,-3.09132 -2.250718,-6.34536 -2.684589,-9.76213 -0.379636,-3.41672 -0.244056,-6.88769 0.406759,-10.41293 0.705039,-3.52518 1.952417,-6.69787 3.742147,-9.51808 2.548991,-4.50138 5.748797,-7.891 9.59943,-10.16888 3.850593,-2.33201 8.704536,-4.14885 14.561837,-5.45053 1.735461,-0.37958 3.118426,-0.54228 4.148906,-0.4881 1.030411,0.0543 1.979505,0.35258 2.847287,0.89486 0.921942,0.59663 1.545634,1.22032 1.871076,1.87107 0.325362,0.65087 0.271133,1.13897 -0.162704,1.46432 -0.271207,0.21699 -0.569497,0.46104 -0.894859,0.73216 -0.813547,0.37969 -2.1694,1.00338 -4.067554,1.87108 -1.843993,0.86779 -3.254075,1.57283 -4.230258,2.11513 -0.976239,0.48815 -2.196506,1.13896 -3.660794,1.95242 -1.464345,0.81356 -2.765964,1.6813 -3.904856,2.60324 -1.138937,0.92202 -2.223612,1.92535 -3.254041,3.00999 -2.494785,2.71174 -4.17604,6.20983 -5.043765,10.49429 -0.813524,4.23028 -0.94911,8.40629 -0.406759,12.52806 0.325391,2.33208 1.138904,4.60991 2.440534,6.83349 1.355836,2.22361 3.037085,3.76927 5.043764,4.63701 1.843937,0.92198 3.715013,1.46432 5.613228,1.62702 1.952394,0.10848 3.687884,-0.13558 5.206469,-0.73216 1.572752,-0.59656 3.009951,-1.43719 4.311604,-2.52188 1.301579,-1.08467 2.27779,-2.35917 2.928639,-3.8235 0.705004,-1.46431 1.138875,-3.00998 1.301618,-4.63702 0.162659,-1.68123 -0.135625,-3.41672 -0.894864,-5.20646 -1.247418,-1.51853 -3.443896,-2.71168 -6.589434,-3.57945 -3.145605,-0.92195 -5.3692,-0.92195 -6.670791,0 -0.650832,0.37966 -1.003351,1.30164 -1.057563,2.76594 -0.05426,1.2474 0.379614,2.11515 1.301619,2.60323 0.976183,0.48813 2.033746,0.62371 3.172689,0.40676 1.193121,-0.21692 2.196449,-0.62368 3.009991,-1.22027 0.813479,-0.48809 1.599869,-0.3525 2.359181,0.40676 0.813474,0.70506 1.220233,1.49145 1.220267,2.35918 -0.05426,1.2474 -0.623726,2.30496 -1.708372,3.17269 -1.03048,0.81353 -2.304981,1.38298 -3.823499,1.70837 -3.687945,0.59659 -6.779282,-0.8135 -9.274022,-4.23025 -2.169383,-3.03709 -2.982891,-6.15554 -2.440534,-9.35538 0.488089,-3.09131 2.223573,-4.9895 5.206469,-5.69457 8.894352,-0.27114 15.944768,2.27786 21.151277,7.647 2.169315,2.11515 3.498051,4.77262 3.986201,7.9724 0.488064,3.14559 0.0542,6.01999 -1.301612,8.62322 -2.386344,3.95909 -5.721737,7.24025 -10.006184,9.84348 -4.230292,2.65746 -8.541895,3.55232 -12.934823,2.68458" />
        <path
           style="font-style:normal;font-variant:normal;font-weight:bold;font-stretch:normal;font-size:144.08859253px;line-height:125%;font-family:kabayan;-inkscape-font-specification:'kabayan Bold';letter-spacing:0px;word-spacing:0px;fill:#dc3535;fill-opacity:1;stroke:none"
           d="m 153.2051,237.74527 c -2.51019,0 -4.53437,2.31424 -4.53437,5.15189 0,2.83766 2.02418,5.13425 4.53437,5.13425 2.51019,0 4.55201,-2.29659 4.55201,-5.13425 0,-2.83765 -2.04182,-5.15189 -4.55201,-5.15189 z m -2.20543,13.58546 c -0.70589,0.0578 -1.319,0.45268 -1.81728,1.16447 -1.03045,1.41014 -1.80424,5.23139 -2.34658,11.46825 -0.21693,2.60328 -0.41953,4.43776 -0.58223,5.5224 -0.0543,2.3321 -0.20521,5.32923 -0.47637,8.96288 -0.0543,1.13894 -0.0379,2.53555 0.0706,4.21678 0.10846,1.68128 0.32741,3.61772 0.65281,5.78706 0.3254,2.16938 0.76327,4.17247 1.30561,6.01642 0.59657,1.84396 1.35403,3.52748 2.27601,5.04603 0.97621,1.51855 2.12121,2.46096 3.42283,2.84059 1.35584,0.37965 2.92107,0.16071 4.7108,-0.6528 0.37963,-0.4881 0.56458,-0.85801 0.56459,-1.12919 -1.08469,-10.52138 -1.75784,-20.40354 -2.02899,-29.62336 -0.0543,-2.00662 -0.0543,-3.35291 0,-4.058 0.0542,-0.705 0.10453,-1.17685 0.15879,-1.39383 0.0542,-0.2169 0.0379,-0.63712 -0.0706,-1.28797 -0.0542,-0.705 -0.22285,-2.03496 -0.49401,-3.98742 -0.21695,-0.75923 -0.4019,-1.63497 -0.56459,-2.61124 -0.16271,-0.97616 -0.36531,-1.74995 -0.58224,-2.34658 -0.16271,-0.65075 -0.48229,-1.49251 -0.97039,-2.52301 -1.25078,-1.00669 -2.32118,-1.48583 -3.22875,-1.41148 z"
           id="path6357"
           inkscape:connector-curvature="0" />
        <path
           inkscape:connector-curvature="0"
           id="path6359"
           style="font-style:normal;font-variant:normal;font-weight:bold;font-stretch:normal;font-size:144.08859253px;line-height:125%;font-family:kabayan;-inkscape-font-specification:'kabayan Bold';letter-spacing:0px;word-spacing:0px;fill:#dc3535;fill-opacity:1;stroke:none"
           d="m 169.60053,245.86762 c 0.92197,6e-5 2.35917,-0.0541 4.31161,-0.1627 1.95241,-0.10841 3.44385,-0.16265 4.47431,-0.1627 5.09798,5e-5 9.21976,1.13897 12.36536,3.41674 4.39293,3.14563 6.5894,6.94201 6.58944,11.38915 -4e-5,3.68796 -1.59994,7.07758 -4.79971,10.16889 0.16267,0.1085 0.56942,0.2712 1.22026,0.4881 0.65078,0.21697 1.11177,0.37967 1.38297,0.48811 0.32537,0.1085 0.78636,0.35255 1.38297,0.73216 0.65077,0.37967 1.19311,0.78642 1.62702,1.22027 0.43384,0.4339 0.92194,1.03047 1.46432,1.78972 0.59653,0.7593 1.13887,1.62704 1.62702,2.60323 0.48807,1.62705 0.73212,3.22695 0.73216,4.79972 -4e-5,2.44055 -0.59662,4.77261 -1.78973,6.99619 -1.13894,2.16937 -2.63038,4.04044 -4.4743,5.61322 -1.84399,1.57279 -3.90489,2.98288 -6.18268,4.23026 -2.27786,1.19315 -4.50146,2.14224 -6.67079,2.84729 -2.16938,0.65081 -4.23027,1.08468 -6.18268,1.30161 -0.70506,0.10847 -1.38299,0.1627 -2.03378,0.1627 -2.11514,0 -3.95909,-0.62369 -5.53187,-1.87107 -1.51856,-1.24738 -2.73883,-2.98287 -3.6608,-5.20647 -0.86775,-2.27782 -1.51856,-4.7997 -1.95243,-7.56565 -0.37964,-2.76592 -0.56945,-5.80302 -0.56945,-9.11132 0,-6.39958 0.6508,-12.88055 1.95242,-19.4429 1.35585,-6.56227 2.92863,-11.47045 4.71836,-14.72455 m 20.25642,41.65175 c 2.71167,-2.87438 4.06752,-5.42339 4.06755,-7.647 -3e-5,-1.19312 -0.56948,-2.22357 -1.70837,-3.09134 -1.08471,-0.92195 -2.25074,-1.38294 -3.4981,-1.38297 -0.27119,3e-5 -0.51525,0.0272 -0.73215,0.0814 -4.66415,2.87443 -8.37918,5.99289 -11.1451,9.35538 -0.10849,1.03046 -0.16272,1.97955 -0.1627,2.84728 -2e-5,1.68127 0.27115,3.7964 0.81351,6.34539 0.27115,0.32541 0.67791,0.48811 1.22027,0.4881 1.24736,1e-5 3.0642,-0.8135 5.45051,-2.44053 2.44051,-1.68124 4.3387,-3.1998 5.69458,-4.55566 m -10.73834,-17.65318 c 0.43385,-0.43384 1.35583,-1.27447 2.76594,-2.52189 1.41006,-1.30158 2.44051,-2.27779 3.09134,-2.92864 0.65078,-0.705 1.38294,-1.65409 2.19648,-2.84728 0.86772,-1.24734 1.51852,-2.49473 1.95242,-3.74215 0.0542,-1.35581 -0.56948,-2.57607 -1.87107,-3.6608 -1.24741,-1.13886 -2.60326,-1.95238 -4.06756,-2.44053 -1.4101,-0.54229 -2.57613,-0.81346 -3.49809,-0.81351 h -0.0814 c -0.65083,0.70509 -1.27452,2.6304 -1.87108,5.77593 -0.54236,3.14561 -0.81352,6.07425 -0.81351,8.78591 -1e-5,3.25408 0.43386,4.8811 1.30162,4.88106 0.27115,4e-5 0.56944,-0.16267 0.89486,-0.4881" />
      </g>
      <g
         transform="translate(0,-60)"
         id="text6741"
         style="font-style:normal;font-variant:normal;font-weight:normal;font-stretch:normal;font-size:17.5px;line-height:100%;font-family:'Open Sans';-inkscape-font-specification:'Open Sans';text-align:start;writing-mode:lr-tb;text-anchor:start;opacity:1;fill:#535353;fill-opacity:1;stroke:none;stroke-width:3;stroke-linecap:round;stroke-linejoin:round;stroke-miterlimit:4;stroke-dasharray:none;stroke-dashoffset:0;stroke-opacity:1">
        <path
           inkscape:connector-curvature="0"
           id="path7029"
           style="font-style:normal;font-variant:normal;font-weight:normal;font-stretch:normal;font-size:50px;line-height:100%;font-family:'Aurulent Sans';-inkscape-font-specification:'Aurulent Sans';fill:#535353;fill-opacity:1"
           d="m 106.72998,230.48286 c 0,11.85 6.9,19 17.4,19 3.95,0 7.9,-1.05 11.75,-2.35 v -15.8 h -9.65 v 3.75 h 4.65 v 9.55 c -2.25,0.65 -4.55,1.1 -6.7,1.1 -3.15,0 -6.05,-0.95 -8.2,-3.05 -3.15,-3.1 -3.75,-7.75 -3.75,-12.2 0,-4.5 0.6,-9.15 3.75,-12.25 2.15,-2.1 5.05,-3.05 8.35,-3.05 3.75,0 7.7,1.25 11.55,2.6 v -4.15 c -3.8,-1.35 -7.8,-2.2 -11.55,-2.2 -10.65,0 -17.6,7.05 -17.6,19.1 z" />
        <path
           inkscape:connector-curvature="0"
           id="path7031"
           style="font-style:normal;font-variant:normal;font-weight:normal;font-stretch:normal;font-size:50px;line-height:100%;font-family:'Aurulent Sans';-inkscape-font-specification:'Aurulent Sans';fill:#535353;fill-opacity:1"
           d="m 145.94248,248.58286 v -29.55 l 18.35,29.55 h 5 v -36.25 h -4.15 v 29.6 l -18.35,-29.6 h -5 v 36.25 z" />
        <path
           inkscape:connector-curvature="0"
           id="path7033"
           style="font-style:normal;font-variant:normal;font-weight:normal;font-stretch:normal;font-size:50px;line-height:100%;font-family:'Aurulent Sans';-inkscape-font-specification:'Aurulent Sans';fill:#535353;fill-opacity:1"
           d="m 204.83936,234.73286 v -22.4 h -5 v 23.3 c 0,2.9 0,5.85 -2.25,7.95 -1.7,1.5 -4.1,2.15 -6.5,2.15 -2.4,0 -4.8,-0.65 -6.45,-2.15 -2.3,-2.1 -2.3,-5.05 -2.3,-7.95 v -23.3 h -5 v 22.4 c 0,4.3 0,8.6 3.55,11.65 2.65,2.25 6.45,3.1 10.2,3.1 3.75,0 7.55,-0.85 10.2,-3.15 3.55,-3 3.55,-7.3 3.55,-11.6 z" />
        <path
           inkscape:connector-curvature="0"
           id="path7035"
           style="font-style:normal;font-variant:normal;font-weight:normal;font-stretch:normal;font-size:50px;line-height:100%;font-family:'Aurulent Sans';-inkscape-font-specification:'Aurulent Sans';fill:#535353;fill-opacity:1"
           d="m 222.83623,210.63286 h -4.05 l -9.95,44.4 h 4.05 z" />
        <path
           inkscape:connector-curvature="0"
           id="path7037"
           style="font-style:normal;font-variant:normal;font-weight:normal;font-stretch:normal;font-size:50px;line-height:100%;font-family:'Aurulent Sans';-inkscape-font-specification:'Aurulent Sans';fill:#535353;fill-opacity:1"
           d="m 249.65342,248.58286 v -3.75 h -17.9 v -32.5 h -5 v 36.25 z" />
        <path
           inkscape:connector-curvature="0"
           id="path7039"
           style="font-style:normal;font-variant:normal;font-weight:normal;font-stretch:normal;font-size:50px;line-height:100%;font-family:'Aurulent Sans';-inkscape-font-specification:'Aurulent Sans';fill:#535353;fill-opacity:1"
           d="m 258.69482,217.08286 v -4.75 h -4.75 v 4.75 z m 0,31.5 v -26.5 h -4.75 v 26.5 z" />
        <path
           inkscape:connector-curvature="0"
           id="path7041"
           style="font-style:normal;font-variant:normal;font-weight:normal;font-stretch:normal;font-size:50px;line-height:100%;font-family:'Aurulent Sans';-inkscape-font-specification:'Aurulent Sans';fill:#535353;fill-opacity:1"
           d="m 282.20186,231.23286 v 17.35 h 4.75 v -16.45 c 0,-4.55 0.05,-10.65 -6.65,-10.65 -3.8,0 -7,1.95 -9.4,4.85 v -4.25 h -4.75 v 26.5 h 4.75 v -18.1 c 1.7,-3.05 4.3,-5.4 7.6,-5.4 3.55,0 3.7,2.7 3.7,6.15 z" />
        <path
           inkscape:connector-curvature="0"
           id="path7043"
           style="font-style:normal;font-variant:normal;font-weight:normal;font-stretch:normal;font-size:50px;line-height:100%;font-family:'Aurulent Sans';-inkscape-font-specification:'Aurulent Sans';fill:#535353;fill-opacity:1"
           d="m 299.12451,239.33286 v -17.25 h -4.75 v 16.35 c 0,4.2 -0.15,10.75 6.8,10.75 3.65,0 6.8,-1.9 9.25,-4.8 v 4.2 h 4.75 v -26.5 h -4.75 v 18.15 c -1.75,3.05 -4.35,5.4 -7.55,5.4 -3.75,0 -3.75,-3.15 -3.75,-6.25 z" />
        <path
           inkscape:connector-curvature="0"
           id="path7045"
           style="font-style:normal;font-variant:normal;font-weight:normal;font-stretch:normal;font-size:50px;line-height:100%;font-family:'Aurulent Sans';-inkscape-font-specification:'Aurulent Sans';fill:#535353;fill-opacity:1"
           d="m 343.04717,248.58286 -9.25,-13 9.4,-13.5 h -4.65 l -7.1,10.2 -7.15,-10.2 h -4.75 l 9,12.75 -9.55,13.75 h 4.65 l 7.25,-10.4 7.4,10.4 z" />
        <path
           inkscape:connector-curvature="0"
           id="path7047"
           style="font-style:normal;font-variant:normal;font-weight:normal;font-stretch:normal;font-size:50px;line-height:100%;font-family:'Aurulent Sans';-inkscape-font-specification:'Aurulent Sans';fill:#535353;fill-opacity:1"
           d="m 124.32998,279.53286 c 5.8,-1.25 8.1,-4.85 8.1,-8.15 0,-2.25 -0.95,-4.8 -3.3,-6.65 -3.1,-2.4 -7.25,-2.4 -11.4,-2.4 h -8.75 v 36.25 h 9 c 4.55,0 9.1,0 12.45,-2.5 2.1,-1.6 3.25,-3.95 3.25,-6.7 0,-3.9 -2.65,-8.35 -9.35,-9.85 z m -10.4,1.85 h 3 c 3.25,0 6.5,0.05 9.1,2.3 1.6,1.45 2.6,3.35 2.6,5.5 0,1.8 -0.65,3.2 -1.95,4.15 -1.95,1.5 -4.7,1.5 -7.4,1.5 h -5.35 z m 0,-3.75 v -11.55 h 5 c 2.4,0 4.8,0 6.55,1.4 1.35,1.1 1.9,2.6 1.9,3.95 0,1.75 -0.85,3.3 -2.2,4.35 -2.25,1.85 -5.05,1.85 -7.9,1.85 z" />
        <path
           inkscape:connector-curvature="0"
           id="path7049"
           style="font-style:normal;font-variant:normal;font-weight:normal;font-stretch:normal;font-size:50px;line-height:100%;font-family:'Aurulent Sans';-inkscape-font-specification:'Aurulent Sans';fill:#535353;fill-opacity:1"
           d="m 156.5417,285.33286 c 0,3 -0.2,6.2 -2.3,8.4 -1.15,1.25 -2.85,1.9 -4.55,1.9 -1.7,0 -3.4,-0.65 -4.55,-1.9 -2.1,-2.2 -2.3,-5.4 -2.3,-8.4 0,-3 0.2,-6.2 2.3,-8.4 1.15,-1.25 2.85,-1.9 4.55,-1.9 1.7,0 3.4,0.65 4.55,1.9 2.1,2.2 2.3,5.4 2.3,8.4 z m -6.85,-13.85 c -7.35,0 -12.1,5.5 -12.1,13.85 0,8.45 4.8,13.85 12.1,13.85 7.3,0 12.1,-5.45 12.1,-13.85 0,-8.4 -4.85,-13.85 -12.1,-13.85 z" />
        <path
           inkscape:connector-curvature="0"
           id="path7051"
           style="font-style:normal;font-variant:normal;font-weight:normal;font-stretch:normal;font-size:50px;line-height:100%;font-family:'Aurulent Sans';-inkscape-font-specification:'Aurulent Sans';fill:#535353;fill-opacity:1"
           d="m 176.27139,287.03286 c -4.5,0 -5.5,-2.55 -5.5,-6 0,-2.75 0.6,-6 5.5,-6 4.4,0 5.55,2.6 5.55,6 0,3.35 -0.9,6 -5.55,6 z m -10.75,-6 c 0,3.1 1.5,6.25 4.45,8.05 -1.15,1 -1.9,2.45 -1.9,4 0,4.15 4.55,5.15 7.4,5.7 l 4.7,0.9 c 0.8,0.15 3.8,0.5 3.8,2.55 0,2.1 -2.9,2.5 -6,2.5 -3.8,0 -8.05,-0.55 -12.2,-1.7 v 4.15 c 3.6,0.95 7.4,1.15 9.7,1.15 6.55,0 13.2,-1.3 13.2,-6.45 0,-4.45 -4.3,-5.45 -7.2,-6 l -4.65,-0.9 c -2.8,-0.6 -4.9,-1.05 -4.9,-2.9 0,-0.7 0.3,-1.35 0.85,-1.85 1.15,0.3 2.3,0.45 3.5,0.45 7.6,0 10.75,-5.15 10.75,-9.6 0,-2.6 -1.05,-5.05 -2.9,-6.85 1.2,-0.65 2.65,-0.9 4.1,-0.9 v -3.6 c -2.5,0 -4.65,1.15 -6.3,2.95 -1.75,-0.85 -3.7,-1.15 -5.7,-1.15 -8.1,0 -10.75,5.65 -10.75,9.55 z" />
        <path
           inkscape:connector-curvature="0"
           id="path7053"
           style="font-style:normal;font-variant:normal;font-weight:normal;font-stretch:normal;font-size:50px;line-height:100%;font-family:'Aurulent Sans';-inkscape-font-specification:'Aurulent Sans';fill:#535353;fill-opacity:1"
           d="m 210.25264,285.33286 c 0,3 -0.2,6.2 -2.3,8.4 -1.15,1.25 -2.85,1.9 -4.55,1.9 -1.7,0 -3.4,-0.65 -4.55,-1.9 -2.1,-2.2 -2.3,-5.4 -2.3,-8.4 0,-3 0.2,-6.2 2.3,-8.4 1.15,-1.25 2.85,-1.9 4.55,-1.9 1.7,0 3.4,0.65 4.55,1.9 2.1,2.2 2.3,5.4 2.3,8.4 z m -6.85,-13.85 c -7.35,0 -12.1,5.5 -12.1,13.85 0,8.45 4.8,13.85 12.1,13.85 7.3,0 12.1,-5.45 12.1,-13.85 0,-8.4 -4.85,-13.85 -12.1,-13.85 z" />
        <path
           inkscape:connector-curvature="0"
           id="path7055"
           style="font-style:normal;font-variant:normal;font-weight:normal;font-stretch:normal;font-size:50px;line-height:100%;font-family:'Aurulent Sans';-inkscape-font-specification:'Aurulent Sans';fill:#535353;fill-opacity:1"
           d="m 237.28232,276.08286 v -4.4 c -0.95,-0.2 -1.9,-0.2 -2.35,-0.2 -4.15,0 -7.25,2.35 -9.05,5.65 v -5.05 h -4.75 v 26.5 h 4.75 v -16.35 c 1.2,-3.75 4.5,-6.5 8.6,-6.5 0.9,0 1.85,0.15 2.8,0.35 z" />
      </g>
    </g>
  </g>
</svg>
