<?xml version="1.0" encoding="UTF-8" standalone="no"?>
<!-- Created with Inkscape (http://www.inkscape.org/) -->

<svg
   xmlns:dc="http://purl.org/dc/elements/1.1/"
   xmlns:cc="http://creativecommons.org/ns#"
   xmlns:rdf="http://www.w3.org/1999/02/22-rdf-syntax-ns#"
   xmlns:svg="http://www.w3.org/2000/svg"
   xmlns="http://www.w3.org/2000/svg"
   xmlns:sodipodi="http://sodipodi.sourceforge.net/DTD/sodipodi-0.dtd"
   xmlns:inkscape="http://www.inkscape.org/namespaces/inkscape"
   width="300"
   height="200"
   viewBox="0 0 79.374998 52.916668"
   version="1.1"
   id="svg8"
   inkscape:version="0.92.2 5c3e80d, 2017-08-06"
   sodipodi:docname="klas.svg">
  <defs
     id="defs2" />
  <sodipodi:namedview
     id="base"
     pagecolor="#ffffff"
     bordercolor="#666666"
     borderopacity="1.0"
     inkscape:pageopacity="0.0"
     inkscape:pageshadow="2"
     inkscape:zoom="1.4"
     inkscape:cx="-2.8571429"
     inkscape:cy="148.67296"
     inkscape:document-units="px"
     inkscape:current-layer="layer1"
     showgrid="false"
     units="px"
     inkscape:window-width="1600"
     inkscape:window-height="835"
     inkscape:window-x="0"
     inkscape:window-y="33"
     inkscape:window-maximized="1" />
  <metadata
     id="metadata5">
    <rdf:RDF>
      <cc:Work
         rdf:about="">
        <dc:format>image/svg+xml</dc:format>
        <dc:type
           rdf:resource="http://purl.org/dc/dcmitype/StillImage" />
        <dc:title />
      </cc:Work>
    </rdf:RDF>
  </metadata>
  <g
     inkscape:label="Layer 1"
     inkscape:groupmode="layer"
     id="layer1"
     transform="translate(0,-244.08332)">
    <rect
       style="fill:#ffffff;fill-opacity:0.99680511;stroke:none;stroke-width:0.07016739;stroke-linecap:butt;stroke-linejoin:round;stroke-miterlimit:4;stroke-dasharray:none;stroke-opacity:1"
       id="rect4504"
       width="79.375"
       height="52.916668"
       x="-2.8421709e-14"
       y="244.08331" />
    <g
       transform="matrix(0.07561826,0,0,0.07561826,2.2564567,241.61766)"
       id="g1146">
      <g
         transform="matrix(2.976384,0,0,2.976384,-1076.8046,444.1924)"
         id="g4223">
        <path
           id="path3241"
           d="m 613.51326,40.185922 c -6.99216,-0.01023 -22.16891,1.639544 -22.28397,10.62313 -0.0388,3.027242 2.35176,6.306018 6.15358,8.301868 7.83691,4.11409 24.79634,3.3853 24.79638,8.89355 0,4.67771 -6.22909,4.9559 -7.82853,4.92467 -3.42299,-0.0668 -7.80229,-0.31256 -9.54898,-6.14446 l -15.17457,-0.11836 c 2.41544,11.496 15.69488,13.0927 24.59609,13.12646 7.88474,0.0298 23.69957,-1.68447 23.54929,-11.81564 -0.0864,-5.81657 -4.38817,-9.69996 -11.26031,-11.29672 -7.77303,-1.806099 -20.51179,-2.222824 -20.72738,-6.33563 -0.15838,-3.021797 5.12042,-3.380727 7.60093,-3.340793 4.82536,0.07768 7.95992,1.881559 8.47484,4.642527 l 14.2916,0.136527 C 634.44484,41.214975 621.13889,40.197141 613.51326,40.185922 Z M 420.73139,40.859539 V 79.11913 h 16.15772 V 69.9707 l 8.1016,-6.19908 12.45281,15.34751 h 18.76115 L 456.56964,54.923575 474.95755,40.859539 H 453.41093 L 436.88911,53.4944 V 40.859539 Z m 62.4006,0 V 79.11913 h 6.16267 9.99504 26.50773 v -9.3487 H 499.2897 V 40.859539 Z m 65.51377,0 -19.43475,38.259591 h 15.97563 l 3.20423,-6.30832 h 18.2878 l 3.20423,6.30832 h 15.97563 L 566.42379,40.859539 h -1.80238 -14.17324 z m 8.89357,13.94569 4.89738,9.649091 h -9.80385 z"
           style="font-style:normal;font-variant:normal;font-weight:bold;font-stretch:normal;font-size:66.01615143px;line-height:125%;font-family:Arial;-inkscape-font-specification:'Arial Bold';text-align:start;letter-spacing:0px;word-spacing:0px;writing-mode:lr-tb;text-anchor:start;fill:#d41415;fill-opacity:1;stroke:none"
           inkscape:connector-curvature="0" />
        <path
           sodipodi:nodetypes="ssssss"
           inkscape:connector-curvature="0"
           id="path4081"
           d="m 372.29696,29.520188 c -4.17767,1.1881 -4.3416,6.31523 2.76125,6.32181 102.62127,0.095 204.60767,-0.5822 304.85134,-3.3789 8.62805,-0.24071 9.32747,-4.86405 1.06574,-6.73599 -42.95838,-9.7335 -73.43947,-11.16125 -137.09349,-10.07128 -40.39553,0.6917 -152.014,8.29854 -171.58484,13.86436 z"
           style="color:#000000;display:inline;overflow:visible;visibility:visible;fill:#000000;fill-opacity:1;stroke:none;stroke-width:1;marker:none;enable-background:accumulate" />
        <path
           style="color:#000000;display:inline;overflow:visible;visibility:visible;fill:#ffffff;stroke:none;stroke-width:1;marker:none;enable-background:accumulate"
           d="m 390.34995,16.459428 c -0.46243,-3.28327 -0.5652,-7.7072203 0.63371,-9.3180303 1.1989,-1.61081 11.66359,1.23316 14.21554,2.39695 2.55195,1.1637903 -3.33123,5.0713503 -4.7271,5.5260803 -1.39586,0.45472 -10.12215,1.395 -10.12215,1.395 z"
           id="path4083"
           inkscape:connector-curvature="0" />
        <path
           sodipodi:nodetypes="csssc"
           style="color:#000000;display:inline;overflow:visible;visibility:visible;fill:#ffffff;stroke:none;stroke-width:1;marker:none;enable-background:accumulate"
           d="m 400.90885,12.135668 c -0.46244,-3.2832703 -0.73224,-7.8462003 0.6337,-9.3180303 1.86686,-2.01158996 11.6636,1.23316 14.21554,2.39695 2.55195,1.16379 -3.33123,5.0713503 -4.72709,5.5260803 -1.39587,0.45472 -10.12215,1.395 -10.12215,1.395 z"
           id="path4085"
           inkscape:connector-curvature="0" />
        <path
           sodipodi:nodetypes="csscc"
           inkscape:connector-curvature="0"
           id="path4089"
           d="m 427.24935,-1.6904323 c -11.95416,6.73722 -25.64917,12.6674903 -41.61044,16.7400803 -5.66203,1.44469 -2.90079,4.32126 -0.26547,4.79389 14.64039,2.6257 34.82325,-1.40958 44.00824,-3.27556 z"
           style="color:#000000;display:inline;overflow:visible;visibility:visible;fill:#26b856;fill-opacity:1;stroke:none;stroke-width:1;marker:none;enable-background:accumulate" />
        <path
           style="color:#000000;display:inline;overflow:visible;visibility:visible;fill:#ffffff;stroke:none;stroke-width:1;marker:none;enable-background:accumulate"
           d="m 427.47724,12.963608 c -8.76924,0.25908 -15.77387,0.28906 -16.57959,3.82033 -4.94046,-0.18334 -9.76617,-0.35928 -11.10554,1.65676 -4.28729,0.21491 -12.08354,0.24978 -12.28029,1.2807 -0.3578,1.87484 9.91734,3.89059 16.31316,2.65407 3.89534,0.93473 8.57339,0.33574 12.54066,-1.49871 4.48596,0.73314 9.52529,1.11805 15.41696,-2.78486 z"
           id="path4091"
           inkscape:connector-curvature="0"
           sodipodi:nodetypes="cccscccc" />
        <path
           sodipodi:nodetypes="cssccsccccc"
           inkscape:connector-curvature="0"
           id="path4097"
           d="m 462.31452,-56.309162 c -8.23055,10.73909 -18.7948,7.5769 -33.38929,6.191 -10.29641,-0.97776 -13.01091,12.31486 -8.40485,17.23236 6.4766,6.91451 19.37851,11.27504 35.53289,9.98409 l -1.85991,9.11696 c -4.57806,-0.95228 -17.9876,-4.48802 -26.01385,3.24809 -8.73768,8.4218297 -3.00241,29.11179 3.1609,33.27666 10.37952,0.53766 19.4625,0.58141 32.6142,0.31609 8.00816,-0.3838 0.4624,-8.2195 7.16955,-10.67077 l -1.78118,-67.47463 z"
           style="color:#000000;display:inline;overflow:visible;visibility:visible;fill:#26b856;fill-opacity:1;stroke:none;stroke-width:1;marker:none;enable-background:accumulate" />
        <path
           sodipodi:nodetypes="csscccc"
           inkscape:connector-curvature="0"
           id="path4099"
           d="m 459.00223,-28.552282 c -3.26989,2.93201 -13.43191,13.85468 -6.6061,27.93612974 7.12125,14.69092026 25.87829,21.30862026 47.44621,13.61700026 20.66091,-7.3681603 11.85853,-44.22566 11.84642,-44.87964 -0.0121,-0.65398 -10.3789,-23.73946 -10.3789,-23.73946 0,0 -15.64706,3.79308 -16.43426,3.86938 -16.06823,7.00741 -28.33056,11.59304 -25.87337,23.19659 z"
           style="color:#000000;display:inline;overflow:visible;visibility:visible;fill:#ffffff;stroke:none;stroke-width:1;marker:none;enable-background:accumulate" />
        <path
           sodipodi:nodetypes="csscc"
           inkscape:connector-curvature="0"
           id="path4133"
           d="m 460.98462,-61.484392 c -0.2292,0.54902 -1.11655,5.21973 -0.15508,6.38659 0.96148,1.16685 4.34761,1.18985 5.06705,0.66862 0.71944,-0.52123 1.53842,-6.42776 1.53842,-6.42776 z"
           style="color:#000000;display:inline;overflow:visible;visibility:visible;fill:#ffffff;stroke:none;stroke-width:0.99999994;marker:none;enable-background:accumulate" />
        <path
           style="color:#000000;display:inline;overflow:visible;visibility:visible;fill:#ffffff;stroke:none;stroke-width:0.99999994;marker:none;enable-background:accumulate"
           d="m 442.16514,-63.711792 c -0.21527,0.51607 -0.97643,5.57063 0.0282,6.57511 1.00463,1.00448 4.17228,0.7188 4.79761,0.16587 0.62533,-0.55292 1.23272,-6.15119 1.23272,-6.15119 z"
           id="path4131"
           inkscape:connector-curvature="0"
           sodipodi:nodetypes="csscc" />
        <path
           sodipodi:nodetypes="csssssccsccccscsscssssscsccsc"
           inkscape:connector-curvature="0"
           id="path4340"
           d="m 481.92034,-59.486684 c -3.02054,0.0822 -0.92658,-2.412358 -2.94908,-2.292458 -2.02249,0.11989 -6.16557,3.00058 -8.74573,3.81036 -3.45521,1.08442 -8.27062,0.76733 -9.7209,-0.25572 -3.87274,-2.73189 -7.05346,-3.22334 -9.07225,-3.04988 -5.44496,0.46786 -13.07318,0.48639 -13.74007,-5.77134 -0.77673,-7.28835 7.12581,-10.22729 14.91455,-7.84343 1.15174,-1.62189 3.18537,-4.36445 6.90316,-5.27698 0,0 1.57431,-5.26429 1.78629,-10.29106 0.37715,-8.94379 7.28536,-10.112138 14.13905,-2.92882 1.8762,-2.01315 8.50383,-3.77917 11.34192,-0.12308 6.56182,-6.907358 13.46457,-6.680838 16.0222,3.58453 7.53455,0.76716 11.36815,7.33625 8.43482,20.33446 9.53091,3.04942 8.43556,13.56746 -0.63067,17.78613 -1.46909,0.68359 -3.45155,2.73581 -3.74221,3.68408 0.64031,0.92817 0.9633,2.04032 2.84602,2.33253 3.80045,0.58986 9.11938,-3.3571 21.06056,0.89377 6.33577,2.25544 0.30368,56.0079 -0.30186,56.74907 -0.60553,0.74118 -14.87198,8.42544 -18.31142,8.89412 -3.43945,0.46869 -11.82008,0.70848 -13.35814,-0.51228 -1.53806,-1.22076 -1.62284,-6.69239 0.87197,-8.97042 2.49481,-2.2780303 7.58132,-6.4308003 6.0917,-16.4802803 -1.48962,-10.0494897 -8.08936,-17.1085297 -8.75545,-22.2858697 -0.66609,-5.17734 3.0519,-8.92682 3.00346,-12.709 -0.0484,-3.78218 -1.6955,-4.05467 -2.21627,-5.52613 -0.52076,-1.47145 -0.94463,-5.14464 -0.94463,-5.14464 -12.11996,0.43463 -21.80714,8.9036 -27.53299,10.84554 -2.49481,-1.04636 -0.76979,-9.27599 0.22329,-11.30332 0.99308,-2.02734 12.38268,-8.149882 12.38268,-8.149882 z"
           style="color:#000000;display:inline;overflow:visible;visibility:visible;fill:#1daf4d;fill-opacity:1;stroke:none;stroke-width:1;marker:none;enable-background:accumulate" />
        <path
           sodipodi:nodetypes="csccsc"
           inkscape:connector-curvature="0"
           id="path4147"
           d="m 483.46375,-60.125653 c -9.08101,7.670824 -11.0871,21.936288 -14.02298,21.955631 -5.88757,0.03879 -5.81314,-9.492844 -4.69501,-15.947617 2.11636,-0.490744 1.3088,-1.557035 2.23445,-3.353741 5.16115,-0.208278 6.96491,-2.356515 9.46554,-3.666112 2.34482,-1.227997 4.32526,-0.510666 7.018,1.011839 z"
           style="color:#000000;display:inline;overflow:visible;visibility:visible;fill:#fa0501;fill-opacity:1;stroke:none;stroke-width:1;marker:none;enable-background:accumulate" />
        <path
           sodipodi:nodetypes="cccc"
           inkscape:connector-curvature="0"
           id="path4113"
           d="m 566.34395,-120.74775 c -14.12215,19.92642 0.90077,53.614128 6.08014,60.332128 l 22.41945,-30.98303 c -12.24949,-8.58852 -20.69486,-18.829648 -28.49959,-29.349098 z"
           style="color:#000000;display:inline;overflow:visible;visibility:visible;fill:#d4e4fb;fill-opacity:1;stroke:none;stroke-width:1;marker:none;enable-background:accumulate" />
        <path
           sodipodi:nodetypes="ccssscc"
           inkscape:connector-curvature="0"
           id="path4115"
           d="m 629.97821,-54.942472 c 7.02298,2.29767 9.69341,5.60396 12.99482,9.3955 2.58344,-2.85807 5.23413,-4.91432 11.65052,-6.39809 2.73044,-0.63141 5.09163,0.56863 3.46367,5.02473 -2.76525,7.56911 -9.93805,11.9263 -16.67648,12.16403 -8.41542,0.29689 -13.79387,-5.29796 -18.46886,-7.94585 z"
           style="color:#000000;display:inline;overflow:visible;visibility:visible;fill:#d4e4fb;fill-opacity:1;stroke:none;stroke-width:1;marker:none;enable-background:accumulate" />
        <path
           style="color:#000000;display:inline;overflow:visible;visibility:visible;fill:#fa0501;fill-opacity:1;stroke:none;stroke-width:1;marker:none;enable-background:accumulate"
           d="m 608.75574,-79.547042 -7.80063,25.05248 24.82887,18.31978 c 4.05262,-9.87537 6.37764,-18.6015 13.82083,-30.73233 z"
           id="path4117"
           inkscape:connector-curvature="0"
           sodipodi:nodetypes="ccccc" />
        <path
           sodipodi:nodetypes="cccccc"
           inkscape:connector-curvature="0"
           id="path4119"
           d="m 605.49099,-79.071242 -0.13911,14.15489 c 3.3914,2.23332 6.91906,3.30071 11.51557,-0.74607 0.5489,3.56837 3.36497,8.03012 11.02959,4.50445 4.66872,6.3807 11.5948,-0.25066 14.97071,-4.81556 z"
           style="color:#000000;display:inline;overflow:visible;visibility:visible;fill:#ffffff;stroke:none;stroke-width:1;marker:none;enable-background:accumulate" />
        <path
           style="color:#000000;display:inline;overflow:visible;visibility:visible;fill:#eed424;fill-opacity:1;stroke:none;stroke-width:1;marker:none;enable-background:accumulate"
           d="m 529.70788,7.7468477 c -5.20401,5.2985003 -9.12449,7.1427103 -16.24512,10.5743003 -1.31835,0.63535 -1.4081,1.72845 1.87543,1.40272 2.32387,-0.23053 3.48567,-0.34831 4.6329,0.21581 1.52025,0.74755 -0.24695,2.77624 1.60139,3.32952 2.77015,0.8292 4.95154,-2.17422 7.50169,-1.88057 3.02122,0.3479 2.18372,3.8382 4.23041,4.07712 2.0467,0.23892 4.13679,-3.28316 4.88124,-4.50102 1.64421,-2.68982 3.39118,-8.77852 3.50251,-11.5531203 z"
           id="path4121"
           inkscape:connector-curvature="0"
           sodipodi:nodetypes="cssssssscc" />
        <path
           sodipodi:nodetypes="cscccccsscssc"
           inkscape:connector-curvature="0"
           id="path4123"
           d="m 604.27676,-13.544142 c 0,0 -40.42783,-26.00217 -34.46156,-56.3291 6.3713,-32.385738 51.0642,-23.45136 71.80519,-49.486358 21.03013,12.43999 14.1594,47.080068 6.61537,54.541878 -19.21421,1.80129 -31.24659,-2.99517 -39.47811,-11.28338 -7.68048,26.38153 12.89473,31.97421 24.32785,26.68112 -3.74265,13.53205 -6.55299,24.77936 -7.54195,35.18304 4.68361,3.3163 19.02168,7.6803397 30.72613,10.0168197 8.26427,1.64975 4.53902,7.07595 0.13702,8.75541 -6.91998,2.64012 -22.36716,2.77453 -34.97367,2.57422 -3.46261,4.4975003 -11.08161,12.8616203 -16.93876,15.6919003 -6.07253,2.93435 -7.44329,-0.69617 -7.26192,-3.02123 1.6444,-21.0799303 7.26339,-22.9952003 7.04441,-33.32432 z"
           style="color:#000000;display:inline;overflow:visible;visibility:visible;fill:#d4e4fb;fill-opacity:1;stroke:none;stroke-width:1;marker:none;enable-background:accumulate" />
        <path
           sodipodi:nodetypes="cssssssscc"
           inkscape:connector-curvature="0"
           id="path4125"
           d="m 564.43887,8.7136477 c 4.12662,3.7813803 12.43923,6.3483603 19.7016,9.4687903 1.34459,0.57775 1.48153,1.66594 -1.81302,1.48252 -2.33166,-0.12982 -4.01128,-0.34368 -5.13304,0.26952 -1.4865,0.8126 0.12699,3.04813 -1.15618,3.70395 -2.57479,1.31596 -4.82685,-2.1199 -7.36191,-1.71624 -3.00335,0.47823 -2.01569,3.92905 -4.05013,4.25626 -2.03446,0.3272 -4.27491,-3.10119 -5.07133,-4.28572 -1.75899,-2.6162 -4.31571,-7.31342 -5.16351,-11.26752 z"
           style="color:#000000;display:inline;overflow:visible;visibility:visible;fill:#eed424;fill-opacity:1;stroke:none;stroke-width:1;marker:none;enable-background:accumulate" />
        <path
           sodipodi:nodetypes="ssssccsss"
           inkscape:connector-curvature="0"
           id="path4127"
           d="m 525.89207,-46.018752 c 14.78085,-8.19548 25.95224,-6.50996 35.51175,-1.67118 15.63555,7.91432 25.19764,2.84029 29.6595,-3.05099 5.25573,-6.93951 9.18754,-6.10526 5.37618,9.04569 -2.12151,8.43347 -9.98895,16.18561 -16.34932,22.04948 2.0511,5.05077 9.27763,14.0182497 16.55006,17.7781697 0,0 -8.99399,9.50276 -20.54666,13.3847203 -17.29186,5.81046 -41.14962,6.08267 -55.40103,-5.3044803 -15.57032,-12.44099 -16.13512,-40.4020697 5.19952,-52.2314097 z"
           style="color:#000000;display:inline;overflow:visible;visibility:visible;fill:#000000;stroke:none;stroke-width:1;marker:none;enable-background:accumulate" />
        <path
           inkscape:connector-curvature="0"
           id="path4129"
           d="m 543.95733,-47.645562 c -15.04142,8.4e-4 -31.04764,10.1188 -30.28125,33.15625 0.51253,15.40682974 10.65299,23.3568997 20.0625,27.40625 8.09117,2.50773 17.22512,3.01473 26,2.09375 5.84092,-1.97289 12.38666,-5.3523403 14.125,-10.2812503 2.73703,-7.76056 -5.37813,-16.9377397 -8.1875,-20.2812497 -1.84081,-2.19083 -1.99319,-6.62773 -0.0312,-10.5625 2.9027,-5.82154 -0.41662,-17.11409 -13.5625,-20.53125 -2.60759,-0.67782 -5.33955,-1.00016 -8.125,-1 z"
           style="color:#000000;display:inline;overflow:visible;visibility:visible;fill:#ffffff;stroke:none;stroke-width:1;marker:none;enable-background:accumulate" />
        <path
           style="color:#000000;display:inline;overflow:visible;visibility:visible;fill:#ffffff;stroke:none;stroke-width:1;marker:none;enable-background:accumulate"
           d="m 473.50917,-82.100532 c 0.51565,2.55393 -0.67829,3.9124 -3.1514,4.73223 -2.52869,0.83825 -11.07959,-0.62008 -12.46857,-4.78618 -1.16849,-3.50477 1.22633,-7.56342 4.85555,-8.25443 4.61198,-0.87813 9.9031,4.0424 10.76442,8.30838 z"
           id="path4135"
           inkscape:connector-curvature="0"
           sodipodi:nodetypes="sssss" />
        <path
           sodipodi:nodetypes="sssss"
           inkscape:connector-curvature="0"
           id="path4137"
           d="m 481.58129,-79.397692 c -1.14583,2.75923 -0.11525,5.15449 2.7794,5.97944 2.93379,0.83611 12.75809,2.174 15.24235,-2.20519 2.08992,-3.68404 0.79843,-8.28258 -3.03762,-9.47396 -5.13315,-1.59422 -13.07015,1.09082 -14.98413,5.69971 z"
           style="color:#000000;display:inline;overflow:visible;visibility:visible;fill:#ffffff;stroke:none;stroke-width:0.99999994;marker:none;enable-background:accumulate" />
        <path
           style="color:#000000;font-style:normal;font-variant:normal;font-weight:normal;font-stretch:normal;font-size:medium;line-height:normal;font-family:Sans;-inkscape-font-specification:Sans;text-indent:0;text-align:start;text-decoration:none;text-decoration-line:none;letter-spacing:normal;word-spacing:normal;text-transform:none;writing-mode:lr-tb;direction:ltr;baseline-shift:baseline;text-anchor:start;display:inline;overflow:visible;visibility:visible;fill:#333333;fill-opacity:1;stroke:none;stroke-width:1;marker:none;enable-background:accumulate"
           d="m 463.97057,-82.479582 c 2.27218,-0.17036 3.976,-0.35639 5.82213,2.18044 0.55867,0.7677 0.95726,0.17636 0.81077,-0.37626 -1.0058,-3.79424 -4.51481,-4.62935 -6.26151,-4.48495 -2.34806,0.19412 -2.1373,2.81318 -0.37139,2.68077 z"
           id="path4139"
           inkscape:connector-curvature="0"
           sodipodi:nodetypes="sssss" />
        <path
           sodipodi:nodetypes="sssss"
           inkscape:connector-curvature="0"
           id="path4141"
           d="m 491.77989,-77.599792 c -2.30395,-0.63788 -4.01973,-1.17625 -6.43595,1.06107 -0.7312,0.67705 -1.02114,-0.0131 -0.75794,-0.55256 1.80714,-3.70348 5.58865,-3.84955 7.35704,-3.34534 2.37722,0.67778 1.62747,3.33258 -0.16377,2.83679 z"
           style="color:#000000;font-style:normal;font-variant:normal;font-weight:normal;font-stretch:normal;font-size:medium;line-height:normal;font-family:Sans;-inkscape-font-specification:Sans;text-indent:0;text-align:start;text-decoration:none;text-decoration-line:none;letter-spacing:normal;word-spacing:normal;text-transform:none;writing-mode:lr-tb;direction:ltr;baseline-shift:baseline;text-anchor:start;display:inline;overflow:visible;visibility:visible;fill:#333333;fill-opacity:1;stroke:none;stroke-width:1;marker:none;enable-background:accumulate" />
        <path
           style="color:#000000;display:inline;overflow:visible;visibility:visible;fill:#07160c;fill-opacity:1;stroke:none;stroke-width:1;marker:none;enable-background:accumulate"
           d="m 450.152,-67.804702 c -0.80657,-0.92453 -3.3333,-3.47608 -5.39933,-2.4008 -1.94653,1.01308 -0.92769,3.00193 -0.0471,3.42201 2.2543,1.07541 4.33317,0.59347 4.92405,0.5395 0.59089,-0.054 1.25874,-0.71666 0.52238,-1.56071 z"
           id="path4153"
           inkscape:connector-curvature="0"
           sodipodi:nodetypes="sssss" />
        <path
           sodipodi:nodetypes="sssss"
           inkscape:connector-curvature="0"
           id="path4155"
           d="m 462.11549,-67.492972 c 1.08834,-0.72195 4.39982,-2.62884 6.2091,-0.934 1.70462,1.59681 0.0958,3.34983 -0.92421,3.53548 -2.04482,0.37216 -4.57037,-0.42887 -5.3197,-0.85324 -0.54898,-0.31084 -0.95878,-1.08913 0.0348,-1.74824 z"
           style="color:#000000;display:inline;overflow:visible;visibility:visible;fill:#07160c;fill-opacity:1;stroke:none;stroke-width:1;marker:none;enable-background:accumulate" />
        <path
           sodipodi:nodetypes="sssss"
           inkscape:connector-curvature="0"
           id="path4157"
           d="m 499.40363,15.055138 c 2.25629,-2.51287 10.39968,2.89521 7.90831,4.97024 -2.13344,1.77691 -6.00037,3.0008 -7.37544,3.1282 -2.69891,0.25006 -2.88819,-0.40328 -2.79758,-1.44965 0.16829,-1.94347 1.12321,-5.37748 2.26471,-6.64879 z"
           style="color:#000000;display:inline;overflow:visible;visibility:visible;fill:#ffffff;fill-opacity:1;stroke:none;stroke-width:1;marker:none;enable-background:accumulate" />
        <path
           sodipodi:nodetypes="ssssss"
           inkscape:connector-curvature="0"
           id="path4159"
           d="m 427.42694,-54.712702 c -0.99457,1.7895 -1.8112,3.7881 -1.78979,4.67443 0.0113,0.46748 0.7969,1.12179 2.75206,1.30699 2.3598,0.22354 3.72311,-0.44995 3.74341,-0.82529 0.0601,-1.11096 -1.03648,-4.02616 -1.63136,-5.36422 -0.54202,-1.21917 -2.25311,-1.26949 -3.07432,0.20809 z"
           style="color:#000000;display:inline;overflow:visible;visibility:visible;fill:#ffffff;fill-opacity:1;stroke:none;stroke-width:1;marker:none;enable-background:accumulate" />
        <path
           style="color:#000000;display:inline;overflow:visible;visibility:visible;fill:#ffffff;fill-opacity:1;stroke:none;stroke-width:0.99999994;marker:none;enable-background:accumulate"
           d="m 413.68053,-36.234852 c 1.58167,0.6048 4.60953,1.22147 5.5145,1.04338 0.47731,-0.0939 1.0227,-0.87243 0.86837,-2.9106 -0.18627,-2.45998 -1.17247,-3.17717 -1.56088,-3.13188 -1.14963,0.13404 -4.33085,1.37157 -5.59801,2.21747 -1.15457,0.77073 -0.86664,2.1535 0.77602,2.78163 z"
           id="path4161"
           inkscape:connector-curvature="0"
           sodipodi:nodetypes="ssssss" />
        <path
           sodipodi:nodetypes="ssssss"
           inkscape:connector-curvature="0"
           id="path4163"
           d="m 417.00161,-49.437482 c 0.72149,1.91597 1.78611,3.82538 2.45253,4.41012 0.35149,0.30841 0.90685,0.39353 2.36769,-0.91908 1.76317,-1.58425 1.57914,-2.59626 1.31682,-2.86549 -0.77643,-0.79687 -3.15257,-1.93114 -4.54123,-2.39578 -1.57652,-0.52751 -2.0406,0.58905 -1.59581,1.77023 z"
           style="color:#000000;display:inline;overflow:visible;visibility:visible;fill:#ffffff;fill-opacity:1;stroke:none;stroke-width:1;marker:none;enable-background:accumulate" />
        <path
           style="color:#000000;display:inline;overflow:visible;visibility:visible;fill:#ffffff;fill-opacity:1;stroke:none;stroke-width:1;marker:none;enable-background:accumulate"
           d="m 430.48918,24.305918 c 1.96017,0.079 6.21803,0.30471 8.66523,-0.34334 1.81623,-0.48096 -1.11365,-4.89101 -3.30623,-4.79584 -1.83137,0.0795 -4.9291,1.64129 -6.33997,2.98649 -1.11742,1.06542 -1.1917,2.06513 0.98097,2.15269 z"
           id="path4165"
           inkscape:connector-curvature="0"
           sodipodi:nodetypes="sssss" />
        <path
           style="color:#000000;display:inline;overflow:visible;visibility:visible;fill:#ffffff;fill-opacity:1;stroke:none;stroke-width:0.99999994;marker:none;enable-background:accumulate"
           d="m 443.60505,24.842448 c 2.12987,0.0939 6.75635,0.36203 9.41541,-0.40793 1.97347,-0.57144 -1.21005,-5.81112 -3.59246,-5.69805 -1.98991,0.0944 -5.35583,1.95006 -6.88884,3.54831 -1.21416,1.26586 -1.29487,2.45363 1.06589,2.55767 z"
           id="path4167"
           inkscape:connector-curvature="0"
           sodipodi:nodetypes="sssss" />
        <path
           sodipodi:nodetypes="sssss"
           inkscape:connector-curvature="0"
           id="path4169"
           d="m 453.41205,24.934138 c 1.97746,0.0863 6.27289,0.33258 8.74168,-0.37474 1.83225,-0.52495 -1.12347,-5.33836 -3.3354,-5.23449 -1.84752,0.0867 -4.97259,1.79141 -6.39591,3.25964 -1.12727,1.16288 -1.20221,2.25402 0.98963,2.34959 z"
           style="color:#000000;display:inline;overflow:visible;visibility:visible;fill:#ffffff;fill-opacity:1;stroke:none;stroke-width:0.99999994;marker:none;enable-background:accumulate" />
        <path
           style="color:#000000;font-style:normal;font-variant:normal;font-weight:normal;font-stretch:normal;font-size:medium;line-height:normal;font-family:Sans;-inkscape-font-specification:Sans;text-indent:0;text-align:start;text-decoration:none;text-decoration-line:none;letter-spacing:normal;word-spacing:normal;text-transform:none;writing-mode:lr-tb;direction:ltr;baseline-shift:baseline;text-anchor:start;display:inline;overflow:visible;visibility:visible;fill:#000000;fill-opacity:1;stroke:none;stroke-width:2;marker:none;enable-background:accumulate"
           d="m 600.28125,-93.3125 c -1.58729,0.280615 -3.13753,1.378712 -4.6875,2.96875 a 1.0054782,1.0054782 0 1 0 1.4375,1.40625 c 1.86005,-1.908139 3.34737,-2.612681 4.5,-2.40625 1.15263,0.206431 2.461,1.420666 3.75,4.25 a 1.0001,1.0001 0 1 0 1.8125,-0.84375 c -1.41104,-3.097206 -3.08259,-4.992424 -5.21875,-5.375 -0.53404,-0.09564 -1.06465,-0.09354 -1.59375,0 z"
           id="path4181"
           inkscape:connector-curvature="0" />
        <path
           style="color:#000000;font-style:normal;font-variant:normal;font-weight:normal;font-stretch:normal;font-size:medium;line-height:normal;font-family:Sans;-inkscape-font-specification:Sans;text-indent:0;text-align:start;text-decoration:none;text-decoration-line:none;letter-spacing:normal;word-spacing:normal;text-transform:none;writing-mode:lr-tb;direction:ltr;baseline-shift:baseline;text-anchor:start;display:inline;overflow:visible;visibility:visible;fill:#000000;fill-opacity:1;stroke:none;stroke-width:2;marker:none;enable-background:accumulate"
           d="m 578.875,-81.09375 a 1.0019512,1.0019512 0 1 0 -0.125,2 c 2.93316,0.29025 5.10388,1.392089 7.34375,2.75 2.23987,1.357911 4.54975,2.989236 7.625,4.09375 a 1.0001,1.0001 0 1 0 0.65625,-1.875 c -2.7842,-0.999976 -4.93088,-2.500291 -7.25,-3.90625 -2.31912,-1.405959 -4.81837,-2.70095 -8.15625,-3.03125 a 1.0001,1.0001 0 0 0 -0.0937,-0.03125 z"
           id="path4183"
           inkscape:connector-curvature="0" />
        <path
           style="color:#000000;font-style:normal;font-variant:normal;font-weight:normal;font-stretch:normal;font-size:medium;line-height:normal;font-family:Sans;-inkscape-font-specification:Sans;text-indent:0;text-align:start;text-decoration:none;text-decoration-line:none;letter-spacing:normal;word-spacing:normal;text-transform:none;writing-mode:lr-tb;direction:ltr;baseline-shift:baseline;text-anchor:start;display:inline;overflow:visible;visibility:visible;fill:#000000;fill-opacity:1;stroke:none;stroke-width:2;marker:none;enable-background:accumulate"
           d="m 577.40625,-76.375 a 1.0001,1.0001 0 0 0 -0.46875,1.8125 c 3.94746,3.035143 8.92927,5.025211 16.21875,6.9375 a 1.0001,1.0001 0 1 0 0.53125,-1.90625 c -7.17148,-1.881331 -11.88865,-3.824263 -15.53125,-6.625 a 1.0001,1.0001 0 0 0 -0.75,-0.21875 z"
           id="path4185"
           inkscape:connector-curvature="0" />
        <path
           style="color:#000000;font-style:normal;font-variant:normal;font-weight:normal;font-stretch:normal;font-size:medium;line-height:normal;font-family:Sans;-inkscape-font-specification:Sans;text-indent:0;text-align:start;text-decoration:none;text-decoration-line:none;letter-spacing:normal;word-spacing:normal;text-transform:none;writing-mode:lr-tb;direction:ltr;baseline-shift:baseline;text-anchor:start;display:inline;overflow:visible;visibility:visible;fill:#000000;fill-opacity:1;stroke:none;stroke-width:2;marker:none;enable-background:accumulate"
           d="m 576.59375,-69.9375 a 1.0001,1.0001 0 0 0 -0.53125,1.75 c 4.31617,3.999275 9.44014,5.187207 14.6875,5.125 a 1.0001,1.0001 0 1 0 0,-2 c -4.94082,0.05857 -9.42339,-0.990185 -13.3125,-4.59375 a 1.0001,1.0001 0 0 0 -0.84375,-0.28125 z"
           id="path4187"
           inkscape:connector-curvature="0" />
        <path
           sodipodi:nodetypes="cccccccccc"
           inkscape:connector-curvature="0"
           id="path4191"
           d="m 527.22425,-45.059582 c -13.86365,-7.43005 -19.68592,-36.21422 3.26038,-46.20879 -0.31453,-1.92827 -3.05095,-3.79481 -5.44969,-4.02305 2.66964,-2.26929 7.42244,-2.13463 10.06177,-1.34848 -0.15424,-2.14093 -0.81451,-4.063478 -1.95782,-5.893158 3.32363,-0.0168 7.2267,1.64897 8.70559,4.119118 1.59944,-1.18082 5.5663,-2.181978 8.96026,-1.45396 -1.76639,1.00816 -2.59039,3.137 -2.7389,5.29732 29.2276,5.09538 26.45125,35.37312 12.41756,48.3739 -11.13312,-5.05207 -23.53726,-4.34275 -33.25915,1.1371 z"
           style="color:#000000;display:inline;overflow:visible;visibility:visible;fill:#000000;stroke:none;stroke-width:1;marker:none;enable-background:accumulate" />
        <path
           style="color:#000000;display:inline;overflow:visible;visibility:visible;fill:#eed424;fill-opacity:1;stroke:none;stroke-width:1;marker:none;enable-background:accumulate"
           d="m 536.19619,-37.349812 c -1.39594,1.44521 -2.5305,0.92855 -3.15536,-1.0409 -1.71265,-5.39795 -2.03836,-11.35815 -1.87059,-16.22417 l 21.19377,3.61869 c -7.43659,4.83576 -10.66554,7.94988 -16.16782,13.64638 z"
           id="path4193"
           inkscape:connector-curvature="0"
           sodipodi:nodetypes="ssccs" />
        <circle
           r="5.5915899"
           cy="109.25649"
           cx="167.50107"
           transform="matrix(0.79477754,0,0,0.87747913,398.03996,-162.57821)"
           id="path4195"
           style="color:#000000;display:inline;overflow:visible;visibility:visible;fill:#ffffff;stroke:none;stroke-width:1.19745398;marker:none;enable-background:accumulate" />
        <circle
           r="5.5915899"
           cy="109.25649"
           cx="167.50107"
           transform="matrix(0.83536258,0,0,0.9218602,411.63609,-165.94581)"
           id="path4197"
           style="color:#000000;display:inline;overflow:visible;visibility:visible;fill:#ffffff;stroke:none;stroke-width:1.13954103;marker:none;enable-background:accumulate" />
        <path
           sodipodi:nodetypes="cccc"
           inkscape:connector-curvature="0"
           id="path4199"
           d="m 534.85795,-40.172822 c -0.74123,-4.41693 -0.75339,-10.88781 0.0606,-13.29215 l 11.94723,2.47423 c -6.0157,4.29873 -8.48528,6.41878 -12.00779,10.81792 z"
           style="color:#000000;display:inline;overflow:visible;visibility:visible;fill:#fa0501;fill-opacity:1;stroke:none;stroke-width:1;marker:none;enable-background:accumulate" />
        <circle
           r="5.5915899"
           cy="109.25649"
           cx="167.50107"
           transform="matrix(0.30211168,0,0,0.33736148,480.33079,-104.38382)"
           id="path4201"
           style="color:#000000;display:inline;overflow:visible;visibility:visible;fill:#000000;stroke:none;stroke-width:2.61876178;marker:none;enable-background:accumulate" />
        <circle
           r="5.5915899"
           cy="109.25649"
           cx="167.50107"
           style="color:#000000;display:inline;overflow:visible;visibility:visible;fill:#000000;stroke:none;stroke-width:2.61876178;marker:none;enable-background:accumulate"
           id="path4203"
           transform="matrix(0.30567689,0,0,0.34134268,500.18345,-103.35441)" />
        <path
           style="color:#000000;display:inline;overflow:visible;visibility:visible;fill:#eed424;fill-opacity:1;stroke:none;stroke-width:1;marker:none;enable-background:accumulate"
           d="m 522.29307,-57.416082 c -0.67713,-0.67267 -0.48725,-1.43549 0.56771,-1.20981 6.38593,1.36612 12.84192,0.63695 17.47728,-1.18812 2.88954,3.50067 8.1269,7.23955 12.02595,8.81782 -10.0701,2.07467 -23.20097,0.40472 -30.07094,-6.41989 z"
           id="path4205"
           inkscape:connector-curvature="0"
           sodipodi:nodetypes="ssccs" />
        <path
           style="color:#000000;display:inline;overflow:visible;visibility:visible;fill:#1daf4d;fill-opacity:1;stroke:none;stroke-width:1;marker:none;enable-background:accumulate"
           d="m 511.2343,-69.590102 c 9.53091,3.04942 8.43556,13.56746 -0.63067,17.78613 l -1.62255,-8.987922 z"
           id="path4338"
           inkscape:connector-curvature="0"
           sodipodi:nodetypes="cccc" />
      </g>
      <g
         id="g4067"
         transform="matrix(2.976384,0,0,2.976384,-2124.6879,444.1924)">
        <path
           inkscape:connector-curvature="0"
           style="font-style:normal;font-variant:normal;font-weight:bold;font-stretch:normal;font-size:66.01615143px;line-height:125%;font-family:Arial;-inkscape-font-specification:'Arial Bold';text-align:start;letter-spacing:0px;word-spacing:0px;writing-mode:lr-tb;text-anchor:start;fill:#d41415;fill-opacity:1;stroke:none"
           d="m 965.57917,40.185924 c -6.9921,-0.0102 -22.1689,1.63954 -22.284,10.623129 -0.039,3.027242 2.3518,6.306018 6.1536,8.301868 7.8369,4.114089 24.7964,3.385299 24.7964,8.893549 0,4.67771 -6.2291,4.9559 -7.8285,4.92467 -3.423,-0.0668 -7.8023,-0.31256 -9.549,-6.14446 l -15.1746,-0.11836 c 2.4155,11.496 15.6949,13.0927 24.5961,13.12646 7.8848,0.0298 23.6996,-1.68447 23.5493,-11.81564 -0.086,-5.81657 -4.3882,-9.699959 -11.2603,-11.296719 -7.773,-1.806099 -20.5118,-2.222824 -20.7274,-6.33563 -0.1584,-3.021797 5.1204,-3.380727 7.6009,-3.340793 4.8254,0.07768 7.96,1.881559 8.4749,4.642527 l 14.2916,0.136527 c -1.7074,-10.568078 -15.0134,-11.585908 -22.639,-11.597128 z m -192.78185,0.67362 V 79.11913 h 16.15772 V 69.9707 l 8.1016,-6.19908 12.45281,15.34751 H 828.2706 L 808.63557,54.923576 827.02348,40.859544 H 805.47686 L 788.95504,53.494401 V 40.859544 Z m 62.4006,0 V 79.11913 h 6.16267 9.99504 26.50773 v -9.3487 H 851.35563 V 40.859544 Z m 65.51377,0 -19.43475,38.259586 h 15.97563 l 3.20423,-6.30832 h 18.28777 l 3.2043,6.30832 h 15.9756 l -19.4348,-38.259586 h -1.8023 -14.17327 z m 8.89357,13.945686 4.89738,9.64909 h -9.80385 z"
           id="path4069" />
        <path
           style="color:#000000;display:inline;overflow:visible;visibility:visible;fill:none;stroke:#b3b3b3;stroke-width:0.99999994;stroke-linecap:round;stroke-linejoin:round;stroke-miterlimit:4;stroke-dasharray:none;stroke-dashoffset:0;stroke-opacity:1;marker:none;enable-background:accumulate"
           d="m 793.91719,-61.982814 c -0.21344,1.724087 -0.32533,4.178827 0.34207,4.846132 1.00463,1.00448 4.17228,0.718794 4.79761,0.16587 0.39612,-0.350248 0.75063,-2.473605 0.9791,-4.142417"
           id="path4071"
           inkscape:connector-curvature="0"
           sodipodi:nodetypes="cssc" />
        <path
           sodipodi:nodetypes="cssscccssssccssssccscccssccsscsc"
           inkscape:connector-curvature="0"
           id="path4073"
           d="m 724.36288,29.520188 c -4.17767,1.188102 -4.3416,6.31523 2.76125,6.32181 102.62127,0.095 204.60767,-0.5822 304.85137,-3.3789 8.628,-0.24071 9.3274,-4.864055 1.0657,-6.73599 -23.7698,-5.385763 -43.71954,-8.228587 -67.58265,-9.509019 -9.60172,8.607773 -17.71227,12.123931 -15.85864,-0.615089 -6.32911,-0.161213 -12.99077,-0.241485 -20.09806,-0.255157 12.9163,4.384554 6.5779,4.426681 0.0102,4.200773 -1.22762,-0.04223 0.011,3.444607 -1.64292,4.019987 -1.78775,0.621936 -6.45008,-1.65799 -7.18015,-1.538976 -2.04699,0.333694 -2.6626,4.176593 -4.2396,4.237349 -1.778,0.0685 -4.57964,-4.008339 -8.27299,-10.792955 -5.72635,0.08626 -10.6214,0.131749 -15.75995,0.255347 -1.54093,5.78822 -3.77146,9.193832 -6.88109,9.593382 -1.67189,0.214816 -1.88141,-3.116453 -3.76324,-3.685813 -2.10061,-0.635549 -5.87076,1.485646 -7.62038,1.830071 -1.71524,0.337656 -0.88902,-2.072281 -2.05707,-3.238834 -0.93246,-0.931275 -3.87483,-0.715742 -4.98691,-0.271376 -2.90003,1.158789 -7.44403,1.444927 -9.29678,1.072304 -3.02907,1.560903 -4.66857,2.010375 -7.28513,2.150546 -2.32815,0.12472 -0.88458,-4.278078 -0.41874,-5.584682 -9.60176,0.544275 -19.74577,1.179791 -29.95481,1.880371 -0.68319,3.076823 -2.90986,3.503354 -5.15379,3.663512 -0.63654,0.04543 0.0597,1.412451 -0.81308,1.498378 -5.33139,0.524906 -15.83318,0.330754 -19.9331,-0.164692 -1.66817,-0.201585 0.74774,-2.049333 1.35734,-3.191651 -1.40953,0.111079 -2.81271,0.223031 -4.20822,0.335783 0.32281,0.561545 0.70003,2.077449 -0.51979,2.428219 -2.24555,0.645732 -6.88401,0.616856 -8.92639,-0.162306 -0.81684,-0.31162 -1.03475,-0.982026 -0.79984,-1.411213 -26.64678,2.296629 -49.00569,4.83428 -56.79257,7.048817 z"
           style="color:#000000;display:inline;overflow:visible;visibility:visible;fill:#000000;fill-opacity:1;stroke:none;stroke-width:1;marker:none;enable-background:accumulate" />
        <path
           style="color:#000000;display:inline;overflow:visible;visibility:visible;fill:none;stroke:#b3b3b3;stroke-width:1;stroke-linecap:round;stroke-linejoin:round;stroke-miterlimit:4;stroke-dasharray:none;stroke-dashoffset:0;stroke-opacity:1;marker:none;enable-background:accumulate"
           d="m 742.14226,13.694987 c -0.15243,-2.657479 0.0247,-5.3677826 0.90732,-6.5535893 0.78586,-1.0558658 5.5529,-0.1976736 9.46297,0.8467308"
           id="path4075"
           inkscape:connector-curvature="0"
           sodipodi:nodetypes="csc" />
        <path
           sodipodi:nodetypes="csc"
           style="color:#000000;display:inline;overflow:visible;visibility:visible;fill:none;stroke:#b3b3b3;stroke-width:1;stroke-linecap:round;stroke-linejoin:round;stroke-miterlimit:4;stroke-dasharray:none;stroke-dashoffset:0;stroke-opacity:1;marker:none;enable-background:accumulate"
           d="m 752.76427,10.387427 c -0.29642,-2.9853184 -0.29152,-6.3460234 0.8442,-7.5697893 1.38072,-1.4877634 7.0991,-0.100299 11.01607,1.1940132"
           id="path4077"
           inkscape:connector-curvature="0" />
        <path
           sodipodi:nodetypes="csc"
           inkscape:connector-curvature="0"
           id="path4079"
           d="m 764.81106,5.6586465 c -0.31527,-3.0448663 -0.31644,-6.55622866 0.81212,-7.8584088 1.13253,-1.306756 6.14482,-0.7311323 10.41282,0.3877316"
           style="color:#000000;display:inline;overflow:visible;visibility:visible;fill:none;stroke:#b3b3b3;stroke-width:1;stroke-linecap:round;stroke-linejoin:round;stroke-miterlimit:4;stroke-dasharray:none;stroke-dashoffset:0;stroke-opacity:1;marker:none;enable-background:accumulate" />
        <path
           sodipodi:nodetypes="cssc"
           inkscape:connector-curvature="0"
           id="path4082"
           d="M 775.79268,0.24332332 C 764.68724,6.1780085 752.12032,11.371471 737.70483,15.049648 c -5.66203,1.444692 -2.90079,4.321255 -0.26547,4.79389 0.69201,0.124109 1.3964,0.233336 2.11142,0.328614"
           style="color:#000000;display:inline;overflow:visible;visibility:visible;fill:none;stroke:#0f5827;stroke-width:1;stroke-linecap:round;stroke-linejoin:round;stroke-miterlimit:4;stroke-dasharray:none;stroke-dashoffset:0;stroke-opacity:1;marker:none;enable-background:accumulate" />
        <path
           style="color:#000000;display:inline;overflow:visible;visibility:visible;fill:none;stroke:#cccccc;stroke-width:1;stroke-linecap:round;stroke-linejoin:round;stroke-miterlimit:4;stroke-dasharray:none;stroke-dashoffset:0;stroke-opacity:1;marker:none;enable-background:accumulate"
           d="m 777.58085,13.020214 c -7.83349,0.227148 -13.87265,0.500198 -14.61728,3.763724 -4.94046,-0.18334 -9.76617,-0.35928 -11.10554,1.65676 -4.28729,0.21491 -12.08354,0.24978 -12.28029,1.2807 -0.3578,1.87484 9.91734,3.89059 16.31316,2.65407 3.89534,0.93473 8.57339,0.33574 12.54066,-1.49871 3.69017,0.603084 7.75479,0.970528 12.36028,-1.090589"
           id="path4084"
           inkscape:connector-curvature="0"
           sodipodi:nodetypes="cccsccc" />
        <path
           style="color:#000000;display:inline;overflow:visible;visibility:visible;fill:none;stroke:#cccccc;stroke-width:1;stroke-linecap:round;stroke-linejoin:round;stroke-miterlimit:4;stroke-dasharray:none;stroke-dashoffset:0;stroke-opacity:1;marker:none;enable-background:accumulate"
           d="m 768.38917,20.920368 c -2.66694,-0.79154 -4.28701,-2.16011 -5.49221,-3.91843"
           id="path4086"
           inkscape:connector-curvature="0"
           sodipodi:nodetypes="cc" />
        <path
           sodipodi:nodetypes="cc"
           inkscape:connector-curvature="0"
           id="path4088"
           d="m 755.93328,22.310068 c -2.40656,-0.79699 -3.86313,-2.33995 -4.27508,-3.48789"
           style="color:#000000;display:inline;overflow:visible;visibility:visible;fill:none;stroke:#cccccc;stroke-width:1;stroke-linecap:round;stroke-linejoin:round;stroke-miterlimit:4;stroke-dasharray:none;stroke-dashoffset:0;stroke-opacity:1;marker:none;enable-background:accumulate" />
        <path
           sodipodi:nodetypes="cccccccsccscccccc"
           inkscape:connector-curvature="0"
           id="path4090"
           d="m 813.15694,-54.832591 c -7.39368,8.228262 -16.63198,6.430207 -28.84635,5.061141 m -6.67984,-0.126139 c -0.83549,0.206964 -1.59789,0.525925 -2.28745,0.935316 m -3.73779,4.272032 c -0.49361,1.055493 -0.83255,2.192494 -1.01762,3.343442 m 0.62246,6.286919 c 0.34561,0.824796 0.80442,1.563909 1.37595,2.174078 6.19679,6.615784 18.2757,10.893497 33.4576,10.120013 m -3.58158,8.19083 c -6.04251,-1.137003 -15.83267,-2.115141 -22.21689,4.038297 -8.12032,7.8267849 -3.74061,26.24935 1.86586,32.15653 m 9.71588,1.435594 c 0.76072,0.02134 1.39604,0.05764 2.16094,0.07399 m 20.79173,-0.04904 c 0.40958,-0.0078 0.82308,-0.01591 1.24069,-0.02433 6.69381,-0.320808 2.52033,-5.848146 4.88712,-9.085439"
           style="color:#000000;display:inline;overflow:visible;visibility:visible;fill:none;stroke:#0f5827;stroke-width:1;stroke-linecap:round;stroke-linejoin:round;stroke-miterlimit:4;stroke-dasharray:none;stroke-dashoffset:0;stroke-opacity:1;marker:none;enable-background:accumulate" />
        <path
           sodipodi:nodetypes="ccsc"
           inkscape:connector-curvature="0"
           id="path4092"
           d="m 817.02452,-41.849847 c -4.74508,3.467364 -7.1821,7.509307 -5.95637,13.297565 -3.26989,2.93201 -13.43192,13.854682 -6.6061,27.93612974 6.93929,14.31553526 24.92732,20.96515626 45.79854,14.17868926"
           style="color:#000000;display:inline;overflow:visible;visibility:visible;fill:none;stroke:#cccccc;stroke-width:1;stroke-linecap:round;stroke-linejoin:round;stroke-miterlimit:4;stroke-dasharray:none;stroke-dashoffset:0;stroke-opacity:1;marker:none;enable-background:accumulate" />
        <path
           sodipodi:nodetypes="cc"
           inkscape:connector-curvature="0"
           id="path4094"
           d="m 850.26921,-44.765922 c -5.5356,-1.55685 -10.40398,-2.59857 -14.84492,-2.51079"
           style="color:#000000;display:inline;overflow:visible;visibility:visible;fill:none;stroke:#cccccc;stroke-width:1;stroke-linecap:round;stroke-linejoin:round;stroke-miterlimit:4;stroke-dasharray:none;stroke-dashoffset:0;stroke-opacity:1;marker:none;enable-background:accumulate" />
        <path
           sodipodi:nodetypes="cc"
           inkscape:connector-curvature="0"
           id="path4096"
           d="m 850.16553,-34.672742 c -9.4446,-3.21513 -16.95852,-4.645835 -26.57583,-5.339828"
           style="color:#000000;display:inline;overflow:visible;visibility:visible;fill:none;stroke:#cccccc;stroke-width:1;stroke-linecap:round;stroke-linejoin:round;stroke-miterlimit:4;stroke-dasharray:none;stroke-dashoffset:0;stroke-opacity:1;marker:none;enable-background:accumulate" />
        <path
           sodipodi:nodetypes="cc"
           inkscape:connector-curvature="0"
           id="path4098"
           d="m 810.93887,-28.476282 c 12.14533,3.85692 27.69389,3.17457 38.22147,1.7058"
           style="color:#000000;display:inline;overflow:visible;visibility:visible;fill:none;stroke:#cccccc;stroke-width:1;stroke-linecap:round;stroke-linejoin:round;stroke-miterlimit:4;stroke-dasharray:none;stroke-dashoffset:0;stroke-opacity:1;marker:none;enable-background:accumulate" />
        <path
           sodipodi:nodetypes="cc"
           inkscape:connector-curvature="0"
           id="path4100"
           d="m 855.37133,-14.066932 c -15.04137,9.0576897 -37.45888,8.3985997 -53.03895,2.62137"
           style="color:#000000;display:inline;overflow:visible;visibility:visible;fill:none;stroke:#cccccc;stroke-width:1;stroke-linecap:round;stroke-linejoin:round;stroke-miterlimit:4;stroke-dasharray:none;stroke-dashoffset:0;stroke-opacity:1;marker:none;enable-background:accumulate" />
        <path
           sodipodi:nodetypes="cc"
           inkscape:connector-curvature="0"
           id="path4102"
           d="m 813.05643,9.6125777 c 11.41907,1.8481703 31.19511,3.2970903 42.99309,-3.37345"
           style="color:#000000;display:inline;overflow:visible;visibility:visible;fill:none;stroke:#cccccc;stroke-width:1;stroke-linecap:round;stroke-linejoin:round;stroke-miterlimit:4;stroke-dasharray:none;stroke-dashoffset:0;stroke-opacity:1;marker:none;enable-background:accumulate" />
        <path
           style="color:#000000;display:inline;overflow:visible;visibility:visible;fill:none;stroke:#96001e;stroke-width:1;stroke-linecap:round;stroke-linejoin:round;stroke-miterlimit:4;stroke-dasharray:none;stroke-dashoffset:0;stroke-opacity:1;marker:none;enable-background:accumulate"
           d="m 835.43542,-60.04559 c -9.00069,7.689559 -11.00304,21.856299 -13.92873,21.875568 -5.88001,0.03873 -5.81333,-9.468377 -4.69931,-15.922727"
           id="path4104"
           inkscape:connector-curvature="0"
           sodipodi:nodetypes="csc" />
        <path
           sodipodi:nodetypes="cssc"
           inkscape:connector-curvature="0"
           id="path4106"
           d="m 812.49862,-58.195043 c -0.0966,1.278999 -0.046,2.559789 0.39684,3.097241 0.96147,1.166859 4.34761,1.18985 5.06705,0.66862 0.32469,-0.235237 0.63519,-1.301086 0.91599,-2.692112"
           style="color:#000000;display:inline;overflow:visible;visibility:visible;fill:none;stroke:#b3b3b3;stroke-width:0.99999994;stroke-linecap:round;stroke-linejoin:round;stroke-miterlimit:4;stroke-dasharray:none;stroke-dashoffset:0;stroke-opacity:1;marker:none;enable-background:accumulate" />
        <path
           style="color:#000000;display:inline;overflow:visible;visibility:visible;fill:none;stroke:#0f5827;stroke-width:1;stroke-linecap:round;stroke-linejoin:round;stroke-miterlimit:4;stroke-dasharray:none;stroke-dashoffset:0;stroke-opacity:1;marker:none;enable-background:accumulate"
           d="m 813.33754,-89.96987 c 0.01,-0.162565 0.0179,-0.325067 0.0247,-0.487322 0.37716,-8.94379 7.28536,-10.112138 14.13905,-2.92882 1.8762,-2.01315 8.50383,-3.77917 11.34192,-0.12308 6.56182,-6.907358 13.46457,-6.680838 16.0222,3.58453 7.53455,0.76716 11.36815,7.33625 8.43482,20.33446 9.53091,3.04942 8.43556,13.56746 -0.63067,17.78613 -1.46909,0.68359 -3.45155,2.73581 -3.74221,3.68408 0.64031,0.92817 0.9633,2.040317 2.84602,2.33253 3.11282,0.483134 7.24433,-2.07734 15.19899,-0.683925 m -9.84118,66.291439 c -1.24266,0.500868 -2.26644,0.841678 -2.91053,0.929446 -1.52831,0.208257 -4.03222,0.371323 -6.47791,0.381137 m -7.85635,-3.022153 c -0.36817,-2.167704 0.12394,-5.267347 1.84809,-6.841684 2.49481,-2.2780301 7.58132,-6.4308003 6.0917,-16.4802803 -1.48962,-10.0494897 -8.08936,-17.1085297 -8.75545,-22.2858697 -0.66609,-5.17734 3.0519,-8.92682 3.00346,-12.709 -0.0484,-3.78218 -1.6955,-4.05467 -2.21627,-5.52613 -0.52076,-1.47145 -0.94463,-5.14464 -0.94463,-5.14464 -10.34561,0.371 -18.91861,6.596095 -24.7683,9.618657 m 13.57474,-18.487991 c -3.02054,0.0822 -4.66004,-2.150686 -6.68254,-2.030786 -2.02249,0.11989 -6.16557,3.00058 -8.74573,3.81036 -3.45521,1.08442 -8.27062,0.76733 -9.7209,-0.25572 -3.87274,-2.73189 -7.05346,-3.22334 -9.07225,-3.04988 -5.44496,0.46786 -13.07318,0.48639 -13.74007,-5.77134 -0.77673,-7.28835 7.12581,-10.22729 14.91455,-7.84343 1.15174,-1.62189 3.04418,-4.129861 6.71853,-5.120587"
           id="path4108"
           inkscape:connector-curvature="0"
           sodipodi:nodetypes="csccccscsccsccssscscccssssscc" />
        <path
           sodipodi:nodetypes="ccc"
           inkscape:connector-curvature="0"
           id="path4110"
           d="m 943.67396,-93.770703 c -10.53778,-8.072917 -18.16589,-17.409877 -25.26409,-26.977047 -6.35605,8.96841 -6.80821,20.72443 -4.91114,31.554557"
           style="color:#000000;display:inline;overflow:visible;visibility:visible;fill:none;stroke:#5e6e86;stroke-width:1;stroke-linecap:round;stroke-linejoin:round;stroke-miterlimit:4;stroke-dasharray:none;stroke-dashoffset:0;stroke-opacity:1;marker:none;enable-background:accumulate" />
        <path
           sodipodi:nodetypes="ccsssc"
           inkscape:connector-curvature="0"
           id="path4112"
           d="m 984.9199,-53.840331 c 5.16616,2.217008 7.2555,5.004684 10.11905,8.293359 2.58344,-2.85807 5.23415,-4.91432 11.65055,-6.39809 2.7304,-0.63141 5.0916,0.56863 3.4636,5.02473 -2.7652,7.56911 -9.938,11.926303 -16.67644,12.16403 -4.54853,0.160469 -8.20985,-1.400276 -11.3524,-3.286588"
           style="color:#000000;display:inline;overflow:visible;visibility:visible;fill:none;stroke:#5e6e86;stroke-width:1;stroke-linecap:round;stroke-linejoin:round;stroke-miterlimit:4;stroke-dasharray:none;stroke-dashoffset:0;stroke-opacity:1;marker:none;enable-background:accumulate" />
        <path
           style="color:#000000;display:inline;overflow:visible;visibility:visible;fill:none;stroke:#96001e;stroke-width:1;stroke-linecap:round;stroke-linejoin:round;stroke-miterlimit:4;stroke-dasharray:none;stroke-dashoffset:0;stroke-opacity:1;marker:none;enable-background:accumulate"
           d="m 982.59339,-48.459702 c 1.35439,-3.447791 2.64406,-6.618333 4.59953,-10.465975"
           id="path4114"
           inkscape:connector-curvature="0"
           sodipodi:nodetypes="cc" />
        <path
           sodipodi:nodetypes="cccc"
           inkscape:connector-curvature="0"
           id="path4116"
           d="m 959.28102,-63.843196 c 2.48151,1.23053 5.75424,1.612678 9.65235,-1.819226 0.5489,3.56837 3.36497,8.03012 11.02959,4.50445 4.19071,5.727405 10.2002,0.970854 13.82836,-3.36461"
           style="color:#000000;display:inline;overflow:visible;visibility:visible;fill:none;stroke:#b3b3b3;stroke-width:1;stroke-linecap:round;stroke-linejoin:round;stroke-miterlimit:4;stroke-dasharray:none;stroke-dashoffset:0;stroke-opacity:1;marker:none;enable-background:accumulate" />
        <path
           style="color:#000000;display:inline;overflow:visible;visibility:visible;fill:none;stroke:#cc811b;stroke-width:1;stroke-linecap:round;stroke-linejoin:round;stroke-miterlimit:4;stroke-dasharray:none;stroke-dashoffset:0;stroke-opacity:1;marker:none;enable-background:accumulate"
           d="m 879.09214,10.275856 c -4.01909,3.476162 -7.71003,5.224393 -13.56346,8.045292 -1.31835,0.635344 -1.4081,1.72845 1.87543,1.40272 2.32387,-0.23053 3.48567,-0.34831 4.6329,0.21581 1.52025,0.74755 -0.24695,2.77624 1.60139,3.32952 2.77015,0.8292 4.95154,-2.17422 7.50169,-1.88057 3.02122,0.3479 2.18372,3.8382 4.23041,4.07712 2.0467,0.23892 4.1368,-3.283157 4.88124,-4.50102 0.89277,-1.460519 1.81584,-3.923122 2.49092,-6.313158"
           id="path4118"
           inkscape:connector-curvature="0"
           sodipodi:nodetypes="csssssssc" />
        <path
           sodipodi:nodetypes="ccccccsscsscccc"
           inkscape:connector-curvature="0"
           id="path4120"
           d="m 922.63424,-72.945152 c 8.53983,-28.762598 50.99506,-21.238014 71.05207,-46.414448 21.03009,12.43999 14.15939,47.080068 6.61539,54.541878 -19.21423,1.80129 -31.24661,-2.99517 -39.47813,-11.28338 -7.68048,26.38153 12.89473,31.97421 24.32785,26.68112 -3.74265,13.53205 -6.55299,24.77936 -7.54195,35.18304 4.68361,3.3163 19.02168,7.6803397 30.72613,10.0168197 8.2643,1.64975 4.539,7.07595 0.137,8.75541 -6.92,2.64012 -22.36714,2.77453 -34.97365,2.57422 -3.46261,4.4975003 -11.08161,12.8616203 -16.93876,15.6919003 -6.07253,2.93435 -7.44329,-0.69617 -7.26192,-3.02123 1.6444,-21.0799303 7.26339,-22.9952003 7.04441,-33.32432 0,0 -8.12747,-5.227388 -16.55638,-13.728183 m -12.77977,-16.493607 c -2.96875,-5.300382 -5.09394,-11.070991 -5.60686,-17.119897"
           style="color:#000000;display:inline;overflow:visible;visibility:visible;fill:none;stroke:#5e6e86;stroke-width:1;stroke-linecap:round;stroke-linejoin:round;stroke-miterlimit:4;stroke-dasharray:none;stroke-dashoffset:0;stroke-opacity:1;marker:none;enable-background:accumulate" />
        <path
           sodipodi:nodetypes="csssssssc"
           inkscape:connector-curvature="0"
           id="path4122"
           d="m 923.39278,12.902806 c 3.92726,1.807499 8.55131,3.448246 12.81361,5.279632 1.3446,0.577734 1.48153,1.66594 -1.81302,1.48252 -2.33166,-0.12982 -4.01128,-0.34368 -5.13304,0.26952 -1.4865,0.8126 0.12699,3.04813 -1.15618,3.70395 -2.57479,1.31596 -4.82685,-2.1199 -7.36191,-1.71624 -3.00335,0.47823 -2.01569,3.92905 -4.05013,4.25626 -2.03446,0.3272 -4.27491,-3.101187 -5.07133,-4.28572 -1.06919,-1.590236 -2.43311,-3.94935 -3.52883,-6.443095"
           style="color:#000000;display:inline;overflow:visible;visibility:visible;fill:none;stroke:#cc811b;stroke-width:1;stroke-linecap:round;stroke-linejoin:round;stroke-miterlimit:4;stroke-dasharray:none;stroke-dashoffset:0;stroke-opacity:1;marker:none;enable-background:accumulate" />
        <path
           inkscape:connector-curvature="0"
           id="path4124"
           d="m 883.61913,-45.231994 c -10.24953,4.222247 -18.43016,14.118816 -17.87713,30.742682 0.51254,15.40682937 10.65299,23.3568997 20.0625,27.40625 8.09117,2.50773 17.22512,3.01473 26,2.09375 5.84092,-1.97289 12.38666,-5.3523403 14.125,-10.2812503 2.73703,-7.76056 -5.37813,-16.9377397 -8.1875,-20.2812497 -1.84081,-2.19083 -1.99319,-6.62773 -0.0312,-10.5625 2.9027,-5.82154 -0.41662,-17.114094 -13.5625,-20.53125 -1.52707,-0.396949 -3.0968,-0.671984 -4.69495,-0.831727"
           style="color:#000000;display:inline;overflow:visible;visibility:visible;fill:none;stroke:#4d4d4d;stroke-width:1;marker:none;enable-background:accumulate"
           sodipodi:nodetypes="csccsscsc" />
        <path
           id="path4126"
           d="m 869.04989,-57.622422 c 1.86311,4.90667 4.94803,9.120598 8.76261,11.684922 -21.17058,11.880504 -20.59352,39.7466578 -5.0625,52.15625 14.25141,11.38715 38.11439,11.12296 55.40625,5.3125 11.55267,-3.8819603 20.5625,-13.40625 20.5625,-13.40625 -7.27243,-3.75992 -14.5114,-12.73048 -16.5625,-17.78125 6.36037,-5.86387 14.22224,-13.59778 16.34375,-22.03125 3.81136,-15.15095 -0.11927,-16.00201 -5.375,-9.0625 -4.42271,5.83959 -13.85721,10.869887 -29.25,3.25 12.86595,-13.613323 14.54177,-42.130267 -13.75,-47.0625 0.14851,-2.16032 0.98361,-4.30434 2.75,-5.3125 -3.39396,-0.72802 -7.36931,0.28793 -8.96875,1.46875 -1.47889,-2.47015 -5.36387,-4.1418 -8.6875,-4.125 1.14331,1.82968 1.78326,3.76532 1.9375,5.90625 -2.63933,-0.78615 -7.39286,-0.92554 -10.0625,1.34375 2.39874,0.22824 5.15422,2.07173 5.46875,4 -11.32702,4.933638 -15.651,14.450234 -15.45786,23.716564"
           style="color:#000000;display:inline;overflow:visible;visibility:visible;fill:none;stroke:#000000;stroke-width:1;stroke-linecap:round;stroke-linejoin:round;marker:none;enable-background:accumulate"
           inkscape:connector-curvature="0"
           sodipodi:nodetypes="ccssccssccccccccc" />
        <path
           style="color:#000000;display:inline;overflow:visible;visibility:visible;fill:none;stroke:#cccccc;stroke-width:1;stroke-linecap:round;stroke-linejoin:round;stroke-miterlimit:4;stroke-dasharray:none;stroke-dashoffset:0;stroke-opacity:1;marker:none;enable-background:accumulate"
           d="m 825.57509,-82.100532 c 0.51565,2.55393 -0.67829,3.9124 -3.1514,4.73223 -2.52869,0.83825 -11.07959,-0.62008 -12.46857,-4.78618 -1.16849,-3.50477 1.22633,-7.56342 4.85555,-8.25443 4.61198,-0.87813 9.9031,4.0424 10.76442,8.30838 z"
           id="path4128"
           inkscape:connector-curvature="0"
           sodipodi:nodetypes="sssss" />
        <path
           sodipodi:nodetypes="sssss"
           inkscape:connector-curvature="0"
           id="path4130"
           d="m 833.64721,-79.397692 c -1.14583,2.75923 -0.11525,5.15449 2.7794,5.97944 2.93379,0.83611 12.75809,2.174 15.24235,-2.20519 2.08992,-3.68404 0.79843,-8.28258 -3.03762,-9.47396 -5.13315,-1.59422 -13.07015,1.09082 -14.98413,5.69971 z"
           style="color:#000000;display:inline;overflow:visible;visibility:visible;fill:none;stroke:#cccccc;stroke-width:0.99999994;stroke-linecap:round;stroke-linejoin:round;stroke-miterlimit:4;stroke-dasharray:none;stroke-dashoffset:0;stroke-opacity:1;marker:none;enable-background:accumulate" />
        <path
           style="color:#000000;font-style:normal;font-variant:normal;font-weight:normal;font-stretch:normal;font-size:medium;line-height:normal;font-family:Sans;-inkscape-font-specification:Sans;text-indent:0;text-align:start;text-decoration:none;text-decoration-line:none;letter-spacing:normal;word-spacing:normal;text-transform:none;writing-mode:lr-tb;direction:ltr;baseline-shift:baseline;text-anchor:start;display:inline;overflow:visible;visibility:visible;fill:#403d2e;fill-opacity:1;stroke:none;stroke-width:1;marker:none;enable-background:accumulate"
           d="m 816.03649,-82.479582 c 2.27218,-0.17036 3.976,-0.35639 5.82213,2.18044 0.55867,0.7677 0.95726,0.17636 0.81077,-0.37626 -1.0058,-3.79424 -4.51481,-4.62935 -6.26151,-4.48495 -2.34806,0.19412 -2.1373,2.81318 -0.37139,2.68077 z"
           id="path4132"
           inkscape:connector-curvature="0"
           sodipodi:nodetypes="sssss" />
        <path
           sodipodi:nodetypes="sssss"
           inkscape:connector-curvature="0"
           id="path4134"
           d="m 843.84581,-77.599792 c -2.30395,-0.63788 -4.01973,-1.17625 -6.43595,1.06107 -0.7312,0.67705 -1.02114,-0.0131 -0.75794,-0.55256 1.80714,-3.70348 5.58865,-3.84955 7.35704,-3.34534 2.37722,0.67778 1.62747,3.33258 -0.16377,2.83679 z"
           style="color:#000000;font-style:normal;font-variant:normal;font-weight:normal;font-stretch:normal;font-size:medium;line-height:normal;font-family:Sans;-inkscape-font-specification:Sans;text-indent:0;text-align:start;text-decoration:none;text-decoration-line:none;letter-spacing:normal;word-spacing:normal;text-transform:none;writing-mode:lr-tb;direction:ltr;baseline-shift:baseline;text-anchor:start;display:inline;overflow:visible;visibility:visible;fill:#403d2e;fill-opacity:1;stroke:none;stroke-width:1;marker:none;enable-background:accumulate" />
        <path
           style="color:#000000;display:inline;overflow:visible;visibility:visible;fill:none;stroke:#0f5827;stroke-width:1;stroke-linecap:round;stroke-linejoin:round;stroke-miterlimit:4;stroke-dasharray:none;stroke-dashoffset:0;stroke-opacity:1;marker:none;enable-background:accumulate"
           d="m 827.47149,-93.540402 1.11327,1.69559"
           id="path4136"
           inkscape:connector-curvature="0" />
        <path
           sodipodi:nodetypes="cc"
           inkscape:connector-curvature="0"
           id="path4138"
           d="m 835.00114,-60.274779 c 3.30844,1.013773 6.49774,0.674457 8.6384,-1.874103"
           style="color:#000000;display:inline;overflow:visible;visibility:visible;fill:none;stroke:#0f5827;stroke-width:1;stroke-linecap:round;stroke-linejoin:round;stroke-miterlimit:4;stroke-dasharray:none;stroke-dashoffset:0;stroke-opacity:1;marker:none;enable-background:accumulate" />
        <path
           inkscape:connector-curvature="0"
           id="path4140"
           d="m 839.03233,-93.594352 -1.33592,1.48749"
           style="color:#000000;display:inline;overflow:visible;visibility:visible;fill:none;stroke:#0f5827;stroke-width:1;stroke-linecap:round;stroke-linejoin:round;stroke-miterlimit:4;stroke-dasharray:none;stroke-dashoffset:0;stroke-opacity:1;marker:none;enable-background:accumulate" />
        <path
           sodipodi:nodetypes="cssc"
           inkscape:connector-curvature="0"
           id="path4142"
           d="m 803.94541,-75.078822 c 2.84311,0.94028 4.35755,3.87922 5.98594,3.98463 3.69091,0.23893 4.91666,-2.31397 8.85475,-3.19079 3.8757,-0.86292 7.44174,0.35453 9.47988,3.46055"
           style="color:#000000;display:inline;overflow:visible;visibility:visible;fill:none;stroke:#0f5827;stroke-width:1;stroke-linecap:round;stroke-linejoin:round;stroke-miterlimit:4;stroke-dasharray:none;stroke-dashoffset:0;stroke-opacity:1;marker:none;enable-background:accumulate" />
        <path
           style="color:#000000;display:inline;overflow:visible;visibility:visible;fill:none;stroke:none;stroke-width:1;marker:none;enable-background:accumulate"
           d="m 802.21792,-67.804702 c -0.80657,-0.92453 -3.3333,-3.47608 -5.39933,-2.4008 -1.94653,1.01308 -0.92769,3.00193 -0.0471,3.42201 2.2543,1.07541 4.33317,0.59347 4.92405,0.5395 0.59089,-0.054 1.25874,-0.71666 0.52238,-1.56071 z"
           id="path4144"
           inkscape:connector-curvature="0"
           sodipodi:nodetypes="sssss" />
        <path
           sodipodi:nodetypes="sssss"
           inkscape:connector-curvature="0"
           id="path4146"
           d="m 814.18141,-67.492972 c 1.08834,-0.72195 4.39982,-2.62884 6.2091,-0.934 1.70462,1.59681 0.0958,3.34983 -0.92421,3.53548 -2.04482,0.37216 -4.57037,-0.42887 -5.3197,-0.85324 -0.54898,-0.31084 -0.95878,-1.08913 0.0348,-1.74824 z"
           style="color:#000000;display:inline;overflow:visible;visibility:visible;fill:none;stroke:none;stroke-width:1;marker:none;enable-background:accumulate" />
        <path
           sodipodi:nodetypes="sssss"
           inkscape:connector-curvature="0"
           id="path4148"
           d="m 851.46955,15.055138 c 2.25629,-2.51287 10.39968,2.89521 7.90831,4.97024 -2.13344,1.77691 -6.00037,3.0008 -7.37544,3.1282 -2.69891,0.25006 -2.88819,-0.40328 -2.79758,-1.44965 0.16829,-1.94347 1.12321,-5.37748 2.26471,-6.64879 z"
           style="color:#000000;display:inline;overflow:visible;visibility:visible;fill:none;stroke:#b3b3b3;stroke-width:1;stroke-linecap:round;stroke-linejoin:round;stroke-miterlimit:4;stroke-dasharray:none;stroke-dashoffset:0;stroke-opacity:1;marker:none;enable-background:accumulate" />
        <path
           sodipodi:nodetypes="ssssss"
           inkscape:connector-curvature="0"
           id="path4150"
           d="m 779.49286,-54.712702 c -0.99457,1.7895 -1.8112,3.7881 -1.78979,4.67443 0.0113,0.46748 0.7969,1.12179 2.75206,1.30699 2.3598,0.22354 3.72311,-0.44995 3.74341,-0.82529 0.0601,-1.11096 -1.03648,-4.02616 -1.63136,-5.36422 -0.54202,-1.21917 -2.25311,-1.26949 -3.07432,0.20809 z"
           style="color:#000000;display:inline;overflow:visible;visibility:visible;fill:none;stroke:#b3b3b3;stroke-width:1;stroke-linecap:round;stroke-linejoin:round;stroke-miterlimit:4;stroke-dasharray:none;stroke-dashoffset:0;stroke-opacity:1;marker:none;enable-background:accumulate" />
        <path
           style="color:#000000;display:inline;overflow:visible;visibility:visible;fill:none;stroke:#b3b3b3;stroke-width:0.99999994;stroke-linecap:round;stroke-linejoin:round;stroke-miterlimit:4;stroke-dasharray:none;stroke-dashoffset:0;stroke-opacity:1;marker:none;enable-background:accumulate"
           d="m 765.74645,-36.234852 c 1.58167,0.6048 4.60953,1.22147 5.5145,1.04338 0.47731,-0.0939 1.0227,-0.87243 0.86837,-2.9106 -0.18627,-2.45998 -1.17247,-3.17717 -1.56088,-3.13188 -1.14963,0.13404 -4.33085,1.37157 -5.59801,2.21747 -1.15457,0.77073 -0.86664,2.1535 0.77602,2.78163 z"
           id="path4152"
           inkscape:connector-curvature="0"
           sodipodi:nodetypes="ssssss" />
        <path
           sodipodi:nodetypes="ssssss"
           inkscape:connector-curvature="0"
           id="path4154"
           d="m 769.06753,-49.437482 c 0.72149,1.91597 1.78611,3.82538 2.45253,4.41012 0.35149,0.30841 0.90685,0.39353 2.36769,-0.91908 1.76317,-1.58425 1.57914,-2.59626 1.31682,-2.86549 -0.77643,-0.79687 -3.15257,-1.93114 -4.54123,-2.39578 -1.57652,-0.52751 -2.0406,0.58905 -1.59581,1.77023 z"
           style="color:#000000;display:inline;overflow:visible;visibility:visible;fill:none;stroke:#b3b3b3;stroke-width:1;stroke-linecap:round;stroke-linejoin:round;stroke-miterlimit:4;stroke-dasharray:none;stroke-dashoffset:0;stroke-opacity:1;marker:none;enable-background:accumulate" />
        <path
           style="color:#000000;display:inline;overflow:visible;visibility:visible;fill:none;stroke:#b3b3b3;stroke-width:1;stroke-linecap:round;stroke-linejoin:round;stroke-miterlimit:4;stroke-dasharray:none;stroke-dashoffset:0;stroke-opacity:1;marker:none;enable-background:accumulate"
           d="m 782.5551,24.305918 c 1.96017,0.079 6.21803,0.30471 8.66523,-0.34334 1.81623,-0.48096 -1.11365,-4.89101 -3.30623,-4.79584 -1.83137,0.0795 -4.9291,1.64129 -6.33997,2.98649 -1.11742,1.06542 -1.1917,2.06513 0.98097,2.15269 z"
           id="path4156"
           inkscape:connector-curvature="0"
           sodipodi:nodetypes="sssss" />
        <path
           style="color:#000000;display:inline;overflow:visible;visibility:visible;fill:none;stroke:#b3b3b3;stroke-width:0.99999994;stroke-linecap:round;stroke-linejoin:round;stroke-miterlimit:4;stroke-dasharray:none;stroke-dashoffset:0;stroke-opacity:1;marker:none;enable-background:accumulate"
           d="m 805.1663,21.75095 c -0.80207,-1.512303 -2.35897,-3.076817 -3.67238,-3.014482 -1.98991,0.09444 -5.35583,1.95006 -6.88884,3.54831 -1.21416,1.26586 -1.29487,2.453591 1.06589,2.55767 1.86004,0.082 5.62418,0.296889 8.31914,-0.162815"
           id="path4158"
           inkscape:connector-curvature="0"
           sodipodi:nodetypes="csssc" />
        <path
           sodipodi:nodetypes="sssss"
           inkscape:connector-curvature="0"
           id="path4160"
           d="m 805.47797,24.934138 c 1.97746,0.0863 6.27289,0.33258 8.74168,-0.37474 1.83225,-0.52495 -1.12347,-5.33836 -3.3354,-5.23449 -1.84752,0.0867 -4.97259,1.79141 -6.39591,3.25964 -1.12727,1.16288 -1.20221,2.25402 0.98963,2.34959 z"
           style="color:#000000;display:inline;overflow:visible;visibility:visible;fill:none;stroke:#b3b3b3;stroke-width:0.99999994;stroke-linecap:round;stroke-linejoin:round;stroke-miterlimit:4;stroke-dasharray:none;stroke-dashoffset:0;stroke-opacity:1;marker:none;enable-background:accumulate" />
        <path
           style="color:#000000;display:inline;overflow:visible;visibility:visible;fill:none;stroke:#0f5827;stroke-width:1;stroke-linecap:round;stroke-linejoin:round;stroke-miterlimit:4;stroke-dasharray:none;stroke-dashoffset:0;stroke-opacity:1;marker:none;enable-background:accumulate"
           d="m 781.18522,-11.156272 c 2.67504,3.2498197 10.2242,3.7577297 10.87544,-4.05467"
           id="path4162"
           inkscape:connector-curvature="0"
           sodipodi:nodetypes="cc" />
        <path
           style="color:#000000;display:inline;overflow:visible;visibility:visible;fill:none;stroke:#0f5827;stroke-width:1;stroke-linecap:round;stroke-linejoin:round;stroke-miterlimit:4;stroke-dasharray:none;stroke-dashoffset:0;stroke-opacity:1;marker:none;enable-background:accumulate"
           d="m 776.2144,-1.3228323 c 1.88744,0.96705004 4.66302,0.54017004 5.18297,-0.43794 0.95704,-1.80034 -0.63982,-5.629 -2.91696,-6.10343"
           id="path4164"
           inkscape:connector-curvature="0"
           sodipodi:nodetypes="csc" />
        <path
           sodipodi:nodetypes="cc"
           inkscape:connector-curvature="0"
           id="path4166"
           d="m 776.76544,8.4160077 c 5.04286,-1.65383 2.24196,-6.24883 -0.55579,-6.85746"
           style="color:#000000;display:inline;overflow:visible;visibility:visible;fill:none;stroke:#0f5827;stroke-width:1;stroke-linecap:round;stroke-linejoin:round;stroke-miterlimit:4;stroke-dasharray:none;stroke-dashoffset:0;stroke-opacity:1;marker:none;enable-background:accumulate" />
        <path
           style="color:#000000;display:inline;overflow:visible;visibility:visible;fill:none;stroke:#0f5827;stroke-width:1;stroke-linecap:round;stroke-linejoin:round;stroke-miterlimit:4;stroke-dasharray:none;stroke-dashoffset:0;stroke-opacity:1;marker:none;enable-background:accumulate"
           d="m 793.7763,-7.2507123 c -1.39605,-0.62038 -7.47254,0.32964 -7.69032,2.24533 -0.25828,2.27204 4.01454,4.02390004 6.20675,3.37344 2.26255,-0.67133 3.07945,-4.90959 1.48357,-5.61877 z"
           id="path4168"
           inkscape:connector-curvature="0"
           sodipodi:nodetypes="ssss" />
        <path
           sodipodi:nodetypes="ssss"
           inkscape:connector-curvature="0"
           id="path4170"
           d="m 789.98564,1.3927177 c -2.39571,-1.08705996 -5.80732,0.99997 -6.02509,2.91566 -0.25829,2.27204 3.24551,4.16015 6.20675,3.37344 2.28092,-0.60597 2.6801,-4.99056 -0.18166,-6.2891 z"
           style="color:#000000;display:inline;overflow:visible;visibility:visible;fill:none;stroke:#0f5827;stroke-width:1;stroke-linecap:round;stroke-linejoin:round;stroke-miterlimit:4;stroke-dasharray:none;stroke-dashoffset:0;stroke-opacity:1;marker:none;enable-background:accumulate" />
        <path
           style="color:#000000;display:inline;overflow:visible;visibility:visible;fill:none;stroke:#cc811b;stroke-width:1;stroke-linecap:round;stroke-linejoin:round;stroke-miterlimit:4;stroke-dasharray:none;stroke-dashoffset:0;stroke-opacity:1;marker:none;enable-background:accumulate"
           d="m 904.42993,-50.996192 c -7.43659,4.83576 -10.66554,7.94988 -16.16782,13.64638 -1.39594,1.44521 -2.5305,0.928549 -3.15536,-1.0409 -1.42669,-4.496655 -1.89093,-9.383478 -1.9092,-13.702932"
           id="path4172"
           inkscape:connector-curvature="0"
           sodipodi:nodetypes="cssc" />
        <circle
           r="5.5915899"
           cy="109.25649"
           cx="167.50107"
           transform="matrix(0.79477754,0,0,0.87747913,750.10588,-162.57821)"
           id="path4174"
           style="color:#000000;display:inline;overflow:visible;visibility:visible;fill:none;stroke:#cccccc;stroke-width:1.19745398;stroke-opacity:1;marker:none;enable-background:accumulate" />
        <circle
           r="5.5915899"
           cy="109.25649"
           cx="167.50107"
           transform="matrix(0.83536258,0,0,0.9218602,763.70201,-165.94581)"
           id="path4176"
           style="color:#000000;display:inline;overflow:visible;visibility:visible;fill:none;stroke:#cccccc;stroke-width:1.13954103;stroke-opacity:1;marker:none;enable-background:accumulate" />
        <path
           sodipodi:nodetypes="cccc"
           inkscape:connector-curvature="0"
           id="path4178"
           d="m 897.68675,-50.095166 c -5.13152,3.719979 -7.49374,5.839675 -10.76284,9.922344 h -4e-5 c -0.5702,-3.397762 -0.70896,-8.010969 -0.3721,-11.053474"
           style="color:#000000;display:inline;overflow:visible;visibility:visible;fill:none;stroke:#96001e;stroke-width:1;stroke-linecap:round;stroke-linejoin:round;stroke-miterlimit:4;stroke-dasharray:none;stroke-dashoffset:0;stroke-opacity:1;marker:none;enable-background:accumulate" />
        <circle
           r="5.5915899"
           cy="109.25649"
           cx="167.50107"
           transform="matrix(0.30211168,0,0,0.33736148,832.39671,-104.38382)"
           id="path4180"
           style="color:#000000;display:inline;overflow:visible;visibility:visible;fill:#000000;stroke:none;stroke-width:2.61876178;marker:none;enable-background:accumulate" />
        <circle
           r="5.5915899"
           cy="109.25649"
           cx="167.50107"
           style="color:#000000;display:inline;overflow:visible;visibility:visible;fill:#000000;stroke:none;stroke-width:2.61876178;marker:none;enable-background:accumulate"
           id="path4182"
           transform="matrix(0.30567689,0,0,0.34134268,852.24937,-103.35441)" />
        <path
           style="color:#000000;display:inline;overflow:visible;visibility:visible;fill:none;stroke:#cc811b;stroke-width:1;stroke-linecap:round;stroke-linejoin:round;stroke-miterlimit:4;stroke-dasharray:none;stroke-dashoffset:0;stroke-opacity:1;marker:none;enable-background:accumulate"
           d="m 900.25146,-50.368471 c -9.28899,0.90863 -19.94048,-1.134918 -25.89247,-7.047611 -0.67714,-0.672665 -0.48725,-1.43549 0.56771,-1.20981 6.38593,1.36612 12.84192,0.63695 17.47728,-1.18812 2.88954,3.50067 8.1269,7.23955 12.02595,8.81782"
           id="path4184"
           inkscape:connector-curvature="0"
           sodipodi:nodetypes="csscc" />
        <path
           sodipodi:nodetypes="cc"
           inkscape:connector-curvature="0"
           id="path4186"
           d="m 825.02722,-43.538177 c -1.35451,3.148226 -2.36557,5.360548 -3.52053,5.368155"
           style="color:#000000;display:inline;overflow:visible;visibility:visible;fill:none;stroke:#96001e;stroke-width:1;stroke-linecap:round;stroke-linejoin:round;stroke-miterlimit:4;stroke-dasharray:none;stroke-dashoffset:0;stroke-opacity:1;marker:none;enable-background:accumulate" />
        <path
           sodipodi:nodetypes="cc"
           inkscape:connector-curvature="0"
           id="path4188"
           d="m 863.30023,-69.590102 c 9.53091,3.04942 8.43556,13.56746 -0.63067,17.78613"
           style="color:#000000;display:inline;overflow:visible;visibility:visible;fill:none;stroke:#0f5827;stroke-width:1;stroke-linecap:round;stroke-linejoin:round;stroke-miterlimit:4;stroke-dasharray:none;stroke-dashoffset:0;stroke-opacity:1;marker:none;enable-background:accumulate" />
      </g>
    </g>
  </g>
</svg>
