<?xml version="1.0" encoding="UTF-8" standalone="no"?>
<!-- Created with Inkscape (http://www.inkscape.org/) -->
<svg xmlns:dc="http://purl.org/dc/elements/1.1/" xmlns:cc="http://creativecommons.org/ns#" xmlns:rdf="http://www.w3.org/1999/02/22-rdf-syntax-ns#" xmlns:svg="http://www.w3.org/2000/svg" xmlns="http://www.w3.org/2000/svg" xmlns:sodipodi="http://sodipodi.sourceforge.net/DTD/sodipodi-0.dtd" xmlns:inkscape="http://www.inkscape.org/namespaces/inkscape" width="300" height="200" viewBox="0 0 79.374998 52.916668" version="1.1" id="svg8" inkscape:version="0.92.2 5c3e80d, 2017-08-06" sodipodi:docname="KOMINFO.svg">
  <defs id="defs2"/>
  <sodipodi:namedview id="base" pagecolor="#ffffff" bordercolor="#666666" borderopacity="1.0" inkscape:pageopacity="0.0" inkscape:pageshadow="2" inkscape:zoom="1.4" inkscape:cx="162.87748" inkscape:cy="109.76345" inkscape:document-units="px" inkscape:current-layer="layer1" showgrid="false" units="px" inkscape:window-width="1600" inkscape:window-height="832" inkscape:window-x="0" inkscape:window-y="32" inkscape:window-maximized="1"/>
  <metadata id="metadata5">
    <rdf:RDF>
      <cc:Work rdf:about="">
        <dc:format>image/svg+xml</dc:format>
        <dc:type rdf:resource="http://purl.org/dc/dcmitype/StillImage"/>
        <dc:title/>
      </cc:Work>
    </rdf:RDF>
  </metadata>
  <g inkscape:label="Layer 1" inkscape:groupmode="layer" id="layer1" transform="translate(0,-244.08332)">
    <rect style="fill:#ffffff;fill-opacity:0.99680511;stroke:none;stroke-width:0.07016739;stroke-linecap:butt;stroke-linejoin:round;stroke-miterlimit:4;stroke-dasharray:none;stroke-opacity:1" id="rect4504" width="79.375" height="52.916668" x="-2.8421709e-14" y="244.08331"/>
    <g id="g1229">
      <g transform="matrix(0.33894919,0,0,0.33894919,6.9807626,193.68624)" id="g1165">
        <path inkscape:connector-curvature="0" id="path18" d="m 2.0484395,285.03679 -1.0116256,1.33209 v 1.26471 H -4.55146e-8 v -6.20078 H 1.0368139 v 3.33552 l 2.478511,-3.33552 h 1.2518673 l -2.0358807,2.68641 2.1875752,3.51437 H 3.7302371 Z" style="fill:#0000ff;stroke:none;stroke-width:0.35277781"/>
        <path inkscape:connector-curvature="0" id="path20" d="m 6.0064301,281.43281 h 3.7302724 v 0.91793 H 7.0432793 v 1.64536 h 1.6817976 v 0.91757 H 7.0432793 v 1.80234 h 2.6934232 v 0.91758 H 6.0064301 Z" style="fill:#0000ff;stroke:none;stroke-width:0.35277781"/>
        <path inkscape:connector-curvature="0" id="path22" d="m 15.641956,283.11168 -1.808339,4.52191 -1.921934,-4.5332 v 4.5332 h -1.036955 v -6.20078 h 1.428997 l 1.529892,3.74968 1.504774,-3.74968 h 1.340379 v 6.20078 h -1.036814 z" style="fill:#0000ff;stroke:none;stroke-width:0.35277781"/>
        <path inkscape:connector-curvature="0" id="path24" d="m 17.880119,281.43281 h 3.730273 v 0.91793 h -2.693423 v 1.64536 h 1.681797 v 0.91757 h -1.681797 v 1.80234 h 2.693423 v 0.91758 h -3.730273 z" style="fill:#0000ff;stroke:none;stroke-width:0.35277781"/>
        <path inkscape:connector-curvature="0" id="path26" d="m 23.747414,283.02208 v 4.61151 h -1.036885 v -6.20078 h 1.289827 l 2.541764,4.42101 v -4.42101 h 1.036813 v 6.20078 h -1.188508 z" style="fill:#0000ff;stroke:none;stroke-width:0.35277781"/>
        <path inkscape:connector-curvature="0" id="path28" d="m 31.498999,287.63359 h -1.150761 v -5.28285 h -1.846086 v -0.91793 h 4.817534 v 0.91793 h -1.820687 z" style="fill:#0000ff;stroke:none;stroke-width:0.35277781"/>
        <path inkscape:connector-curvature="0" id="path30" d="m 34.268305,281.43281 h 3.730273 v 0.91793 h -2.693459 v 1.64536 h 1.681692 v 0.91757 h -1.681692 v 1.80234 h 2.693459 v 0.91758 h -3.730273 z" style="fill:#0000ff;stroke:none;stroke-width:0.35277781"/>
        <path inkscape:connector-curvature="0" id="path32" d="m 40.173453,282.35074 v 1.92511 h 1.504597 c 0.699911,0 1.057981,-0.30974 1.074914,-0.92922 -0.01693,-0.66393 -0.375003,-0.99589 -1.074914,-0.99589 z m 1.226608,2.84268 h -1.226608 v 2.44017 h -1.036814 v -6.20078 h 2.465564 c 0.657578,-0.0226 1.184275,0.13441 1.580797,0.4699 0.39617,0.33585 0.598664,0.8061 0.606778,1.41041 0,0.60466 -0.202142,1.07068 -0.606778,1.39912 -0.202494,0.16404 -0.442736,0.28716 -0.720725,0.36935 l 1.352903,2.552 h -1.113014 z" style="fill:#0000ff;stroke:none;stroke-width:0.35277781"/>
        <path inkscape:connector-curvature="0" id="path34" d="m 44.915492,281.43281 h 1.036814 v 6.20078 h -1.036814 z" style="fill:#0000ff;stroke:none;stroke-width:0.35277781"/>
        <path inkscape:connector-curvature="0" id="path36" d="m 48.45597,285.45095 h 1.947333 l -0.986366,-3.07798 z m 1.707092,-4.01814 2.06128,6.20078 h -1.113013 l -0.366537,-1.1303 h -2.617611 l -0.354189,1.1303 h -1.125008 l 2.060928,-6.20078 z" style="fill:#0000ff;stroke:none;stroke-width:0.35277781"/>
        <path inkscape:connector-curvature="0" id="path38" d="m 53.880634,283.02208 v 4.61151 H 52.84382 v -6.20078 h 1.289756 l 2.541764,4.42101 v -4.42101 h 1.036814 v 6.20078 h -1.188508 z" style="fill:#0000ff;stroke:none;stroke-width:0.35277781"/>
        <path inkscape:connector-curvature="0" id="path40" d="m 63.857543,285.03679 -1.011767,1.33209 v 1.26471 h -1.036813 v -6.20078 h 1.036813 v 3.33552 l 2.478617,-3.33552 h 1.252009 l -2.035881,2.68641 2.187575,3.51437 h -1.188861 z" style="fill:#0000ff;stroke:none;stroke-width:0.35277781"/>
        <path inkscape:connector-curvature="0" id="path42" d="m 69.826191,282.30594 c -0.522817,0 -0.950384,0.1845 -1.283406,0.55386 -0.333022,0.36936 -0.499533,0.9271 -0.499533,1.67322 0,0.75389 0.172508,1.31163 0.51823,1.67358 0.345723,0.36195 0.767292,0.54293 1.264709,0.54293 0.505883,0 0.929217,-0.18098 1.270705,-0.54293 0.341489,-0.36195 0.512234,-0.91969 0.512234,-1.67358 0,-0.74612 -0.158045,-1.30386 -0.474134,-1.67322 -0.316088,-0.36936 -0.752475,-0.55386 -1.308805,-0.55386 z m 0,5.37245 c -0.800806,0 -1.468967,-0.27587 -2.004484,-0.82832 -0.535164,-0.5521 -0.807155,-1.32433 -0.815269,-2.31705 0,-0.99236 0.265289,-1.76459 0.796572,-2.31669 0.530931,-0.55245 1.205442,-0.82479 2.023181,-0.81703 0.834672,0 1.510947,0.27587 2.02953,0.82832 0.518584,0.5521 0.777523,1.3208 0.777523,2.3054 0,0.99272 -0.258939,1.76672 -0.777523,2.32269 -0.518583,0.55598 -1.194858,0.83009 -2.02953,0.82268 z" style="fill:#0000ff;stroke:none;stroke-width:0.35277781"/>
        <path inkscape:connector-curvature="0" id="path44" d="m 78.475244,283.11168 -1.808339,4.52191 -1.921933,-4.5332 v 4.5332 h -1.036814 v -6.20078 h 1.42875 l 1.529997,3.74968 1.50495,-3.74968 h 1.340203 v 6.20078 h -1.036814 z" style="fill:#0000ff;stroke:none;stroke-width:0.35277781"/>
        <path inkscape:connector-curvature="0" id="path46" d="m 83.103336,287.65617 c -0.766939,0 -1.363486,-0.22014 -1.789289,-0.6604 -0.425803,-0.44027 -0.638528,-1.06716 -0.638528,-1.88066 v -3.6823 h 1.036814 v 3.90631 c 0,0.5073 0.124531,0.86748 0.373239,1.08021 0.248356,0.21272 0.587728,0.31891 1.017764,0.31891 0.413103,0 0.733425,-0.10619 0.960967,-0.31891 0.227541,-0.21273 0.341489,-0.57291 0.341489,-1.08021 v -3.90631 h 1.049514 v 3.67136 c 0,0.81315 -0.204611,1.4418 -0.613128,1.88595 -0.40887,0.4438 -0.988484,0.66605 -1.738842,0.66605 z" style="fill:#0000ff;stroke:none;stroke-width:0.35277781"/>
        <path inkscape:connector-curvature="0" id="path48" d="m 87.604781,283.02208 v 4.61151 h -1.036814 v -6.20078 h 1.290108 l 2.541412,4.42101 v -4.42101 h 1.037166 v 6.20078 h -1.188861 z" style="fill:#0000ff;stroke:none;stroke-width:0.35277781"/>
        <path inkscape:connector-curvature="0" id="path50" d="m 92.599762,281.43281 h 1.036814 v 6.20078 h -1.036814 z" style="fill:#0000ff;stroke:none;stroke-width:0.35277781"/>
        <path inkscape:connector-curvature="0" id="path52" d="m 96.911765,285.03679 -1.011767,1.33209 v 1.26471 h -1.036814 v -6.20078 h 1.036814 v 3.33552 l 2.478617,-3.33552 h 1.251655 l -2.035527,2.68641 2.187575,3.51437 h -1.188862 z" style="fill:#0000ff;stroke:none;stroke-width:0.35277781"/>
        <path inkscape:connector-curvature="0" id="path54" d="m 102.14699,285.45095 h 1.94733 l -0.98637,-3.07798 z m 1.70674,-4.01814 2.06128,6.20078 h -1.11266 l -0.36689,-1.1303 h -2.61726 l -0.35419,1.1303 h -1.12536 l 2.06093,-6.20078 z" style="fill:#0000ff;stroke:none;stroke-width:0.35277781"/>
        <path inkscape:connector-curvature="0" id="path56" d="m 108.53262,287.67839 c -0.37924,0 -0.73766,-0.037 -1.07492,-0.11183 -0.33725,-0.0748 -0.66604,-0.19791 -0.98636,-0.36936 l 0.35419,-0.92921 c 0.21907,0.14181 0.4699,0.25752 0.75247,0.34713 0.28222,0.0896 0.59196,0.13441 0.92922,0.13441 0.3877,0 0.68721,-0.073 0.89782,-0.21837 0.21096,-0.1457 0.31609,-0.37501 0.31609,-0.68827 0,-0.11219 -0.0293,-0.21273 -0.0885,-0.30233 -0.0589,-0.0896 -0.14323,-0.17357 -0.25294,-0.25189 -0.10936,-0.0783 -0.23601,-0.15487 -0.37924,-0.2293 -0.14323,-0.0748 -0.30339,-0.15699 -0.48048,-0.24624 -0.19403,-0.097 -0.41099,-0.19226 -0.65123,-0.2854 -0.24024,-0.0935 -0.46355,-0.20708 -0.67028,-0.34149 -0.20637,-0.1344 -0.37923,-0.29668 -0.51823,-0.48683 -0.13935,-0.1905 -0.20884,-0.4385 -0.20884,-0.74436 0,-0.47766 0.19826,-0.85831 0.59443,-1.14159 0.39617,-0.28363 0.91898,-0.42545 1.56774,-0.42545 0.35419,0 0.68933,0.0317 1.00542,0.0952 0.31609,0.0632 0.58808,0.17321 0.81562,0.3302 l -0.29069,0.94015 c -0.21096,-0.14181 -0.43215,-0.24624 -0.66393,-0.31362 -0.23177,-0.067 -0.52493,-0.10054 -0.87876,-0.10054 -0.29528,0 -0.55422,0.0409 -0.77753,0.12312 -0.22366,0.0822 -0.33514,0.23142 -0.33514,0.44768 0,0.1344 0.0504,0.25541 0.1517,0.36371 0.10089,0.1083 0.23601,0.21273 0.40463,0.31327 0.16828,0.10089 0.35807,0.19967 0.56868,0.29668 0.21096,0.097 0.42581,0.20179 0.64523,0.31362 0.42969,0.21626 0.78388,0.46426 1.06222,0.74436 0.27799,0.27976 0.41698,0.58385 0.41698,0.91193 0,0.32844 -0.0526,0.60819 -0.15804,0.83962 -0.10513,0.23142 -0.25506,0.4198 -0.44874,0.56515 -0.19403,0.14569 -0.42792,0.25188 -0.70167,0.31891 -0.27411,0.0674 -0.57962,0.10089 -0.91687,0.10089 z" style="fill:#0000ff;stroke:none;stroke-width:0.35277781"/>
        <path inkscape:connector-curvature="0" id="path58" d="m 111.83285,281.43281 h 1.03682 v 6.20078 h -1.03682 z" style="fill:#0000ff;stroke:none;stroke-width:0.35277781"/>
        <path inkscape:connector-curvature="0" id="path60" d="m 118.06679,282.35074 v 4.35398 h 0.69568 c 0.35419,0 0.67874,-0.0543 0.97367,-0.16227 0.29492,-0.10831 0.55209,-0.2593 0.77117,-0.45332 0.21943,-0.19403 0.39017,-0.42545 0.51223,-0.69392 0.12242,-0.26881 0.18345,-0.55986 0.18345,-0.87312 0,-0.32103 -0.061,-0.6156 -0.18345,-0.88442 -0.12206,-0.26846 -0.2928,-0.49812 -0.51223,-0.68827 -0.21908,-0.19014 -0.47625,-0.3376 -0.77117,-0.44203 -0.29493,-0.10442 -0.61948,-0.15663 -0.97367,-0.15663 z m -1.03681,5.28285 v -6.20078 h 1.96003 c 0.48048,0 0.9211,0.0766 1.32151,0.22931 0.4004,0.1531 0.74612,0.36759 1.03681,0.64382 0.29104,0.27587 0.51647,0.60043 0.67663,0.97366 0.16016,0.37324 0.24024,0.78352 0.24024,1.2312 0,0.48507 -0.0843,0.92145 -0.25294,1.30951 -0.16863,0.38806 -0.40252,0.71649 -0.70168,0.98496 -0.29951,0.26881 -0.65122,0.47413 -1.05586,0.61595 -0.40499,0.14146 -0.84737,0.21237 -1.32786,0.21237 z" style="fill:#0000ff;stroke:none;stroke-width:0.35277781"/>
        <path inkscape:connector-curvature="0" id="path62" d="m 123.99769,285.45095 h 1.94733 l -0.98636,-3.07798 z m 1.70709,-4.01814 2.06093,6.20078 h -1.11266 l -0.36689,-1.1303 h -2.61726 l -0.35419,1.1303 h -1.12536 l 2.06093,-6.20078 z" style="fill:#0000ff;stroke:none;stroke-width:0.35277781"/>
        <path inkscape:connector-curvature="0" id="path64" d="m 129.422,283.02208 v 4.61151 h -1.03681 v -6.20078 h 1.29011 l 2.54141,4.42101 v -4.42101 h 1.03717 v 6.20078 h -1.18887 z" style="fill:#0000ff;stroke:none;stroke-width:0.35277781"/>
        <path inkscape:connector-curvature="0" id="path66" d="m 137.35068,281.43281 h 1.03717 v 6.20078 h -1.03717 z" style="fill:#0000ff;stroke:none;stroke-width:0.35277781"/>
        <path inkscape:connector-curvature="0" id="path68" d="m 140.61317,283.02208 v 4.61151 h -1.03681 v -6.20078 h 1.28975 l 2.54177,4.42101 v -4.42101 h 1.03681 v 6.20078 h -1.18851 z" style="fill:#0000ff;stroke:none;stroke-width:0.35277781"/>
        <path inkscape:connector-curvature="0" id="path70" d="m 146.64497,283.9961 h 1.73249 v 0.91757 h -1.73249 v 2.71992 h -1.03682 v -6.20078 h 3.73028 v 0.91793 h -2.69346 z" style="fill:#0000ff;stroke:none;stroke-width:0.35277781"/>
        <path inkscape:connector-curvature="0" id="path72" d="m 152.8789,282.30594 c -0.52281,0 -0.95038,0.1845 -1.2834,0.55386 -0.33302,0.36936 -0.49953,0.9271 -0.49953,1.67322 0,0.75389 0.17286,1.31163 0.51823,1.67358 0.34572,0.36195 0.76729,0.54293 1.2647,0.54293 0.50589,0 0.92957,-0.18098 1.27106,-0.54293 0.34114,-0.36195 0.51188,-0.91969 0.51188,-1.67358 0,-0.74612 -0.15804,-1.30386 -0.47413,-1.67322 -0.31609,-0.36936 -0.75248,-0.55386 -1.30881,-0.55386 z m 0,5.37245 c -0.8008,0 -1.46896,-0.27587 -2.00413,-0.82832 -0.53516,-0.5521 -0.80715,-1.32433 -0.81562,-2.31705 0,-0.99236 0.26564,-1.76459 0.79657,-2.31669 0.53093,-0.55245 1.20545,-0.82479 2.02318,-0.81703 0.83468,0 1.51095,0.27587 2.02954,0.82832 0.51858,0.5521 0.77787,1.3208 0.77787,2.3054 0,0.99272 -0.25929,1.76672 -0.77787,2.32269 -0.51859,0.55598 -1.19486,0.83009 -2.02954,0.82268 z" style="fill:#0000ff;stroke:none;stroke-width:0.35277781"/>
        <path inkscape:connector-curvature="0" id="path74" d="m 157.79769,282.35074 v 1.92511 h 1.50495 c 0.69955,0 1.05798,-0.30974 1.07491,-0.92922 -0.0169,-0.66393 -0.37536,-0.99589 -1.07491,-0.99589 z m 1.2266,2.84268 h -1.2266 v 2.44017 h -1.03682 v -6.20078 h 2.46592 c 0.65722,-0.0226 1.18427,0.13441 1.58044,0.4699 0.39617,0.33585 0.59867,0.8061 0.60713,1.41041 0,0.60466 -0.20249,1.07068 -0.60713,1.39912 -0.20214,0.16404 -0.44238,0.28716 -0.72072,0.36935 l 1.3529,2.552 h -1.11266 z" style="fill:#0000ff;stroke:none;stroke-width:0.35277781"/>
        <path inkscape:connector-curvature="0" id="path76" d="m 167.30681,283.11168 -1.80799,4.52191 -1.92228,-4.5332 v 4.5332 h -1.03682 v -6.20078 h 1.42911 l 1.52999,3.74968 1.5046,-3.74968 h 1.3402 v 6.20078 h -1.03681 z" style="fill:#0000ff;stroke:none;stroke-width:0.35277781"/>
        <path inkscape:connector-curvature="0" id="path78" d="m 170.82224,285.45095 h 1.94734 l -0.98637,-3.07798 z m 1.70709,-4.01814 2.06128,6.20078 h -1.11266 l -0.36689,-1.1303 h -2.61761 l -0.35383,1.1303 h -1.12536 l 2.06092,-6.20078 z" style="fill:#0000ff;stroke:none;stroke-width:0.35277781"/>
        <path inkscape:connector-curvature="0" id="path80" d="m 176.90448,287.63359 h -1.15076 v -5.28285 h -1.84608 v -0.91793 h 4.81788 v 0.91793 h -1.82104 z" style="fill:#0000ff;stroke:none;stroke-width:0.35277781"/>
        <path inkscape:connector-curvature="0" id="path82" d="m 179.67379,281.43281 h 1.03681 v 6.20078 h -1.03681 z" style="fill:#0000ff;stroke:none;stroke-width:0.35277781"/>
        <path inkscape:connector-curvature="0" id="path84" d="m 183.98544,285.03679 -1.01141,1.33209 v 1.26471 h -1.03682 v -6.20078 h 1.03682 v 3.33552 l 2.47861,-3.33552 h 1.25166 l -2.03588,2.68641 2.18757,3.51437 h -1.18851 z" style="fill:#0000ff;stroke:none;stroke-width:0.35277781"/>
        <path inkscape:connector-curvature="0" id="path86" d="m 189.22066,285.45095 h 1.94734 l -0.98637,-3.07798 z m 1.70709,-4.01814 2.06128,6.20078 h -1.11301 l -0.36654,-1.1303 h -2.61761 l -0.35419,1.1303 h -1.125 l 2.06092,-6.20078 z" style="fill:#0000ff;stroke:none;stroke-width:0.35277781"/>
        <path inkscape:connector-curvature="0" id="path88" d="m 53.89157,291.67219 v 1.92511 h 1.487664 c 0.691798,0 1.045987,-0.30974 1.062567,-0.92922 -0.01658,-0.66393 -0.370769,-0.99589 -1.062567,-0.99589 z m 1.21285,2.84268 h -1.21285 v 2.44017 h -1.025172 v -6.20078 h 2.438047 c 0.649817,-0.0226 1.17087,0.13441 1.562453,0.4699 0.391936,0.33585 0.591961,0.8061 0.600075,1.41041 0,0.60466 -0.200025,1.07103 -0.600075,1.39911 -0.199672,0.16404 -0.437444,0.28716 -0.712258,0.36936 l 1.337381,2.552 h -1.099962 z" style="fill:#0a1b73;stroke:none;stroke-width:0.35277781"/>
        <path inkscape:connector-curvature="0" id="path90" d="m 58.579987,290.75426 h 3.687939 v 0.91793 h -2.663119 v 1.64535 h 1.662994 v 0.91758 h -1.662994 v 1.80234 h 2.663119 v 0.91758 h -3.687939 z" style="fill:#0a1b73;stroke:none;stroke-width:0.35277781"/>
        <path inkscape:connector-curvature="0" id="path92" d="m 64.418107,291.67219 v 1.92511 h 1.487664 c 0.700264,0 1.054453,-0.30974 1.062567,-0.92922 -0.0081,-0.66393 -0.362303,-0.99589 -1.062567,-0.99589 z m 0,2.84268 v 2.44017 h -1.025172 v -6.20078 h 2.438047 c 0.641703,-0.0226 1.160286,0.13617 1.556456,0.47555 0.395817,0.33972 0.597958,0.80786 0.606072,1.40476 0,0.5969 -0.200025,1.05974 -0.600075,1.38782 -0.399697,0.32844 -0.92075,0.49248 -1.562453,0.49248 z" style="fill:#0a1b73;stroke:none;stroke-width:0.35277781"/>
        <path inkscape:connector-curvature="0" id="path94" d="m 71.206258,296.97761 c -0.75812,0 -1.347964,-0.22013 -1.768828,-0.6604 -0.420864,-0.44026 -0.631473,-1.06715 -0.631473,-1.88065 v -3.6823 h 1.025173 v 3.90631 c 0,0.50729 0.123119,0.86748 0.369005,1.0802 0.245886,0.21273 0.581378,0.31892 1.006123,0.31892 0.408516,0 0.725311,-0.10619 0.950383,-0.31892 0.225072,-0.21272 0.337608,-0.57291 0.337608,-1.0802 v -3.90631 h 1.03752 v 3.67136 c 0,0.81315 -0.202142,1.4418 -0.606425,1.88595 -0.403931,0.44379 -0.977195,0.66604 -1.719086,0.66604 z" style="fill:#0a1b73;stroke:none;stroke-width:0.35277781"/>
        <path inkscape:connector-curvature="0" id="path96" d="m 75.694649,296.03746 h 1.43757 c 0.275167,0 0.502003,-0.0822 0.681567,-0.24624 0.179211,-0.16439 0.268464,-0.38805 0.268464,-0.67169 0,-0.28363 -0.08714,-0.502 -0.262467,-0.65475 -0.174978,-0.15311 -0.395817,-0.22966 -0.662517,-0.22966 h -0.02505 -1.43757 z m 1.225198,-2.71992 c 0.208139,0 0.389466,-0.084 0.54363,-0.25188 0.154164,-0.16792 0.231423,-0.36371 0.231423,-0.58773 0,-0.23142 -0.07514,-0.42333 -0.225073,-0.57644 -0.14993,-0.1531 -0.333375,-0.2293 -0.54998,-0.2293 h -1.225198 v 1.64535 z m -0.02505,-2.56328 c 0.249766,0 0.483305,0.0353 0.699911,0.10619 0.216958,0.0709 0.408516,0.17744 0.57538,0.31891 0.166511,0.14181 0.297745,0.31538 0.3937,0.5207 0.0956,0.20531 0.143581,0.44203 0.143581,0.71085 0,0.26846 -0.05609,0.49988 -0.168628,0.69391 -0.112536,0.19403 -0.264583,0.35807 -0.456494,0.49248 0.141816,0.0222 0.281516,0.0709 0.4191,0.14534 0.13723,0.0748 0.258233,0.17357 0.362302,0.29669 0.104423,0.12312 0.189795,0.27058 0.25647,0.44203 0.06668,0.1718 0.09984,0.36936 0.09984,0.59337 0,0.58208 -0.197908,1.04105 -0.593725,1.37689 -0.395817,0.33549 -0.960614,0.50342 -1.694039,0.50342 h -2.262717 v -6.20078 z" style="fill:#0a1b73;stroke:none;stroke-width:0.35277781"/>
        <path inkscape:connector-curvature="0" id="path98" d="m 80.257478,290.75426 h 1.025172 v 5.2832 h 2.888192 v 0.91758 h -3.913364 z" style="fill:#0a1b73;stroke:none;stroke-width:0.35277781"/>
        <path inkscape:connector-curvature="0" id="path100" d="m 84.983289,290.75426 h 1.025172 v 6.20078 h -1.025172 z" style="fill:#0a1b73;stroke:none;stroke-width:0.35277781"/>
        <path inkscape:connector-curvature="0" id="path102" d="m 89.246256,294.35824 -1.000125,1.33209 v 1.26471 h -1.025172 v -6.20078 h 1.025172 v 3.33551 l 2.450394,-3.33551 h 1.237545 l -2.012597,2.6864 2.162528,3.51438 h -1.175103 z" style="fill:#0a1b73;stroke:none;stroke-width:0.35277781"/>
        <path inkscape:connector-curvature="0" id="path104" d="m 96.059454,290.75426 h 1.025172 v 6.20078 h -1.025172 z" style="fill:#0a1b73;stroke:none;stroke-width:0.35277781"/>
        <path inkscape:connector-curvature="0" id="path106" d="m 99.284901,292.34352 v 4.61152 h -1.025172 v -6.20078 h 1.275291 l 2.51284,4.42101 v -4.42101 h 1.02517 v 6.20078 h -1.1751 z" style="fill:#0a1b73;stroke:none;stroke-width:0.35277781"/>
        <path inkscape:connector-curvature="0" id="path108" d="m 105.24826,291.67219 v 4.35398 h 0.68756 c 0.34996,0 0.67098,-0.054 0.96273,-0.16228 0.2914,-0.1083 0.54575,-0.25929 0.76235,-0.45332 0.21696,-0.19402 0.38559,-0.42545 0.50659,-0.69391 0.12065,-0.26882 0.18098,-0.55986 0.18098,-0.87312 0,-0.32103 -0.0603,-0.6156 -0.18098,-0.88442 -0.121,-0.26846 -0.28963,-0.49777 -0.50659,-0.68827 -0.2166,-0.19014 -0.47095,-0.33761 -0.76235,-0.44203 -0.29175,-0.10442 -0.61277,-0.15663 -0.96273,-0.15663 z m -1.02518,5.28285 v -6.20078 h 1.93781 c 0.47519,0 0.91052,0.0765 1.30634,0.22931 0.39582,0.1531 0.73766,0.36759 1.02517,0.64382 0.28752,0.27587 0.51047,0.60042 0.66887,0.97366 0.1584,0.37324 0.23742,0.78352 0.23742,1.2312 0,0.48507 -0.0833,0.92145 -0.25012,1.30951 -0.16651,0.38805 -0.39794,0.71649 -0.69356,0.98495 -0.29598,0.26882 -0.64382,0.47414 -1.04387,0.61595 -0.40005,0.14147 -0.83785,0.21238 -1.31269,0.21238 z" style="fill:#0a1b73;stroke:none;stroke-width:0.35277781"/>
        <path inkscape:connector-curvature="0" id="path110" d="m 113.11167,291.62739 c -0.51682,0 -0.93944,0.1845 -1.26894,0.55386 -0.32914,0.36936 -0.49389,0.9271 -0.49389,1.67357 0,0.75354 0.1711,1.31128 0.51259,1.67323 0.34184,0.36195 0.75847,0.54292 1.25024,0.54292 0.50024,0 0.91899,-0.18097 1.2566,-0.54292 0.33725,-0.36195 0.50623,-0.91969 0.50623,-1.67323 0,-0.74647 -0.15628,-1.30421 -0.46884,-1.67357 -0.31256,-0.36936 -0.74401,-0.55386 -1.29399,-0.55386 z m 0,5.37245 c -0.79163,0 -1.45238,-0.27587 -1.98155,-0.82832 -0.52917,-0.5521 -0.79798,-1.32433 -0.8061,-2.3167 0,-0.99271 0.26247,-1.76494 0.7874,-2.31704 0.52529,-0.55245 1.19204,-0.82479 2.00025,-0.81703 0.82515,0 1.49402,0.27587 2.0066,0.82832 0.51259,0.5521 0.76871,1.3208 0.76871,2.30575 0,0.99237 -0.25612,1.76636 -0.76871,2.32234 -0.51258,0.55598 -1.18145,0.83009 -2.0066,0.82268 z" style="fill:#0a1b73;stroke:none;stroke-width:0.35277781"/>
        <path inkscape:connector-curvature="0" id="path112" d="m 117.93732,292.34352 v 4.61152 h -1.02517 v -6.20078 h 1.27529 l 2.51284,4.42101 v -4.42101 h 1.02517 v 6.20078 h -1.17546 z" style="fill:#0a1b73;stroke:none;stroke-width:0.35277781"/>
        <path inkscape:connector-curvature="0" id="path114" d="m 122.87551,290.75426 h 3.68793 v 0.91793 h -2.66276 v 1.64535 h 1.66264 v 0.91758 h -1.66264 v 1.80234 h 2.66276 v 0.91758 h -3.68793 z" style="fill:#0a1b73;stroke:none;stroke-width:0.35277781"/>
        <path inkscape:connector-curvature="0" id="path116" d="m 129.62626,296.99984 c -0.37465,0 -0.72919,-0.037 -1.06257,-0.11183 -0.33337,-0.0748 -0.65828,-0.19791 -0.97507,-0.36936 l 0.34995,-0.92922 c 0.21661,0.14182 0.46461,0.25753 0.74401,0.34714 0.27905,0.0896 0.58561,0.1344 0.91899,0.1344 0.38311,0 0.67909,-0.0727 0.88759,-0.21836 0.20813,-0.1457 0.31256,-0.37501 0.31256,-0.68827 0,-0.11219 -0.0293,-0.21273 -0.0878,-0.30233 -0.0582,-0.0896 -0.14147,-0.17357 -0.24977,-0.25189 -0.10866,-0.0783 -0.23354,-0.15487 -0.375,-0.2293 -0.14182,-0.0748 -0.30022,-0.15699 -0.4752,-0.24624 -0.19191,-0.097 -0.4064,-0.19227 -0.64382,-0.2854 -0.23741,-0.0935 -0.45825,-0.20708 -0.66251,-0.34149 -0.20426,-0.13441 -0.37536,-0.29668 -0.51259,-0.48683 -0.13758,-0.1905 -0.20637,-0.4385 -0.20637,-0.74436 0,-0.47766 0.19579,-0.85831 0.58772,-1.14159 0.39159,-0.28364 0.90841,-0.42545 1.55011,-0.42545 0.34996,0 0.68121,0.0318 0.99378,0.0953 0.31256,0.0632 0.58137,0.17321 0.80645,0.3302 l -0.28752,0.94015 c -0.20849,-0.14182 -0.42721,-0.24624 -0.65617,-0.31362 -0.2293,-0.067 -0.51893,-0.10054 -0.86924,-0.10054 -0.29175,0 -0.54786,0.0409 -0.7687,0.12312 -0.22084,0.0822 -0.33126,0.23142 -0.33126,0.44767 0,0.13441 0.0501,0.25577 0.14993,0.36372 0.10019,0.1083 0.23354,0.21272 0.40005,0.31326 0.16686,0.1009 0.35419,0.19968 0.56268,0.29669 0.20849,0.097 0.42086,0.20179 0.63747,0.31362 0.4251,0.21625 0.77505,0.46426 1.05022,0.74436 0.27517,0.27975 0.4124,0.58385 0.4124,0.91193 0,0.32844 -0.0519,0.60819 -0.15628,0.83961 -0.10407,0.23143 -0.25189,0.41981 -0.4438,0.56515 -0.19156,0.1457 -0.42298,0.25189 -0.69356,0.31927 -0.27093,0.067 -0.57326,0.10054 -0.90664,0.10054 z" style="fill:#0a1b73;stroke:none;stroke-width:0.35277781"/>
        <path inkscape:connector-curvature="0" id="path118" d="m 132.88946,290.75426 h 1.02482 v 6.20078 h -1.02482 z" style="fill:#0a1b73;stroke:none;stroke-width:0.35277781"/>
        <path inkscape:connector-curvature="0" id="path120" d="m 136.39007,294.7724 h 1.92511 l -0.97508,-3.07799 z m 1.68734,-4.01814 2.03799,6.20078 h -1.10031 l -0.3623,-1.1303 h -2.58798 l -0.34996,1.1303 h -1.11266 l 2.03765,-6.20078 z" style="fill:#0a1b73;stroke:none;stroke-width:0.35277781"/>
      </g>
      <g transform="matrix(0.99864185,0,0,0.99864185,-56.379062,12.404121)" id="g1170">
        <path inkscape:connector-curvature="0" id="path122" d="m 96.198801,233.38553 c 5.470879,0 10.436929,2.23027 14.036679,5.82789 -35.227689,-3.04094 -36.640211,35.5466 -13.336415,32.17651 4.254495,-0.61489 6.019095,-6.09247 0.244828,-6.46218 -2.160412,-0.13829 -1.717323,2.10467 -1.514476,2.39113 -2.711097,-1.31974 1.333148,-5.54073 6.797673,-2.11596 5.46453,3.42512 -1.93463,9.39906 -10.460917,7.47007 -8.923515,-1.94875 -15.639698,-9.92223 -15.639698,-19.41513 0,-10.94528 8.927042,-19.87233 19.872326,-19.87233 z" style="fill:#0a1b73;stroke:none;stroke-width:0.35277781"/>
        <path inkscape:connector-curvature="0" id="path124" d="m 112.69469,242.19898 c 2.08986,3.10515 3.3274,6.82731 3.37326,10.82711 -7.65387,-5.97253 -21.773797,-1.77659 -25.809575,3.73556 -4.03613,5.51215 -3.464983,9.27453 1.12007,12.12603 5.466645,3.39972 9.839325,-3.09774 4.833056,-2.95381 2.504017,-2.35655 6.259339,2.99368 1.388533,4.4189 -5.982053,1.75013 -12.822062,-0.63218 -14.631459,-7.3145 -3.432175,-12.67425 13.270442,-27.28595 29.720825,-20.84387 0.002,0.001 0.004,0.003 0.005,0.005 z" style="fill:#163d88;stroke:none;stroke-width:0.35277781"/>
        <path inkscape:connector-curvature="0" id="path126" d="m 115.88662,255.95308 c -0.5147,3.7645 -2.0895,7.19949 -4.4136,9.99138 1.65277,-7.39105 -11.33828,-8.55169 -15.509875,-5.52415 -9.69892,7.03897 3.951464,10.06299 0.542572,5.66455 4.442183,0.56057 -1.198033,5.52097 -5.628217,1.80446 -4.430536,-3.71651 -1.326797,-9.48196 3.866798,-12.93636 5.193595,-3.45405 17.717562,-5.03802 21.142322,1.00012 z" style="fill:#189ec8;stroke:none;stroke-width:0.35277781"/>
      </g>
    </g>
  </g>
</svg>