<?xml version="1.0" encoding="UTF-8" standalone="no"?>
<!-- Created with Inkscape (http://www.inkscape.org/) -->

<svg
   xmlns:dc="http://purl.org/dc/elements/1.1/"
   xmlns:cc="http://creativecommons.org/ns#"
   xmlns:rdf="http://www.w3.org/1999/02/22-rdf-syntax-ns#"
   xmlns:svg="http://www.w3.org/2000/svg"
   xmlns="http://www.w3.org/2000/svg"
   xmlns:sodipodi="http://sodipodi.sourceforge.net/DTD/sodipodi-0.dtd"
   xmlns:inkscape="http://www.inkscape.org/namespaces/inkscape"
   width="300"
   height="200"
   viewBox="0 0 79.374998 52.916668"
   version="1.1"
   id="svg8"
   inkscape:version="0.92.2 5c3e80d, 2017-08-06"
   sodipodi:docname="openSUSE-ID.svg">
  <defs
     id="defs2">
    <clipPath
       clipPathUnits="userSpaceOnUse"
       id="clipPath1492">
      <rect
         style="fill:#ff0000;fill-opacity:0.96166136;stroke:none;stroke-width:1.37068892;stroke-linecap:butt;stroke-linejoin:round;stroke-miterlimit:4;stroke-dasharray:none;stroke-opacity:1"
         id="rect1494"
         width="31"
         height="56.000011"
         x="110"
         y="932.36218" />
    </clipPath>
  </defs>
  <sodipodi:namedview
     id="base"
     pagecolor="#ffffff"
     bordercolor="#666666"
     borderopacity="1.0"
     inkscape:pageopacity="0.0"
     inkscape:pageshadow="2"
     inkscape:zoom="1.4"
     inkscape:cx="-2.8571429"
     inkscape:cy="142.60153"
     inkscape:document-units="px"
     inkscape:current-layer="layer1"
     showgrid="false"
     units="px"
     inkscape:window-width="1600"
     inkscape:window-height="835"
     inkscape:window-x="0"
     inkscape:window-y="33"
     inkscape:window-maximized="1" />
  <metadata
     id="metadata5">
    <rdf:RDF>
      <cc:Work
         rdf:about="">
        <dc:format>image/svg+xml</dc:format>
        <dc:type
           rdf:resource="http://purl.org/dc/dcmitype/StillImage" />
        <dc:title />
      </cc:Work>
    </rdf:RDF>
  </metadata>
  <g
     inkscape:label="Layer 1"
     inkscape:groupmode="layer"
     id="layer1"
     transform="translate(0,-244.08332)">
    <rect
       style="fill:#ffffff;fill-opacity:0.99680511;stroke:none;stroke-width:0.07016739;stroke-linecap:butt;stroke-linejoin:round;stroke-miterlimit:4;stroke-dasharray:none;stroke-opacity:1"
       id="rect4504"
       width="79.375"
       height="52.916668"
       x="-2.8421709e-14"
       y="244.08331" />
    <g
       transform="matrix(0.36962329,0,0,0.36962329,12.040072,-90.991132)"
       style="display:inline"
       id="g1481">
      <path
         style="fill:#ffffff;fill-opacity:0.99680511;stroke:#000000;stroke-width:2.47585464;stroke-linecap:butt;stroke-linejoin:round;stroke-miterlimit:4;stroke-dasharray:none;stroke-opacity:1"
         d="m 65.394397,910.04027 c -31.677175,0 -57.3603298,25.00521 -57.3603298,55.85226 0,18.33945 9.0780948,34.61387 23.0968268,44.79667 v 30.5256 c 0,2.7522 2.201254,4.9679 4.935548,4.9679 H 136.62825 c 2.73429,0 4.93555,-2.2157 4.93555,-4.9679 V 936.48088 c 0,-2.75223 -2.20126,-4.96792 -4.93555,-4.96792 H 110.58166 C 100.08207,918.44778 83.751293,910.04027 65.394397,910.04027 Z"
         id="path1486"
         inkscape:connector-curvature="0" />
      <path
         clip-path="url(#clipPath1492)"
         inkscape:connector-curvature="0"
         id="rect1438"
         d="m 65.394397,910.04027 c -31.677175,0 -57.3603298,25.00521 -57.3603298,55.85226 0,18.33945 9.0780948,34.61387 23.0968268,44.79667 v 30.5256 c 0,2.7522 2.201254,4.9679 4.935548,4.9679 H 136.62825 c 2.73429,0 4.93555,-2.2157 4.93555,-4.9679 V 936.48088 c 0,-2.75223 -2.20126,-4.96792 -4.93555,-4.96792 H 110.58166 C 100.08207,918.44778 83.751293,910.04027 65.394397,910.04027 Z"
         style="fill:#ff0000;fill-opacity:0.99680511;stroke:#000000;stroke-width:2.47585464;stroke-linecap:butt;stroke-linejoin:round;stroke-miterlimit:4;stroke-dasharray:none;stroke-opacity:1" />
      <g
         transform="matrix(0.27427455,0,0,0.27427455,-20.378568,930.91235)"
         id="g6204">
        <path
           d="m 338.8543,346.24733 c -7.7836,0 -12.0648,6.58047 -12.0648,11.12998 v 5.84034 c 0,6.69974 5.4738,10.85112 10.5495,10.85112 h 17.8192 c 2.2449,0 2.7149,1.46973 2.7149,2.70971 v 3.76903 c 0,0.39988 -0.081,4.01984 -2.7149,4.01984 H 330.855 c -2.4151,0 -4.1602,1.6802 -4.1602,3.97951 v 1.04179 c 0,2.29054 1.7451,3.96021 4.1602,3.96021 h 25.6238 c 6.698,0 11.0195,-4.66 11.0195,-11.87888 v -6.30161 c 0,-6.77865 -4.8705,-9.80932 -9.7058,-9.80932 h -17.5334 c -2.6395,0 -3.8356,-1.9801 -3.8356,-3.37968 v -3.47965 c 0,-2.19057 1.4644,-3.46036 4.0251,-3.46036 h 19.4081 c 2.38,0 4.1707,-1.71001 4.1707,-3.97074 v -1.04003 c 0,-2.26949 -1.8205,-3.98126 -4.2513,-3.98126 z"
           id="path7"
           style="fill:#73ba25;fill-opacity:1"
           inkscape:connector-curvature="0" />
        <path
           d="m 411.7165,346.24733 c -2.301,0 -4.1548,1.86961 -4.1548,4.17067 v 29.83837 c 0,2.39051 -1.9503,4.31098 -4.311,4.31098 h -13.5451 c -2.3694,0 -4.3092,-1.92047 -4.3092,-4.31098 V 350.418 c 0,-2.30106 -1.8696,-4.17067 -4.1689,-4.17067 h -1.3101 c -2.3344,0 -4.1707,1.84155 -4.1707,4.17067 v 30.96786 c 0,7.2101 5.6737,12.44011 13.4889,12.44011 h 14.4851 c 7.8047,0 13.4749,-5.22825 13.4749,-12.44011 V 350.418 c 0,-2.32912 -1.8293,-4.17067 -4.1602,-4.17067 z"
           id="path9"
           style="fill:#73ba25;fill-opacity:1"
           inkscape:connector-curvature="0" />
        <path
           d="m 437.6491,346.24733 c -7.7801,0 -12.0736,6.58047 -12.0736,11.12998 v 5.84034 c 0,6.69974 5.4843,10.85112 10.5635,10.85112 h 17.8139 c 2.2485,0 2.7203,1.46973 2.7203,2.70971 v 3.76903 c 0,0.39988 -0.081,4.01984 -2.7203,4.01984 h -24.3137 c -2.4045,0 -4.1601,1.6802 -4.1601,3.97951 v 1.04179 c 0,2.29054 1.7556,3.96021 4.1601,3.96021 h 25.6326 c 6.6998,0 11.0406,-4.66 11.0406,-11.87888 v -6.30161 c 0,-6.77865 -4.8845,-9.80932 -9.7199,-9.80932 h -17.5333 c -2.6466,0 -3.8392,-1.9801 -3.8392,-3.37968 v -3.47965 c 0,-2.19057 1.4645,-3.46036 4.0251,-3.46036 h 19.4187 c 2.3747,0 4.1584,-1.71001 4.1584,-3.97074 v -1.04003 c 0,-2.26949 -1.8188,-3.98126 -4.2601,-3.98126 z"
           id="path11"
           style="fill:#73ba25;fill-opacity:1"
           inkscape:connector-curvature="0" />
        <path
           d="m 478.6139,346.24733 c -2.3098,0 -4.0549,1.71177 -4.0549,3.98126 v 39.3583 c 0,2.25897 1.7047,3.96021 3.9637,3.96021 h 31.3642 c 2.4151,0 4.1602,-1.66967 4.1602,-3.96021 v -1.04179 c 0,-2.2993 -1.7451,-3.9795 -4.1602,-3.9795 0,0 -24.5329,0 -25.6869,0 0,-1.02074 0,-9.01132 0,-10.01978 1.1435,0 18.8223,0 18.8223,0 2.4098,0 4.1602,-1.69072 4.1602,-3.98126 v -1.04004 c 0,-2.30106 -1.7504,-3.97073 -4.1602,-3.97073 0,0 -17.6788,0 -18.8223,0 0,-1.02951 0,-9.29018 0,-10.3197 1.1435,0 24.3821,0 24.3821,0 2.4063,0 4.1601,-1.65914 4.1601,-3.97073 v -1.04003 c 0,-2.30107 -1.7538,-3.98126 -4.1601,-3.98126 h -29.9682 z"
           id="path13"
           style="fill:#73ba25;fill-opacity:1"
           inkscape:connector-curvature="0" />
        <g
           id="g15"
           style="fill:#73ba25;fill-opacity:1"
           transform="matrix(1.7538571,0,0,1.7538571,-649.58449,-344.23744)">
          <path
             d="m 491.254,404.369 c -2.241,0 -4.065,1.744 -4.065,3.894 v 8.461 c 0,2.184 1.765,3.963 3.929,3.963 h 5.473 c 2.164,0 3.929,-1.779 3.929,-3.963 v -8.461 c 0,-2.149 -1.825,-3.894 -4.065,-3.894 z m -1.184,12.019 v -7.726 c 0,-0.906 0.744,-1.647 1.654,-1.647 h 4.264 c 0.89,0 1.648,0.758 1.648,1.647 v 7.726 c 0,0.912 -0.738,1.653 -1.648,1.653 h -4.296 c -0.912,0 -1.622,-0.725 -1.622,-1.653 z"
             id="path17"
             style="fill:#73ba25;fill-opacity:1"
             inkscape:connector-curvature="0" />
          <path
             d="m 512.91,404.271 c -1.578,0 -2.768,0.564 -3.723,1.026 -0.582,0.279 -1.086,0.52 -1.477,0.52 -0.177,0 -0.328,-0.08 -0.408,-0.211 l -0.364,-0.696 c -0.091,-0.183 -0.456,-0.541 -0.907,-0.541 h -0.541 c -0.52,0 -0.936,0.467 -0.936,1.037 v 21.461 c 0,0.673 0.531,1.203 1.203,1.203 h 0.468 c 0.667,0 1.209,-0.536 1.209,-1.203 v -7.121 c 0,-0.211 0.137,-0.439 0.276,-0.439 0.391,0 0.895,0.229 1.477,0.496 0.955,0.439 2.145,0.98 3.723,0.98 h 0.505 c 2.794,0 4.532,-1.597 4.532,-4.162 v -8.192 c 0,-2.526 -1.775,-4.157 -4.532,-4.157 h -0.505 z m -5.475,11.952 v -7.39 c 0,-1.021 0.798,-1.818 1.818,-1.818 h 3.997 c 1.021,0 1.818,0.798 1.818,1.818 v 7.39 c 0,1.003 -0.818,1.818 -1.818,1.818 h -3.997 c -1.001,0 -1.818,-0.815 -1.818,-1.818 z"
             id="path19"
             style="fill:#73ba25;fill-opacity:1"
             inkscape:connector-curvature="0" />
          <path
             d="m 526.044,404.369 c -2.241,0 -4.06,1.744 -4.06,3.894 v 8.398 c 0,2.178 1.768,4.025 3.854,4.025 h 5.647 c 0.698,0 1.203,-0.484 1.203,-1.141 v -0.37 c 0,-0.661 -0.505,-1.135 -1.203,-1.135 h -4.639 c -1.3,0 -1.986,-0.639 -1.986,-1.854 0,0 0,-2.115 0,-2.457 0.379,0 8.369,0 8.369,0 1.346,0 2.142,-0.821 2.142,-2.212 v -3.256 c 0,-2.149 -1.822,-3.894 -4.054,-3.894 h -5.273 z m -1.183,4.265 c 0,-0.907 0.713,-1.619 1.621,-1.619 h 4.396 c 0.906,0 1.613,0.712 1.613,1.619 0,0 0,2.28 0,2.622 -0.364,0 -7.258,0 -7.631,0 10e-4,-0.342 10e-4,-2.622 10e-4,-2.622 z"
             id="path21"
             style="fill:#73ba25;fill-opacity:1"
             inkscape:connector-curvature="0" />
          <path
             d="m 546.997,404.271 c -1.573,0 -2.76,0.564 -3.718,1.021 -0.596,0.28 -1.105,0.525 -1.521,0.525 -0.183,0 -0.257,-0.023 -0.399,-0.269 l -0.331,-0.604 c -0.19,-0.382 -0.513,-0.575 -0.949,-0.575 h -0.465 c -0.562,0 -0.972,0.438 -0.972,1.037 v 14.077 c 0,0.667 0.527,1.203 1.206,1.203 h 0.465 c 0.667,0 1.211,-0.542 1.211,-1.203 v -10.65 c 0,-0.998 0.815,-1.818 1.813,-1.818 h 3.999 c 1.001,0 1.816,0.82 1.816,1.818 v 10.65 c 0,0.667 0.53,1.203 1.203,1.203 h 0.47 c 0.667,0 1.209,-0.542 1.209,-1.203 v -11.055 c 0,-2.526 -1.776,-4.157 -4.535,-4.157 z"
             id="path23"
             style="fill:#73ba25;fill-opacity:1"
             inkscape:connector-curvature="0" />
        </g>
        <g
           id="g25"
           style="fill:#73ba25;fill-opacity:1"
           transform="matrix(1.7538571,0,0,1.7538571,-649.58449,-344.23744)">
          <path
             d="m 667.456,415.229 c 1.218,0 2.188,0.99 2.188,2.229 0,1.257 -0.971,2.237 -2.198,2.237 -1.218,0 -2.208,-0.98 -2.208,-2.237 0,-1.238 0.99,-2.229 2.208,-2.229 z m -0.01,0.346 c -0.98,0 -1.782,0.842 -1.782,1.882 0,1.06 0.802,1.891 1.792,1.891 0.99,0.011 1.782,-0.831 1.782,-1.881 0,-1.05 -0.792,-1.892 -1.782,-1.892 z m -0.416,3.179 h -0.396 v -2.485 c 0.208,-0.03 0.406,-0.06 0.703,-0.06 0.377,0 0.624,0.079 0.772,0.188 0.149,0.108 0.229,0.276 0.229,0.515 0,0.326 -0.218,0.524 -0.485,0.604 v 0.021 c 0.218,0.039 0.366,0.237 0.416,0.604 0.06,0.387 0.118,0.535 0.158,0.614 h -0.416 c -0.06,-0.079 -0.119,-0.307 -0.168,-0.634 -0.06,-0.316 -0.218,-0.436 -0.535,-0.436 h -0.277 v 1.069 z m 0,-1.377 h 0.287 c 0.327,0 0.604,-0.118 0.604,-0.426 0,-0.218 -0.158,-0.436 -0.604,-0.436 -0.129,0 -0.218,0.01 -0.287,0.021 z"
             id="path27"
             style="fill:#73ba25;fill-opacity:1"
             inkscape:connector-curvature="0" />
        </g>
      </g>
      <path
         inkscape:connector-curvature="0"
         id="path1467"
         d="M 65.525994,911.37864 C 34.47562,911.37864 9.3,935.88507 9.3,966.11633 c 0,30.23126 25.17562,54.73787 56.225994,54.73787 31.050495,0 56.225946,-24.50661 56.225946,-54.73787 0,-30.23126 -25.175451,-54.73769 -56.225946,-54.73769 z"
         style="font-size:20.48839951px;font-family:TrebuchetMS-Bold;display:inline;fill:#ffffff;fill-opacity:1;fill-rule:evenodd;stroke:none;stroke-width:0.92542607" />
      <g
         style="fill:#73ba25"
         transform="matrix(0.87046048,0,0,0.87046048,-111.16369,148.98326)"
         id="layer1-4"
         inkscape:label="Layer 1">
        <path
           id="path2445-3"
           d="m 202.98415,878.78923 c -33.10547,0 -59.94735,26.83882 -59.94735,59.94737 0,33.10854 26.84188,59.94749 59.94735,59.94749 33.10559,0 59.94731,-26.83896 59.94731,-59.94749 0,-33.10855 -26.84172,-59.94737 -59.94731,-59.94737 z m 0.28708,8.3021 c 28.52457,0 51.66728,23.12377 51.66728,51.64527 0,28.52456 -23.14572,51.64539 -51.66728,51.64539 -15.40217,0 -29.22297,-6.7505 -38.68429,-17.44335 3.89026,-3.01935 10.39895,-2.2827 18.41477,-1.36898 3.84139,0.43703 8.22041,0.9369 12.74023,1.03778 12.6273,0.0735 26.21385,-2.23125 34.59945,-5.89542 5.42131,-2.37756 8.89243,-3.94326 11.06209,-5.91744 0.78237,-0.64172 1.19326,-1.71386 1.6119,-2.82624 l 0.28702,-0.75076 c 0.35143,-0.89841 0.85579,-2.83175 1.08196,-3.88607 0.10065,-0.46143 0.1503,-0.9577 -0.17671,-1.2144 l -1.17017,0.2208 c -3.67939,2.20643 -12.87217,6.40875 -21.48403,6.57987 -10.67145,0.22308 -32.17969,-10.74294 -34.42278,-11.90118 l -0.22079,-0.26493 c -0.53786,-1.28352 -3.7566,-8.92473 -4.43809,-10.53221 15.48161,10.19476 28.31713,15.83755 38.15436,16.7146 10.93733,0.97182 19.46905,-4.99962 23.11786,-7.55137 0.71208,-0.48589 1.2563,-0.86691 1.47941,-0.94945 l 0.24278,-0.39745 c -0.60499,-3.84442 -6.3435,-22.44772 -10.66462,-26.91558 -1.19794,-1.22547 -2.15045,-2.41808 -4.0848,-3.55488 -15.64059,-9.11601 -52.77688,-14.60624 -54.51572,-14.85989 l -0.28706,0.0881 -0.11039,0.24286 c 0,0 -0.13932,7.71141 -0.15455,8.56709 -1.27434,-0.42175 -5.22577,-1.71543 -10.88548,-3.26787 7.38465,-9.1374 18.70168,-17.24451 38.50762,-17.24451 z m 13.64546,27.3351 c 0.26355,-0.004 0.52955,-0.009 0.79493,0 8.7614,0.31478 15.64507,7.69428 15.34563,16.44967 -0.15584,4.2356 -1.94156,8.14905 -5.03426,11.04001 -3.10187,2.90625 -7.13329,4.42105 -11.39331,4.28354 -8.74625,-0.32699 -15.62987,-7.70648 -15.34565,-16.44965 0.14978,-4.24172 1.94532,-8.1803 5.05631,-11.0621 2.90511,-2.72461 6.62325,-4.20212 10.57635,-4.26147 z m -0.41953,4.681 c -2.55167,0.1551 -4.95965,1.19122 -6.84482,2.9587 -2.14834,2.01696 -3.41598,4.74777 -3.51071,7.70595 -0.20171,6.11197 4.58088,11.25549 10.68676,11.48166 2.96734,0.0915 5.78212,-0.94791 7.94882,-2.95875 2.16062,-2.02612 3.4191,-4.78206 3.51076,-7.72803 0.20468,-6.12113 -4.59998,-11.24562 -10.70885,-11.45953 -0.36977,-0.0146 -0.71741,-0.0224 -1.08196,0 z m 2.9146,5.54209 c 2.7137,0 4.90175,1.47466 4.90175,3.28994 0,1.80608 -2.18805,3.28991 -4.90175,3.28991 -2.72289,0 -4.92386,-1.4869 -4.92386,-3.28991 0,-1.81528 2.20097,-3.28994 4.92386,-3.28994 z"
           style="font-size:20.48839951px;font-family:TrebuchetMS-Bold;display:inline;fill:#73ba25;fill-opacity:1;fill-rule:evenodd;stroke:none"
           inkscape:connector-curvature="0" />
      </g>
      <g
         transform="matrix(0.46535003,0,0,0.46535003,71.75396,535.90858)"
         id="text6222"
         style="font-style:normal;font-weight:normal;font-size:40px;line-height:1.25;font-family:sans-serif;letter-spacing:0px;word-spacing:0px;fill:#73ba25;fill-opacity:1;stroke:#73ba25;stroke-width:1.50424397;stroke-miterlimit:4;stroke-dasharray:none;stroke-opacity:1"
         aria-label="ID">
        <path
           inkscape:connector-curvature="0"
           id="path1385"
           style="font-style:normal;font-variant:normal;font-weight:normal;font-stretch:normal;font-family:FifthLeg;-inkscape-font-specification:FifthLeg;fill:#73ba25;stroke:#73ba25;stroke-width:1.50424397;stroke-miterlimit:4;stroke-dasharray:none;stroke-opacity:1"
           d="m 118.66485,1052.8527 c -1.04,0 -1.8,0.8 -1.8,1.76 v 26.16 h 3.56 v -27.92 z" />
        <path
           inkscape:connector-curvature="0"
           id="path1387"
           style="font-style:normal;font-variant:normal;font-weight:normal;font-stretch:normal;font-family:FifthLeg;-inkscape-font-specification:FifthLeg;fill:#73ba25;stroke:#73ba25;stroke-width:1.50424397;stroke-miterlimit:4;stroke-dasharray:none;stroke-opacity:1"
           d="m 137.5536,1080.7727 c 2.08,0 4.8,-1.56 4.8,-4.48 v -18.6 c 0,-2.44 -2.28,-4.8 -5.16,-4.8 h -12.36 v 27.88 z m -0.24,-3.48 h -8.92 v -20.8 h 8.92 c 0.28,0 1.44,0.32 1.44,1.44 v 17.84 c 0,0.84 -0.64,1.52 -1.44,1.52 z" />
      </g>
    </g>
  </g>
</svg>
