<?xml version="1.0" encoding="UTF-8" standalone="no"?>
<!-- Created with Inkscape (http://www.inkscape.org/) -->

<svg
   xmlns:dc="http://purl.org/dc/elements/1.1/"
   xmlns:cc="http://creativecommons.org/ns#"
   xmlns:rdf="http://www.w3.org/1999/02/22-rdf-syntax-ns#"
   xmlns:svg="http://www.w3.org/2000/svg"
   xmlns="http://www.w3.org/2000/svg"
   xmlns:sodipodi="http://sodipodi.sourceforge.net/DTD/sodipodi-0.dtd"
   xmlns:inkscape="http://www.inkscape.org/namespaces/inkscape"
   width="300"
   height="200"
   viewBox="0 0 79.374998 52.916668"
   version="1.1"
   id="svg8"
   inkscape:version="0.92.2 5c3e80d, 2017-08-06"
   sodipodi:docname="ridon.svg">
  <defs
     id="defs2" />
  <sodipodi:namedview
     id="base"
     pagecolor="#ffffff"
     bordercolor="#666666"
     borderopacity="1.0"
     inkscape:pageopacity="0.0"
     inkscape:pageshadow="2"
     inkscape:zoom="1.4"
     inkscape:cx="-48.368997"
     inkscape:cy="142.60153"
     inkscape:document-units="px"
     inkscape:current-layer="layer1"
     showgrid="false"
     units="px"
     inkscape:window-width="1600"
     inkscape:window-height="835"
     inkscape:window-x="0"
     inkscape:window-y="33"
     inkscape:window-maximized="1" />
  <metadata
     id="metadata5">
    <rdf:RDF>
      <cc:Work
         rdf:about="">
        <dc:format>image/svg+xml</dc:format>
        <dc:type
           rdf:resource="http://purl.org/dc/dcmitype/StillImage" />
        <dc:title />
      </cc:Work>
    </rdf:RDF>
  </metadata>
  <g
     inkscape:label="Layer 1"
     inkscape:groupmode="layer"
     id="layer1"
     transform="translate(0,-244.08332)">
    <g
       id="g853">
      <rect
         y="244.08331"
         x="-2.8421709e-14"
         height="52.916668"
         width="79.375"
         id="rect4504"
         style="fill:#ffffff;fill-opacity:0.99680511;stroke:none;stroke-width:0.07016739;stroke-linecap:butt;stroke-linejoin:round;stroke-miterlimit:4;stroke-dasharray:none;stroke-opacity:1" />
      <g
         id="g841">
        <path
           inkscape:connector-curvature="0"
           id="path3234"
           d="m 39.856905,249.83164 c -6.297848,0.032 -12.457788,3.09686 -16.206368,8.70013 -2.310068,3.45306 -3.37057,7.36756 -3.300038,11.22875 h 39.178113 c 0.105404,-6.43103 -2.950476,-12.78033 -8.694005,-16.62272 l -0.642857,-0.4102 c -3.223021,-1.97851 -6.801895,-2.91393 -10.334845,-2.89596 z m -7.940941,11.06343 c 0.468683,-0.0134 0.943341,0.10455 1.371449,0.36736 l 0.08572,0.049 c 1.144924,0.76594 1.451678,2.31432 0.685723,3.45923 -0.765933,1.14492 -2.314299,1.45778 -3.459223,0.69185 -1.144925,-0.76595 -1.45168,-2.32045 -0.685725,-3.46536 0.465549,-0.69589 1.220942,-1.07974 2.00206,-1.10206 z m 14.963483,0 c 0.468683,-0.0134 0.949454,0.10455 1.37758,0.36736 l 0.07959,0.049 c 1.144924,0.76594 1.451678,2.31432 0.685724,3.45923 -0.765934,1.14492 -2.3143,1.45778 -3.459224,0.69185 -1.144925,-0.76595 -1.451679,-2.32045 -0.685725,-3.46536 0.465549,-0.69589 1.220943,-1.07974 2.002061,-1.10206 z"
           style="fill:#fb8b00;fill-opacity:1;stroke:none;stroke-width:0.19592124"
           inkscape:export-filename="/home/cho2/Gambar/ridon.png"
           inkscape:export-xdpi="90"
           inkscape:export-ydpi="90" />
        <g
           style="font-style:normal;font-weight:normal;font-size:55.95628357px;line-height:125%;font-family:Sans;letter-spacing:0px;word-spacing:0px;fill:#000000;fill-opacity:1;stroke:none"
           id="text3244"
           transform="matrix(0.19592123,0,0,0.19592123,-6.3537189,230.74449)">
          <path
             d="m 165.6081,269.49125 v 17.48634 h 8.74317 c 2.42257,2e-5 4.48085,-0.84697 6.17486,-2.54099 1.71218,-1.71217 2.56828,-3.77957 2.56831,-6.20218 -3e-5,-2.42256 -0.85613,-4.48084 -2.56831,-6.17487 -1.69401,-1.71216 -3.75229,-2.56826 -6.17486,-2.5683 h -8.74317 m -2.1858,-4.37159 h 10.92897 c 3.62475,5e-5 6.71218,1.2842 9.26229,3.85246 2.56828,2.55013 3.85243,5.63756 3.85246,9.2623 -3e-5,3.6248 -1.27507,6.71223 -3.82514,9.26229 -1.18399,1.18399 -2.46814,2.08563 -3.85246,2.70492 l 9.5082,15.2459 c 0.23677,0.34609 0.35516,0.74682 0.35519,1.20219 -3e-5,0.60109 -0.21861,1.12022 -0.65573,1.55737 -0.41898,0.41895 -0.929,0.62842 -1.53006,0.62842 -0.78327,0 -1.42079,-0.37341 -1.91257,-1.12022 l -10.2459,-16.39344 c -0.30967,0.0182 -0.62843,0.0273 -0.95628,0.0273 h -8.74317 v 15.30055 c -1e-5,0.60109 -0.21859,1.12022 -0.65574,1.55737 -0.41895,0.41895 -0.92897,0.62842 -1.53006,0.62842 -0.60109,0 -1.12022,-0.20947 -1.55737,-0.62842 -0.41895,-0.43715 -0.62842,-0.95628 -0.62842,-1.55737 v -39.34426 c 0,-0.60105 0.20947,-1.11107 0.62842,-1.53006 0.43715,-0.43711 0.95628,-0.65569 1.55737,-0.65574"
             style="font-variant:normal;font-stretch:normal;font-family:Comfortaa;-inkscape-font-specification:Comfortaa;fill:#000000"
             id="path3005"
             inkscape:connector-curvature="0" />
          <path
             d="m 201.12722,271.67704 c -1e-5,0.74685 -0.27323,1.39348 -0.81967,1.93989 -0.52824,0.52827 -1.16576,0.79239 -1.91257,0.79235 -0.74682,4e-5 -1.39345,-0.26408 -1.93989,-0.79235 -0.52824,-0.54641 -0.79235,-1.19304 -0.79235,-1.93989 0,-0.74677 0.26411,-1.3843 0.79235,-1.91257 0.54644,-0.54641 1.19307,-0.81963 1.93989,-0.81967 0.74681,4e-5 1.38433,0.27326 1.91257,0.81967 0.54644,0.52827 0.81966,1.1658 0.81967,1.91257 m -4.91803,8.74317 c -1e-5,-0.60106 0.20947,-1.11108 0.62841,-1.53005 0.43716,-0.43713 0.95628,-0.65571 1.55738,-0.65574 0.60109,3e-5 1.1111,0.21861 1.53006,0.65574 0.43715,0.41897 0.65573,0.92899 0.65573,1.53005 v 26.22951 c 0,0.60109 -0.21858,1.12022 -0.65573,1.55737 -0.41896,0.41895 -0.92897,0.62842 -1.53006,0.62842 -0.6011,0 -1.12022,-0.20947 -1.55738,-0.62842 -0.41894,-0.43715 -0.62842,-0.95628 -0.62841,-1.55737 v -26.22951"
             style="-inkscape-font-specification:Comfortaa;fill:#000000"
             id="path3007"
             inkscape:connector-curvature="0" />
          <path
             d="m 233.36766,293.53496 c -3e-5,-3.02366 -1.0656,-5.60107 -3.19672,-7.73224 -2.13117,-2.13112 -4.70858,-3.19669 -7.73224,-3.19672 -3.0237,3e-5 -5.60111,1.0656 -7.73224,3.19672 -2.13116,2.13117 -3.19673,4.70858 -3.19672,7.73224 -1e-5,3.0237 1.06556,5.60111 3.19672,7.73224 2.13113,2.13116 4.70854,3.19673 7.73224,3.19673 3.02366,0 5.60107,-1.06557 7.73224,-3.19673 2.13112,-2.13113 3.19669,-4.70854 3.19672,-7.73224 m 0,-26.28415 c -3e-5,-0.60105 0.20944,-1.11107 0.62841,-1.53005 0.43713,-0.43712 0.95626,-0.6557 1.55738,-0.65574 0.60106,4e-5 1.11108,0.21862 1.53006,0.65574 0.43712,0.41898 0.6557,0.929 0.65573,1.53005 v 26.28415 c -3e-5,4.22588 -1.49365,7.83243 -4.48087,10.81968 -2.98728,2.98725 -6.59383,4.48087 -10.81967,4.48087 -4.22588,0 -7.83244,-1.49362 -10.81968,-4.48087 -2.98725,-2.98725 -4.48087,-6.5938 -4.48087,-10.81968 0,-4.22584 1.49362,-7.8324 4.48087,-10.81967 2.98724,-2.98722 6.5938,-4.48084 10.81968,-4.48087 4.22584,3e-5 7.83239,1.49365 10.81967,4.48087 0.0364,0.0365 0.0728,0.0729 0.10929,0.10929 v -15.57377"
             style="-inkscape-font-specification:Comfortaa;fill:#000000"
             id="path3009"
             inkscape:connector-curvature="0" />
          <path
             d="m 272.71192,293.53496 c -3e-5,4.22588 -1.49366,7.83243 -4.48088,10.81968 -2.98727,2.98725 -6.59382,4.48087 -10.81967,4.48087 -4.22588,0 -7.83243,-1.49362 -10.81967,-4.48087 -2.98725,-2.98725 -4.48088,-6.5938 -4.48087,-10.81968 -1e-5,-4.22584 1.49362,-7.8324 4.48087,-10.81967 2.98724,-2.98722 6.59379,-4.48084 10.81967,-4.48087 4.22585,3e-5 7.8324,1.49365 10.81967,4.48087 2.98722,2.98727 4.48085,6.59383 4.48088,10.81967 M 257.41137,282.606 c -3.02369,3e-5 -5.6011,1.0656 -7.73224,3.19672 -2.13115,2.13117 -3.19673,4.70858 -3.19672,7.73224 -10e-6,3.0237 1.06557,5.60111 3.19672,7.73224 2.13114,2.13116 4.70855,3.19673 7.73224,3.19673 3.02366,0 5.60107,-1.06557 7.73224,-3.19673 2.13112,-2.13113 3.1967,-4.70854 3.19672,-7.73224 -2e-5,-3.02366 -1.0656,-5.60107 -3.19672,-7.73224 -2.13117,-2.13112 -4.70858,-3.19669 -7.73224,-3.19672"
             style="font-variant:normal;font-stretch:normal;font-family:Comfortaa;-inkscape-font-specification:Comfortaa;fill:#000000"
             id="path3011"
             inkscape:connector-curvature="0" />
          <path
             d="m 277.08351,280.42021 c 0,-0.60106 0.20947,-1.11108 0.62842,-1.53005 0.43715,-0.43713 0.95628,-0.65571 1.55737,-0.65574 0.60109,3e-5 1.11111,0.21861 1.53006,0.65574 0.43715,0.41897 0.65573,0.92899 0.65574,1.53005 v 1.77596 c 2.73223,-2.64114 6.01091,-3.96172 9.83606,-3.96175 3.91619,3e-5 7.25863,1.39347 10.02733,4.18033 2.78685,2.76869 4.18029,6.11113 4.18032,10.02732 v 14.20765 c -3e-5,0.60109 -0.21861,1.12022 -0.65573,1.55737 -0.41898,0.41895 -0.929,0.62842 -1.53006,0.62842 -0.60112,0 -1.12025,-0.20947 -1.55738,-0.62842 -0.41897,-0.43715 -0.62844,-0.95628 -0.62841,-1.55737 v -14.20765 c -3e-5,-2.71401 -0.96542,-5.0273 -2.89618,-6.93989 -1.91259,-1.93076 -4.22588,-2.89615 -6.93989,-2.89618 -2.71404,3e-5 -5.03644,0.96542 -6.96721,2.89618 -1.91258,1.91259 -2.86886,4.22588 -2.86885,6.93989 v 14.20765 c -1e-5,0.60109 -0.21859,1.12022 -0.65574,1.55737 -0.41895,0.41895 -0.92897,0.62842 -1.53006,0.62842 -0.60109,0 -1.12022,-0.20947 -1.55737,-0.62842 -0.41895,-0.43715 -0.62842,-0.95628 -0.62842,-1.55737 v -26.22951"
             style="font-variant:normal;font-stretch:normal;font-family:Comfortaa;-inkscape-font-specification:Comfortaa;fill:#000000"
             id="path3013"
             inkscape:connector-curvature="0" />
        </g>
        <path
           id="path3250"
           d="m 19.863615,279.12774 c 0.196137,-0.18047 1.128056,-0.94014 2.070927,-1.68817 0.94287,-0.74805 2.597621,-2.62067 3.677264,-4.16141 4.332662,-6.18316 8.400868,-7.98925 12.64562,-5.61397 l 1.276679,0.71441 1.207973,-0.73459 c 2.063285,-1.2548 3.911508,-1.32442 6.289226,-0.23692 2.539513,1.16149 3.556618,2.10576 5.971897,5.54419 1.768913,2.5183 3.51322,4.34213 5.555464,5.80874 0.87038,0.62502 0.816247,0.63368 -2.677714,0.42793 -7.922214,-0.46653 -11.047842,-1.42905 -14.034348,-4.3217 -1.087403,-1.05323 -2.210502,-1.91497 -2.49576,-1.91497 -0.285222,0 -1.064244,0.63742 -1.731082,1.41648 -1.557829,1.81995 -5.593572,3.80667 -8.662677,4.26444 -3.68285,0.54932 -9.496224,0.86612 -9.093469,0.49554 z"
           style="fill:#000000;stroke-width:0.19592124"
           inkscape:connector-curvature="0"
           inkscape:export-filename="/home/cho2/Gambar/ridon.png"
           inkscape:export-xdpi="90"
           inkscape:export-ydpi="90" />
      </g>
    </g>
  </g>
</svg>
