<?xml version="1.0" encoding="UTF-8" standalone="no"?>
<!-- Created with Inkscape (http://www.inkscape.org/) -->
<svg xmlns:dc="http://purl.org/dc/elements/1.1/" xmlns:cc="http://creativecommons.org/ns#" xmlns:rdf="http://www.w3.org/1999/02/22-rdf-syntax-ns#" xmlns:svg="http://www.w3.org/2000/svg" xmlns="http://www.w3.org/2000/svg" xmlns:sodipodi="http://sodipodi.sourceforge.net/DTD/sodipodi-0.dtd" xmlns:inkscape="http://www.inkscape.org/namespaces/inkscape" width="300" height="200" viewBox="0 0 79.374998 52.916668" version="1.1" id="svg8" inkscape:version="0.92.2 5c3e80d, 2017-08-06" sodipodi:docname="sakti.svg">
  <defs id="defs2"/>
  <sodipodi:namedview id="base" pagecolor="#ffffff" bordercolor="#666666" borderopacity="1.0" inkscape:pageopacity="0.0" inkscape:pageshadow="2" inkscape:zoom="1.4" inkscape:cx="-35.634921" inkscape:cy="142.60153" inkscape:document-units="px" inkscape:current-layer="layer1" showgrid="false" units="px" inkscape:window-width="1600" inkscape:window-height="832" inkscape:window-x="0" inkscape:window-y="32" inkscape:window-maximized="1"/>
  <metadata id="metadata5">
    <rdf:RDF>
      <cc:Work rdf:about="">
        <dc:format>image/svg+xml</dc:format>
        <dc:type rdf:resource="http://purl.org/dc/dcmitype/StillImage"/>
        <dc:title/>
      </cc:Work>
    </rdf:RDF>
  </metadata>
  <g inkscape:label="Layer 1" inkscape:groupmode="layer" id="layer1" transform="translate(0,-244.08332)">
    <rect style="fill:#ffffff;fill-opacity:0.99680511;stroke:none;stroke-width:0.07016739;stroke-linecap:butt;stroke-linejoin:round;stroke-miterlimit:4;stroke-dasharray:none;stroke-opacity:1" id="rect4504" width="79.375" height="52.916668" x="-2.8421709e-14" y="244.08331"/>
    <g transform="matrix(0.01168654,0,0,0.01168654,-3.0151172,236.54548)" style="clip-rule:evenodd;fill-rule:evenodd;image-rendering:optimizeQuality;shape-rendering:geometricPrecision;text-rendering:geometricPrecision" id="Layer_x0020_1">
      <metadata id="CorelCorpID_0Corel-Layer"/>
      <rect class="fil0" x="1390" y="645" width="4528" height="4528" id="rect7" style="fill:none"/>
      <g id="_350695200">
        <g id="g13">
          <path inkscape:connector-curvature="0" class="fil1" d="m 2379,4484 -33,6 c -1,-7 -3,-12 -7,-15 -4,-3 -9,-5 -15,-5 -9,0 -15,3 -20,8 -5,6 -8,16 -8,29 0,15 3,26 8,32 5,6 12,9 20,9 6,0 12,-2 16,-5 4,-4 7,-10 8,-19 l 33,6 c -3,15 -10,26 -20,34 -9,8 -22,11 -38,11 -19,0 -33,-5 -44,-17 -11,-12 -17,-28 -17,-48 0,-21 6,-37 17,-49 11,-12 26,-17 44,-17 16,0 28,3 37,10 9,6 15,16 19,30 z m 18,24 c 0,-11 2,-22 8,-32 5,-11 13,-19 23,-24 10,-6 21,-8 33,-8 20,0 35,6 47,18 12,13 19,28 19,47 0,19 -7,35 -19,48 -12,12 -28,18 -46,18 -12,0 -23,-2 -33,-7 -11,-6 -19,-13 -24,-23 -6,-10 -8,-23 -8,-37 z m 34,2 c 0,12 3,22 9,28 6,7 13,10 22,10 8,0 16,-3 21,-10 6,-6 9,-16 9,-29 0,-12 -3,-22 -9,-28 -5,-7 -13,-10 -21,-10 -9,0 -16,3 -22,10 -6,6 -9,16 -9,29 z m 114,-2 c 0,-11 3,-22 8,-32 6,-11 13,-19 23,-24 10,-6 21,-8 34,-8 19,0 34,6 46,18 13,13 19,28 19,47 0,19 -6,35 -19,48 -12,12 -27,18 -46,18 -12,0 -23,-2 -33,-7 -11,-6 -18,-13 -24,-23 -5,-10 -8,-23 -8,-37 z m 34,2 c 0,12 3,22 9,28 6,7 13,10 22,10 9,0 16,-3 22,-10 6,-6 8,-16 8,-29 0,-12 -2,-22 -8,-28 -6,-7 -13,-10 -22,-10 -9,0 -16,3 -22,10 -6,6 -9,16 -9,29 z m 121,-64 h 31 v 19 c 4,-6 9,-12 16,-16 7,-3 15,-5 23,-5 15,0 27,5 37,17 11,11 16,27 16,48 0,21 -6,37 -16,49 -10,12 -23,17 -37,17 -7,0 -13,-1 -19,-4 -6,-3 -12,-7 -18,-14 v 63 h -33 z m 33,61 c 0,15 2,25 8,32 6,7 12,10 20,10 8,0 15,-3 20,-9 5,-7 7,-17 7,-31 0,-13 -2,-23 -8,-30 -5,-6 -11,-9 -19,-9 -8,0 -15,3 -20,9 -6,7 -8,16 -8,28 z m 189,25 33,6 c -4,12 -11,21 -20,28 -9,6 -21,9 -35,9 -22,0 -38,-7 -48,-21 -9,-12 -13,-26 -13,-44 0,-20 6,-37 17,-49 11,-11 24,-17 41,-17 19,0 33,6 44,18 11,13 16,32 16,57 h -83 c 0,10 2,18 8,23 5,6 11,8 19,8 5,0 9,-1 13,-4 3,-3 6,-7 8,-14 z m 2,-33 c -1,-10 -3,-17 -8,-22 -4,-5 -10,-8 -17,-8 -7,0 -13,3 -18,8 -5,5 -7,13 -7,22 z m 92,73 h -34 v -126 h 31 v 18 c 6,-8 10,-14 15,-16 4,-3 9,-4 14,-4 8,0 15,2 22,6 l -10,29 c -6,-4 -11,-5 -16,-5 -5,0 -9,1 -12,3 -3,3 -6,8 -8,14 -1,7 -2,21 -2,42 z m 87,-87 -30,-5 c 3,-12 9,-22 18,-27 8,-6 20,-9 36,-9 15,0 26,1 34,5 7,3 12,8 15,13 3,6 4,16 4,30 v 39 c 0,11 0,19 2,24 1,6 3,11 5,17 h -33 c 0,-2 -1,-5 -3,-9 0,-2 -1,-4 -1,-4 -6,5 -12,9 -18,12 -7,3 -13,4 -21,4 -13,0 -23,-3 -30,-10 -8,-7 -11,-16 -11,-27 0,-7 1,-13 5,-19 3,-5 8,-10 14,-13 6,-3 15,-5 26,-7 16,-3 27,-6 33,-9 v -3 c 0,-6 -2,-11 -5,-14 -3,-2 -9,-4 -18,-4 -6,0 -11,1 -14,4 -3,2 -6,6 -8,12 z m 45,27 c -5,2 -11,3 -21,5 -9,2 -15,4 -18,6 -4,3 -6,7 -6,12 0,4 2,8 5,12 4,3 8,5 13,5 6,0 12,-2 17,-6 4,-3 7,-7 8,-11 1,-3 2,-8 2,-16 z m 123,-66 v 27 h -23 v 51 c 0,10 0,16 1,18 0,2 1,3 3,4 1,1 3,2 5,2 3,0 8,-1 14,-3 l 2,25 c -7,4 -16,5 -26,5 -6,0 -11,-1 -16,-3 -5,-2 -8,-4 -11,-7 -2,-4 -3,-8 -4,-14 -1,-3 -1,-11 -1,-23 v -55 h -16 v -27 h 16 v -25 l 33,-19 v 44 z m 23,-17 v -30 h 33 v 30 z m 0,143 v -126 h 33 v 126 z m 60,-64 c 0,-11 2,-22 8,-32 5,-11 13,-19 23,-24 10,-6 21,-8 33,-8 19,0 35,6 47,18 12,13 18,28 18,47 0,19 -6,35 -18,48 -12,12 -28,18 -46,18 -12,0 -23,-2 -33,-7 -11,-6 -19,-13 -24,-23 -6,-10 -8,-23 -8,-37 z m 34,2 c 0,12 3,22 9,28 6,7 13,10 22,10 8,0 16,-3 21,-10 6,-6 9,-16 9,-29 0,-12 -3,-22 -9,-28 -5,-7 -13,-10 -21,-10 -9,0 -16,3 -22,10 -6,6 -9,16 -9,29 z m 236,62 h -33 v -64 c 0,-14 -1,-22 -2,-26 -2,-4 -4,-7 -7,-10 -4,-2 -7,-3 -12,-3 -6,0 -11,2 -16,5 -4,3 -7,7 -9,12 -2,6 -3,15 -3,29 v 57 h -33 v -126 h 31 v 19 c 11,-14 25,-21 42,-21 7,0 14,1 20,4 6,2 11,6 14,10 3,4 5,9 6,14 1,5 2,12 2,22 z m 105,0 v -109 h -19 v -17 h 19 v -13 c 0,-8 1,-15 2,-19 2,-5 6,-10 11,-13 5,-4 12,-5 21,-5 6,0 13,0 20,2 l -3,18 c -4,0 -8,-1 -12,-1 -7,0 -11,2 -14,4 -3,3 -4,8 -4,16 v 11 h 24 v 17 h -24 v 109 z m 54,-63 c 0,-23 7,-40 20,-51 10,-10 24,-14 39,-14 17,0 32,5 43,17 10,11 16,27 16,47 0,16 -2,28 -7,38 -5,9 -12,16 -22,21 -9,5 -19,8 -30,8 -18,0 -32,-6 -43,-17 -11,-11 -16,-28 -16,-49 z m 22,0 c 0,16 3,28 10,36 8,8 16,12 27,12 11,0 20,-4 27,-12 7,-8 10,-20 10,-36 0,-16 -3,-28 -11,-36 -7,-8 -15,-12 -26,-12 -11,0 -19,4 -27,12 -7,8 -10,20 -10,36 z m 121,63 v -126 h 19 v 20 c 5,-9 9,-15 13,-18 5,-3 9,-4 14,-4 7,0 15,2 22,6 l -7,20 c -6,-3 -11,-4 -16,-4 -5,0 -9,1 -12,4 -4,3 -7,7 -8,12 -3,7 -4,15 -4,24 v 66 z m 234,-41 22,3 c -3,13 -10,23 -19,30 -10,7 -21,11 -36,11 -18,0 -33,-6 -44,-17 -10,-11 -16,-27 -16,-48 0,-21 6,-37 16,-49 11,-12 25,-17 43,-17 17,0 30,5 41,17 11,11 16,27 16,48 0,1 0,3 0,6 h -94 c 1,14 5,24 12,31 7,8 15,11 26,11 8,0 14,-2 20,-6 5,-4 10,-10 13,-20 z m -70,-34 h 70 c -1,-10 -3,-18 -8,-24 -7,-8 -15,-12 -26,-12 -10,0 -18,3 -25,10 -6,7 -10,15 -11,26 z m 153,75 -47,-126 h 23 l 27,76 c 3,8 5,16 8,25 2,-7 4,-14 8,-24 l 28,-77 h 22 l -48,126 z m 173,-41 22,3 c -3,13 -10,23 -19,30 -9,7 -21,11 -36,11 -18,0 -33,-6 -44,-17 -10,-11 -16,-27 -16,-48 0,-21 6,-37 17,-49 10,-12 25,-17 42,-17 17,0 30,5 41,17 11,11 16,27 16,48 0,1 0,3 0,6 h -94 c 1,14 5,24 12,31 7,8 16,11 26,11 8,0 15,-2 20,-6 6,-4 10,-10 13,-20 z m -70,-34 h 70 c 0,-10 -3,-18 -8,-24 -6,-8 -15,-12 -26,-12 -10,0 -18,3 -25,10 -6,7 -10,15 -11,26 z m 119,75 v -126 h 19 v 20 c 5,-9 10,-15 14,-18 4,-3 9,-4 13,-4 8,0 15,2 22,6 l -7,20 c -5,-3 -11,-4 -16,-4 -4,0 -9,1 -12,4 -4,3 -6,7 -8,12 -2,7 -4,15 -4,24 v 66 z m 80,49 -2,-20 c 4,1 8,2 12,2 5,0 8,-1 11,-3 3,-1 5,-3 7,-6 2,-2 4,-8 7,-16 0,-1 1,-3 2,-5 l -48,-127 h 23 l 26,73 c 3,9 6,19 9,29 3,-9 6,-19 9,-28 l 27,-74 h 21 l -47,128 c -6,14 -10,24 -12,29 -4,7 -9,12 -14,15 -4,4 -10,5 -17,5 -4,0 -9,-1 -14,-2 z m 114,-112 c 0,-23 7,-40 20,-51 11,-10 24,-14 39,-14 18,0 32,5 43,17 11,11 16,27 16,47 0,16 -2,28 -7,38 -5,9 -12,16 -21,21 -10,5 -20,8 -31,8 -17,0 -32,-6 -42,-17 -11,-11 -17,-28 -17,-49 z m 22,0 c 0,16 4,28 11,36 7,8 16,12 26,12 11,0 20,-4 27,-12 7,-8 10,-20 10,-36 0,-16 -3,-28 -10,-36 -7,-8 -16,-12 -27,-12 -10,0 -19,4 -26,12 -7,8 -11,20 -11,36 z m 121,63 v -126 h 19 v 18 c 10,-13 23,-20 40,-20 8,0 15,1 21,4 7,2 11,6 15,10 3,5 5,10 6,16 1,4 1,11 1,21 v 77 h -21 v -76 c 0,-9 -1,-15 -2,-20 -2,-4 -5,-7 -9,-10 -4,-3 -9,-4 -15,-4 -9,0 -17,3 -24,9 -6,6 -9,16 -9,33 v 68 z m 221,-41 22,3 c -3,13 -10,23 -19,30 -10,7 -21,11 -36,11 -18,0 -33,-6 -44,-17 -11,-11 -16,-27 -16,-48 0,-21 6,-37 16,-49 11,-12 25,-17 43,-17 17,0 30,5 41,17 10,11 16,27 16,48 0,1 0,3 0,6 h -94 c 1,14 5,24 12,31 7,8 15,11 26,11 8,0 14,-2 20,-6 5,-4 10,-10 13,-20 z m -70,-34 h 70 c -1,-10 -3,-18 -8,-24 -7,-8 -15,-12 -26,-12 -10,0 -18,3 -25,10 -6,7 -10,15 -11,26 z" id="path9" style="fill:#00334e"/>
          <path inkscape:connector-curvature="0" class="fil1" d="m 2475,3433 v 153 h -448 c -40,0 -69,10 -87,29 -18,19 -27,44 -27,74 0,13 2,26 6,39 3,12 10,23 20,33 10,10 23,18 40,24 16,5 37,8 63,8 h 205 c 60,0 109,8 147,23 38,15 68,35 90,59 22,24 37,52 45,83 8,31 12,62 12,93 0,37 -5,71 -15,103 -11,31 -27,58 -49,81 -23,22 -52,40 -87,53 -35,13 -77,20 -127,20 h -488 v -153 h 493 c 41,0 72,-10 91,-31 20,-20 29,-46 29,-78 0,-14 -2,-28 -6,-41 -4,-13 -12,-25 -22,-35 -10,-10 -24,-18 -42,-24 -18,-6 -40,-9 -67,-9 h -203 c -59,0 -107,-7 -144,-22 -37,-15 -67,-34 -88,-58 -21,-25 -36,-52 -44,-82 -8,-30 -12,-60 -12,-91 0,-36 5,-69 15,-100 10,-31 26,-57 48,-80 22,-22 50,-40 85,-52 34,-13 76,-19 124,-19 z m 326,875 h -169 l 307,-778 c 17,-41 40,-71 70,-87 29,-17 68,-26 114,-26 46,0 84,9 114,26 30,16 52,46 68,87 l 295,778 h -169 l -266,-704 c -8,-20 -22,-30 -43,-30 -21,0 -35,10 -44,30 z m 1084,-875 v 371 h 85 c 37,0 67,-2 91,-4 24,-2 43,-7 59,-15 16,-7 29,-18 40,-33 10,-14 22,-33 34,-57 l 133,-262 h 165 l -137,272 c -20,39 -41,71 -64,97 -22,26 -52,47 -88,62 21,6 39,13 54,22 16,9 30,20 44,34 13,13 26,29 38,48 12,18 25,40 38,65 l 141,275 h -171 l -134,-259 c -12,-24 -23,-42 -35,-56 -11,-14 -25,-25 -42,-33 -18,-7 -39,-12 -65,-15 -26,-2 -60,-3 -101,-3 h -85 v 366 h -153 v -875 z m 1364,0 v 153 h -255 v 722 h -155 v -722 h -255 v -153 z m 299,0 v 875 h -153 v -875 z" id="path11" style="fill:#00334e"/>
        </g>
        <g id="g29">
          <path inkscape:connector-curvature="0" class="fil1" d="m 3874,1307 220,127 219,127 c 250,144 220,67 220,381 v 254 254 c 0,288 52,223 -220,380 l -219,127 -220,127 c -250,144 -168,157 -440,0 l -220,-127 -219,-127 c -250,-144 -220,-67 -220,-380 v -254 -254 c 0,-288 -52,-224 220,-381 l 219,-127 220,-127 c 250,-144 168,-156 440,0 z m -31,124 190,109 189,110 c 215,124 189,57 189,327 v 219 218 c 0,248 45,193 -189,328 l -189,109 -190,110 c -215,124 -144,135 -378,0 l -189,-110 -190,-109 c -214,-124 -189,-58 -189,-328 v -218 -219 c 0,-248 -45,-192 189,-327 l 190,-110 189,-109 c 215,-124 144,-135 378,0 z" id="path15" style="fill:#00334e"/>
          <path inkscape:connector-curvature="0" class="fil1" d="m 3094,2597 c 18,65 35,115 56,157 l 126,72 187,107 c 195,111 176,120 292,49 -50,-90 -123,-171 -210,-243 -228,-189 -279,-294 -286,-585 -124,58 -207,287 -165,443 z" id="path17" style="fill:#00334e"/>
          <path inkscape:connector-curvature="0" class="fil1" d="m 3318,2329 c 57,211 114,264 275,406 l 73,66 c 56,54 95,108 123,160 14,-9 30,-18 48,-28 l 187,-107 2,-1 c -40,-134 -136,-253 -256,-353 -229,-189 -280,-295 -287,-586 -124,58 -207,288 -165,443 z" id="path19" style="fill:#00334e"/>
          <path inkscape:connector-curvature="0" class="fil1" d="m 3542,2062 c 57,210 114,263 275,405 l 73,67 c 98,94 145,188 169,272 l 151,-86 c 23,-13 43,-24 60,-34 -4,-187 -118,-351 -276,-482 -228,-189 -280,-294 -287,-585 -124,58 -206,287 -165,443 z" id="path21" style="fill:#00334e"/>
          <path inkscape:connector-curvature="0" class="fil2" d="m 3103,2585 c 18,66 36,116 57,159 l 127,73 188,107 c 196,112 178,122 295,49 -50,-90 -124,-172 -212,-244 -230,-191 -281,-297 -288,-590 -125,58 -209,289 -167,446 z" id="path23" style="fill:#63b241"/>
          <path inkscape:connector-curvature="0" class="fil3" d="m 3329,2316 c 58,212 115,265 277,408 l 74,68 c 57,54 96,108 124,160 15,-8 30,-18 48,-28 l 189,-107 2,-2 c -40,-135 -137,-255 -259,-356 -230,-190 -281,-297 -288,-590 -125,59 -209,290 -167,447 z" id="path25" style="fill:#ffcc29"/>
          <path inkscape:connector-curvature="0" class="fil4" d="m 3556,2046 c 57,212 114,266 276,409 l 74,67 c 99,94 146,189 170,274 l 153,-87 c 23,-13 43,-24 60,-34 -4,-189 -119,-353 -278,-486 -231,-190 -282,-296 -289,-590 -125,59 -209,290 -166,447 z" id="path27" style="fill:#ff1025"/>
        </g>
      </g>
    </g>
  </g>
</svg>