<?xml version="1.0" encoding="UTF-8" standalone="no"?>
<!-- Created with Inkscape (http://www.inkscape.org/) -->

<svg
   xmlns:dc="http://purl.org/dc/elements/1.1/"
   xmlns:cc="http://creativecommons.org/ns#"
   xmlns:rdf="http://www.w3.org/1999/02/22-rdf-syntax-ns#"
   xmlns:svg="http://www.w3.org/2000/svg"
   xmlns="http://www.w3.org/2000/svg"
   xmlns:sodipodi="http://sodipodi.sourceforge.net/DTD/sodipodi-0.dtd"
   xmlns:inkscape="http://www.inkscape.org/namespaces/inkscape"
   width="300"
   height="200"
   viewBox="0 0 79.374998 52.916668"
   version="1.1"
   id="svg8"
   inkscape:version="0.92.2 5c3e80d, 2017-08-06"
   sodipodi:docname="tatalogam.svg">
  <defs
     id="defs2" />
  <sodipodi:namedview
     id="base"
     pagecolor="#ffffff"
     bordercolor="#666666"
     borderopacity="1.0"
     inkscape:pageopacity="0.0"
     inkscape:pageshadow="2"
     inkscape:zoom="1.4"
     inkscape:cx="242.70243"
     inkscape:cy="142.60153"
     inkscape:document-units="px"
     inkscape:current-layer="layer1"
     showgrid="false"
     units="px"
     inkscape:window-width="1600"
     inkscape:window-height="835"
     inkscape:window-x="0"
     inkscape:window-y="33"
     inkscape:window-maximized="1" />
  <metadata
     id="metadata5">
    <rdf:RDF>
      <cc:Work
         rdf:about="">
        <dc:format>image/svg+xml</dc:format>
        <dc:type
           rdf:resource="http://purl.org/dc/dcmitype/StillImage" />
        <dc:title />
      </cc:Work>
    </rdf:RDF>
  </metadata>
  <g
     inkscape:label="Layer 1"
     inkscape:groupmode="layer"
     id="layer1"
     transform="translate(0,-244.08332)">
    <rect
       style="fill:#ffffff;fill-opacity:0.99680511;stroke:none;stroke-width:0.07016739;stroke-linecap:butt;stroke-linejoin:round;stroke-miterlimit:4;stroke-dasharray:none;stroke-opacity:1"
       id="rect4504"
       width="79.375"
       height="52.916668"
       x="-2.8421709e-14"
       y="244.08331" />
    <g
       style="clip-rule:evenodd;fill-rule:evenodd;image-rendering:optimizeQuality;shape-rendering:geometricPrecision;text-rendering:geometricPrecision"
       id="Layer_x0020_1"
       transform="matrix(0.00226713,0,0,0.00239737,14.146013,240.47504)">
      <metadata
         id="CorelCorpID_0Corel-Layer" />
      <g
         id="_699834112">
        <path
           class="fil0"
           d="M 5385,7379 V 4560 c 2285,1473 4052,3323 5365,5211 -416,555 -798,1114 -1150,1668 C 8488,10022 7112,8642 5385,7379 Z"
           id="path11"
           inkscape:connector-curvature="0"
           style="fill:#cbda06" />
        <path
           class="fil0"
           d="M 5385,10344 V 8013 c 1618,1271 2843,2695 3771,4149 -305,515 -583,1023 -840,1520 -685,-1156 -1615,-2287 -2931,-3339 z"
           id="path13"
           inkscape:connector-curvature="0"
           style="fill:#cbda06" />
        <path
           class="fil0"
           d="M 7353,15712 H 5385 v -4807 c 1251,1096 2044,2305 2555,3531 -212,438 -407,865 -587,1276 z"
           id="path15"
           inkscape:connector-curvature="0"
           style="fill:#cbda06" />
        <path
           class="fil1"
           d="M 5438,4000 H 17044 C 14620,5482 12730,7279 11241,9137 9752,7279 7862,5482 5438,4000 Z"
           id="path17"
           inkscape:connector-curvature="0"
           style="fill:#005ba8" />
        <path
           class="fil1"
           d="m 11218,10546 c -795,1655 -1343,3410 -1704,5221 l 3462,-29 c -408,-1775 -852,-3535 -1758,-5192 z"
           id="path19"
           inkscape:connector-curvature="0"
           style="fill:#005ba8" />
        <path
           class="fil0"
           d="m 17097,10906 v 4807 h -1968 c -180,-411 -375,-837 -587,-1276 511,-1226 1303,-2435 2555,-3531 z"
           id="path21"
           inkscape:connector-curvature="0"
           style="fill:#cbda06" />
        <path
           class="fil0"
           d="m 17097,8014 v 2331 c -1316,1052 -2246,2183 -2931,3339 -257,-497 -535,-1006 -840,-1520 928,-1455 2154,-2878 3771,-4149 z"
           id="path23"
           inkscape:connector-curvature="0"
           style="fill:#cbda06" />
        <path
           class="fil0"
           d="m 17097,4560 v 2819 c -1727,1263 -3103,2643 -4215,4060 -351,-554 -733,-1113 -1150,-1668 1313,-1888 3079,-3739 5364,-5211 z"
           id="path25"
           inkscape:connector-curvature="0"
           style="fill:#cbda06" />
      </g>
      <path
         class="fil2"
         d="m -1740,18735 h -1582 v 461 h 524 v 1855 h 527 v -1855 h 530 v -461 z m 1306,0 h -668 l -611,2316 h 533 l 126,-539 h 533 l 135,539 h 545 z m -557,1378 105,-464 c 7,-33 14,-70 22,-112 8,-41 16,-83 25,-127 8,-44 17,-87 25,-129 8,-42 16,-81 24,-117 h 6 c 8,35 16,74 24,116 9,41 17,84 25,128 8,43 17,86 25,127 8,41 16,79 24,114 l 102,464 H -992 Z M 1769,18735 H 187 v 461 h 524 v 1855 h 527 v -1855 h 530 v -461 z m 1306,0 h -668 l -611,2316 h 533 l 126,-539 h 533 l 135,539 h 545 z m -557,1378 105,-464 c 7,-33 14,-70 22,-112 8,-41 16,-83 25,-127 8,-44 17,-87 25,-129 9,-42 16,-81 24,-117 h 6 c 8,35 16,74 24,116 8,41 17,84 25,128 8,43 17,86 25,127 8,41 16,79 24,114 l 102,464 h -408 z m 2727,491 h -767 v -1870 h -527 v 2316 h 1294 z m 1160,-1903 c -125,0 -239,21 -342,61 -103,40 -194,98 -274,171 -79,73 -146,160 -201,260 -54,100 -96,209 -124,328 -28,119 -42,244 -42,375 0,128 12,250 37,368 25,117 63,225 113,325 50,99 114,186 189,260 76,74 165,131 266,172 102,41 216,62 344,62 147,0 280,-26 399,-78 120,-51 222,-129 309,-231 86,-102 152,-230 199,-383 46,-152 70,-329 70,-531 0,-94 -8,-188 -23,-282 -15,-93 -39,-183 -72,-269 -32,-86 -74,-167 -124,-240 -50,-74 -110,-138 -180,-193 -70,-55 -150,-98 -240,-128 -90,-31 -192,-46 -304,-47 z m -15,434 c 67,1 126,20 177,59 51,39 93,92 127,161 33,68 59,147 76,237 16,89 25,185 25,287 0,113 -9,217 -25,311 -17,94 -43,175 -77,244 -34,68 -76,121 -126,158 -50,37 -109,56 -176,57 -67,-1 -126,-20 -177,-56 -52,-37 -95,-90 -130,-158 -35,-68 -62,-148 -80,-241 -18,-93 -26,-195 -26,-306 0,-100 8,-196 25,-286 17,-90 42,-170 76,-240 34,-70 77,-125 129,-165 52,-40 113,-61 183,-61 z m 2951,581 h -773 v 416 h 276 v 485 c -15,8 -37,13 -65,16 -28,3 -61,5 -99,5 -80,0 -154,-15 -223,-44 -69,-30 -130,-75 -182,-135 -52,-60 -93,-136 -122,-227 -29,-91 -44,-198 -45,-321 0,-132 17,-245 50,-339 32,-94 78,-172 137,-232 59,-60 128,-104 207,-133 79,-28 165,-43 259,-42 65,0 122,4 173,10 51,7 97,16 138,27 40,12 78,25 111,40 l 99,-437 c -34,-16 -77,-31 -130,-45 -53,-14 -113,-25 -182,-34 -68,-9 -143,-13 -224,-13 -130,0 -255,16 -374,48 -119,32 -228,79 -327,143 -99,64 -186,144 -259,240 -73,96 -131,208 -171,336 -40,128 -61,272 -61,432 0,121 12,237 36,346 23,109 59,209 106,301 47,91 106,170 176,238 92,90 206,158 340,205 134,46 293,70 475,70 62,0 125,-4 188,-10 62,-7 123,-15 181,-26 58,-11 112,-22 161,-35 49,-13 91,-26 126,-39 v -1243 z m 1480,-983 h -668 l -611,2316 h 533 l 126,-539 h 533 l 135,539 h 545 z m -557,1378 105,-464 c 7,-33 14,-70 22,-112 8,-41 16,-83 25,-127 8,-44 17,-87 25,-129 9,-42 16,-81 24,-117 h 6 c 8,35 16,74 24,116 9,41 17,84 25,128 8,43 17,86 25,127 8,41 16,79 24,114 l 102,464 h -408 z m 3557,-1378 h -635 l -198,746 c -23,90 -45,182 -67,277 -22,94 -42,188 -62,282 -19,94 -37,185 -53,275 h -12 c -23,-137 -50,-275 -80,-414 -31,-139 -63,-278 -96,-416 l -186,-749 h -644 l -159,2316 h 473 l 39,-824 c 4,-84 9,-174 13,-270 4,-97 9,-196 13,-297 4,-101 7,-200 10,-296 h 9 c 16,95 34,192 53,290 19,97 39,192 59,283 20,91 40,173 59,248 l 207,824 h 399 l 228,-830 c 21,-75 44,-157 67,-248 24,-90 47,-184 71,-281 24,-97 45,-192 65,-286 h 9 c -1,102 -1,204 1,304 2,100 4,198 8,292 4,94 8,182 12,264 l 33,827 h 497 l -132,-2316 z m 2415,1870 h -767 v -1870 h -527 v 2316 h 1294 z m 1603,6 h -788 v -539 h 704 v -431 h -704 v -464 h 743 v -440 h -1270 v 2316 h 1315 v -440 z m 1600,-1804 c -37,-18 -80,-35 -130,-50 -50,-15 -106,-27 -169,-37 -62,-9 -130,-14 -204,-14 -134,1 -253,18 -357,54 -103,35 -191,85 -262,149 -71,64 -125,138 -161,223 -37,85 -55,176 -55,275 1,138 47,263 140,376 93,112 231,211 414,295 80,35 145,69 196,101 51,32 88,66 113,102 24,36 36,77 36,123 0,46 -12,87 -36,122 -24,35 -61,62 -109,82 -49,20 -110,29 -184,30 -62,0 -124,-6 -186,-17 -61,-11 -119,-26 -174,-44 -54,-18 -102,-37 -144,-59 l -90,443 c 37,20 85,39 144,58 59,18 126,32 200,44 73,11 150,17 228,18 140,-1 265,-18 374,-53 109,-35 201,-85 277,-149 75,-64 132,-140 171,-228 39,-88 59,-185 59,-291 1,-96 -17,-185 -53,-268 -36,-82 -92,-158 -169,-227 -77,-69 -177,-131 -299,-186 -93,-42 -168,-79 -223,-112 -55,-32 -95,-65 -119,-97 -24,-32 -36,-70 -35,-112 0,-38 11,-74 33,-106 22,-32 56,-58 101,-77 44,-19 101,-29 169,-30 62,0 118,5 170,15 51,10 96,22 136,37 39,15 73,29 101,43 l 99,-434 z m 1816,-72 h -1582 v 461 h 524 v 1855 h 527 v -1855 h 530 v -461 z m 1306,0 h -668 l -611,2316 h 533 l 126,-539 h 533 l 135,539 h 545 z m -557,1378 105,-464 c 7,-33 14,-70 22,-112 8,-41 16,-83 25,-127 8,-44 17,-87 25,-129 9,-42 16,-81 24,-117 h 6 c 8,35 16,74 24,116 8,41 17,84 25,128 8,43 17,86 25,127 8,41 16,79 24,114 l 102,464 h -408 z m 2589,-156 c 72,-28 136,-70 194,-124 57,-54 103,-119 137,-195 34,-75 51,-159 52,-250 -1,-105 -16,-195 -46,-270 -30,-74 -70,-136 -122,-185 -51,-49 -109,-88 -173,-117 -64,-29 -130,-50 -199,-64 -68,-13 -135,-22 -199,-26 -64,-4 -123,-6 -175,-5 -80,0 -158,2 -233,7 -75,4 -146,10 -213,17 -66,7 -126,16 -181,24 v 2283 h 524 v -902 h 102 c 58,-1 108,9 147,30 39,20 72,57 98,109 26,52 47,125 63,218 17,91 35,174 52,248 18,74 34,136 50,187 16,51 28,88 38,110 h 545 c -11,-23 -23,-58 -37,-104 -14,-46 -28,-100 -43,-160 -14,-60 -30,-124 -45,-190 -15,-66 -30,-130 -45,-193 -17,-74 -39,-140 -65,-197 -25,-57 -57,-106 -94,-146 -37,-40 -82,-70 -135,-91 v -12 z m -632,-198 v -626 c 15,-4 36,-8 65,-11 28,-3 63,-4 105,-4 31,0 65,4 101,12 36,9 71,24 103,46 33,22 60,54 80,96 21,41 32,95 32,160 0,63 -14,120 -41,169 -27,48 -67,87 -120,115 -52,28 -115,42 -189,43 h -138 z m 1366,1291 h 527 v -2316 h -527 z"
         id="path27"
         inkscape:connector-curvature="0"
         style="fill:#005ba8;fill-rule:nonzero" />
    </g>
  </g>
</svg>
